<svg xmlns="http://www.w3.org/2000/svg" width="740" height="602.947" viewBox="0 0 740 602.947">
  <g id="Group_660" data-name="Group 660" transform="translate(-99 -1831.094)">
    <path id="Path_502" data-name="Path 502" d="M1015.116,791.069c29.068-100.5,41.545-248.759.065-344.81-27.967-64.761-71.125-84.445-118.3-103.14-40.08-15.883-61.688-64.461-93.639-98.69-45.332-48.564-104.9-56.188-159.24-56.3-65.885-.142-141.951,9.1-196.648,69.06-31.077,34.067-56.766,83.966-55.224,143.469,1.353,52.215,18.212,97.6-17.234,132.9-29.463,29.34-56.062,53.426-67.671,106.6C296.3,690.2,301.013,754.806,329.578,790.682Z" transform="translate(-202.81 1642.971)" fill="#52bbe1" opacity="0.1"/>
    <g id="Group_353" data-name="Group 353" transform="translate(151.214 2142.348)">
      <g id="Group_346" data-name="Group 346" transform="translate(0 268.752)" opacity="0.15">
        <path id="Path_496" data-name="Path 496" d="M33.34,309.185H658.88c14.793,0,14.793-22.941,0-22.941H33.34c-14.793,0-14.793,22.941,0,22.941Z" transform="translate(-22.246 -286.244)" fill="#52bbe1"/>
      </g>
      <path id="Path_497" data-name="Path 497" d="M457.459,300.918v-6.884h-7.6c-16.2-6.373-32.468-16.6-43.472-30.414v-8.96h1.752a1.657,1.657,0,1,0,0-3.313h-1.752V224.073h1.752a1.657,1.657,0,1,0,0-3.313h-1.752V198.073l-3.811-15.832-3.808,15.832H394.1l-5.466-22.715-5.466,22.715h-4.663l-3.811-15.832-3.811,15.832v22.686h-1.749a1.657,1.657,0,0,0,0,3.313h1.749v5.344H265.676v-5.344h1.751a1.657,1.657,0,1,0,0-3.313h-1.751V198.073l-3.811-15.832-3.81,15.832h-4.663l-5.468-22.715-5.466,22.715H237.8l-3.81-15.832-3.811,15.832v22.686h-1.752a1.657,1.657,0,0,0,0,3.313h1.752v27.275h-1.752a1.657,1.657,0,0,0,0,3.313h1.752v7.751c-11,14.42-27.72,25.065-44.39,31.622H179.1v2.433c-.085.028-.171.058-.255.088a.961.961,0,0,0,.255,1.873v2.49h51.075V303.6h-.1a7.671,7.671,0,0,0-7.647,7.647V334.19h50.983V316.216c26.185-18.93,62.317-16.727,89.726-.641V334.19h50.98V311.251a7.671,7.671,0,0,0-7.647-7.647h-.094v-2.685Zm-51.077-15.667h1.752a1.657,1.657,0,0,0,0-3.315h-1.752v-4.4a97.779,97.779,0,0,0,23.524,16.5H406.382Zm38.5,8.784H433.912a96.679,96.679,0,0,1-27.53-18.934v-8.485C416.534,278.587,430.538,287.788,444.883,294.035ZM265.676,237.829H370.884v3.251H265.676Zm1.751,44.107h-1.751V254.661h1.751a1.657,1.657,0,1,0,0-3.313h-1.751v-7.019H370.884v7.019h-1.749a1.657,1.657,0,0,0,0,3.313h1.749v27.275h-1.749a1.657,1.657,0,0,0,0,3.315h1.749v8.784H265.676v-8.784h1.751a1.657,1.657,0,1,0,0-3.315Zm-37.249-16.384v8.639a96,96,0,0,1-28.446,19.844H190.76C205.532,287.6,219.966,278.05,230.178,265.552Zm-24.441,28.482a97.087,97.087,0,0,0,24.441-17.4v5.3h-1.752a1.657,1.657,0,0,0,0,3.315h1.752v8.784ZM265.77,303.6h-.094v-2.685h32.888a75.6,75.6,0,0,0-25.147,10.715v-.382A7.671,7.671,0,0,0,265.77,303.6Zm105.114,0h-.092a7.665,7.665,0,0,0-7.638,7.552,97.186,97.186,0,0,0-27.143-10.237h34.873Z" transform="translate(43.56 -64.285)" fill="#52bbe1" opacity="0.15"/>
      <path id="Path_498" data-name="Path 498" d="M504.039,242.094c-.04,0-.075.007-.115.009-.06-.532-.118-1.065-.189-1.594,0-.033.011-.065.009-.1s-.024-.055-.034-.088a64.165,64.165,0,0,0-1.762-8.5v-.006c.054-.017.111-.014.163-.036,2.167-.84,2.826-4.348,1.476-7.837s-4.2-5.635-6.37-4.795c-.078.03-.138.088-.211.124q-1-1.918-2.109-3.757c-.019-.036-.019-.074-.04-.109s-.051-.036-.068-.061a66.043,66.043,0,0,0-4.974-7.025.917.917,0,0,0-.091-.178.815.815,0,0,0-.114-.1,2.814,2.814,0,0,0,.252-.179c1.642-1.644.827-5.121-1.817-7.766s-6.12-3.458-7.763-1.814a2.251,2.251,0,0,0-.225.31c-1.027-.828-2.073-1.631-3.15-2.4a.832.832,0,0,0-.148-.161.912.912,0,0,0-.182-.075c-1.668-1.17-3.406-2.238-5.182-3.253a2.589,2.589,0,0,0,.229-.35c.937-2.124-1.075-5.074-4.5-6.584s-6.958-1.012-7.9,1.113a3.217,3.217,0,0,0-.1.367,63.614,63.614,0,0,0-6.669-1.779c-.016,0-.027-.016-.041-.017l-.067-.009a63.2,63.2,0,0,0-6.338-.967,3,3,0,0,0,.028-.375c0-2.324-3.032-4.209-6.773-4.209s-6.773,1.886-6.773,4.209a2.461,2.461,0,0,0,.028.354,63.4,63.4,0,0,0-6.56.988l-.065.009c-.014,0-.023.014-.04.017-1.219.253-2.417.549-3.61.872a2.891,2.891,0,0,0-.065-.313c-.839-2.167-4.35-2.825-7.835-1.475s-5.637,4.2-4.8,6.369a2.439,2.439,0,0,0,.151.257c-.111.057-.23.1-.343.162a.867.867,0,0,0-.192.055.984.984,0,0,0-.139.115,65.448,65.448,0,0,0-7.279,4.442.893.893,0,0,0-.179.073.931.931,0,0,0-.149.161c-1.027.734-2.026,1.5-3.012,2.294-.053-.064-.085-.142-.145-.2-1.644-1.644-5.119-.829-7.764,1.814s-3.46,6.122-1.817,7.766c.037.036.088.054.125.087-.011.014-.023.026-.033.037a.944.944,0,0,0-.172.155.922.922,0,0,0-.09.179,65.576,65.576,0,0,0-4.976,7.026c-.019.023-.053.033-.071.06a.957.957,0,0,0-.036.107c-.21.344-.39.708-.593,1.057-.03-.014-.051-.04-.082-.054-2.126-.938-5.074,1.076-6.582,4.5s-1.014,6.956,1.112,7.895l.011,0c-.287.867-.584,1.731-.835,2.615a1.054,1.054,0,0,0-.075.162.981.981,0,0,0-.007.129,64.348,64.348,0,0,0-1.763,8.5.59.59,0,0,0-.033.088c0,.034.009.065.007.1-.073.529-.131,1.061-.189,1.594-2.275.09-4.1,3.081-4.1,6.766,0,3.633,1.78,6.592,4.011,6.759.082.811.174,1.62.282,2.423,0,.033-.011.064-.007.1a.635.635,0,0,0,.033.087,64.45,64.45,0,0,0,1.593,7.848c-1.975,1-2.551,4.348-1.25,7.7,1.288,3.327,3.936,5.4,6.058,4.862.755,1.495,1.546,2.966,2.41,4.39.017.034.018.074.038.109s.054.036.071.061a65.282,65.282,0,0,0,4.929,6.965c-1.3,1.735-.465,4.961,2.035,7.463,2.488,2.484,5.688,3.325,7.43,2.056q1.7,1.386,3.485,2.669a1.107,1.107,0,0,0,.152.165.982.982,0,0,0,.255.124c1.607,1.126,3.283,2.154,4.99,3.138-.545,2.082,1.394,4.755,4.6,6.174.057.026.114.038.171.063q-3.908,10.093-7.811,20.187c-1.441,3.714,4.525,5.308,5.945,1.641q4.2-10.851,8.4-21.7a3.018,3.018,0,0,0,.939-.909,63.138,63.138,0,0,0,6.8,1.839c.016,0,.026.016.04.018l.07.007a62.8,62.8,0,0,0,6.571.991c.378,2.1,3.244,3.737,6.729,3.737s6.375-1.647,6.735-3.76a63.4,63.4,0,0,0,6.348-.968l.067-.007c.013,0,.026-.014.041-.018,1.389-.29,2.754-.637,4.111-1.015.705,1.207,2.325,1.841,4.289,1.787q3.871,10,7.74,20c1.419,3.667,7.384,2.073,5.947-1.641q-3.946-10.2-7.894-20.4c1.8-1.355,2.763-3.121,2.413-4.639a.286.286,0,0,0,.087-.021.736.736,0,0,0,.142-.117,65.148,65.148,0,0,0,7.271-4.437.79.79,0,0,0,.186-.075.95.95,0,0,0,.149-.164c1.23-.879,2.425-1.8,3.588-2.757,1.712,1.4,5.008.572,7.551-1.968,2.572-2.572,3.391-5.918,1.927-7.61a65.914,65.914,0,0,0,4.816-6.816c.017-.026.053-.034.068-.06s.021-.074.038-.109c.355-.586.673-1.2,1.008-1.8,2.116.822,4.984-1.165,6.47-4.528,1.5-3.406,1.015-6.919-1.085-7.879.189-.606.4-1.2.577-1.815a.864.864,0,0,0,.073-.161.792.792,0,0,0,.01-.128,64.581,64.581,0,0,0,1.762-8.5.919.919,0,0,0,.034-.088c0-.036-.01-.068-.009-.1.108-.8.2-1.6.28-2.41h.024c2.322,0,4.208-3.033,4.208-6.773S506.361,242.094,504.039,242.094Zm-8.8,5.025c.843.267,1.944.539,3.316.867.4.094.84.2,1.294.314-.01.186-.017.375-.017.567a10.794,10.794,0,0,0,.085,1.372c-.475.118-.947.232-1.362.331-1.372.328-2.473.6-3.316.867.028-.718.054-1.436.054-2.161S495.268,247.838,495.24,247.12Zm7.475-4.68a6.365,6.365,0,0,0-2.727,4.624c-.361-.09-.735-.181-1.145-.279-1.149-.274-2.7-.646-3.669-.987-.014-.239-.034-.476-.053-.714.921-.478,2.434-1.065,3.554-1.5a30.339,30.339,0,0,0,3.986-1.736C502.684,242.046,502.694,242.245,502.715,242.44Zm-4.484,0c-1.337.518-2.4.938-3.212,1.324-.141-1.438-.347-2.855-.594-4.256.876.151,2,.27,3.416.41a25.75,25.75,0,0,1,4.513.681A25.747,25.747,0,0,1,498.231,242.436Zm4.092-3.13a30.014,30.014,0,0,0-4.361-.62c-1.176-.117-2.763-.274-3.77-.482-.048-.236-.1-.468-.154-.7.849-.6,2.261-1.384,3.309-1.965a30.1,30.1,0,0,0,3.727-2.277Q501.841,236.23,502.324,239.306Zm-7.241-15.2a9.749,9.749,0,0,0,.3,1.755c-.412.317-.825.627-1.186.9-1.155.865-2.066,1.561-2.743,2.153-.522-1.341-1.084-2.665-1.7-3.952.974-.1,2.163-.309,3.41-.53C493.809,224.317,494.46,224.2,495.083,224.1Zm3.209,6.611c-.728.009-1.51.034-2.306.065-.919.036-1.84.071-2.643.071-.512,0-.887-.017-1.185-.04-.078-.222-.146-.449-.227-.67.759-.707,2.046-1.678,3-2.4.306-.23.583-.441.856-.648A9.349,9.349,0,0,0,498.293,230.716Zm-6.84,38.931c.675.59,1.588,1.287,2.74,2.153.283.212.6.447.913.69-.149.272-.3.54-.431.833-.148.336-.262.671-.373,1.007-.378-.065-.761-.134-1.145-.2-1.247-.222-2.437-.431-3.41-.529C490.368,272.31,490.929,270.986,491.453,269.647Zm4.313,1.8c-.266-.2-.535-.407-.833-.63-.956-.72-2.243-1.689-3-2.4.081-.22.149-.447.227-.668.3-.023.671-.04,1.183-.04.8,0,1.723.036,2.642.071.94.036,1.877.071,2.7.071a13.705,13.705,0,0,0,1.685-.082c-.087.289-.192.57-.282.856A5.94,5.94,0,0,0,495.766,271.443Zm2.919-4.825c-.811,0-1.733-.037-2.652-.071-.938-.036-1.873-.073-2.692-.073-.269,0-.519.006-.757.014q.655-2.039,1.158-4.142c.752.492,1.753,1.057,3.009,1.755a26.021,26.021,0,0,1,3.834,2.385A9.093,9.093,0,0,1,498.685,266.618Zm-6.1-34.546c.239.008.488.014.758.014.819,0,1.753-.037,2.693-.074.919-.034,1.841-.07,2.651-.07a9.229,9.229,0,0,1,1.9.131,26.127,26.127,0,0,1-3.834,2.386c-1.256.7-2.257,1.261-3.009,1.755C493.407,234.814,493.024,233.43,492.585,232.072Zm3.436-11.986a5.091,5.091,0,0,0-.944,2.77c-.673.1-1.389.229-2.136.363a37.5,37.5,0,0,1-3.805.549c-.1-.2-.206-.41-.314-.611.653-.8,1.8-1.947,2.656-2.8a30.718,30.718,0,0,0,2.956-3.177C494.986,218.134,495.513,219.1,496.02,220.086Zm-15.889,74.372c-.462-.3-.926-.6-1.344-.882-1.2-.792-2.166-1.416-2.958-1.849,1.091-.947,2.154-1.927,3.17-2.951.384.809.944,1.809,1.654,3.059.161.28.337.592.516.911A9.406,9.406,0,0,0,480.131,294.458Zm1.594-3.234c-.6-1.048-1.4-2.46-1.806-3.409.158-.168.32-.331.476-.5.953.333,2.336,1,3.518,1.568.489.233.934.447,1.355.641a9.917,9.917,0,0,0-3.174,2.166c-.026.023-.043.05-.067.074Zm5.5-2.176c-.856-.355-1.877-.846-2.779-1.28-1.3-.626-2.339-1.111-3.175-1.435.953-1.082,1.873-2.194,2.742-3.346.489.748,1.179,1.665,2.049,2.8a36.757,36.757,0,0,1,2.372,3.336A4.2,4.2,0,0,0,487.227,289.048Zm-11.882-5.369-28.709-28.71a9.559,9.559,0,0,0,.768-1.163l37.808,14.853A50.06,50.06,0,0,1,475.345,283.679Zm-11.447,21c-.422-1.091-.847-2.186-1.268-3.276.613.653,1.28,1.419,1.819,2.043.4.468.762.873,1.1,1.249A7.919,7.919,0,0,0,463.9,304.682Zm1.483-2.041c-.964-1.115-1.724-1.961-2.346-2.577q1.96-.923,3.834-2c.152.883.422,2,.768,3.39a25.55,25.55,0,0,1,.879,4.464A25.866,25.866,0,0,1,465.381,302.641Zm-5.119-8.088-2.542-5.834q-6.056-15.641-12.107-31.282L473.6,285.424A50.086,50.086,0,0,1,460.261,294.553Zm-2.783,10.553c-.613-.936-1.121-1.682-1.553-2.254.2-.065.4-.138.6-.2Q457,303.879,457.479,305.106Zm-12.973,3.346c-.114.673-.25,1.479-.4,2.237a7.548,7.548,0,0,0-1.763-.8c-.138-.424-.267-.839-.384-1.213-.428-1.375-.779-2.47-1.109-3.306,1.445-.043,2.878-.129,4.294-.28C444.937,305.947,444.74,307.061,444.506,308.452Zm-10.258,2.368c-.158-.795-.3-1.654-.422-2.368-.236-1.391-.431-2.506-.647-3.366,1.418.151,2.853.239,4.3.281-.331.836-.683,1.931-1.111,3.306-.124.4-.263.84-.407,1.291A7.221,7.221,0,0,0,434.248,310.819Zm-15.939-16.155a50.1,50.1,0,0,1-13.579-9.24l27.986-27.988Q425.515,276.051,418.309,294.664Zm4.1,8.188c-.432.569-.94,1.315-1.55,2.248q.476-1.224.948-2.451C422,302.714,422.2,302.786,422.4,302.852Zm-10.2.647a8.012,8.012,0,0,0-1.992-.054c.159-.685.334-1.394.482-1.992.348-1.394.619-2.505.769-3.39q1.873,1.073,3.832,2c-.623.616-1.381,1.463-2.346,2.578Zm1.367.307.311-.357c.542-.627,1.211-1.4,1.826-2.049q-.54,1.4-1.082,2.794A10.892,10.892,0,0,0,413.566,303.806Zm-22.438-14.774a3.733,3.733,0,0,0-1.287.188,34.209,34.209,0,0,1,2.422-3.43c.87-1.138,1.561-2.055,2.052-2.8.867,1.153,1.786,2.264,2.74,3.346-.838.323-1.876.811-3.175,1.435C392.993,288.2,391.987,288.677,391.129,289.031Zm2.022.449q.587-.275,1.266-.6a37.583,37.583,0,0,1,3.522-1.557c.154.166.314.327.469.493-.41.947-1.209,2.362-1.806,3.409l-.225.4A9.73,9.73,0,0,0,393.151,289.481Zm4.1,3.107c.149-.263.3-.522.431-.756.708-1.247,1.266-2.248,1.65-3.057,1.018,1.027,2.082,2,3.174,2.951-.794.435-1.763,1.059-2.961,1.851-.37.245-.771.509-1.176.774A9.454,9.454,0,0,0,397.246,292.588Zm-3.373-22.254L431.1,254.1a9.162,9.162,0,0,0,.59.866l-28.71,28.71A50.138,50.138,0,0,1,393.873,270.334ZM398.046,204c.513.329,1.031.67,1.495.978,1.2.791,2.168,1.415,2.959,1.851-1.092.944-2.154,1.923-3.171,2.949-.384-.811-.941-1.81-1.652-3.057-.218-.384-.464-.819-.708-1.261A10.275,10.275,0,0,0,398.046,204Zm-1.977,2.382c.169.3.343.611.535.947.6,1.049,1.4,2.461,1.806,3.411-.158.168-.319.331-.476.5-.951-.331-2.336-1-3.518-1.566-.9-.434-1.678-.8-2.351-1.1A8.874,8.874,0,0,0,396.07,206.385Zm.988,5.839c-.953,1.084-1.873,2.194-2.743,3.347-.489-.749-1.18-1.667-2.05-2.806a26.136,26.136,0,0,1-2.568-3.73,24.2,24.2,0,0,1,4.185,1.755C395.18,211.415,396.221,211.9,397.058,212.224Zm5.961,2.619,28.7,28.7a9.4,9.4,0,0,0-.762,1.148l-37.819-14.854A50.053,50.053,0,0,1,403.019,214.843Zm13.687-22.224c.038.388.08.792.127,1.23.129,1.185.3,2.78.3,3.811-.218.094-.428.2-.644.293-.759-.705-1.822-1.934-2.608-2.843-.85-.984-1.533-1.741-2.112-2.328A8.312,8.312,0,0,0,416.706,192.619Zm2.744-1.3c.351.523.7,1.061,1,1.522.8,1.239,1.429,2.176,1.954,2.868-1.374.431-2.72.926-4.047,1.458-.03-.892-.144-2.028-.3-3.448-.051-.471-.11-1.008-.162-1.55A10.289,10.289,0,0,0,419.45,191.318Zm14.375-1.209c.157-.937.358-2.133.576-3.089a7.045,7.045,0,0,0,1.246.631c.256.749.51,1.56.722,2.233.427,1.375.778,2.473,1.109,3.309-1.443.041-2.878.128-4.294.279C433.394,192.612,433.589,191.5,433.825,190.109Zm10.129-2.969c.208.934.4,2.069.552,2.968.233,1.389.429,2.5.646,3.364-1.418-.151-2.853-.236-4.3-.279.329-.836.68-1.932,1.108-3.308.2-.644.445-1.416.691-2.139A7.583,7.583,0,0,0,443.954,187.14Zm42.377,21.415c-.687.3-1.483.675-2.415,1.125a37.677,37.677,0,0,1-3.525,1.561c-.153-.168-.313-.33-.469-.495.41-.948,1.21-2.362,1.8-3.409.218-.385.418-.739.609-1.079A9.1,9.1,0,0,0,486.331,208.555Zm-1.88,2.237a24.067,24.067,0,0,1,4.179-1.745,26.3,26.3,0,0,1-2.562,3.72c-.873,1.142-1.563,2.056-2.053,2.806-.867-1.152-1.786-2.264-2.739-3.345C482.11,211.9,483.151,211.419,484.451,210.792Zm-3-5.477c-.273.495-.55.985-.793,1.413-.708,1.247-1.267,2.247-1.652,3.056-1.015-1.025-2.079-2-3.171-2.949.793-.435,1.763-1.059,2.959-1.85.512-.341,1.089-.722,1.652-1.078A9.925,9.925,0,0,0,481.448,205.315Zm2.982,22.851L447.189,244.4a9.24,9.24,0,0,0-.585-.853l28.7-28.7A50.082,50.082,0,0,1,484.43,228.166Zm.991,2.26a49.651,49.651,0,0,1,3.673,17.584H448.47a9.255,9.255,0,0,0-.284-1.354Zm-40.565,11.383a9.345,9.345,0,0,0-1.146-.758l14.853-37.814a50.138,50.138,0,0,1,15,9.863Zm22.015-41.315c-1.25-.712-2.527-1.384-3.835-2,.624-.616,1.382-1.462,2.348-2.575.431-.5.941-1.089,1.442-1.638a7.733,7.733,0,0,0,1.472.011c-.183.913-.446,1.971-.658,2.817C467.293,198.5,467.023,199.614,466.871,200.494Zm-3.141-7.026a10.641,10.641,0,0,0,1.667.562c-.29.328-.6.687-.946,1.082-.788.91-1.849,2.137-2.608,2.841-.216-.1-.427-.2-.646-.291,0-1.031.174-2.626.3-3.811.063-.586.117-1.111.164-1.6A10.4,10.4,0,0,0,463.73,193.468Zm-3.218-2.238c-.061.832-.158,1.742-.24,2.488-.152,1.419-.267,2.557-.3,3.448-1.328-.533-2.675-1.028-4.048-1.459.523-.693,1.149-1.628,1.955-2.868.536-.828,1.229-1.893,1.82-2.69A6.657,6.657,0,0,0,460.512,191.23Zm-4.245,11.1-14.858,37.825a9.448,9.448,0,0,0-1.01-.191V199.349A49.712,49.712,0,0,1,456.267,202.334Zm-15.483-12.815c-.357,1.143-.84,2.685-1.253,3.64-.122,0-.245-.01-.367-.01s-.245.009-.367.01c-.414-.956-.9-2.5-1.251-3.64-.164-.523-.314-.994-.458-1.436a10.616,10.616,0,0,0,4.135.05C441.086,188.559,440.939,189.017,440.784,189.519Zm-2.854,9.83v40.619a9.582,9.582,0,0,0-1.344.276l-16.233-37.238A49.65,49.65,0,0,1,437.931,199.349Zm-24.983-3.433c.964,1.116,1.723,1.962,2.346,2.578-1.308.616-2.582,1.287-3.832,2-.151-.88-.421-1.992-.768-3.384a25.565,25.565,0,0,1-.877-4.465A25.905,25.905,0,0,1,412.948,195.917Zm5.146,8.078,16.232,37.235a9.443,9.443,0,0,0-.852.579L404.765,213.1A50.09,50.09,0,0,1,418.094,203.995Zm11.963,43a10.07,10.07,0,0,0-.2,1.018H389.236a49.686,49.686,0,0,1,3-15.875Zm-.208,3.485a9.125,9.125,0,0,0,.277,1.361l-37.24,16.235a49.609,49.609,0,0,1-3.652-17.6Zm8.081,10.494V299.21a49.918,49.918,0,0,1-13.9-2.315Q430.981,278.933,437.931,260.971Zm1.344,48.454a10.568,10.568,0,0,0-1.9.172c.06-.188.114-.358.176-.557.355-1.143.838-2.685,1.251-3.64.122,0,.246.008.367.008s.243-.008.367-.008c.412.956.894,2.5,1.253,3.64.057.188.108.344.164.521A10.646,10.646,0,0,0,439.274,309.426ZM440.4,299.21V260.971l13.894,35.905A49.647,49.647,0,0,1,440.4,299.21Zm7.889-47.708a8.637,8.637,0,0,0,.192-1.025H489.1a49.735,49.735,0,0,1-2.982,15.885Zm42.318-32.015c-1.02,1.012-1.829,1.827-2.416,2.5q-1.056-1.883-2.242-3.679c.957-.232,2.117-.606,3.322-1a24.181,24.181,0,0,1,4.385-1.169A25.793,25.793,0,0,1,490.607,219.488Zm2.477-4.515a31.565,31.565,0,0,0-4.195,1.167,38.2,38.2,0,0,1-3.7,1.074c-.131-.188-.264-.374-.4-.562.535-.883,1.521-2.177,2.252-3.134a30.589,30.589,0,0,0,2.494-3.549Q491.428,212.383,493.084,214.973Zm-16.007-17.146q1.25.924,2.45,1.905a5.362,5.362,0,0,0,.375,3.06c-.539.338-1.123.72-1.793,1.163-1.047.692-2.359,1.56-3.265,2.025-.181-.149-.37-.286-.549-.432.277-1,.877-2.5,1.325-3.616A31.205,31.205,0,0,0,477.077,197.826Zm-2.6,3.649c-.533,1.334-.953,2.4-1.223,3.252q-1.719-1.316-3.539-2.5c.732-.543,1.614-1.293,2.683-2.233a25.743,25.743,0,0,1,3.555-2.821A25.543,25.543,0,0,1,474.474,201.475Zm-2.894-2.407c-.9.792-2.119,1.86-2.965,2.456-.2-.122-.4-.247-.6-.37.142-1.022.532-2.587.822-3.747.343-1.381.609-2.481.758-3.363a4.044,4.044,0,0,0,.936-.451c1.526.865,3.022,1.775,4.468,2.754A27.986,27.986,0,0,0,471.58,199.068Zm-12.526-10.538a2.839,2.839,0,0,0,.092.351,36,36,0,0,0-2.3,3.289c-.654,1.007-1.539,2.366-2.194,3.17-.226-.065-.454-.129-.68-.193-.141-1.021-.189-2.624-.226-3.812a31.09,31.09,0,0,0-.311-4.373C455.34,187.4,457.214,187.926,459.054,188.529Zm-6.543,2.841c.041,1.416.084,2.552.176,3.437q-2.078-.516-4.215-.87c.431-.765.927-1.789,1.55-3.12a25.947,25.947,0,0,1,2.119-3.993A25.561,25.561,0,0,1,452.512,191.37Zm-1.6-4.933a30.5,30.5,0,0,0-2.009,3.856c-.509,1.086-1.194,2.548-1.734,3.436-.235-.033-.473-.058-.71-.09-.277-.991-.543-2.57-.739-3.737-.255-1.507-.466-2.688-.7-3.579a4.235,4.235,0,0,0,.529-.64C447.358,185.865,449.151,186.109,450.915,186.438Zm-17.93-.778a3.827,3.827,0,0,0,.371.489c-.252.911-.476,2.14-.749,3.756-.2,1.167-.464,2.744-.739,3.736-.237.031-.473.057-.71.09-.537-.889-1.226-2.351-1.733-3.437a30.509,30.509,0,0,0-2.011-3.855C429.245,186.1,431.1,185.842,432.985,185.66Zm-7.165,5.711a25.583,25.583,0,0,1,.367-4.545,25.859,25.859,0,0,1,2.122,3.99c.623,1.332,1.118,2.356,1.553,3.12-1.423.238-2.833.528-4.218.872C425.734,193.923,425.774,192.787,425.819,191.37Zm-1.234-.037c-.037,1.189-.085,2.791-.225,3.812-.23.064-.455.128-.684.193-.654-.8-1.536-2.163-2.193-3.171-.4-.614-.741-1.132-1.061-1.6a5.558,5.558,0,0,0,1.874-2.941c.86-.236,1.726-.462,2.6-.663A30.356,30.356,0,0,0,424.585,191.333Zm-15.973,1.789a30.26,30.26,0,0,0,.884,4.284c.289,1.159.678,2.722.818,3.746l-.6.37c-.848-.6-2.065-1.664-2.966-2.456a27.767,27.767,0,0,0-3.42-2.719Q405.888,194.613,408.612,193.122Zm-2.676,6.87c1.069.941,1.951,1.692,2.685,2.234q-1.822,1.184-3.539,2.5c-.272-.855-.69-1.923-1.224-3.255a25.676,25.676,0,0,1-1.475-4.3A25.648,25.648,0,0,1,405.936,199.992Zm-4.678-2.169a30.925,30.925,0,0,0,1.456,4.108c.445,1.115,1.047,2.619,1.325,3.615-.182.145-.37.284-.55.432-.907-.465-2.218-1.334-3.266-2.026-.6-.4-1.126-.738-1.618-1.052a5.265,5.265,0,0,0,.373-3.3C399.724,198.99,400.481,198.4,401.257,197.823Zm-12.465,12.144a30.371,30.371,0,0,0,2.494,3.548c.731.957,1.718,2.25,2.251,3.134q-.2.279-.4.563a38.346,38.346,0,0,1-3.7-1.074,31.644,31.644,0,0,0-4.195-1.169Q386.9,212.38,388.792,209.967Zm.269,7.346c1.2.388,2.366.764,3.323,1q-1.192,1.794-2.244,3.682c-.587-.677-1.4-1.492-2.419-2.5a26.2,26.2,0,0,1-3.049-3.342A23.673,23.673,0,0,1,389.061,217.313Zm-2.208,3.047c.853.848,2.005,1.991,2.656,2.794-.108.2-.21.408-.313.611a36.48,36.48,0,0,1-3.81-.552l-1.018-.178c.656-2.284.418-4.431-.572-5.671.034-.061.067-.124.1-.183A30.949,30.949,0,0,0,386.853,220.361Zm-3.35,54.053a9.341,9.341,0,0,0-.212-1.977c.3-.225.585-.441.845-.637,1.15-.866,2.063-1.564,2.742-2.154.523,1.341,1.082,2.662,1.7,3.952-.974.1-2.164.309-3.41.529C384.607,274.227,384.046,274.324,383.5,274.413Zm-1.2-47.5c.337.26.7.535,1.095.83.957.717,2.245,1.686,3,2.395-.082.22-.149.447-.228.67-.3.021-.673.04-1.183.04-.808,0-1.726-.036-2.648-.071-.937-.037-1.876-.073-2.7-.073a13.452,13.452,0,0,0-1.686.082c.173-.566.37-1.121.557-1.681A5.551,5.551,0,0,0,382.3,226.916Zm-2.658,5.025c.809,0,1.732.034,2.652.07.937.037,1.874.071,2.695.071.269,0,.516,0,.755-.011-.439,1.358-.82,2.742-1.157,4.141-.751-.492-1.752-1.057-3.009-1.753a26.218,26.218,0,0,1-3.832-2.385A9.176,9.176,0,0,1,379.643,231.941Zm6.1,34.546c-.239-.01-.486-.014-.758-.014-.819,0-1.755.037-2.692.072-.883.034-1.762.067-2.548.068a4.786,4.786,0,0,0-1.32-.657c.852-.58,2.166-1.308,3.151-1.857,1.257-.7,2.258-1.261,3.009-1.755C384.924,263.746,385.305,265.128,385.745,266.487Zm-2.935,4.263a10.016,10.016,0,0,0-1.752-2.926c.422-.014.852-.028,1.284-.046.921-.036,1.839-.071,2.645-.071.513,0,.887.017,1.186.04.078.222.145.448.225.668-.757.707-2.046,1.678-3,2.4l-.459.346C382.891,271.022,382.864,270.885,382.81,270.75Zm4.068-41.838c-.678-.592-1.591-1.288-2.743-2.153-.336-.253-.717-.54-1.1-.835a10.294,10.294,0,0,0,.839-1.513c.027-.065.044-.131.07-.195.407.067.819.141,1.227.213,1.246.223,2.437.432,3.411.53C387.959,226.249,387.4,227.572,386.878,228.912Zm-9.623,4.348a30,30,0,0,0,3.724,2.275c1.049.582,2.461,1.367,3.31,1.965-.051.233-.1.466-.152.7-1.01.209-2.6.367-3.773.483A29.92,29.92,0,0,0,376,239.3Q376.488,236.231,377.256,233.261Zm3.232,6.652c1.412-.141,2.542-.26,3.417-.411-.247,1.4-.454,2.82-.6,4.257-.808-.385-1.874-.806-3.208-1.322a25.839,25.839,0,0,1-4.125-1.844A25.572,25.572,0,0,1,380.488,239.913Zm-.833,3.673c1.121.434,2.631,1.022,3.554,1.5-.017.239-.037.475-.054.714-.971.341-2.518.714-3.666.988l-.936.227c-.4-2.268-1.514-4.048-2.931-4.673.018-.164.027-.33.047-.493A30.369,30.369,0,0,0,379.654,243.586Zm3.436,7.852c-.846-.267-1.944-.539-3.316-.866-.355-.085-.751-.181-1.153-.28a10.789,10.789,0,0,0,.1-1.423c0-.21-.01-.417-.02-.621.375-.092.742-.181,1.076-.26,1.372-.328,2.47-.6,3.316-.867-.027.718-.054,1.435-.054,2.159S383.063,250.72,383.09,251.438Zm-7.539,3.986a5.59,5.59,0,0,0,2.835-3.922c.348.087.707.174,1.1.27,1.148.273,2.695.644,3.666.987.016.239.037.474.054.714-.923.478-2.433,1.064-3.555,1.5a30.536,30.536,0,0,0-3.984,1.738C375.619,256.284,375.592,255.851,375.551,255.424Zm4.549.7c1.334-.519,2.4-.94,3.21-1.325.142,1.438.348,2.855.6,4.259-.875-.154-2.006-.273-3.417-.414a25.554,25.554,0,0,1-4.512-.681A25.928,25.928,0,0,1,380.1,256.124Zm.266,3.748c1.177.117,2.763.276,3.773.482.048.236.1.469.152.7-.849.6-2.264,1.384-3.31,1.965a30.149,30.149,0,0,0-3.726,2.275q-.768-2.969-1.25-6.043A30.115,30.115,0,0,0,380.366,259.872Zm1.759,18.223a4.182,4.182,0,0,0,1.258-2.413c.636-.1,1.308-.216,2.005-.34a36.357,36.357,0,0,1,3.807-.55c.1.2.2.408.313.61-.651.8-1.8,1.947-2.656,2.794a31.1,31.1,0,0,0-2.955,3.18C383.271,280.3,382.688,279.2,382.124,278.095Zm5.6.977c1.021-1.012,1.831-1.827,2.42-2.505q1.052,1.885,2.242,3.681c-.958.232-2.119.607-3.323,1a23.93,23.93,0,0,1-4.387,1.169A26.084,26.084,0,0,1,387.72,279.072Zm1.719,3.346c1.3-.419,2.72-.879,3.7-1.074.132.189.267.377.4.563-.535.886-1.522,2.176-2.252,3.133a30.7,30.7,0,0,0-2.5,3.549q-1.886-2.412-3.544-5A31.814,31.814,0,0,0,389.439,282.418Zm11.815,18.314c-.85-.627-1.684-1.28-2.5-1.948a4.376,4.376,0,0,0,.077-3.271c.431-.276.884-.572,1.394-.907,1.045-.694,2.359-1.56,3.265-2.026.182.148.367.287.55.432-.279,1-.88,2.5-1.327,3.616A31.125,31.125,0,0,0,401.255,300.732Zm2.6-3.643c.535-1.335.954-2.4,1.224-3.255q1.719,1.314,3.544,2.5c-.735.542-1.617,1.293-2.686,2.231a25.819,25.819,0,0,1-3.555,2.821A25.65,25.65,0,0,1,403.854,297.088Zm2.9,2.4c.9-.793,2.12-1.861,2.966-2.456.2.122.4.249.6.37-.142,1.024-.532,2.588-.82,3.746-.249.993-.454,1.839-.609,2.568a3.517,3.517,0,0,0-1.526.991c-1.361-.784-2.7-1.6-4-2.48A30.452,30.452,0,0,0,406.749,299.492ZM419.513,310.1a3.014,3.014,0,0,0-.016-.806c.529-.687,1.166-1.637,1.987-2.9.656-1.01,1.539-2.369,2.193-3.172.227.065.452.132.681.193.141,1.022.19,2.625.227,3.815a30.614,30.614,0,0,0,.311,4.37C423.071,311.18,421.276,310.671,419.513,310.1Zm6.305-2.911c-.045-1.416-.087-2.554-.178-3.437,1.385.343,2.793.633,4.215.87-.429.764-.926,1.789-1.55,3.121a25.638,25.638,0,0,1-2.119,3.99A25.586,25.586,0,0,1,425.818,307.189Zm3.606,1.077c.508-1.085,1.2-2.548,1.733-3.437.236.033.472.058.708.09.277.992.542,2.568.739,3.738.216,1.27.4,2.292.594,3.123a3.31,3.31,0,0,0-.579,1.076c-1.756-.179-3.5-.417-5.207-.735A30.413,30.413,0,0,0,429.424,308.265Zm16.5,4.567a3.365,3.365,0,0,0-.744-1.257c.176-.8.347-1.75.545-2.919s.464-2.746.741-3.738c.236-.03.474-.057.708-.09.539.889,1.226,2.352,1.735,3.437a30.12,30.12,0,0,0,2.008,3.855C449.272,312.429,447.6,312.655,445.922,312.833Zm6.588-5.644a25.292,25.292,0,0,1-.37,4.545,25.972,25.972,0,0,1-2.117-3.99c-.623-1.334-1.113-2.359-1.544-3.121q2.131-.356,4.208-.87C452.6,304.635,452.553,305.772,452.51,307.189Zm1.233.038c.038-1.189.087-2.791.226-3.814.228-.063.455-.129.681-.195.654.806,1.539,2.164,2.194,3.172.294.454.563.862.811,1.236a4.568,4.568,0,0,0-1.466,3.271c-.911.25-1.829.488-2.756.7A30.935,30.935,0,0,0,453.743,307.227Zm15.976-1.792a30.877,30.877,0,0,0-.885-4.283c-.29-1.158-.681-2.722-.822-3.746.2-.121.4-.246.6-.37.845.594,2.065,1.664,2.966,2.457A27.641,27.641,0,0,0,475,302.212Q472.438,303.948,469.719,305.435Zm2.673-6.868c-1.069-.94-1.951-1.691-2.685-2.234q1.819-1.184,3.541-2.5c.272.852.691,1.92,1.226,3.255a25.777,25.777,0,0,1,1.473,4.3A25.832,25.832,0,0,1,472.393,298.567Zm3.225-1.94c-.448-1.113-1.048-2.618-1.325-3.615.182-.145.37-.286.549-.432.907.465,2.218,1.332,3.265,2.025.582.387,1.093.717,1.574,1.024a4.38,4.38,0,0,0,.061,3.013c-.875.72-1.759,1.421-2.668,2.09A31.21,31.21,0,0,0,475.618,296.628Zm13.92-8.036a30.624,30.624,0,0,0-2.494-3.549c-.731-.957-1.718-2.248-2.252-3.134.135-.186.27-.373.4-.562.977.195,2.4.654,3.7,1.072a31.636,31.636,0,0,0,4.191,1.169Q491.429,286.175,489.537,288.592Zm-.267-7.346c-1.2-.388-2.366-.765-3.326-1q1.192-1.8,2.245-3.682c.587.677,1.4,1.492,2.417,2.506a25.778,25.778,0,0,1,3.047,3.34A23.851,23.851,0,0,1,489.27,281.246Zm5.162.132a30.956,30.956,0,0,0-2.955-3.18c-.855-.846-2.005-1.989-2.656-2.794.108-.2.21-.408.314-.612a36.893,36.893,0,0,1,3.807.55c.357.064.705.124,1.047.183a5.819,5.819,0,0,0,.9,5.014C494.738,280.818,494.593,281.1,494.432,281.378Zm6.644-16.08a30.24,30.24,0,0,0-3.727-2.275c-1.048-.582-2.46-1.367-3.309-1.965.051-.235.105-.466.154-.7,1.007-.209,2.594-.367,3.768-.483a29.828,29.828,0,0,0,4.361-.619Q501.843,262.326,501.075,265.3Zm-3.235-6.654c-1.411.139-2.54.26-3.417.412.247-1.4.455-2.82.6-4.257.809.384,1.876.806,3.212,1.324a25.888,25.888,0,0,1,4.122,1.84A25.48,25.48,0,0,1,497.84,258.645Zm4.821-1.934a30.118,30.118,0,0,0-3.986-1.738c-1.119-.435-2.632-1.021-3.554-1.5.018-.238.038-.475.053-.714.971-.343,2.52-.714,3.669-.988.468-.114.9-.218,1.307-.32a5.85,5.85,0,0,0,2.636,3.885C502.743,255.8,502.715,256.256,502.661,256.711Z" transform="translate(124.631 -62.37)" fill="#52bbe1" opacity="0.15"/>
      <g id="Group_351" data-name="Group 351" transform="translate(181.774 0)" opacity="0.15">
        <g id="Group_350" data-name="Group 350" transform="translate(0)">
          <path id="Path_499" data-name="Path 499" d="M192.244,155.7v-10.2h-.094l-9.911-9.2V126.293h.154S175.578,108.825,173,97.247c-2.579,11.578-9.394,29.046-9.394,29.046v10.017l-9.78,9.2h-.036v10.2h-3.714v45.118h3.714V366h38.453V200.819h3.716V155.7Zm-19.227,37.979a16.16,16.16,0,1,1,16.158-16.159A16.157,16.157,0,0,1,173.017,193.679Z" transform="translate(-150.076 -97.247)" fill="#52bbe1"/>
          <g id="Group_349" data-name="Group 349" transform="translate(16.681 76.407)">
            <g id="Group_348" data-name="Group 348">
              <g id="Group_347" data-name="Group 347">
                <path id="Path_500" data-name="Path 500" d="M162.069,154.389q2.848,2.016,5.7,4.027a.579.579,0,0,0,.6,0q5.362-3.159,10.727-6.321a.6.6,0,0,0-.6-1.028l-9.156,5.4q-.715.42-1.425.842c-.316.185.7.262.208-.087-.358-.256-.718-.508-1.076-.762q-2.188-1.546-4.374-3.094c-.633-.442-1.221.587-.6,1.028Z" transform="translate(-161.807 -150.98)" fill="#52bbe1"/>
              </g>
            </g>
          </g>
        </g>
      </g>
      <g id="Group_352" data-name="Group 352" transform="translate(30.145 74.905)" opacity="0.15">
        <path id="Path_501" data-name="Path 501" d="M166.2,171.409l-5.078,9.756v3.8h-6.743V174.161L149.3,149.923l-5.075,24.238v10.807h-6.743v-3.8l-5.077-9.756-5.075,9.756v60.007l-19.975-33.9-19.975,33.9V181.166l-5.077-9.756-5.074,9.756v3.8H70.488V174.161l-5.074-24.238-5.074,24.238v10.807H53.6v-3.8l-5.075-9.756-5.075,9.756v165.3H98.386V317.8c0-3.416,3.9-6.184,8.717-6.184s8.717,2.769,8.717,6.184v28.66h55.452v-165.3ZM74.133,326.576H56.7V290.694c0-4.276,3.9-7.741,8.717-7.741s8.718,3.465,8.718,7.741Zm0-86.865H56.7V203.829c0-4.275,3.9-7.74,8.717-7.74s8.718,3.465,8.718,7.74Zm50.324,52.059h-34.2v-34.78c0-10.7,17.1-13.645,17.1-13.645s17.1,2.944,17.1,13.645Zm33.563,34.806H140.585V290.694c0-4.276,3.9-7.741,8.718-7.741s8.717,3.465,8.717,7.741Zm0-86.865H140.585V203.829c0-4.275,3.9-7.74,8.718-7.74s8.717,3.465,8.717,7.74Z" transform="translate(-43.445 -149.923)" fill="#52bbe1"/>
      </g>
    </g>
    <g id="Group_659" data-name="Group 659" transform="translate(-2747.34 2011.665)">
      <g id="OBJECTS" transform="translate(3061.784 -82.665)">
        <path id="Path_1282" data-name="Path 1282" d="M3315.107,454.376l1.811-51.507L3295.6,416.832l.423,37.734Z" transform="translate(-3090.99 22.018)" fill="#e6bda0"/>
        <path id="Path_1283" data-name="Path 1283" d="M3315.134,461.728l10.793,10.808,8.465,2.474c3.89,1.137,6.77,5.967,7.07,11.863l.14,2.757-45.782.286.233-28Z" transform="translate(-3091.017 14.666)" fill="#297045"/>
        <path id="Path_1284" data-name="Path 1284" d="M3295.6,493.557l46.153-.288.051-6.065-46.154.288-.051,6.065" transform="translate(-3090.99 11.484)"/>
        <path id="Path_1285" data-name="Path 1285" d="M3301.044,164.994s16.711,15.192,20.443,58.745-5.736,182.311-5.736,182.311h-28.62L3269.7,216.28l-2.757-51.769Z" transform="translate(-3087.411 51.791)" fill="#00385d"/>
        <path id="Path_1286" data-name="Path 1286" d="M3285.944,170.165v40.953a10.3,10.3,0,0,1-10.3,10.3h0" transform="translate(-3088.497 51.084)" fill="none" stroke="#065081" stroke-miterlimit="10" stroke-width="0.758"/>
        <path id="Path_1333" data-name="Path 1333" d="M0,0H31.006" transform="translate(198.319 442.582)" fill="none" stroke="#065081" stroke-width="0.758"/>
        <path id="Path_1287" data-name="Path 1287" d="M3255.142,454.548l2.045-50.307L3235.828,417l.234,37.734Z" transform="translate(-3083.523 21.847)" fill="#e6bda0"/>
        <path id="Path_1288" data-name="Path 1288" d="M3236.575,165.491s-21.177,14.695-24.909,58.248,14.008,185.068,14.008,185.068h34.134l6.4-192.527,2.757-51.769Z" transform="translate(-3080.441 51.791)" fill="#00385d"/>
        <path id="Path_1289" data-name="Path 1289" d="M3255.142,461.728l10.793,10.808,8.465,2.474c3.891,1.137,6.77,5.967,7.07,11.863l.141,2.757-45.783.286.234-28Z" transform="translate(-3083.523 14.666)" fill="#297045"/>
        <path id="Path_1290" data-name="Path 1290" d="M3235.612,493.557l46.154-.288.051-6.065-46.153.288-.051,6.065" transform="translate(-3083.497 11.484)"/>
        <line id="Line_95" data-name="Line 95" x1="1.461" y2="75.159" transform="translate(184.883 225.531)" fill="none" stroke="#065081" stroke-miterlimit="10" stroke-width="0.758"/>
        <path id="Path_1291" data-name="Path 1291" d="M3238.369,165.631s-25.954,9.288-4.1,227.083" transform="translate(-3082.236 51.651)" fill="none" stroke="#065081" stroke-miterlimit="10" stroke-width="0.758"/>
        <line id="Line_96" data-name="Line 96" x2="36.255" y2="0.769" transform="translate(143.282 443.596)" fill="none" stroke="#065081" stroke-miterlimit="10" stroke-width="0.758"/>
        <path id="Path_1292" data-name="Path 1292" d="M3103.5,209.643h50.734V278.7H3103.5Zm46.327,5.33h-41.919v58.4h41.919Z" transform="translate(-3066.995 46.153)" fill="#b8c0c2"/>
        <rect id="Rectangle_123" data-name="Rectangle 123" width="60.93" height="7.997" rx="1.173" transform="translate(93.155 262.118) rotate(180)"/>
        <path id="Path_1293" data-name="Path 1293" d="M3106.071,479.875c0,4.708-2.943,8.525-7.651,8.525s-9.4-3.817-9.4-8.525a8.525,8.525,0,1,1,17.05,0Z" transform="translate(-3065.187 13.464)" fill="#1a1f33"/>
        <circle id="Ellipse_90" data-name="Ellipse 90" cx="8.525" cy="8.525" r="8.525" transform="translate(83.448 484.814)" fill="#1a1f33"/>
        <rect id="Rectangle_124" data-name="Rectangle 124" width="124.333" height="179.701" rx="7.707" transform="translate(0 310.891)" fill="#297045"/>
        <rect id="Rectangle_125" data-name="Rectangle 125" width="85.182" height="109.09" rx="6.951" transform="translate(19.576 341.517)" fill="#9ee493"/>
        <rect id="Rectangle_126" data-name="Rectangle 126" width="85.182" height="5.165" transform="translate(19.575 362.999)" fill="#297045"/>
        <path id="Path_1294" data-name="Path 1294" d="M3206.328-55.848c-11.8,14.947-14.6,26.431-17.667,41.333-2.333,13.333-1.645,18.952-5.485,30.988-3.137,9.829-6.565,13.182-6.177,21.62.363,7.886,3.667,9.311,3.088,17.913a33.336,33.336,0,0,1-4.324,14.825c-2.524,4.3-4,4.31-6.177,8.649-1.534,3.061-5.389,9.85-3.124,12.725,1.379,1.75,3.771,1.552,16.92,1.174,12.476-.359,12.893-.132,15.076-.89,7.525-2.611,12.264-8.668,14.825-11.942,5.482-7.006,4.95-10.538,8.853-11.736,5.436-1.67,12.149,3.431,13.546,4.493,3.417,2.6,3.394,4.153,5.621,5.344,6.6,3.527,15.683-3.3,20.126-4.767,18.616-6.146,28.575-25.933,35.927-44.107,8.2-20.258,15.713-42.254,10.951-63.582-1.177-5.272-6.665-23.724-24.036-35.362C3257.539-87.081,3223.174-77.191,3206.328-55.848Z" transform="translate(-3074.772 82.182)" fill="#17204c"/>
        <g id="Group_652" data-name="Group 652" transform="translate(44.248 90.337)">
          <g id="Group_649" data-name="Group 649" transform="translate(155.176)">
            <path id="Path_1295" data-name="Path 1295" d="M3370.042,79.666l-27.7,42.559-6.323-17.254-12.281-34.386c-.4-.891-.819-1.681-1.232-2.492l-.077-.212-.024.009c-9.572-18.615-21.593-16.69-21.593-16.69l1.31,24.142-12.448,4.575,14.088,25.622.02.361.176,0,24.215,44.037c6,11.87,20.8,10.1,27.366-1.464l35.382-61.307Z" transform="translate(-3289.673 -24.386)" fill="#f6bd96"/>
            <path id="Rectangle_127" data-name="Rectangle 127" d="M1.994,0H27.389a1.994,1.994,0,0,1,1.994,1.994v48.5a1.994,1.994,0,0,1-1.994,1.994H1.993A1.993,1.993,0,0,1,0,50.492V1.994A1.994,1.994,0,0,1,1.994,0Z" transform="matrix(0.912, 0.411, -0.411, 0.912, 82.899, 0)" fill="#232322"/>
            <path id="Path_1296" data-name="Path 1296" d="M3407.133,81.459c-3.577,12.076-12.138,17.618-21.354,15.473s-11.751-13.514-11.256-23.164c.209-4.069,2.116-9.1,5.1-11.428,3.94-3.077,9.895-1.86,15.906-.464,4.264.991,10.5.309,10.81,7.568C3406.509,73.535,3408.388,77.224,3407.133,81.459Z" transform="translate(-3300.264 -25.545)" fill="#edbc9f"/>
            <line id="Line_97" data-name="Line 97" x1="1.969" y2="9.694" transform="translate(50.698 97.839)" fill="none" stroke="#cb9180" stroke-linecap="round" stroke-linejoin="round" stroke-width="0.524"/>
          </g>
          <g id="Group_650" data-name="Group 650" transform="translate(86.092 25.078)">
            <path id="Path_1297" data-name="Path 1297" d="M3247.385,49.224l-26.344,1.138a10.769,10.769,0,0,0-9.6,14.577l22.662,89.744,64.495,2.326,3.113-57.907s12.7-11.106-3.113-30.725l-6.436-15.593a5.757,5.757,0,0,0-5.321-3.56Z" transform="translate(-3210.728 -49.224)" fill="#52bbe1"/>
            <line id="Line_98" data-name="Line 98" x2="64.345" y2="2.626" transform="translate(23.371 105.459)" fill="none" stroke="#15546b" stroke-miterlimit="10" stroke-width="0.74"/>
          </g>
          <g id="Group_651" data-name="Group 651" transform="translate(0 27.704)">
            <path id="Path_1298" data-name="Path 1298" d="M3146.546,210.276c-1.113,4.782-2.045,9.033-7.373,11.158-3.919,1.563-7.717-.326-12.151-1.358-4.363-1.015-9.536-.508-12.326-3.583-3.011-3.321-2.655-9.13-1.526-13.983a17.134,17.134,0,0,1,33.376,7.766Z" transform="translate(-3112.348 -69.342)" fill="#edbc9f"/>
            <path id="Path_1299" data-name="Path 1299" d="M3221.813,58.324a17.328,17.328,0,0,0-27.7,1.743l-41.136,57.3a18.233,18.233,0,0,0-2,3.571l-29.5,70.177h19.742l33.577-65.629,47.022-44.708A17.329,17.329,0,0,0,3221.813,58.324Z" transform="translate(-3113.489 -52.226)" fill="#f6bd96"/>
          </g>
        </g>
        <g id="Group_654" data-name="Group 654" transform="translate(165.873 82.534)">
          <g id="Group_653" data-name="Group 653" transform="translate(1.125 5.337)">
            <path id="Path_1300" data-name="Path 1300" d="M3252.618,45.293V17.749h25.736V45.293c0,7.106-5.762,9.816-12.868,9.816h0C3258.378,55.108,3252.618,52.4,3252.618,45.293Z" transform="translate(-3252.618 -17.749)" fill="#e6bda0"/>
          </g>
          <path id="Path_1301" data-name="Path 1301" d="M3251.508,11.65s-4.04,34.023,26.685,28.869l-.026-15.4Z" transform="translate(-3251.333 -11.65)" fill="#cf9580"/>
        </g>
        <path id="Path_1302" data-name="Path 1302" d="M3313.162-8.434c.086,5.049-1.493,11.069-7.086,11.146s-10.938-6.231-11.024-11.279,4.378-9.2,9.971-9.28S3313.076-13.482,3313.162-8.434Z" transform="translate(-3069.082 -320.116) rotate(7)" fill="#e8ae86"/>
        <g id="Group_657" data-name="Group 657" transform="translate(152.879 23.53)">
          <g id="Group_656" data-name="Group 656">
            <g id="Group_655" data-name="Group 655">
              <path id="Path_1303" data-name="Path 1303" d="M3268.815,28.922c-16.216-4.474-26.028-15.655-31.737-36.672l-.593-33.8a8.224,8.224,0,0,1,8.1-8.348l39.562-5.88c8.111-.124,17.037,11.591,17.161,19.7l.466,25.809a16.327,16.327,0,0,1-.2,3.03c-3.583,21.049-20.666,35.192-30.561,36.332A5.756,5.756,0,0,1,3268.815,28.922Z" transform="translate(-3236.485 55.776)" fill="#f6bd96"/>
            </g>
          </g>
        </g>
        <path id="Path_1304" data-name="Path 1304" d="M3294.519,19.854s-7.776,5.872-19.527,0" transform="translate(-3088.415 69.859)" fill="none" stroke="#cb9180" stroke-linecap="round" stroke-linejoin="round" stroke-width="0.524"/>
        <path id="Path_1305" data-name="Path 1305" d="M3250.055-2.265a9.462,9.462,0,0,1-9.316,9.606,9.462,9.462,0,0,1-9.6-9.316,9.461,9.461,0,0,1,9.316-9.605A9.462,9.462,0,0,1,3250.055-2.265Z" transform="translate(-3082.937 73.786)" fill="#e9bda0"/>
        <path id="Path_1306" data-name="Path 1306" d="M3273.621-37.415c-6.75,5.25-12.568,5.112-19.532,10.9-13.043,10.837-12.53,25.217-13.988,43.9-16.161-9.281-27.642-23.016-31.077-41.333s3.3-38.677,18.231-49.824c16.1-12.019,39.882-11.584,56.5-.288s25.7,32.136,24.377,52.185c1.242-4.085-1.093-8.494-4.266-11.351s-7.814-1.148-12.243-2.934c-7-3.214-6.75-5-12-14.5C3278.121-41.665,3277.192-40.236,3273.621-37.415Z" transform="translate(-3080.065 82.665)" fill="#17204c"/>
        <path id="Path_1307" data-name="Path 1307" d="M3245.463,97.149s6.609,4.346,8,0c1.51-4.716-3.2-11.115-5.577-15.912-6.627-13.386-7.058-26.549-7.26-38.6-.11-6.629.655-4.277,1.235-16.987.494-10.821.149-17.142-.309-33.666-.182-6.583-.424-16.234-.618-28.105-30.843,15.995-38.975,30.923-40.1,42.189-1.431,14.325,6.505,26.719,1.509,43.262-1.285,4.252,2.563,8.338-1.509,15.486-3.817,6.7-2.8,11.387-3.654,14.333-2.723,9.416-8.2,22.2,0,25.671,4.348,1.842,8.448-9.217,11.115-9.883,5,.667,4.025,6.635,10.333,7,3.689.214,7.658-5.211,11.333-4.788,3.021.348,2.5,7,8,7.671C3243.463,104.649,3245.463,97.149,3245.463,97.149Z" transform="translate(-3077.407 76.851)" fill="#17204c"/>
        <path id="Path_1308" data-name="Path 1308" d="M3165.766-68.15" transform="translate(-3074.772 80.852)" fill="#17204c"/>
      </g>
      <g id="DESIGNED_BY_FREEPIK" data-name="DESIGNED BY FREEPIK" transform="translate(3247.4 -22.43)">
        <g id="Group_658" data-name="Group 658">
          <path id="Path_1309" data-name="Path 1309" d="M3288.372,9.444c1.391-.83,3.215-1.176,4.174-2.491.473-1.205-1.7-5.672.151-12.138.53-1.847,1.117-3.482,2.877-4.368a9.519,9.519,0,0,1,5.968-.806" transform="translate(-3275.702 13.419)" fill="none" stroke="#d5a27a" stroke-linecap="round" stroke-linejoin="round" stroke-width="1.651"/>
          <path id="Path_1310" data-name="Path 1310" d="M3274.992-7.341a5.186,5.186,0,0,0,5.3,1" transform="translate(-3274.031 13.021)" fill="none" stroke="#3c3c5b" stroke-linecap="round" stroke-miterlimit="10" stroke-width="1.651"/>
          <path id="Path_1311" data-name="Path 1311" d="M3298.586-4.476a3.388,3.388,0,0,0,4.079.244" transform="translate(-3276.978 12.663)" fill="none" stroke="#3c3c5b" stroke-linecap="round" stroke-miterlimit="10" stroke-width="1.651"/>
          <path id="Path_1312" data-name="Path 1312" d="M3273.894-13.352a7.514,7.514,0,0,1,7.115,1" transform="translate(-3273.894 13.832)" fill="none" stroke="#d5a27a" stroke-linecap="round" stroke-miterlimit="10" stroke-width="1.651"/>
        </g>
      </g>
    </g>
  </g>
</svg>
