<svg xmlns="http://www.w3.org/2000/svg" width="293.486" height="397.443" viewBox="0 0 293.486 397.443">
  <g id="Group_809" data-name="Group 809" transform="translate(-4280.65 -382.76)">
    <rect id="Rectangle_204" data-name="Rectangle 204" width="94.475" height="12.307" transform="translate(4358.631 407.353)" fill="#191919"/>
    <path id="Path_1978" data-name="Path 1978" d="M4531.092,448.072V661.356l-14.815-4.5a74.7,74.7,0,0,0-88.815,72.691c-.005.206-.005.417-.005.623a74.918,74.918,0,0,0,1.753,16.135H4299.377a18.727,18.727,0,0,1-18.727-18.727v-279.5a18.731,18.731,0,0,1,18.727-18.732h56.614v14.947h99.754V429.34h56.614A18.733,18.733,0,0,1,4531.092,448.072Z" transform="translate(0 -21.987)" fill="#00385d"/>
    <path id="Path_1979" data-name="Path 1979" d="M4529.522,492.913V681.846a74.7,74.7,0,0,0-88.815,72.691H4319.328a10.619,10.619,0,0,1-10.618-10.623v-251a10.619,10.619,0,0,1,10.618-10.623H4518.9A10.624,10.624,0,0,1,4529.522,492.913Z" transform="translate(-13.245 -46.981)" fill="#ededed"/>
    <path id="Path_1980" data-name="Path 1980" d="M4522.824,405.3v20.358H4428.35V405.3a9.833,9.833,0,0,1,9.831-9.831H4513A9.829,9.829,0,0,1,4522.824,405.3Z" transform="translate(-69.719 -5.999)" fill="#ededed"/>
    <path id="Path_1981" data-name="Path 1981" d="M4522.824,405.3v20.358H4428.35V405.3a9.833,9.833,0,0,1,9.831-9.831H4513A9.829,9.829,0,0,1,4522.824,405.3Z" transform="translate(-69.719 -5.999)" fill="#00385d"/>
    <path id="Path_1982" data-name="Path 1982" d="M4517.039,383.99a4.192,4.192,0,0,0-7.159,2.967v4.472a1.212,1.212,0,0,0,1.209,1.209h5.966a1.212,1.212,0,0,0,1.209-1.209v-4.472A4.2,4.2,0,0,0,4517.039,383.99Zm-2.967,3.712a1.771,1.771,0,1,1,1.769-1.774A1.77,1.77,0,0,1,4514.072,387.7Z" transform="translate(-108.204)" fill="#00385d"/>
    <text id="COVID-19" transform="translate(4327.883 477.437)" fill="#00385d" font-size="29" font-family="SegoeUI, Segoe UI"><tspan x="0" y="0">COVID-19</tspan></text>
    <circle id="Ellipse_110" data-name="Ellipse 110" cx="23.1" cy="23.1" r="23.1" transform="translate(4338.601 513.015)" fill="none" stroke="#000" stroke-miterlimit="10" stroke-width="10"/>
    <circle id="Ellipse_111" data-name="Ellipse 111" cx="23.1" cy="23.1" r="23.1" transform="translate(4338.601 587.943)" fill="none" stroke="#000" stroke-miterlimit="10" stroke-width="10"/>
    <path id="Path_1983" data-name="Path 1983" d="M4423.99,656.761l7.4,12.157,32.849-20.573" transform="translate(-67.661 -125.364)" fill="none" stroke="#297045" stroke-linecap="round" stroke-miterlimit="10" stroke-width="11"/>
    <line id="Line_119" data-name="Line 119" x2="31.207" transform="translate(4439.696 611.043)" fill="none" stroke="#000" stroke-miterlimit="10" stroke-width="9"/>
    <g id="Group_807" data-name="Group 807" transform="translate(4439.696 518.934)">
      <line id="Line_120" data-name="Line 120" x2="31.207" transform="translate(0 15.604)" fill="none" stroke="#000" stroke-miterlimit="10" stroke-width="9"/>
      <line id="Line_121" data-name="Line 121" y2="31.207" transform="translate(15.604)" fill="none" stroke="#000" stroke-miterlimit="10" stroke-width="9"/>
    </g>
    <path id="Path_1984" data-name="Path 1984" d="M4707.754,934.73a72.03,72.03,0,0,1-142.229,16.135l-1.805-16.758a72.018,72.018,0,0,1,144.034.623Z" transform="translate(-133.618 -226.552)" fill="#00385d" fill-rule="evenodd"/>
    <g id="Group_808" data-name="Group 808" transform="translate(4443.952 650.22)">
      <path id="Path_1985" data-name="Path 1985" d="M4792.107,1042.637a7.59,7.59,0,1,1,4.029-9.9,7.607,7.607,0,0,1-4.029,9.9Z" transform="translate(-4680.404 -954.832)" fill="#fff"/>
      <path id="Subtraction_1" data-name="Subtraction 1" d="M36.686,115.922a7.56,7.56,0,0,1-6.972-4.64,7.552,7.552,0,0,1,4.031-9.9,7.939,7.939,0,0,1,2.982-.621,6.619,6.619,0,0,1,1,.075.791.791,0,0,0,.032-.077l.007-.014a.284.284,0,0,1,.059-.109l3.583-8.8v-.049a35.916,35.916,0,0,1-9.854-6.828,35.519,35.519,0,0,1-7.21-10.033h-.05l-7.016,2.935-.022.012,0,0a.642.642,0,0,1-.271.085,5.678,5.678,0,0,1-10.9,2.588A5.559,5.559,0,0,1,6.052,76.2a5.68,5.68,0,0,1,9.483-1.674l.3-.146,6.968-2.94h.05a36.173,36.173,0,0,1-2.146-12.2,35.709,35.709,0,0,1,2-11.827l-.052-.048-8.757-3.584a.258.258,0,0,1-.2-.095l0,0a7.568,7.568,0,0,1-3.184,2.486,7.389,7.389,0,0,1-2.929.6,7.578,7.578,0,0,1-4.146-1.237,7.447,7.447,0,0,1-2.824-3.4A7.555,7.555,0,0,1,4.643,32.2a7.628,7.628,0,0,1,9.946,4.077,7.11,7.11,0,0,1,.5,3.93,1.046,1.046,0,0,0,.1.041l.016.006a.724.724,0,0,1,.133.055l8.757,3.58h.049a35.977,35.977,0,0,1,6.828-9.858A35.477,35.477,0,0,1,41.006,26.82v-.05L33.745,9.462a4.714,4.714,0,0,1-4.349-6.5A4.747,4.747,0,0,1,31.955.359,4.64,4.64,0,0,1,33.749,0a4.832,4.832,0,0,1,4.423,2.895,4.834,4.834,0,0,1-.945,5.124l7.263,17.261.051.053a35.806,35.806,0,0,1,12.177-2.127,36.179,36.179,0,0,1,11.8,1.976h.048l3.583-8.8a.4.4,0,0,1,.1-.2,7.338,7.338,0,0,1-2.486-3.135,7.5,7.5,0,0,1-.038-5.811,7.608,7.608,0,1,1,7.1,10.424,7.257,7.257,0,0,1-1.1-.084.877.877,0,0,0-.048.122l-.008.019a.7.7,0,0,1-.043.107l-3.582,8.753v.053a36.523,36.523,0,0,1,9.856,6.851,35.239,35.239,0,0,1,7.207,10.063l.048-.053,7.017-2.935a.679.679,0,0,1,.15-.05.852.852,0,0,0,.146-.048,5.611,5.611,0,0,1,3.433-5.569,5.79,5.79,0,0,1,2.269-.466,5.587,5.587,0,0,1,5.192,3.45,5.66,5.66,0,0,1-3.034,7.46,5.435,5.435,0,0,1-2.182.456,5.762,5.762,0,0,1-4.234-1.9l-.074.036-.223.11-6.966,2.936-.051.052A35.823,35.823,0,0,1,92.734,59.2a36.488,36.488,0,0,1-1.979,11.843l12.154,4.943,3.866,1.571a1.892,1.892,0,0,1,.452,3.285,1.848,1.848,0,0,1-1.155.386,2.051,2.051,0,0,1-.74-.137L101.3,79.437,89.316,74.523a35.689,35.689,0,0,1-6.83,9.882,36.1,36.1,0,0,1-10.035,7.231l2.237,5.32c.09,0,.173,0,.247,0a5.762,5.762,0,1,1-3.728,1.5l-2.243-5.324-.048-.049a36.047,36.047,0,0,1-12.238,2.144,35.681,35.681,0,0,1-11.788-2v.05l-3.585,8.756a.327.327,0,0,1-.062.177l-.011.019-.029.054a7.542,7.542,0,0,1-1.54,13.032A7.6,7.6,0,0,1,36.686,115.922Zm45.068-44.78a1.975,1.975,0,0,0-.746.149,2.278,2.278,0,0,0-.6.448,1.744,1.744,0,0,0-.4.6,1.538,1.538,0,0,0-.152.694,1.949,1.949,0,0,0,.152.746,2.121,2.121,0,0,0,1.039,1.047,2.974,2.974,0,0,0,.7.1,1.976,1.976,0,0,0,.746-.15,2.033,2.033,0,0,0,1.043-.994A1.992,1.992,0,0,0,83.1,71.69l-.031-.023a3.619,3.619,0,0,0-.564-.376A1.975,1.975,0,0,0,81.754,71.142ZM43.77,64.733a3.847,3.847,0,0,0-1.468.288,3.782,3.782,0,0,0,1.5,7.256,3.779,3.779,0,0,0,3.473-2.314,3.824,3.824,0,0,0,0-2.948,3.765,3.765,0,0,0-3.5-2.281ZM52.364,52a3.745,3.745,0,0,0-3.5,2.366,3.811,3.811,0,0,0,3.493,5.2,3.682,3.682,0,0,0,1.484-.312,3.731,3.731,0,0,0,2.039-4.925A3.853,3.853,0,0,0,52.364,52Zm25-16.562a5.684,5.684,0,0,0-2.182.435A5.752,5.752,0,0,0,72.114,39a5.573,5.573,0,0,0,.035,4.335,5.682,5.682,0,0,0,7.415,3.033,5.691,5.691,0,0,0,3.091-3.133,5.7,5.7,0,0,0-5.287-7.8ZM55.08,34.4A5.678,5.678,0,0,0,49.8,37.964a5.709,5.709,0,0,0,5.289,7.8,5.674,5.674,0,0,0,5.219-7.9A5.632,5.632,0,0,0,55.082,34.4ZM39.94,41.787a1.919,1.919,0,0,0-.771.156,1.682,1.682,0,0,0-.6.4,2.293,2.293,0,0,0-.449.595L38.11,43l-.007.027a3.438,3.438,0,0,0-.083.653,1.969,1.969,0,0,0,.155.746,1.9,1.9,0,0,0,.994,1,1.957,1.957,0,0,0,.743.149,1.989,1.989,0,0,0,.745-.149,1.89,1.89,0,0,0,.551-3.082,1.577,1.577,0,0,0-.508-.4l0,0-.088-.052A2.125,2.125,0,0,0,39.94,41.787ZM64.191,27.47a2.038,2.038,0,0,0-.749.148,2.38,2.38,0,0,0-.6.449,1.792,1.792,0,0,0-.4.595,2.021,2.021,0,0,0-.146.746,1.623,1.623,0,0,0,.146.7A1.972,1.972,0,0,0,63.5,31.149a1.616,1.616,0,0,0,.7.1,1.942,1.942,0,0,0,.742-.146,2.053,2.053,0,0,0,1.048-1,2.007,2.007,0,0,0-.448-2.092,4.006,4.006,0,0,0-.6-.4A1.992,1.992,0,0,0,64.191,27.47Z" fill="#fff" stroke="rgba(0,0,0,0)" stroke-miterlimit="10" stroke-width="1"/>
      <path id="Path_1987" data-name="Path 1987" d="M4721.341,1009.643a7.58,7.58,0,1,1-5.87-13.978,7.58,7.58,0,0,1,5.87,13.978Z" transform="translate(-4647.001 -939.247)" fill="#fff"/>
      <path id="Path_1989" data-name="Path 1989" d="M4693.333,1049.856a5.673,5.673,0,1,1,3.036-7.411,5.668,5.668,0,0,1-3.036,7.411Z" transform="translate(-4635.013 -959.961)" fill="#fff"/>
      <path id="Path_1991" data-name="Path 1991" d="M4642.518,1023.163a1.575,1.575,0,0,1-.15-.7,1.97,1.97,0,0,1,.15-.746,1.79,1.79,0,0,1,.4-.6,1.911,1.911,0,0,1,.647-.448,2.057,2.057,0,0,1,1.442,0,2.37,2.37,0,0,1,.6.448,1.928,1.928,0,0,1,.447,2.039,2.125,2.125,0,0,1-1.045,1.044,2.906,2.906,0,0,1-.7.1,1.907,1.907,0,0,1-.746-.1,2.124,2.124,0,0,1-1.044-1.044Z" transform="translate(-4614.694 -951.275)" fill="#fff"/>
      <path id="Path_1992" data-name="Path 1992" d="M4670.126,1046.889a2.009,2.009,0,0,1-.148-.746,1.594,1.594,0,0,1,.148-.7,1.79,1.79,0,0,1,.4-.6,2.37,2.37,0,0,1,.6-.448,1.945,1.945,0,0,1,1.493,0,4.3,4.3,0,0,1,.6.4,2.011,2.011,0,0,1,.448,2.089,2.042,2.042,0,0,1-1.045,1,1.967,1.967,0,0,1-.7.149,3.374,3.374,0,0,1-.747-.1,2.132,2.132,0,0,1-1.045-1.044Z" transform="translate(-4627.727 -962.466)" fill="#fff"/>
      <path id="Path_1993" data-name="Path 1993" d="M4665.982,949.937a1.985,1.985,0,0,1-.149-.747,3.791,3.791,0,0,1,.1-.745,4.539,4.539,0,0,1,.447-.6,2.484,2.484,0,0,1,.6-.4,2.06,2.06,0,0,1,1.443-.05,2.992,2.992,0,0,1,.647.448,1.929,1.929,0,0,1,.4,2.039,2.042,2.042,0,0,1-.995,1.044,1.94,1.94,0,0,1-1.494,0,1.934,1.934,0,0,1-.994-.994Z" transform="translate(-4625.77 -916.698)" fill="#fff"/>
      <path id="Path_1994" data-name="Path 1994" d="M4649.272,996.537a5.663,5.663,0,1,1,3.035-7.411,5.59,5.59,0,0,1-3.035,7.411Z" transform="translate(-4614.235 -934.797)" fill="#fff"/>
      <path id="Path_1995" data-name="Path 1995" d="M4745.22,997.236a3.769,3.769,0,1,1,2.041-4.973,3.82,3.82,0,0,1-2.041,4.973Z" transform="translate(-4660.782 -936.838)" fill="#fff"/>
      <path id="Path_1996" data-name="Path 1996" d="M4724.661,1043.326a3.779,3.779,0,0,1-2.936-6.964,3.779,3.779,0,1,1,2.936,6.964Z" transform="translate(-4651.066 -958.604)" fill="#fff"/>
      <path id="Path_1997" data-name="Path 1997" d="M4690.713,1014.983a2.9,2.9,0,0,1-.1-.7,3.809,3.809,0,0,1,.1-.747,1.716,1.716,0,0,1,.447-.6,1.373,1.373,0,0,1,.6-.448,2.387,2.387,0,0,1,1.443,0,1.357,1.357,0,0,1,.6.448,1.836,1.836,0,0,1,.448,2.039,1.958,1.958,0,0,1-1.044,1.045,1.59,1.59,0,0,1-.7.1,1.308,1.308,0,0,1-.746-.1,2.13,2.13,0,0,1-1.044-1.045Z" transform="translate(-4637.466 -947.423)" fill="#fff"/>
      <path id="Path_1998" data-name="Path 1998" d="M4714.227,980.462a1.938,1.938,0,0,1,0-1.492,1.833,1.833,0,0,1,.995-.994,2.2,2.2,0,0,1,1.492-.05,4.665,4.665,0,0,1,.6.448,1.864,1.864,0,0,1-.6,3.083,2,2,0,0,1-.746.149,1.6,1.6,0,0,1-.7-.149,2.039,2.039,0,0,1-1.043-.995Z" transform="translate(-4648.543 -931.107)" fill="#fff"/>
    </g>
  </g>
</svg>
