<svg xmlns="http://www.w3.org/2000/svg" width="244.499" height="195.264" viewBox="0 0 244.499 195.264">
  <g id="Group_813" data-name="Group 813" transform="translate(15.999 -15.651)">
    <path id="Path_2066" data-name="Path 2066" d="M62.855,8.318c-12.71,1.5-25.5,4.574-36.73,11.3S5.308,37.1,1.568,50.241s-.785,28.633,8.842,37.4c11.981,10.909,29.731,9.174,45.332,12.034,20.11,3.687,37.75,15.625,55.791,25.606s38.35,18.357,58.515,14.133c16.236-3.4,30.871-15.32,38.332-31.218s7.573-35.4.293-51.082c-10.5-22.625-33.7-34.754-56.16-42.655A304.711,304.711,0,0,0,101.683,1.363C95.338.3,88.862-.558,82.47.447S69.7,4.54,65.74,10.07Z" transform="translate(-15.999 75.827) rotate(-16)" fill="#f4ebd7" opacity="0.32"/>
    <path id="Path_2070" data-name="Path 2070" d="M250.345,1350.518a6.7,6.7,0,0,0-2.2,3.287,7.346,7.346,0,0,0-.293,2.021,9.331,9.331,0,0,0,.236,2.007,11.938,11.938,0,0,0,.626,1.884l.17.415c.05.13.112.26.154.39l.109.391c.04.131.044.256.072.385a1.792,1.792,0,0,1,.026.377,1.709,1.709,0,0,1-.031.364,2.111,2.111,0,0,1-.086.349,2.227,2.227,0,0,1-.165.323,2.767,2.767,0,0,1-1.226,1.008l.11.549a3,3,0,0,0,1.9-.938,2.632,2.632,0,0,0,.574-1,2.657,2.657,0,0,0,.121-.56,2.942,2.942,0,0,0,.029-.559,3.715,3.715,0,0,0-.044-.545l-.107-.523c-.043-.17-.1-.33-.155-.5s-.108-.335-.159-.464a13.547,13.547,0,0,1-.532-1.684,10.017,10.017,0,0,1-.254-1.709,7.834,7.834,0,0,1,.11-1.7,8.206,8.206,0,0,1,1.422-3.2Z" transform="translate(-48.889 -1230.091)" fill="#d3dfff"/>
    <path id="Path_2080" data-name="Path 2080" d="M445.227,1634.077c0-3.361,29.94-6.085,66.873-6.085s66.873,2.725,66.873,6.085c0,2.726-19.7,5.033-46.847,5.808-2.956,4.85,1.979,10.652,5.761,12.744,6.642.332,11.408,1.071,10.658,2.647-3.55,7.454-33.715-.478-33.715-.478s-11.8.733-11.8-.388c0-.516,2.078-.987,5.494-1.346l-.252-.015,12.735-12.941q-4.373.053-8.91.054C475.167,1640.162,445.227,1637.438,445.227,1634.077Z" transform="translate(-405.418 -1467.791)" fill="#1f3c88" opacity="0.15"/>
    <path id="Path_2081" data-name="Path 2081" d="M397.26,1138.353c.882,14.546,8.214,29.081,20.233,37.079,14.327,9.536,34.359,7.425,50.675,8.64,14.1,1.05,28.317,1.953,42.426.451,11.561-1.233,23.222-5.812,28.744-17.036,5.533-11.249,6.131-26.2.6-37.581a36.477,36.477,0,0,0-6.9-9.679c-.452-.462-.921-.914-1.4-1.354-.323-.3-.649-.591-.982-.878-.509-.441-1.032-.871-1.562-1.29-.176-.136-.351-.272-.53-.409s-.355-.269-.534-.4-.358-.265-.541-.394l-.409-.29q-.339-.242-.688-.473a48.006,48.006,0,0,0-6.472-3.662,51.6,51.6,0,0,0-6.68-2.6c-7.422-2.3-15.173-3.121-22.831-4.128a377.166,377.166,0,0,0-49.177-2.849c-13.367,0-28.418,2-37.355,13.478C398.829,1121.456,396.755,1130.067,397.26,1138.353Z" transform="translate(-363.358 -1016.767)" fill="#ee6f57"/>
    <path id="Path_2082" data-name="Path 2082" d="M1232.086,1148.4s-3.448-3.239-5.275-5.114,2.159-1.935,4.124.4A5.113,5.113,0,0,1,1232.086,1148.4Z" transform="translate(-1170.666 -1051.379)" fill="#f9b384"/>
    <path id="Path_2083" data-name="Path 2083" d="M483.417,1168.3a48.009,48.009,0,0,1,6.472,3.662q.349.231.688.473l.409.29c.183.129.362.262.541.394s.358.265.534.4.355.272.53.409q.785.623,1.541,1.279l.022.011c.333.287.659.58.982.878.477.441.946.892,1.4,1.355a.913.913,0,0,1-.693.829c-2.69.544-4.037,3.11-6.2,4.569a5.954,5.954,0,0,1-5.331.759c1.96,4.151,3.041,8.269,2.195,12.915a16.561,16.561,0,0,1-1.312,4.064c2.519-1.871,4.945-5.878,5.943-9.943a1.075,1.075,0,0,1,2.088.513c-1.235,5.031-4.38,9.866-7.648,11.756a7.023,7.023,0,0,1-2.351.868,16.467,16.467,0,0,1-2.164,2.291l-4.831,1.351-3.942-25.443Z" transform="translate(-326.856 -1073.993)" fill="#b35341"/>
    <path id="Path_2084" data-name="Path 2084" d="M544.579,914.249a104.272,104.272,0,0,0,20.947-10.781,8.093,8.093,0,0,0,3.394-8.05L563.77,865.4a9.261,9.261,0,0,0-5.46-6.952,91.593,91.593,0,0,0-23.407-6.549,56.342,56.342,0,0,0-9.049.179c-3.338.329-10.978,2.581-15.835,4.089a9.411,9.411,0,0,0-5.986,5.586c-2.036,5.249-5.345,14.113-6.4,18.9-3.643,16.544-3.046,15.32-3.046,15.32l-3.763,25.443,39.957,2.24L541,919Z" transform="translate(-402.019 -802.855)" fill="#ffd91f"/>
    <path id="Path_2085" data-name="Path 2085" d="M680.936,624.384s3.539-7.257,12.946-3.942c6.809-1.478,12,6.585,6.988,17.56l-9.452,2.2Z" transform="translate(-563.103 -603.924)" fill="#102048"/>
    <path id="Path_2086" data-name="Path 2086" d="M709.583,796.25v12.836a5.441,5.441,0,0,0,5.44,5.44,7.372,7.372,0,0,0,7.371-7.371v-10.9Z" transform="translate(-586.733 -755.273)" fill="#f9b384"/>
    <path id="Path_2087" data-name="Path 2087" d="M732.708,831.3v7c5.709.029,9.5-7.353,9.5-7.353Z" transform="translate(-609.858 -785)" fill="#e28b6d"/>
    <path id="Path_2088" data-name="Path 2088" d="M703.511,682.733a24.769,24.769,0,0,0,1.541,5.2c1.233,2.813,3.114,4.956,5.988,5.017,6.726.143,11.915-9.048,11.915-9.048l-1.075-12.543-5.107-5.734-14.065,8.69A47.494,47.494,0,0,0,703.511,682.733Z" transform="translate(-586.309 -643.373)" fill="#f9b384"/>
    <path id="Path_2089" data-name="Path 2089" d="M721.716,664.166a18.5,18.5,0,0,0-6.226-9.317s-7.033,9.183-14.469,4.748-4.211-13.17,2.733-11.826l7.973-.9,9.989,3.18,1.7,7.839Z" transform="translate(-585.921 -627.31)" fill="#102048"/>
    <path id="Path_2090" data-name="Path 2090" d="M591.321,1032.08c6.776-14.641,15.317-7.653,17.407-13.028,2.929-7.532,2.374-16.052,2.389-18.635l4.081,22.98s-9.112.866-12.48,6.353Z" transform="translate(-462.585 -930.175)" fill="#d6b305" opacity="0.4"/>
    <path id="Path_2091" data-name="Path 2091" d="M590.287,997.37c.254,1.966.553,3.924.863,5.88s.655,3.906.98,5.859q.51,2.926,1.08,5.842l.584,2.913c.211.968.408,1.939.634,2.9l.3-.052c-.118-.985-.267-1.964-.4-2.945l-.451-2.936q-.462-2.935-.991-5.857c-.365-1.946-.7-3.9-1.091-5.84s-.771-3.885-1.207-5.819Z" transform="translate(-441.963 -927.519)" fill="#1f3c88"/>
    <path id="Path_2092" data-name="Path 2092" d="M900.991,972.328c-.543,2.553-1.043,5.114-1.534,7.676s-.949,5.131-1.425,7.7q-.682,3.853-1.332,7.712l-.625,3.863c-.193,1.291-.4,2.579-.578,3.872l.276.049c.279-1.275.531-2.555.8-3.833l.749-3.841q.725-3.845,1.415-7.7c.439-2.572.905-5.138,1.322-7.714s.84-5.15,1.214-7.733Z" transform="translate(-792.255 -906.112)" fill="#1f3c88"/>
    <path id="Path_2093" data-name="Path 2093" d="M836.956,1055c-.478,4.659.239,28.788,11.467,29.146l-.119,5.256-17.679-1.075Z" transform="translate(-730.113 -976.933)" fill="#d6b305" opacity="0.4"/>
    <path id="Path_2094" data-name="Path 2094" d="M764.113,1234.377c-7.973-3.4-9.5-3.278-10.571-3.225-3.673.179-8.959,7.525-8.959,7.525l.09,1.344H764.83Z" transform="translate(-634.186 -1127.821)" fill="#e28b6d"/>
    <rect id="Rectangle_226" data-name="Rectangle 226" width="24.816" height="3.763" transform="translate(99.258 110.886)" fill="#fff"/>
    <path id="Path_2095" data-name="Path 2095" d="M907.8,1079.93h43.122l-9.676-38.536H898.125Z" transform="translate(-842.288 -965.278)" fill="#297045"/>
    <path id="Path_2096" data-name="Path 2096" d="M897.292,1196.869c4.267-.637,18.063-3.5,46.493,13.817l.657,2.389-43.242-.445Z" transform="translate(-835.687 -1097.978)" fill="#9ee493"/>
    <path id="Path_2097" data-name="Path 2097" d="M1178.646,1259.063c.269,1.814.358,4.479,5.98,4.144l1.657-.851-1.568-1.724-3.382-1.725Z" transform="translate(-1117.859 -1151.611)" fill="#f9b384"/>
    <path id="Path_2098" data-name="Path 2098" d="M1190.946,1225.833s-3.077,4.019.015,5.256a17.789,17.789,0,0,0,6.585,1.209c-1.433-4.031-6.092-3.763-6.092-3.763Z" transform="translate(-1130.689 -1123.279)" fill="#f9b384"/>
    <path id="Path_2099" data-name="Path 2099" d="M1189.4,1207.708s-4.241,3.942-.3,5.047a45.039,45.039,0,0,0,7.287,1.672c.3-2.957-5.226-4.868-5.226-4.868Z" transform="translate(-1129.228 -1107.752)" fill="#f9b384"/>
    <path id="Path_2100" data-name="Path 2100" d="M1188.44,1183.75s-5.793,3.524-.358,5.495,6.719,1.941,6.719,1.941c.3-2.956-5.525-3.972-5.525-3.972Z" transform="translate(-1127.407 -1087.228)" fill="#f9b384"/>
    <path id="Path_2101" data-name="Path 2101" d="M1194.03,1221.169s-6.316-.9-8.2-2.419" transform="translate(-1126.636 -1117.211)" fill="none" stroke="#e28b6d" stroke-miterlimit="10" stroke-width="2.5"/>
    <path id="Path_2102" data-name="Path 2102" d="M1196.13,1240.484s-6.57-.926-8.63-2.359" transform="translate(-1128.975 -1133.809)" fill="none" stroke="#e28b6d" stroke-miterlimit="10" stroke-width="2.5"/>
    <path id="Path_2103" data-name="Path 2103" d="M1195.675,1265.316s-3.9.134-6.092-.941" transform="translate(-1128.818 -1156.296)" fill="none" stroke="#e28b6d" stroke-miterlimit="10" stroke-width="2.5"/>
    <path id="Path_2104" data-name="Path 2104" d="M785.284,1600.037c-.657-.358-11.049,1.911-22.576-6.63l14.872-4.24Z" transform="translate(-657.238 -1434.531)" fill="#102048"/>
    <path id="Path_2105" data-name="Path 2105" d="M771.241,1305.242c-.495-.706-.921-1.745-.3-2.34.649-.624,1.709-.075,2.39.512a28.687,28.687,0,0,1,3.3,3.369l25.107,4.666,34.4,8.36-5.915,7.55c-17.2,1.254-27,1.577-37.762-.323-5.487-.968-10.392-1.966-14.05-4.948-.871-.713-1.695-1.91-1.129-2.881a2.122,2.122,0,0,1,1.978-.821,25.412,25.412,0,0,1-5.318-1.9c-.756-.366-1.6-.939-1.58-1.777a1.557,1.557,0,0,1,1.057-1.326,4.109,4.109,0,0,1,1.774-.154,24.264,24.264,0,0,1,6.716,1.484C777.989,1311.979,774,1309.144,771.241,1305.242Zm10.722,9.511c0-.007,0-.011-.011-.018a.145.145,0,0,1-.036-.014Z" transform="translate(-709.23 -1189.064)" fill="#b35341"/>
    <path id="Path_2106" data-name="Path 2106" d="M875,1252.59s-33.506-15.947-44.436-15.23-10.572,14.334-6.45,20.247,13.8,13.8,49.453,11.468Z" transform="translate(-755.378 -1133.133)" fill="#00385d"/>
    <path id="Path_2107" data-name="Path 2107" d="M696.879,1579.812a18.9,18.9,0,0,0,7.927.075s4.587,1.19,9.1,2.125a41.9,41.9,0,0,0,7.622,1.1c.133,0,.265-.011.4-.021a14.065,14.065,0,0,0,8.679-3.963.035.035,0,0,1,.014-.018,5.52,5.52,0,0,0,1.179-1.967c1.075-3.347-1.2-7.407-13.5-6.572,0,0-4.06-.953-5.017-3.942s6.092-17.319,6.092-17.319l-10.034-6.809-9.855,10.93S698,1563.285,698,1566.51c0,0-4.178,5.974-4.777,8.6C692.837,1576.788,693.675,1578.906,696.879,1579.812Z" transform="translate(-594.022 -1394.554)" fill="#d3dfff"/>
    <path id="Path_2108" data-name="Path 2108" d="M571.082,1159.045c-1.149-.442-2.32-.8-3.5-1.128-.593-.162-1.189-.313-1.8-.432q-.455-.092-.921-.157c-.156-.021-.312-.037-.474-.05a3.435,3.435,0,0,0-.5.01,14.817,14.817,0,0,0-3.613.968c-1.153.439-2.282.931-3.39,1.464s-2.194,1.111-3.258,1.725-2.11,1.26-3.128,1.951a33.7,33.7,0,0,0-5.64,4.734l.213.213q1.351-1.223,2.814-2.307c.968-.731,1.969-1.417,2.993-2.067a61.753,61.753,0,0,1,6.336-3.571c1.086-.538,2.192-1.035,3.316-1.478a16.383,16.383,0,0,1,3.417-1.025,2.819,2.819,0,0,1,.412-.024c.142.007.291.018.437.034.3.033.592.075.889.126.593.1,1.187.224,1.78.357,1.183.269,2.363.583,3.521.941Z" transform="translate(-411.809 -1064.546)" fill="#1f3c88"/>
    <path id="Path_2109" data-name="Path 2109" d="M605.937,1450.83c-4.032-.269-7.994.02-10.87-.985-3.076-1.075-11.109-.358-11.109-.358l4.42-6.361L606.3,1447.6Z" transform="translate(-452.627 -1309.423)" fill="#b35341"/>
    <path id="Path_2110" data-name="Path 2110" d="M614.663,1224.177c4.121-6.63,4.121-19.71-1.075-25.622-5.939-6.758-18.635-9.317-25.264-1.433S569.51,1233.852,567,1253.383c0,0,13.438-4.479,22.576,6.63,0,0,12.005-27.414,14.513-37.448l6.809,5.375Z" transform="translate(-461.532 -1094.507)" fill="#054772"/>
    <path id="Path_2111" data-name="Path 2111" d="M454.079,1402.99s1.792-.657,4.3,1.015c0,0,19.59-.418,23.95,4s1.015,10.333-5.375,10.99c-5.364.551-15.776-3.609-18.984-4.961a6.346,6.346,0,0,0-2.05-.485l-5.306-.347Z" transform="translate(-311.519 -1274.932)" fill="#d3dfff"/>
    <path id="Path_2112" data-name="Path 2112" d="M676.921,749.486s1.314-4.355,4.2-3.266,1.351,6.757-4.355,8.334Z" transform="translate(-542.185 -712.265)" fill="#f9b384"/>
    <path id="Path_2113" data-name="Path 2113" d="M712.131,931.973a20.8,20.8,0,0,1-4.56,2.485,13.465,13.465,0,0,1-5.017.946,11.092,11.092,0,0,1-4.907-1.218l-.572-.291c-.187-.1-.359-.233-.54-.349a8.371,8.371,0,0,1-1.045-.755l-.5-.408-.253-.2c-.082-.071-.155-.151-.233-.227q-.459-.461-.931-.915l-.214.18q.423.511.861,1.016c.074.083.142.172.221.251l.243.23.487.46a8.822,8.822,0,0,0,1.05.837c.183.13.358.273.549.391l.587.335a10.769,10.769,0,0,0,5.193,1.375,13.273,13.273,0,0,0,5.251-1.1,17.234,17.234,0,0,0,4.506-2.826Z" transform="translate(-574.316 -870.74)" fill="#1f3c88"/>
    <path id="Path_2114" data-name="Path 2114" d="M645.4,1323.942l-1.553,5.433c-.528,1.807-1.022,3.623-1.574,5.422s-1.078,3.6-1.645,5.4c-.284.9-.563,1.794-.874,2.681-.152.444-.289.9-.449,1.337s-.316.885-.468,1.331l.259.108q.6-1.285,1.129-2.6c.352-.878.673-1.767,1-2.654.637-1.78,1.2-3.583,1.733-5.395.517-1.816,1.028-3.633,1.477-5.466s.883-3.669,1.241-5.524Z" transform="translate(-499.875 -1207.325)" fill="#102048"/>
    <path id="Path_2115" data-name="Path 2115" d="M796.771,1754.089a18.9,18.9,0,0,0,7.927.075s7.586,1.942,12.379,2.7c-4.927-.986-12.095-7.078-11.288-10.93C798.711,1748.267,796.785,1751.806,796.771,1754.089Z" transform="translate(-693.914 -1568.83)" fill="#1f3c88" opacity="0.1"/>
    <path id="Path_2116" data-name="Path 2116" d="M698.958,1793.943a7.15,7.15,0,0,0,3.705,2.272,10.123,10.123,0,0,0,2.294.333,14.063,14.063,0,0,0,8.679-3.963.036.036,0,0,1,.014-.018,8.457,8.457,0,0,0,.581-.892,14.444,14.444,0,0,1-3.437,2.4,13.67,13.67,0,0,1-1.9.774c-.319.122-.652.193-.982.287a8.571,8.571,0,0,1-1,.2A11.089,11.089,0,0,1,698.958,1793.943Z" transform="translate(-577.047 -1608.011)" fill="#1f3c88" opacity="0.4"/>
    <path id="Path_2117" data-name="Path 2117" d="M685.575,758.256a2.949,2.949,0,0,1,.467-1.089,3.269,3.269,0,0,1,.79-.852.879.879,0,0,1,.916-.169,2.074,2.074,0,0,1,.729.864l.2-.069a1.793,1.793,0,0,0-.687-1.2,1.074,1.074,0,0,0-.781-.161,1.673,1.673,0,0,0-.686.3,2.963,2.963,0,0,0-.877,1.059,2.3,2.3,0,0,0-.279,1.323Z" transform="translate(-549.54 -720.417)" fill="#e28b6d"/>
    <path id="Path_2118" data-name="Path 2118" d="M814.407,765.851c.126.618.592,1.045,1.04.954a1.024,1.024,0,0,0,.584-1.285c-.126-.618-.592-1.045-1.04-.954A1.024,1.024,0,0,0,814.407,765.851Z" transform="translate(-695.422 -728.121)" fill="#102048"/>
    <ellipse id="Ellipse_121" data-name="Ellipse 121" cx="1.142" cy="0.829" rx="1.142" ry="0.829" transform="translate(126.15 38.587) rotate(-99.261)" fill="#102048"/>
    <path id="Path_2119" data-name="Path 2119" d="M792.886,777.472c-.043.509-.063,1.015-.069,1.511a.9.9,0,0,1-.267.524,5.565,5.565,0,0,0-.521.6,1.235,1.235,0,0,0-.185.434,1.55,1.55,0,0,0-.03.456,1.506,1.506,0,0,0,.33.833,1.145,1.145,0,0,0,.368.294,1.05,1.05,0,0,0,.457.1,1.482,1.482,0,0,0,.788-.286l-.1-.185a1.411,1.411,0,0,1-.668.1.658.658,0,0,1-.473-.3,1.1,1.1,0,0,1-.04-1.143c.11-.177.294-.343.467-.561a1.3,1.3,0,0,0,.331-.844c-.039-.521-.1-1.03-.181-1.538Z" transform="translate(-669.883 -739.172)" fill="#e28b6d"/>
    <path id="Path_2120" data-name="Path 2120" d="M761.857,751.065a3.358,3.358,0,0,0-1.006-.691,2.662,2.662,0,0,0-1.247-.238,2.269,2.269,0,0,0-1.207.442,2.877,2.877,0,0,0-.806.933l.166.129a5.836,5.836,0,0,1,.895-.665,2.342,2.342,0,0,1,.989-.306,4.161,4.161,0,0,1,2.093.566Z" transform="translate(-633.077 -715.766)" fill="#102048"/>
    <path id="Path_2121" data-name="Path 2121" d="M812.29,754.249a1.531,1.531,0,0,0-.785-.861,2.38,2.38,0,0,0-1.143-.256,2.341,2.341,0,0,0-1.131.311,1.83,1.83,0,0,0-.774.855l.176.115a2.527,2.527,0,0,1,1.743-.746,2.115,2.115,0,0,1,1.726.675Z" transform="translate(-690.802 -718.336)" fill="#102048"/>
    <path id="Path_2122" data-name="Path 2122" d="M779.078,819.63l-4.754.339S776.977,823.486,779.078,819.63Z" transform="translate(-652.698 -775.302)" fill="#fff"/>
    <path id="Path_2123" data-name="Path 2123" d="M816.658,784.825a24.773,24.773,0,0,0,1.541,5.2,2.745,2.745,0,0,0-1.179-5.225A2.43,2.43,0,0,0,816.658,784.825Z" transform="translate(-699.456 -745.465)" fill="#ee6f57" opacity="0.4"/>
    <ellipse id="Ellipse_122" data-name="Ellipse 122" cx="2.747" cy="2.747" rx="2.747" ry="2.747" transform="translate(130.77 45.051) rotate(-157.22)" fill="#ee6f57" opacity="0.4"/>
  </g>
</svg>
