<svg xmlns="http://www.w3.org/2000/svg" width="900.872" height="489.044" viewBox="0 0 900.872 489.044">
  <g id="Group_931" data-name="Group 931" transform="translate(-524 -231.159)">
    <path id="Path_1977" data-name="Path 1977" d="M1038.663,860.765l-87.749,1.671-85.062-.243-18.266-.052-66.24-.187-80.728-.231-69.981-.2-3.964-.013-18.457-.052L446.293,861,365,860.765l-7.669-.022-44.542-.126-116.066-.331S52.742,545.025,247.379,428.3c250.739-150.365,365.874,59.669,461.923,51.46C850.564,467.69,1092.457,380.693,1038.663,860.765Z" transform="translate(378.539 -142.764)" fill="#ebf3fa"/>
    <g id="Group_806" data-name="Group 806" transform="translate(218.311 -180.344)">
      <path id="Path_1931" data-name="Path 1931" d="M2047.5,1582.97l-69.57-.183c4.509-1.928,10.4-3.745,16.714-5.9C2010.479,1571.473,2032.052,1578.93,2047.5,1582.97Z" transform="translate(-1121.667 -736.513)" fill="#dfebfd"/>
      <path id="Path_1932" data-name="Path 1932" d="M2596.4,1015.366c-11.839,3.477-24.417-8.743-24.417-8.743s7.514-5.415,9.992-16.858q.186-.864.33-1.773a35.753,35.753,0,0,0,.445-6.234l4.171,3.5,1.476,1.235,5.629,6a25.242,25.242,0,0,0-1.933,6.6c-.145,1.176-.333,2.538-.581,4.069q-.248,1.537-.582,3.295C2595.921,1009.334,2596.4,1015.366,2596.4,1015.366Z" transform="translate(-1503.569 -355.138)" fill="#ffb27d"/>
      <path id="Path_1933" data-name="Path 1933" d="M2616.032,1001.65s-.048,1.642-.41,4.6c-8.432-3.81-6.7-6.893-7.453-10.042-.118-.48.9-.684,2.225-.793l1.305,1.092Z" transform="translate(-1526.829 -363.916)" fill="#ed975d"/>
      <path id="Path_1934" data-name="Path 1934" d="M2606.27,957.887c16.047,3.863,16.936-32.878.257-35.794-17.5-3.059-19.991,13.076-11.306,25.847C2598.3,952.472,2600.853,956.583,2606.27,957.887Z" transform="translate(-1515.388 -316.538)" fill="#f6bd96"/>
      <path id="Path_1935" data-name="Path 1935" d="M2586.129,940.8c-1.7-3.57-3.208-7.61-2.085-11.4,1.1-3.727,4.594-6.357,8.313-7.488s7.686-1.008,11.57-.875c2.144.073,4.179-.216,6.156.629,0,0,2.584.252,3.256,1.006.9,1.015,1.861.336,3.086.923a4.793,4.793,0,0,1,2.209,3.554,7.645,7.645,0,0,1-.336,4.8,7.386,7.386,0,0,1-4.39,3.39l-1.2.435a5.165,5.165,0,0,1-3.807,1.313,31.319,31.319,0,0,1-3.964-.382c-1.556-.15-3.966-.7-5.263.4a4.087,4.087,0,0,0-1.049,3.508,16.083,16.083,0,0,1,.241,3.786,4.874,4.874,0,0,0-1.5-.826,1.655,1.655,0,0,0-1.607.331,1.915,1.915,0,0,0,.255,2.483c.6.693,3.222,2.121,2.2,3.416-5.277,6.667-6.156,4.529-8.152,4.313-2.939-.319-2.038-3.317-2.384-5.029C2587.085,946.182,2587.4,943.462,2586.129,940.8Z" transform="translate(-1511.076 -316.049)" fill="#091a4c"/>
      <path id="Path_1936" data-name="Path 1936" d="M2656.793,982.864a2.2,2.2,0,0,0,2.613-.346" transform="translate(-1558.095 -355.626)" fill="none" stroke="#39395c" stroke-linecap="round" stroke-miterlimit="10" stroke-width="0.8"/>
      <path id="Path_1937" data-name="Path 1937" d="M2654.7,977.573a3.871,3.871,0,0,1,3.611.2" transform="translate(-1556.751 -352.223)" fill="none" stroke="#39395c" stroke-linecap="round" stroke-miterlimit="10" stroke-width="0.8"/>
      <path id="Path_1938" data-name="Path 1938" d="M2608.609,992.19c.6.692,2.6,2.383,1.625,3.713-3.436,4.671-4.09,3.49-6.983,4" transform="translate(-1523.674 -361.844)" fill="#091a4c"/>
      <path id="Path_1939" data-name="Path 1939" d="M2666.6,986.726l.781,3.339c.257,1.1-.281,2.156-1.077,2.121l-.734-.032Z" transform="translate(-1563.739 -358.332)" fill="#f6bd96"/>
      <path id="Path_1940" data-name="Path 1940" d="M701.058,910.706H886.386v48.68H754.605v51.808H870.739v48.678H754.605V1154.1H701.058Z" transform="translate(-300.785 -309.46)" fill="#52bbe1"/>
      <path id="Path_1941" data-name="Path 1941" d="M1263.04,924.21H1311.1l101.541,238.621H1358.15l-21.662-53.14H1236.3l-21.662,53.14H1161.5Zm54.832,139.449-31.478-76.832-31.477,76.832Z" transform="translate(-596.795 -318.141)" fill="#52bbe1"/>
      <path id="Path_1942" data-name="Path 1942" d="M2053.479,1129.635a129.126,129.126,0,0,1-70.4,20.308c-73.11,0-125.572-54.493-125.572-122.526,0-67.356,53.14-122.526,126.249-122.526s125.572,54.494,125.572,122.526a119.758,119.758,0,0,1-20.985,68.032l24.37,20.647-33.17,36.893Zm-38.585-34.186s23.648-12.168,33.509-34.862c4.286-9.866,6.431-20.647,6.431-33.17,0-40.617-29.786-74.464-71.756-74.464S1912,986.124,1912,1027.417c0,40.617,29.785,74.463,71.755,74.463A76.357,76.357,0,0,0,2014.894,1095.449Z" transform="translate(-1044.246 -305.721)" fill="#52bbe1"/>
      <path id="Path_1943" data-name="Path 1943" d="M2696.649,1207.019s6.187,3.518,7.918,3.517,8.53-1.314,10.425-.346,5.324,4.864,5.969,6.137c1.157,2.288-4.659,1.277-7.408-.672a1.733,1.733,0,0,0-1.373-.284c-1.424.31-4.382.848-5.81.32-1.921-.711-12.037-1.5-12.037-1.5Z" transform="translate(-1582.228 -499.954)" fill="#ffb27d"/>
      <path id="Path_1944" data-name="Path 1944" d="M2569.023,1061.406s6.413,45.579,17.032,49.662c5.24,2.015,28.4,6.581,35.247,7.039,0,0,1.678-1.361,1.269-6.9,0,0-24.261-8.907-27.708-13.751-5.129-7.209,3.185-29.451-3.252-36.222S2574.333,1051.551,2569.023,1061.406Z" transform="translate(-1501.669 -402.251)" fill="#efca17"/>
      <path id="Path_1945" data-name="Path 1945" d="M2560.335,1293.578a79.873,79.873,0,0,0,6.264,8.963c6.893,8.7,14.4,15.876,15.7,22.658a30.745,30.745,0,0,0,1.211,4.34c.546,1.554,1.221,3.187,2,4.875a150.246,150.246,0,0,0,11.666,19.943c7.55,11.187,14.649,20.521,14.649,20.521l13.019-.555c-.522-1.3-6.2-16.75-13.8-35.626-3.084-7.663-6.364-15.814-9.529-23.674q-.632-1.575-1.26-3.131c-.968-2.406-1.919-4.774-2.85-7.079-7.132-17.724-12.812-31.838-12.812-31.838s-28.507-10.8-31.468-3.8C2550.691,1274.944,2552.679,1280.6,2560.335,1293.578Z" transform="translate(-1490.82 -538.396)" fill="#023c63"/>
      <path id="Path_1946" data-name="Path 1946" d="M2720.4,1556.566s.666,10.743,2.745,10.9c.276.021,10.541.021,10.541.021l13.1-.076s-.085-3.158-3.917-3.825-10.242-3.36-12.562-8.422C2727.875,1549.834,2720.4,1556.566,2720.4,1556.566Z" transform="translate(-1598.989 -722.45)" fill="#163560"/>
      <path id="Path_1947" data-name="Path 1947" d="M2574.431,1468.177s-9.729,4.6-9.1,6.593c.083.264,3.893,9.8,3.893,9.8l4.934,12.141s2.9-1.252,2.1-5.056-.681-10.757,3.159-14.79C2583.454,1472.616,2574.431,1468.177,2574.431,1468.177Z" transform="translate(-1499.276 -667.849)" fill="#163560"/>
      <path id="Path_1948" data-name="Path 1948" d="M2569.347,1351.884s-5.465-5.525-6.463-9.187c0,0,18.8-18.267,25.515-22.7,7.711-5.09,12.72-5.119,11.482-6.366-4.054-4.085-38.121-16-43.667-24.632a26.748,26.748,0,0,1-3.583-8.26,19.528,19.528,0,0,1-.263-8.9l42.374-1.226s31.508,32.68,31.326,44.981C2625.872,1328.885,2569.347,1351.884,2569.347,1351.884Z" transform="translate(-1490.722 -540.835)" fill="#063554"/>
      <path id="Path_1949" data-name="Path 1949" d="M2549.6,1083.932c1.228,16.515-.387,41.631,1.005,45.98,1.2,3.753,14.9,1.522,20.367.269,2.023-.464,4.475-1.126,7.006-1.909,7.061-2.187,14.755-5.309,15.581-7.627a2.028,2.028,0,0,0,.076-.267,2.116,2.116,0,0,0-.015-.971c-.275-1.181-1.335-2.459-1.461-5.385-.139-3.266-.118-7.112-.241-11.248-.007-.466-.013-.974-.064-1.437l0-.169c0-.089,0-.176-.006-.265-.119-4.612-.36-9.461-.639-14.271-.177-3.021-.383-6.011-.62-8.877-.616-7.4-1.446-13.976-2.544-18.136-1.795-6.78-5.753-11.2-9.356-14.442l-2.606-2.235a15.065,15.065,0,0,1-9.455-1.259c-3.365-1.6-4.527-2.743-5.114-2.312C2553.742,1045.368,2548.152,1063.743,2549.6,1083.932Z" transform="translate(-1489.036 -392.118)" fill="#ffd91f"/>
      <path id="Path_1950" data-name="Path 1950" d="M2593.308,1173.736c7.061-2.187,14.755-5.309,15.581-7.627a1.958,1.958,0,0,0,.076-.267c0-.324-.009-.648-.015-.971-.275-1.181-1.336-2.459-1.461-5.385-.139-3.266-.119-7.112-.241-11.248-.007-.466-.013-.974-.064-1.437l0-.169c0-.089,0-.176-.006-.265L2578.63,1110S2559.442,1149.957,2593.308,1173.736Z" transform="translate(-1504.364 -437.581)" fill="#efca17"/>
      <rect id="Rectangle_184" data-name="Rectangle 184" width="1.293" height="33.854" transform="translate(1145.41 720.566) rotate(-161.996)" fill="#4a75cb"/>
      <rect id="Rectangle_185" data-name="Rectangle 185" width="35.526" height="2.125" transform="translate(1145.411 720.567) rotate(-178.777)" fill="#4a75cb"/>
      <path id="Path_1951" data-name="Path 1951" d="M2690.132,1235.824s11.412,3.009,15.692,2.693,7.839-2.351,8.377-3.414,1.67-2.947-1.243-2.6-6.892.967-7.015.408,2.375-.507,2.375-.507.755-1.1-.2-1.138-3.725-.792-4.755-.277-1.981,2.417-2.734,2.338-9.55-3.963-9.55-3.963Z" transform="translate(-1579.528 -514.32)" fill="#f6bd96"/>
      <path id="Path_1952" data-name="Path 1952" d="M2576.948,1068.544s1.349,46.009,11.453,51.237c4.985,2.58,27.5,9.671,34.255,10.882,0,0,1.818-1.168,2.022-6.72,0,0-23.131-11.528-26.023-16.722-4.3-7.73,6.412-28.92.761-36.359S2583.312,1059.334,2576.948,1068.544Z" transform="translate(-1506.764 -407.519)" fill="#ffd91f"/>
      <rect id="Rectangle_186" data-name="Rectangle 186" width="771.928" height="2.858" rx="1.429" transform="translate(391.261 844.409)" fill="#9ee493"/>
      <path id="Path_1953" data-name="Path 1953" d="M943.775,865.025c6.234,10.851,14.076,15.04,14.076,15.04h32.623S939.019,856.747,943.775,865.025Z" transform="translate(-456.624 -278.949)" fill="#233862"/>
      <path id="Path_1954" data-name="Path 1954" d="M965.525,1054.606a3.016,3.016,0,0,1,.537,3.225.024.024,0,0,1-.008.016c-.778,2.15-3.349,4.551-6.335,6.949-.381.308-.721.588-1.016.847-.078.069-.156.136-.229.2-.06.053-.118.108-.176.159-2.784,2.567-1.736,3.155-6.739,8.363-5.7,5.935-9.631,6.042-10.748,5.5-.945-.461.975-3.608,3.1-7.146.1-.17.2-.343.31-.516.284-.47.565-.948.846-1.42,2.494-4.258,1.853-6.256,1.262-12.592-.48-5.149-8.01-28.767-8.01-28.767l10.93-1.883s3.292,18.807,6.919,21.7c1.94,1.543,4.11,1.563,5.974,2.707.132.08.261.161.388.245A14.333,14.333,0,0,1,965.525,1054.606Z" transform="translate(-453.319 -384.575)" fill="#ffb27d"/>
      <path id="Path_1955" data-name="Path 1955" d="M969.561,1098.549a3.016,3.016,0,0,1,.537,3.225.024.024,0,0,1-.008.016c-.953,2.148-3.459,4.537-6.345,6.927-.377.313-.71.6-1.006.869-.078.068-.156.136-.229.2-.06.052-.118.108-.176.159-2.784,2.567-1.736,3.155-6.739,8.363-5.7,5.935-9.631,6.042-10.748,5.5-.945-.461.975-3.608,3.1-7.146a24.3,24.3,0,0,0,10.167-7.492c3.434-4.383,5.725-10.014,8.064-13.276.132.08.261.161.388.245A14.333,14.333,0,0,1,969.561,1098.549Z" transform="translate(-457.355 -428.518)" fill="#233862"/>
      <path id="Path_1956" data-name="Path 1956" d="M708.629,1041.79c-.675,3.374-5.485,2.811-10.857,1.5s-4.1.248-11.743-.6-9.964-3.7-10.2-4.835c-.209-1.009,3.57-1.365,7.623-1.832.51-.057,1.021-.12,1.534-.183,4.576-.574,7.927-3.527,12.084-5.952,3.937-2.3,9.813-11.656,9.813-11.656l10.487.831s-5.5,8.359-7.632,11.993c-1.252,2.138-1.185,4.964-1.029,7.147A13.465,13.465,0,0,1,708.629,1041.79Z" transform="translate(-284.562 -378.586)" fill="#ffb27d"/>
      <path id="Path_1957" data-name="Path 1957" d="M697.772,1075.316c-5.374-1.313-4.1.248-11.743-.6s-9.964-3.7-10.2-4.835c-.209-1.009,3.57-1.365,7.623-1.832l.038.078a21.553,21.553,0,0,0,10.952,3.4c5.189.126,10.684-1.36,14.266-1.3a13.465,13.465,0,0,1-.081,3.588C707.954,1077.192,703.145,1076.629,697.772,1075.316Z" transform="translate(-284.562 -410.613)" fill="#233862"/>
      <path id="Path_1958" data-name="Path 1958" d="M880.232,866.153l9.8,26.381,12.8,34.446a20.737,20.737,0,0,0,6.8-.621,29.5,29.5,0,0,0,6.576-3.2s-3.554-36.986-10.184-58.217c-1.7-5.45-3.6-9.858-5.7-12.339C890.045,840.456,880.232,866.153,880.232,866.153Z" transform="translate(-415.973 -270.009)" fill="#233862"/>
      <path id="Path_1959" data-name="Path 1959" d="M803.778,769.612c6.423-2.072,24.742.589,43.144,4.191l3.853-6.355,39.748-3.1s13.116,29.087,5.936,47.62a6.721,6.721,0,0,1-6.727,4.529s-.579,0-.581,0-23.657-.014-31.339-.014c-19.768,0-41.834-13.588-44.689-14.159-4.673-.935-6.541,8.41-11.214,18.223S757.987,864,757.987,864s-6.032.06-8.524-.875a8.393,8.393,0,0,1-3.66-2.311S789.293,774.284,803.778,769.612Z" transform="translate(-329.551 -215.365)" fill="#00385d"/>
      <path id="Path_1960" data-name="Path 1960" d="M907.685,920.618l12.8,34.446a20.737,20.737,0,0,0,6.8-.621,29.494,29.494,0,0,0,6.576-3.2s-3.554-36.986-10.184-58.217Z" transform="translate(-433.622 -298.093)" fill="#064e7d"/>
      <path id="Path_1961" data-name="Path 1961" d="M1061.953,710.007c12.225.811,33.715-1.2,34.532-3.462,2.82-7.817.829-10.246,3.182-22.214l-5.9-16.6s.975,18.49-4.478,23.353-22.325,9.387-24.975,13.451A14.865,14.865,0,0,0,1061.953,710.007Z" transform="translate(-532.798 -153.252)" fill="#297045"/>
      <path id="Path_1962" data-name="Path 1962" d="M1062.732,760.982s-12.061-2.685-14.007-1.615-6.7,4.968-7.3,6.325,4.333-1.03,5.936-1.459c1.038-.279,3.771.671,5.123,1.122,5.692,1.9,9.18.921,9.18.921Z" transform="translate(-519.571 -212.004)" fill="#ffb27d"/>
      <path id="Path_1963" data-name="Path 1963" d="M1048.726,759.821l-7.348,3.568a1.309,1.309,0,0,0,1.217.47,17.529,17.529,0,0,0,3.187-.876Z" transform="translate(-519.571 -212.458)" fill="#ffb27d"/>
      <g id="Group_804" data-name="Group 804" transform="translate(493.285 429.344)">
        <path id="Path_1964" data-name="Path 1964" d="M966.049,456.016c-1.109,10.634,1.155,21.292,1.972,31.953s-.068,22.147-6.51,30.681c14.511,2.3,29.677-4.572,38.953-15.966s12.975-26.718,11.794-41.364c-.666-8.257.724-19.906-4.68-26.185-5.512-6.4-18.713-7.517-26.741-3.238C972.408,436.391,966.984,447.047,966.049,456.016Z" transform="translate(-961.512 -429.344)" fill="#091a4c"/>
        <path id="Path_1965" data-name="Path 1965" d="M1031.288,457.032a44.131,44.131,0,0,0-16.9-6.03c-4.832-.738-10.424-.941-15.2.759-3.564,5.33-4.82,11.864-4.6,18.2.13,3.771,1.85,18.113,7.513,23.013,7.458,6.453,22.815-7.464,25.688-12.508,3.712-6.515,5.351-11.344,4.464-18.681A33.611,33.611,0,0,0,1031.288,457.032Z" transform="translate(-982.755 -442.916)" fill="#f6bd96"/>
        <path id="Path_1966" data-name="Path 1966" d="M1057.7,544l16.572,21.13,9.467-13.452-15.363-17.2Z" transform="translate(-1023.349 -496.933)" fill="#f6bd96"/>
        <g id="Group_803" data-name="Group 803" transform="translate(13.486 32.425)">
          <path id="Path_1967" data-name="Path 1967" d="M1005.415,532.6c-.66-.456-1.55-.686-1.981-1.367-.195-.611,1.027-2.747.322-6a3.047,3.047,0,0,0-1.279-2.253,4.712,4.712,0,0,0-2.922-.593" transform="translate(-999.456 -521.565)" fill="none" stroke="#e7a579" stroke-linecap="round" stroke-linejoin="round" stroke-width="1"/>
          <path id="Path_1968" data-name="Path 1968" d="M1026.231,528.175a2.567,2.567,0,0,1-2.652.319" transform="translate(-1014.9 -525.306)" fill="none" stroke="#39395c" stroke-linecap="round" stroke-miterlimit="10" stroke-width="0.59"/>
          <path id="Path_1969" data-name="Path 1969" d="M1001.3,529.91a1.676,1.676,0,0,1-2.023-.013" transform="translate(-999.277 -526.413)" fill="none" stroke="#39395c" stroke-linecap="round" stroke-miterlimit="10" stroke-width="0.59"/>
          <path id="Path_1970" data-name="Path 1970" d="M1026.423,520.474a3.72,3.72,0,0,0-3.548.261" transform="translate(-1014.448 -520.142)" fill="none" stroke="#e7a579" stroke-linecap="round" stroke-miterlimit="10" stroke-width="1"/>
        </g>
        <path id="Path_1971" data-name="Path 1971" d="M1004.207,433.432c-4.789,3.1-7.717,5.656-6.246,10.968,1.112,4.011,19.734,32.219,42.837,35.167-1.224-2.213-3.906-10.2-2.351-17.012s2.235-14.133-.58-20.642C1032.613,429.761,1015.15,426.35,1004.207,433.432Z" transform="translate(-984.699 -429.622)" fill="#091a4c"/>
      </g>
      <path id="Path_1972" data-name="Path 1972" d="M1013.978,579.473s-15.57,3.309-18.216,10.556c-2.623,7.182-14.779,50.467-14.779,50.467a10.118,10.118,0,0,0,8.918-2.887c4.023-4.023,17.815-36.9,17.815-36.9Z" transform="translate(-480.744 -96.515)" fill="#f6bd96"/>
      <path id="Path_1973" data-name="Path 1973" d="M1025.359,621.03c.6,39.868.167,23.884,4.528,27.667,1.051.911,4.005,1.454,7.894,1.711,12.225.811,33.715-1.2,34.532-3.462,2.82-7.817.829-10.246,3.182-22.214.245-1.273.693-2.623.9-4.151,1.216-8.774,1.415-19.074-.33-33.9-.771-6.554-15.627-12-16.216-11.644-14.421,8.6-18.4,1.648-18.4,1.648s-8.082,1.222-9.1,3.83c-1.7,4.322-6.132,12.549-7.633,21.9C1023.641,609.113,1025.3,616.778,1025.359,621.03Z" transform="translate(-508.627 -93.653)" fill="#297045"/>
      <path id="Path_1974" data-name="Path 1974" d="M1050.02,598.435c-7.619,18.672-8.905,28.871-12.309,48.516a4.306,4.306,0,0,1-3.9,3.555c-9.2.734-17.693,1.246-25.65,2.109-3.11.338-5.627,5.024.717,7.244,9.076,3.176,12.183,3.524,19.754,4.754,3.286.533,8.438-.425,11.761-.219,6.562.407,10.3-4.44,13.442-10.216,7.008-12.89,8.09-20.4,10.132-33.164,1.244-7.774,2.41-10.913,1.68-18.21C1064.641,592.722,1052.546,592.244,1050.02,598.435Z" transform="translate(-496.149 -106.099)" fill="#f6bd96"/>
      <g id="Group_805" data-name="Group 805" transform="translate(449.612 515.886)">
        <path id="Path_1975" data-name="Path 1975" d="M886.267,788.678h76.747v1.694H886.948Z" transform="translate(-869.465 -746.896)" fill="#ed7d2b"/>
        <path id="Path_1976" data-name="Path 1976" d="M914.82,715.156H856.7l-17.483-43.477h58.03Z" transform="translate(-839.217 -671.679)" fill="#f99746"/>
      </g>
    </g>
    <g id="Group_767" data-name="Group 767" transform="translate(989.125 440)">
      <path id="Path_1663" data-name="Path 1663" d="M1116.453,413.428c-.231,6.1,1.461,12.091,2.329,18.137s.8,12.625-2.553,17.731c8.357.764,16.741-3.725,21.6-10.569s6.387-15.718,5.162-24.02c-.691-4.681-.339-11.373-3.655-14.747-3.384-3.442-10.949-3.578-15.363-.836C1119.337,402,1116.648,408.28,1116.453,413.428Z" transform="translate(-1081.913 -397.209)" fill="#091a4c"/>
      <path id="Path_1664" data-name="Path 1664" d="M1189.216,804.7s.259,3.969-1.763,6.225-9.544,3.452-10.555,6.019,7.579,2.726,10.467,1.94,10.39-1.406,12.268-1.508-2.415-12.584-2.8-12.929S1189.216,804.7,1189.216,804.7Z" transform="translate(-1176.816 -547.718)" fill="#f6bd96"/>
      <path id="Path_1665" data-name="Path 1665" d="M1109.621,801.013s-1.863,8.38-1.686,11.615,4.114,8.252,7.14,8.087,5.532-2.187,4.794-6.123-3.029-13.3-3.029-13.3Z" transform="translate(-1053.284 -546.488)" fill="#f6bd96"/>
      <path id="Path_1666" data-name="Path 1666" d="M1148.762,533.382s1.931-63.832-1.1-66.863c-1.214-1.214-11.135-4.488-17.914-5.6a79.7,79.7,0,0,0-18.093-.954s-10.338,12.39-10.338,16.988-.661,56.924-.661,56.924c-8,2.949-20.384,55.957-21.312,69.614s1.08,77.179,1.08,77.179l11.653-1.264c6.362-9.977,9.227-62.515,11.087-69.054,2.565-9.025,14.613-36.66,14.613-36.66l6.207-2.706s-1.437,41.655-.912,51.255-.073,56.1-.073,56.1l11.687-.639c9.15-16.409,15.686-92.121,15.469-96.086s3.824-10.466,4.669-21.816C1155.49,550.843,1148.762,533.382,1148.762,533.382Z" transform="translate(-1069.987 -420.351)" fill="#00385d"/>
      <rect id="Rectangle_147" data-name="Rectangle 147" width="20.73" height="2.195" transform="translate(37.593 111.39)" fill="#fff"/>
      <rect id="Rectangle_148" data-name="Rectangle 148" width="6.658" height="3.62" rx="1.81" transform="translate(44.505 110.846)" fill="#00385d"/>
      <path id="Path_1667" data-name="Path 1667" d="M1106.807,534.538s1.714-56.686-.625-65.755c-3.034-2.045-12.686-5.661-15.051-5.847.43,4.66-3.8,30.876-8.137,44.337-2.739,8.5-2.334,18.924-1.3,27.026h0a110.576,110.576,0,0,0,2.77,14.158c.25.076,6.684,3.528,17.864,3.529.479-.026,4.666-.306,9.451-1.051A130.111,130.111,0,0,0,1106.807,534.538Z" transform="translate(-1028.032 -421.507)" fill="#001c41" opacity="0.38"/>
      <path id="Path_1668" data-name="Path 1668" d="M1165.6,548.017c.246-.807-1.656-10.025-2.25-14.792h-.013c-3.931-31.922-.391-72.577-.337-73.194h-.008c-.238.234-.912.995-1.811,2.084-2.775,3.536-8.093,10.705-8.627,14.358-.01.11-.016.217-.016.32v.1c0,.576-.01,1.724-.025,3.309,0,.309-.015.632-.036.966-.132,13.461-.629,52.79-.629,52.79-2.584.953-5.626,7.129-8.591,15.513C1152.886,550.072,1164.919,550.248,1165.6,548.017Z" transform="translate(-1121.179 -420.433)" fill="#001c41" opacity="0.38"/>
      <path id="Path_1669" data-name="Path 1669" d="M1102.606,542.746c.018,8-21.528,8.569-31.77,3.971l1.115-34.7,3.513-49.417s12.945,2.567,17.352,5.563c0,0,1.43,51.378,2.683,61.828S1102.6,539.1,1102.606,542.746Z" transform="translate(-1012.514 -421.385)" fill="#297045"/>
      <path id="Path_1670" data-name="Path 1670" d="M1154.489,462.836s-5.056,40.911-5.056,51.571-2.018,29.05-2.018,29.05,10.9,4.18,18.515,2.3c0,0-7.228-41.041-7.228-43.72s7.327-42.03,7.327-42.03S1159.071,460.379,1154.489,462.836Z" transform="translate(-1124.206 -420.424)" fill="#297045"/>
      <path id="Path_1671" data-name="Path 1671" d="M1189.713,807.353l-14.14.92-.017-3.657,14.721-.8Z" transform="translate(-1166.193 -547.522)" fill="#00243b"/>
      <path id="Path_1672" data-name="Path 1672" d="M1121.733,803.624l-14.025.919-.08-3.641,14.722-.8Z" transform="translate(-1055.449 -546.149)" fill="#00243b"/>
      <path id="Path_1673" data-name="Path 1673" d="M1198.837,813.556c-1.116,1.409-4.754,4.295-15.4,3.019-2.773,1.119-5.909,2.183-6.537,3.777-1.011,2.567,7.58,2.725,10.467,1.94s10.39-1.406,12.268-1.508C1200.656,820.728,1199.847,817,1198.837,813.556Z" transform="translate(-1176.816 -551.125)" fill="#011a2b"/>
      <path id="Path_1674" data-name="Path 1674" d="M1107.934,816.674c.177,3.235,4.114,8.252,7.14,8.087s5.532-2.187,4.794-6.124c-.249-1.324-.673-3.264-1.127-5.254-.386,2.456-1.527,6.636-4.757,5.189-3.5-1.565-5.04-5.2-5.653-6.615A26.887,26.887,0,0,0,1107.934,816.674Z" transform="translate(-1053.284 -550.534)" fill="#011a2b"/>
      <path id="Path_1675" data-name="Path 1675" d="M1152.1,567.539c4.091-.208,9.293-.47,14.416-.723-.3-1.774-.618-3.6-.928-5.425l-13.1.695C1152.374,563.9,1152.24,565.751,1152.1,567.539Z" transform="translate(-1127.647 -457.904)" fill="#001653" opacity="0.18" style="mix-blend-mode: multiply;isolation: isolate"/>
      <path id="Path_1676" data-name="Path 1676" d="M1081.7,565.5h.07c3.178,0,15.549,3.377,20.042,3.377a8.72,8.72,0,0,0,4.251-1.1c-.007-.037-.014-.078-.021-.115-.09-.489-.17-1.006-.236-1.558-.032-.268-.064-.563-.1-.883-.162-1.548-.282-3.3-.39-4.949H1081.87Z" transform="translate(-1022.824 -457.49)" fill="#001653" opacity="0.18" style="mix-blend-mode: multiply;isolation: isolate"/>
      <path id="Path_1677" data-name="Path 1677" d="M1125.615,464.638s-3.825.8-9.224,18.894-1.812,41.33,1.914,43.742,39.909,1.52,39.909,1.52l.14-13.033s-27.393-4.28-30.1-7.606c-.666-.817.477-4.318.239-8.3C1127.758,487.63,1125.615,464.638,1125.615,464.638Z" transform="translate(-1095.244 -422.136)" fill="#297045"/>
      <path id="Path_1678" data-name="Path 1678" d="M1178.615,526.253a33.507,33.507,0,0,1-5.15-4.3c-1.406-1.725-4.221-4.045-4.345-2.814s1.163,3,1.163,3-5.115-3.573-5.793-3.021-1.35,4.381-.876,8.609,12.465,7.305,12.465,7.305Z" transform="translate(-1146.903 -442.155)" fill="#f6bd96"/>
      <path id="Path_1679" data-name="Path 1679" d="M1126.6,533.33c-13.046,2.177-40.579-7.518-51.745-11.027l4.185-14.485s32.884,9.1,37.193,7.164c2.13-.956,7.588-11.083,9.59-21.384a109.465,109.465,0,0,0,1.54-22.166s9.447,12.358,6.785,38.521C1132.114,529.915,1132.339,532.371,1126.6,533.33Z" transform="translate(-1047.059 -424.647)" fill="#297045"/>
      <path id="Path_1680" data-name="Path 1680" d="M1094.531,520.81s-3.08,2.606-5.481,4.565-6.167,7.22-6.167,7.22,4.467,1.061,6.033,1.22,6.714-2.705,8.5-2.524,1.268-2.469-.924-2.015-4.363.686-4.363.686,5.144-3.374,7.546-5.332.458-3.44-1.507-1.837a19.267,19.267,0,0,1-4.1,2.51s6.921-5.848,5.917-7.08S1094.531,520.81,1094.531,520.81Z" transform="translate(-1018.293 -441.855)" fill="#f6bd96"/>
      <path id="Path_1681" data-name="Path 1681" d="M1120.434,434.621s-.737,10.339-1.7,12.6a3.386,3.386,0,0,1-1.266,1.476c-2.72,1.828,2.135,24.845,4.61,24.336,2.669-.548,9.27-14.823,11.4-19.454a2.745,2.745,0,0,0-1.311-3.648l-.016-.008c-2.3-1.019-.6-19.97-.6-19.97Z" transform="translate(-1072.53 -409.312)" fill="#f6bd96"/>
      <path id="Path_1682" data-name="Path 1682" d="M1134.3,428.763a1.139,1.139,0,0,1,.486,1.1,15.231,15.231,0,0,1-1.667,5c-3.3,6.6-8.062,9.786-11.343,10.238a107.12,107.12,0,0,0,1.411-11.67Z" transform="translate(-1076.804 -408.874)" fill="#f26e5a" opacity="0.65" style="mix-blend-mode: multiply;isolation: isolate"/>
      <path id="Path_1683" data-name="Path 1683" d="M1140.151,410.84s-1.689-7.466-7.289-9.681-10.72-.55-12.664,6.758.868,18.9,4.27,22.459S1139.73,427.971,1140.151,410.84Z" transform="translate(-1080.772 -398.332)" fill="#f6bd96"/>
      <path id="Path_1684" data-name="Path 1684" d="M1114.391,419.264s2.806-4.349,4.53-1.834.2,8.517-3.061,8.831S1114.391,419.264,1114.391,419.264Z" transform="translate(-1056.69 -404.395)" fill="#fc7e72"/>
      <path id="Path_1685" data-name="Path 1685" d="M1146.686,434.536c-.581-.347-1.343-.491-1.743-1.04-.2-.5.712-2.368-.063-5.068a2.571,2.571,0,0,0-1.2-1.824,3.979,3.979,0,0,0-2.492-.337" transform="translate(-1100.09 -407.926)" fill="none" stroke="#e7a579" stroke-linecap="round" stroke-linejoin="round" stroke-width="1"/>
      <path id="Path_1686" data-name="Path 1686" d="M1136.951,428.044a2.163,2.163,0,0,1-2.214.417" transform="translate(-1087.138 -408.608)" fill="none" stroke="#39395c" stroke-linecap="round" stroke-miterlimit="10" stroke-width="1"/>
      <path id="Path_1687" data-name="Path 1687" d="M1148.81,429.705a1.414,1.414,0,0,1-1.7.1" transform="translate(-1106.794 -409.222)" fill="none" stroke="#39395c" stroke-linecap="round" stroke-miterlimit="10" stroke-width="1"/>
      <path id="Path_1688" data-name="Path 1688" d="M1137.072,424.482a3.139,3.139,0,0,0-2.971.417" transform="translate(-1086.857 -407.217)" fill="none" stroke="#e7a579" stroke-linecap="round" stroke-miterlimit="10" stroke-width="1.594"/>
      <path id="Path_1689" data-name="Path 1689" d="M1114.422,399.843c-2.612,1.946-4.185,3.515-3.145,6.487.785,2.244,12.461,17.618,25.74,18.427a16.438,16.438,0,0,1-1.982-9.607c.63-3.942.741-8.139-1.109-11.743C1130.474,396.679,1120.392,395.394,1114.422,399.843Z" transform="translate(-1072.212 -397.219)" fill="#091a4c"/>
    </g>
    <g id="Group_770" data-name="Group 770" transform="translate(884 444.146)">
      <path id="Path_1691" data-name="Path 1691" d="M6664.435,1962.268a.158.158,0,0,0-.083.17c.251,1.332,2.628,13.834,4.594,20.962,2.9,10.516,3.838,31.971,4.775,37.186a9.752,9.752,0,0,1,.14,2.366s10.544-3.877,9.949-6.019c-1.9-6.831-3.271-17.953-3.762-24.926-.725-10.345.868-22.535-5.208-34.947a.143.143,0,0,0-.193-.046Z" transform="translate(-6611.987 -1892.531)" fill="#f6bd96"/>
      <path id="Path_1692" data-name="Path 1692" d="M6717.64,2215.076s5.58,13.772-3.859,19.926a.894.894,0,0,1-1.365-.557,85.167,85.167,0,0,1-1.725-8.608.163.163,0,0,0-.323.021,28.507,28.507,0,0,1-.352,5.322s-3.581-7.262,0-14.809C6713.548,2208.922,6717.64,2215.076,6717.64,2215.076Z" transform="translate(-6645.063 -2091.001)" fill="#f6bd96"/>
      <path id="Path_1693" data-name="Path 1693" d="M6517.26,2765.568s-.03.31-.03.827a11.936,11.936,0,0,0,2.4,7.491c2.85,3.363,2.867,7.546-.144,8.261s-10.189-.228-10.189-.228-1.624-3.2-.515-11.745,1.751-17.917,1.751-17.917l8.18-1.449Z" transform="translate(-6486.578 -2509.134)" fill="#f6bd96"/>
      <path id="Path_1694" data-name="Path 1694" d="M6514.844,2834.39a54.293,54.293,0,0,1,3.744,6.62c.71,1.949.557,6.8,0,7.3-4.908,4.394-14.21.439-14.21.439a70.945,70.945,0,0,1-.963-7.177c-.322-3.956-.141-7.641.963-7.641s1.3,2.074,3.815,1.489S6512.26,2833.8,6514.844,2834.39Z" transform="translate(-6482.559 -2574.323)" fill="#52bbe1"/>
      <path id="Path_1695" data-name="Path 1695" d="M6504.819,2878.474a29.679,29.679,0,0,0,6.846,2.2c2.548.414,5.981-.874,8.57-2.167.133,2.072-.058,4.393-.436,4.731-4.906,4.394-14.209.439-14.209.439S6505.153,2881.476,6504.819,2878.474Z" transform="translate(-6483.772 -2609.26)" fill="#fff"/>
      <path id="Path_1696" data-name="Path 1696" d="M6613.677,2771.551a10.508,10.508,0,0,0,2.71,10.458,14.171,14.171,0,0,0,3.265,2.285c4.765,2.363,10.936,1.832,11.8,6.686s-30.214-1.362-30.214-1.362,2.155-11.806,2.295-13.783-.19-9.239-.19-9.239l12-.978Z" transform="translate(-6559.388 -2520.751)" fill="#f6bd96"/>
      <path id="Path_1697" data-name="Path 1697" d="M6600.741,2829.459s-.379,1.875-1.25,5.053a15.586,15.586,0,0,0-.327,6.172s29.107,1.564,30.286.518.573-4.853.275-5.19-3.992-1.469-5.886-2.795-8.366-6.342-10.551-6.139-3.2,2.034-7.346,2.243S6601.771,2828.544,6600.741,2829.459Z" transform="translate(-6557.632 -2568.947)" fill="#52bbe1"/>
      <path id="Path_1698" data-name="Path 1698" d="M6629.449,2873.7c-1.179,1.046-30.286-.519-30.286-.519a15.663,15.663,0,0,1-.029-4.4c15.194,3.194,30.59-.271,30.59-.271C6630.022,2868.852,6630.626,2872.659,6629.449,2873.7Z" transform="translate(-6557.632 -2601.45)" fill="#fff"/>
      <path id="Path_1699" data-name="Path 1699" d="M6599.606,2868.786a70.2,70.2,0,0,0,30.589-.271,94,94,0,0,1-27.734.712Z" transform="translate(-6558.104 -2601.45)" fill="#9cb9bd"/>
      <path id="Path_1700" data-name="Path 1700" d="M6493.748,2255.122l2.735,119.542,13.083-1.877s4.146-95.929,6.571-98.773,3.4.179,3.4.179,10.436,39.91,8.493,47.872-10.6,50.609-10.6,50.609l12.545.569s14.315-32.7,14.315-55.443-8.845-60.56-8.845-60.56Z" transform="translate(-6475.09 -2120.384)" fill="#00385d"/>
      <rect id="Rectangle_149" data-name="Rectangle 149" width="15.108" height="3.518" transform="translate(41.831 249.27)" fill="#021753"/>
      <rect id="Rectangle_150" data-name="Rectangle 150" width="15.253" height="4.443" transform="translate(20.235 249.838)" fill="#021753"/>
      <path id="Path_1701" data-name="Path 1701" d="M6508.664,2445.014a.318.318,0,0,0,.085-.011.459.459,0,0,0,.294-.542c-2.416-12.659-2.572-94.917-2.574-95.747a.423.423,0,0,0-.387-.453h0a.425.425,0,0,0-.387.455c.006,3.39.158,83.187,2.592,95.943A.407.407,0,0,0,6508.664,2445.014Z" transform="translate(-6484.459 -2193.43)" fill="#021753"/>
      <path id="Path_1702" data-name="Path 1702" d="M6611.948,2439.654a.4.4,0,0,0,.363-.3c.589-1.877,14.375-46.029,13.594-52.126-.77-6.009-9.578-43.862-9.952-45.47a.386.386,0,0,0-.477-.318.468.468,0,0,0-.271.557c.092.393,9.171,39.41,9.933,45.366.752,5.869-13.412,51.221-13.555,51.677a.48.48,0,0,0,.23.583A.341.341,0,0,0,6611.948,2439.654Z" transform="translate(-6567.487 -2188.07)" fill="#021753"/>
      <path id="Path_1703" data-name="Path 1703" d="M6650.16,1865.958c10.963,7.536,12.539,14.077,17.146,23.105l-19.081,6.96Z" transform="translate(-6599.342 -1819.778)" fill="#ffd91f"/>
      <path id="Path_1704" data-name="Path 1704" d="M6508.472,1907.824c-1.062,0-32.844,3.885-50.5-1.413,0,0,0-25.862-.487-41.569-2.073-11.928-9.051-53.842-5.379-57.516,2.669-2.667,8.742-4.654,12.949-5.773l.494-.132c.39-.1.78-.19,1.172-.263.074-.015.149-.028.224-.041a1.206,1.206,0,0,1,.132-.023c.183-.032.366-.06.55-.088.138-.02.276-.039.413-.054s.288-.033.43-.048a19.326,19.326,0,0,1,4.493.082l9.476,1.286,0,0,0,0c.185.14,3.605,2.776,7.366,5.862,2.884,2.366,5.968,5,7.939,6.968,2.848,2.848,5.526,14.937,7.161,23.784,1.136,6.133,1.152,20.443,1.152,20.443Z" transform="translate(-6441.606 -1764.081)" fill="#ffd91f"/>
      <path id="Path_1705" data-name="Path 1705" d="M6452.49,1818.137a19.354,19.354,0,0,1,5.527-3.208l0,0s3.5-1.919,6.675,11.173-1.965,28.273-1.661,30.24c.348,2.246-1.647,34.653-1.647,34.653-3.536,3.035-3.61-12.072-3.627-12.172-.026-1.028-.054-2.026-.084-2.987C6456.673,1870.081,6448.236,1822.105,6452.49,1818.137Z" transform="translate(-6441.798 -1775.078)" fill="#efca17"/>
      <path id="Path_1706" data-name="Path 1706" d="M6431.7,1986.954s.485,13.8.485,21.62c0,12.518,3.6,29.575,4.374,34.739a9.9,9.9,0,0,0,.608,2.258c.591,1.458-10.57,1.558-10.659,1.276-1.139-3.633-7.3-25.064-8.311-36.344-1.066-11.881,0-29.733,0-29.733Z" transform="translate(-6415.464 -1905.219)" fill="#f6bd96"/>
      <path id="Path_1707" data-name="Path 1707" d="M6596.545,1807.595v0l0,0Z" transform="translate(-6555.707 -1769.4)" fill="#fae0b2"/>
      <path id="Path_1708" data-name="Path 1708" d="M6603.927,1813.474c-3.76-3.085-7.182-5.721-7.364-5.861l.048.028.019.013.037.024.024.017.074.047.03.019c.028.017.059.037.088.058a.091.091,0,0,1,.016.009.224.224,0,0,1,.024.017.144.144,0,0,1,.021.013c.016.011.032.019.047.03l.027.018.2.127.039.026c1.17.764,3.673,2.418,6.447,4.368C6603.7,1812.428,6603.8,1812.831,6603.927,1813.474Z" transform="translate(-6555.724 -1769.416)" fill="#fae0b2"/>
      <path id="Path_1709" data-name="Path 1709" d="M6558.185,1749.213c-.74,3.891-1.09,8.085-.422,10.524,0,0-1.538,6.656-5.37,6.98s-11.094-11.459-11.094-11.459l7.973-12.542Z" transform="translate(-6512.381 -1718.519)" fill="#f6bd96"/>
      <path id="Path_1710" data-name="Path 1710" d="M6579.36,1755.32a12.635,12.635,0,0,1-10.1-9.55l1.941-3.054,8.913,6.5A43.494,43.494,0,0,0,6579.36,1755.32Z" transform="translate(-6534.311 -1718.519)" fill="#f6ab77" opacity="0.4" style="mix-blend-mode: multiply;isolation: isolate"/>
      <path id="Path_1711" data-name="Path 1711" d="M6586.328,1656.437s3.756,23.562-2.964,26.28-15.8-1.643-16.476-9.637S6567.923,1648.783,6586.328,1656.437Z" transform="translate(-6532.359 -1649.291)" fill="#f6bd96"/>
      <path id="Path_1712" data-name="Path 1712" d="M6569.5,1704.119s-1.218-3.3-3.024-2.831c-4.1,1.064-1.091,8.357.256,8.557C6569.462,1710.25,6570.569,1708.091,6569.5,1704.119Z" transform="translate(-6530.497 -1685.993)" fill="#ffb582"/>
      <path id="Path_1713" data-name="Path 1713" d="M6429.326,1828.8c.136,7.817-4.1,30.879-4.1,30.879s-16.412-.33-17.731-1.648,2.908-36.121,10.157-41C6426.314,1811.2,6429.195,1821.255,6429.326,1828.8Z" transform="translate(-6407.26 -1775.437)" fill="#ffd91f"/>
      <path id="Path_1714" data-name="Path 1714" d="M6542.471,1645.8c-1.245-2.847-2.322-6.057-1.342-9.006.962-2.9,3.77-4.872,6.718-5.664a27.9,27.9,0,0,1,9.1-.39c1.682.113,3.286-.062,4.817.652a10.661,10.661,0,0,0,5.508,1.027,5.666,5.666,0,0,1,3.147.143,3.764,3.764,0,0,1,1.643,2.847,6,6,0,0,1-.388,3.76,5.413,5.413,0,0,1-3.533,2.548c-1.536.4-3.349-.074-4.682.819-1.2.8-8.5,1.061-9.614.515-1.2-.585-2.743-1.027-3.789-.195a3.212,3.212,0,0,0-.914,2.727,12.548,12.548,0,0,1,.092,2.978,3.84,3.84,0,0,0-1.155-.687,1.3,1.3,0,0,0-1.27.219,1.505,1.505,0,0,0,.136,1.956c.452.559,1.1.945,1.52,1.526,1.162,1.6.855,4.457-1.428,4.779-2.3.324-1.985-2.656-2.211-4.009A28.415,28.415,0,0,0,6542.471,1645.8Z" transform="translate(-6511.95 -1630.557)" fill="#091a4c"/>
      <path id="Path_1715" data-name="Path 1715" d="M6455.589,2245.716s0,18.208,11.9,22.2a1.9,1.9,0,0,0,2.475-2.1c-.328-2.073-.927-5.5-2.01-10.834a.2.2,0,0,1,.374-.112c.9,2.314,2.231,5.615,2.624,5.874,0,0,1.016-9.715-6.192-16.755C6457.644,2237.042,6455.589,2245.716,6455.589,2245.716Z" transform="translate(-6445.163 -2109.539)" fill="#f6bd96"/>
      <path id="Path_1716" data-name="Path 1716" d="M6618.329,1713.653a3.742,3.742,0,0,1,2.281-.116" transform="translate(-6572.795 -1695.528)" fill="none" stroke="#091a4c" stroke-linecap="round" stroke-miterlimit="10" stroke-width="0.8"/>
      <path id="Path_1717" data-name="Path 1717" d="M6654.437,1709.771a5.726,5.726,0,0,1,1.462-.075" transform="translate(-6601.112 -1692.608)" fill="none" stroke="#091a4c" stroke-linecap="round" stroke-miterlimit="10" stroke-width="0.8"/>
      <ellipse id="Ellipse_103" data-name="Ellipse 103" cx="0.685" cy="0.247" rx="0.685" ry="0.247" transform="translate(46.053 19.145)" fill="#091a4c" opacity="0.66"/>
      <ellipse id="Ellipse_104" data-name="Ellipse 104" cx="0.499" cy="0.232" rx="0.499" ry="0.232" transform="translate(53.876 17.942)" fill="#091a4c" opacity="0.66"/>
      <path id="Path_1718" data-name="Path 1718" d="M6640.676,1722.816a1.115,1.115,0,0,0,.475.067,1.217,1.217,0,0,0,1.089-1.306c-.123-1.962-.879-5.764-.879-5.764s-.191-1.016.158-1.242" transform="translate(-6590.321 -1696.447)" fill="none" stroke="#f6ab77" stroke-linecap="round" stroke-miterlimit="10" stroke-width="1"/>
      <path id="Path_1719" data-name="Path 1719" d="M6633.853,1766.393s2.152.533,3.223-.152" transform="translate(-6584.97 -1736.969)" fill="none" stroke="#f6ab77" stroke-linecap="round" stroke-miterlimit="10" stroke-width="1"/>
    </g>
  </g>
</svg>
