<svg xmlns="http://www.w3.org/2000/svg" width="88.754" height="52.811" viewBox="0 0 88.754 52.811">
  <g id="Group_275" data-name="Group 275" transform="translate(1939.718 -1706.571)">
    <g id="Group_1" data-name="Group 1" transform="translate(-1902.518 1706.571)">
      <path id="Path_1" data-name="Path 1" d="M-1373.847,1507.041a3.345,3.345,0,0,1-4.621.161,4.083,4.083,0,0,0-2.795-1.129,4.141,4.141,0,0,0-4.084,4.192v6.664h5.105a3.28,3.28,0,0,1,3.278,3.224,3.291,3.291,0,0,1-3.278,3.278h-5.105v13.65a3.338,3.338,0,0,1-3.332,3.278,3.327,3.327,0,0,1-3.278-3.278v-26.816a10.722,10.722,0,0,1,10.694-10.694,10.718,10.718,0,0,1,7.255,2.848A3.347,3.347,0,0,1-1373.847,1507.041Z" transform="translate(1391.957 -1499.571)" fill="#fff"/>
    </g>
    <g id="Group_2" data-name="Group 2" transform="translate(-1886.889 1720.812)">
      <path id="Path_2" data-name="Path 2" d="M-1101.351,1758.4H-1117.9a7.082,7.082,0,0,0,6.825,5.428,9,9,0,0,0,5.643-2.042,3.227,3.227,0,0,1,4.568.054,3.18,3.18,0,0,1-.054,4.568,14.965,14.965,0,0,1-10.156,3.815,13.417,13.417,0,0,1-13.435-13.489,13.485,13.485,0,0,1,13.435-13.488,11.731,11.731,0,0,1,2.365.215,13.009,13.009,0,0,1,8.706,6.18c.86,1.5,1.827,3.493,1.72,5.266a4.542,4.542,0,0,1-.43,1.558A2.921,2.921,0,0,1-1101.351,1758.4Zm-15.638-5.428h11.393a5.979,5.979,0,0,0-5.481-3.224A6.971,6.971,0,0,0-1116.99,1752.973Z" transform="translate(1124.513 -1743.246)" fill="#fff"/>
    </g>
    <g id="Group_3" data-name="Group 3" transform="translate(-1857.949 1740.695)">
      <path id="Path_3" data-name="Path 3" d="M-625.622,2090.456h-.43a3.329,3.329,0,0,1-3.278-3.439,3.425,3.425,0,0,1,3.278-3.547h.43a3.461,3.461,0,0,1,3.278,3.547A3.363,3.363,0,0,1-625.622,2090.456Z" transform="translate(629.33 -2083.47)" fill="#fff"/>
    </g>
    <path id="Path_4" data-name="Path 4" d="M-1993.994,1514.779a3.188,3.188,0,0,0-3.171-3.224,3.213,3.213,0,0,0-3.117,3.224v9.727c0,3.708-2.741,6.771-6.126,6.771-3.332,0-6.073-3.063-6.073-6.771v-9.619a3.213,3.213,0,0,0-3.117-3.224,3.213,3.213,0,0,0-3.117,3.224v9.619c0,7.308,5.535,13.22,12.306,13.22a12.284,12.284,0,0,0,6.126-1.666v2.2a7.25,7.25,0,0,1-1.191,3.991h0a6.469,6.469,0,0,1-1.824,1.926q-.087.062-.177.122l-.042.029q-.1.065-.2.128l-.027.017a9.777,9.777,0,0,1-1.243.649l-.014.006q-.123.053-.248.1l-.042.017q-.111.045-.224.088l-.059.022-.212.077-.07.024-.205.069-.078.025-.2.063-.085.025-.2.057-.089.024-.2.052-.093.023-.2.048-.095.021-.2.044-.1.02-.2.04-.1.018-.208.036-.094.016-.214.033-.09.013-.225.03-.081.01-.244.028-.063.007-.294.028h-.015q-.312.027-.627.042l-.073,0-.237.009-.11,0-.2,0h-.31l-.138,0-.173,0-.144,0-.167-.006-.149-.007-.16-.009-.153-.01-.156-.011-.156-.013-.152-.013-.159-.016-.147-.016-.162-.019-.142-.018-.164-.022-.137-.02-.167-.026-.132-.022-.17-.029-.125-.023-.175-.033-.115-.024-.182-.038-.1-.022-.2-.045-.06-.015q-.512-.125-1-.283l-.059-.019-.195-.066-.081-.028-.182-.066-.089-.033-.173-.067-.094-.037-.167-.069-.094-.04-.162-.072-.1-.043-.157-.074-.094-.046-.153-.077-.093-.048-.149-.08a7.266,7.266,0,0,1-2.681-2.385,6.977,6.977,0,0,1-1.258-3.991v-35.114a3.3,3.3,0,0,0-3.291-3.224,3.278,3.278,0,0,0-3.348,3.224v35.114a13.356,13.356,0,0,0,3.819,9.31h0c4.339,5.076,15.877,7.166,23.644,2.679a13.429,13.429,0,0,0,3.388-2.667l.012-.012h0a13.747,13.747,0,0,0,3.617-9.31Z" transform="translate(88.755 206.667)" fill="#fff"/>
  </g>
</svg>
