<svg xmlns="http://www.w3.org/2000/svg" xmlns:xlink="http://www.w3.org/1999/xlink" width="878" height="696.406" viewBox="0 0 878 696.406">
  <defs>
    <filter id="Rectangle_3" x="570" y="32.202" width="308" height="331" filterUnits="userSpaceOnUse">
      <feOffset dx="10" dy="18" input="SourceAlpha"/>
      <feGaussianBlur stdDeviation="22" result="blur"/>
      <feFlood flood-color="#00385d" flood-opacity="0.169"/>
      <feComposite operator="in" in2="blur"/>
      <feComposite in="SourceGraphic"/>
    </filter>
    <filter id="Rectangle_6" x="0" y="187.202" width="298" height="294" filterUnits="userSpaceOnUse">
      <feOffset dx="10" dy="18" input="SourceAlpha"/>
      <feGaussianBlur stdDeviation="22" result="blur-2"/>
      <feFlood flood-color="#00385d" flood-opacity="0.169"/>
      <feComposite operator="in" in2="blur-2"/>
      <feComposite in="SourceGraphic"/>
    </filter>
    <filter id="Ellipse_3" x="576" y="434.202" width="244" height="244" filterUnits="userSpaceOnUse">
      <feOffset dx="10" dy="18" input="SourceAlpha"/>
      <feGaussianBlur stdDeviation="22" result="blur-3"/>
      <feFlood flood-color="#00385d" flood-opacity="0.169"/>
      <feComposite operator="in" in2="blur-3"/>
      <feComposite in="SourceGraphic"/>
    </filter>
  </defs>
  <g id="Group_903" data-name="Group 903" transform="translate(-939 -290.798)">
    <g id="Group_832" data-name="Group 832" transform="translate(891.682 312.34)">
      <path id="Path_6" data-name="Path 6" d="M796.893,318.984c-.06-.188-.12-.376-.181-.562-7.95-24.479-24.141-46.055-29.156-71.3-4.838-24.349,1.211-49.888-3.718-74.219-8.717-43.03-51.417-86.211-91.6-101.571-29.593-11.31-61.943-12.841-92.624-20.735a229.063,229.063,0,0,1-70.856-31.868C492.925,8.047,478.266-4.714,460.785-12.409c-23.823-10.487-50.993-10.664-76.746-6.883a270.243,270.243,0,0,0-161.617,87.5c-24.608,27.824-32.5,55.407-34.307,91.466-2.136,42.565-.465,86.142-13.251,127.319-6.828,21.987-17.63,42.633-23.653,64.854-5.95,21.952-6.928,45-3.956,67.5,8.148,61.7,44.653,103.907,100.035,130.582C291.19,571.073,339.5,582.2,382.7,604.735c22.078,11.516,42.708,25.956,65.853,35.143,50.117,19.892,107.538,13.059,157.929-6.132C626.3,626.2,645.5,616.768,662.72,604.388a191.206,191.206,0,0,0,61.111-73.55c12.393-26.38,18.687-55.513,33.223-80.776,11.641-20.23,30.941-37.97,39.034-59.715C804.414,367.963,804.1,341.6,796.893,318.984Z" fill="#52bbe1" opacity="0.11" style="isolation: isolate"/>
      <g id="Group_6" data-name="Group 6" opacity="0.38">
        <g id="Group_5" data-name="Group 5">
          <path id="Path_5" data-name="Path 5" d="M203.663,664.408c0,9.567,32.381,8.831,325.712,9.267,92.5.138,197.037,2.657,194.588-6.323-2.208-8.1-110.619-4.416-203.115-4.416C361.931,662.936,203.663,657.864,203.663,664.408Z" fill="#52bbe1"/>
        </g>
      </g>
      <g id="Group_245" data-name="Group 245">
        <g id="Group_243" data-name="Group 243">
          <path id="Path_282" data-name="Path 282" d="M469.057,653.6a4.957,4.957,0,0,1-2.852-4.468V357.843h9.356V645.511c10.326,1.026,131.761.624,141.506-.335,1.365-19.51,1.557-214.392,1.332-289.813l9.357-.029c0,.524.153,135.346,0,187.387-.091,30.574-.268,55.024-.527,72.652-.154,10.495-.34,18.675-.552,24.313-.378,10.068-.569,11.619-2.664,13.191-1.235.925-3.1,2.324-32.475,2.56-2.027.017-93.12.025-94.9.025C472.78,655.461,470.012,654.079,469.057,653.6Z" fill="#333"/>
        </g>
        <g id="Group_244" data-name="Group 244">
          <path id="Path_283" data-name="Path 283" d="M168.413,652.978a4.957,4.957,0,0,1-2.86-4.468l-.622-290.667h9.356l.624,287.043c10.327,1.026,131.761.625,141.506-.335,1.366-19.509.933-213.765.713-289.189l9.357-.029c0,.524.154,135.345,0,187.387-.09,30.574-.268,55.024-.528,72.652-.153,10.495.285,18.051.074,23.689-.378,10.069-.569,11.619-2.666,13.191-1.233.926-3.1,2.325-32.473,2.561-2.028.017-93.121.024-94.905.024C172.135,654.837,169.366,653.455,168.413,652.978Z" fill="#1a1a1a"/>
        </g>
        <rect id="Rectangle_25" data-name="Rectangle 25" width="478.414" height="29.316" transform="translate(154.14 331)" fill="#842a2e"/>
        <rect id="Rectangle_26" data-name="Rectangle 26" width="308.755" height="29.316" transform="translate(154.14 331)" fill="#421b19"/>
      </g>
      <g id="Group_73" data-name="Group 73">
        <g id="Group_32" data-name="Group 32">
          <g id="Group_31" data-name="Group 31">
            <path id="Path_60" data-name="Path 60" d="M613.191,649.048c-.051-3.148-.2-7.938-.658-8.843-1.1-2.209-52.058-44.523-52.058-44.523l13.014-18.495s48.634,58.223,49.319,60.963c.568,2.272,1.108,9.46.517,11.675.005.006.014.012.019.018.654.79,0,7.115,0,7.906a2.976,2.976,0,0,1-.654,1.581s1.309,5.535.654,5.535h-1.312s-1.313,7.654-9.163,7.906c-9.787.313-9.787-7.221-9.787-7.221s-3.425,1.108-3.425-2.055C599.661,660.471,597.169,649.457,613.191,649.048Z" fill="#333"/>
          </g>
        </g>
        <g id="Group_34" data-name="Group 34">
          <g id="Group_33" data-name="Group 33">
            <path id="Path_61" data-name="Path 61" d="M565.018,388.943s-94.752-6.039-98.041-1.292-1.9,15.124.13,16.438,95.493,3.66,98.8.256S567.032,388.915,565.018,388.943Z" fill="#ea4550"/>
          </g>
        </g>
        <g id="Group_36" data-name="Group 36">
          <g id="Group_35" data-name="Group 35">
            <rect id="Rectangle_5" data-name="Rectangle 5" width="15.791" height="50.004" transform="translate(560.256 497.729)" fill="#acbdcf"/>
          </g>
        </g>
        <g id="Group_38" data-name="Group 38">
          <g id="Group_37" data-name="Group 37">
            <path id="Path_62" data-name="Path 62" d="M637.677,481.974S613.36,509.028,570.892,510.4s-67.471-29.8-67.471-29.8Z" fill="#333"/>
          </g>
        </g>
        <g id="Group_40" data-name="Group 40">
          <g id="Group_39" data-name="Group 39">
            <path id="Path_63" data-name="Path 63" d="M645.835,474.436l-147.5-1.84s-.3,7.1,4.114,12.247c2.645,3.086,3.68,5.887,45.837,6.037,60.277.214,86.251,0,91.046-3.425,2.963-2.116,4.879-6.586,5.911-9.693A23.172,23.172,0,0,0,645.835,474.436Z" fill="#4d4d4d"/>
          </g>
        </g>
        <g id="Group_42" data-name="Group 42">
          <g id="Group_41" data-name="Group 41">
            <path id="Path_64" data-name="Path 64" d="M577.762,568.04s1.581-46.645,0-47.436-18.184-1.582-18.975,0,0,46.645,0,46.645Z" fill="#333"/>
          </g>
        </g>
        <g id="Group_44" data-name="Group 44">
          <g id="Group_43" data-name="Group 43">
            <path id="Path_65" data-name="Path 65" d="M583.3,579.109s71.945,52.18,74.317,55.342,2.371,15.812.791,15.812-8.7,0-8.7-.79v-9.487L574.6,598.874s-11.069.79-13.44,0c0,0-94.873,42.692-94.873,44.274v7.115s-8.7,0-9.487-.79-.791-11.859.79-13.441,97.244-58.5,97.244-58.5,0-11.068.79-11.859,26.09-.791,27.672.79S583.3,579.109,583.3,579.109Z" fill="#4d4d4d"/>
          </g>
        </g>
        <g id="Group_49" data-name="Group 49">
          <g id="Group_46" data-name="Group 46">
            <g id="Group_45" data-name="Group 45">
              <path id="Path_66" data-name="Path 66" d="M659.2,648.682s-8.7,0-9.487.791,0,7.115,0,7.906a2.758,2.758,0,0,0,.79,1.581s-1.581,5.534-.79,5.534h1.582s1.581,7.906,11.068,7.906a9.494,9.494,0,0,0,9.487-7.116,3.1,3.1,0,0,0,3.162-3.037c0-.042,0-.084,0-.125C675.008,658.959,673.427,647.891,659.2,648.682Z" fill="#4d4d4d"/>
            </g>
          </g>
          <g id="Group_48" data-name="Group 48">
            <g id="Group_47" data-name="Group 47">
              <path id="Path_67" data-name="Path 67" d="M671.819,664.645a1.029,1.029,0,0,0,1.024-.959c.017-.255.026-.514.026-.773a11.306,11.306,0,1,0-22.611,0,1.027,1.027,0,0,0,2.055,0,9.25,9.25,0,1,1,18.5,0c0,.213-.007.426-.021.636a1.028,1.028,0,0,0,.956,1.094Z" fill="#333"/>
            </g>
          </g>
        </g>
        <g id="Group_54" data-name="Group 54">
          <g id="Group_51" data-name="Group 51">
            <g id="Group_50" data-name="Group 50">
              <path id="Path_68" data-name="Path 68" d="M457.241,648.682s8.7,0,9.487.791,0,7.115,0,7.906a2.764,2.764,0,0,1-.79,1.581s1.581,5.534.79,5.534h-1.581s-1.582,7.906-11.069,7.906a9.493,9.493,0,0,1-9.487-7.116,3.1,3.1,0,0,1-3.162-3.037c0-.042,0-.084,0-.125C441.429,658.959,443.01,647.891,457.241,648.682Z" fill="#4d4d4d"/>
            </g>
          </g>
          <g id="Group_53" data-name="Group 53">
            <g id="Group_52" data-name="Group 52">
              <path id="Path_69" data-name="Path 69" d="M444.614,664.645h.071a1.029,1.029,0,0,0,.956-1.094q-.022-.315-.022-.636a9.251,9.251,0,1,1,18.5,0,1.027,1.027,0,1,0,2.054,0,11.306,11.306,0,1,0-22.611,0q0,.39.026.773A1.028,1.028,0,0,0,444.614,664.645Z" fill="#333"/>
            </g>
          </g>
        </g>
        <g id="Group_56" data-name="Group 56">
          <g id="Group_55" data-name="Group 55">
            <path id="Path_70" data-name="Path 70" d="M498.261,474.394a3.053,3.053,0,0,0,1.068,2.209,4.181,4.181,0,0,0,2.068.6c4.673.507,9.3,1.06,13.994,1.152q34.512.673,69.029.963c20.91.145,21.235.233,42.137-.414,5.683-.177,11.371-.348,17.038-.853,2.1-.186,1.957-1.281,2.351-3.317a26.5,26.5,0,0,0-5.3-20.271c-3.2-3.8-8.531-6.531-13.289-7.8-2.173-.582-4.726-.357-6.994-.417q-8.454-.224-16.909-.4-22.635-.482-45.276-.647c-9.024-.054-18.05-.082-27.074.037-7.933.1-16.343-.517-23.278,4.124a20.781,20.781,0,0,0-7.733,10.607,40.971,40.971,0,0,0-1.889,13.165A10.232,10.232,0,0,0,498.261,474.394Z" fill="#ea4550"/>
          </g>
        </g>
        <g id="Group_58" data-name="Group 58">
          <g id="Group_57" data-name="Group 57">
            <path id="Path_71" data-name="Path 71" d="M632.521,464.777" fill="#be2328"/>
          </g>
        </g>
        <g id="Group_66" data-name="Group 66">
          <g id="Group_63" data-name="Group 63">
            <g id="Group_60" data-name="Group 60">
              <g id="Group_59" data-name="Group 59">
                <path id="Path_72" data-name="Path 72" d="M508.633,649.053s7.2,0,7.854.79,0,7.115,0,7.906a2.969,2.969,0,0,1-.655,1.582s1.309,5.535.655,5.535h-1.309s-1.313,7.654-9.163,7.906c-9.787.313-9.787-7.221-9.787-7.221s-3.425,1.108-3.425-2.055S490.061,648.425,508.633,649.053Z" fill="#4d4d4d"/>
              </g>
            </g>
            <g id="Group_62" data-name="Group 62">
              <g id="Group_61" data-name="Group 61">
                <path id="Path_73" data-name="Path 73" d="M498.18,665.016h.058a1.028,1.028,0,0,0,.969-1.082h0q-.018-.321-.018-.648c0-5.1,3.355-9.25,7.48-9.25s7.481,4.15,7.481,9.25a1.027,1.027,0,1,0,2.054,0c0-6.234-4.277-11.3-9.536-11.3s-9.535,5.071-9.535,11.3c0,.256.007.511.021.762A1.027,1.027,0,0,0,498.18,665.016Z" fill="#333"/>
              </g>
            </g>
          </g>
          <g id="Group_65" data-name="Group 65">
            <g id="Group_64" data-name="Group 64">
              <path id="Path_74" data-name="Path 74" d="M561.3,577.187s-53.429,58.223-54.113,60.963-1.33,12.638,0,12.33,9.59,1.37,9.59,1.37,0-10.275.685-11.645c1.1-2.209,56.853-44.523,56.853-44.523Z" fill="#4d4d4d"/>
            </g>
          </g>
        </g>
        <g id="Group_68" data-name="Group 68">
          <g id="Group_67" data-name="Group 67">
            <path id="Path_75" data-name="Path 75" d="M519.859,622.4a1.024,1.024,0,0,0,.763-.339l31.167-34.592a1.027,1.027,0,1,0-1.527-1.375l-31.167,34.592a1.027,1.027,0,0,0,.075,1.45h0A1.021,1.021,0,0,0,519.859,622.4Z" fill="#fff"/>
          </g>
        </g>
        <g id="Group_70" data-name="Group 70">
          <g id="Group_69" data-name="Group 69">
            <path id="Path_76" data-name="Path 76" d="M632.505,531.584c-.113-.032-11.451-3.279-22.642-6.83-23.56-7.474-23.56-8.882-23.56-10.242,0-.748,0-2.736,23.147-20.271a1.369,1.369,0,1,1,1.654,2.183c-9.425,7.14-19.563,15.349-21.744,17.9,3.783,2.382,24.621,9.111,43.9,14.624a1.371,1.371,0,0,1-.755,2.636Z" fill="#333"/>
          </g>
        </g>
        <g id="Group_72" data-name="Group 72">
          <g id="Group_71" data-name="Group 71">
            <path id="Path_77" data-name="Path 77" d="M619.046,525.361s21.765-1.9,27.143,3.237c2.1,2.011-8.086,9.545-15.7,9.545S619.046,525.361,619.046,525.361Z" fill="#333"/>
          </g>
        </g>
      </g>
      <g id="Group_108" data-name="Group 108">
        <g id="Group_82" data-name="Group 82">
          <g id="Group_75" data-name="Group 75">
            <g id="Group_74" data-name="Group 74">
              <path id="Path_78" data-name="Path 78" d="M572.55,628.462c-5.041,39.4-15.243,38.219-18.013,38.9s-.944-1.612-3.684-6.813-2.372-8.223-3.359-18.256-5.353-18.13-8.586-28.348c-.46-1.458-2.506-6.072-3.029-7.28a33.477,33.477,0,0,0-2.664-4.983,20.131,20.131,0,0,0-4.422-5.083l2.981-50.923s16.514,20.18,20.345,23.749l.153.147c1.239,1.135,4.112,8.1,7.234,9.249,6.417,2.378,13.336,5.778,15.19,7.3C577.45,588.382,577.59,589.066,572.55,628.462Z" fill="#ea9169"/>
            </g>
          </g>
          <g id="Group_77" data-name="Group 77">
            <g id="Group_76" data-name="Group 76">
              <path id="Path_79" data-name="Path 79" d="M575.912,585.089c-1.855-1.521-10.2-5.987-16.619-8.366-3.122-1.152-5.782-6.016-7.021-7.151l-.153-.146a56.164,56.164,0,0,1-18.907,32.257,33.494,33.494,0,0,1,2.663,4.977,41.25,41.25,0,0,1,1.49,3.988c3.233,10.217,7.515,21.647,8.5,31.681s.5,14.909,3.244,20.11c1.047,1.987,1.906,3.75,2.722,5.138a7.506,7.506,0,0,0,1.964,1.074c.8.144,1.59.292,2.385.428.234,0,.472-.008.716-.029a8.257,8.257,0,0,0,2.712-.737c3.327-2,5.548-5.225,7.547-8.6,3.1-6.251,6.142-16.155,8.16-31.926C580.361,588.388,578.667,587.35,575.912,585.089Z" fill="#fff"/>
            </g>
          </g>
          <g id="Group_79" data-name="Group 79">
            <g id="Group_78" data-name="Group 78">
              <path id="Path_80" data-name="Path 80" d="M575.911,585.089c-1.855-1.521-10.2-5.987-16.619-8.366.71,3.738,3.224,12.588.8,18.824-3.153,8.111-12.372,1.926-13.757,2.265s-2.262,2.755-4,4.648c-1.252,1.364-4.644,3.25-6.459,4.2a41.267,41.267,0,0,1,1.49,3.988c3.233,10.217,7.062,22.116,8.049,32.149.79,8.032.6,13.01,1.894,17.344h0c.032.11.069.222.1.334a17.2,17.2,0,0,0,1.178,2.822q.535,1.019,1.037,1.911a8.921,8.921,0,0,0,4.155,3.436c.794.143,1.588.291,2.382.427a7.038,7.038,0,0,0,.735-.026,8.263,8.263,0,0,0,2.712-.737c3.327-2,5.548-5.225,7.547-8.6,3.1-6.251,6.142-16.155,8.16-31.926C580.356,588.388,578.666,587.35,575.911,585.089Z" fill="#a34b22"/>
            </g>
          </g>
          <g id="Group_81" data-name="Group 81">
            <g id="Group_80" data-name="Group 80">
              <path id="Path_81" data-name="Path 81" d="M575.912,585.089a46.375,46.375,0,0,0-6.493-3.841c1.766,5.186,1.029,14.829.736,18.4-.737,8.988.655,12.737,1.472,22.078.311,3.55-1.766,25.744-6.488,36.44-2.487,5.632-5.447,9.127-8.025,10.855a8.408,8.408,0,0,0,2.572-.75c3.287-2.006,5.489-5.208,7.474-8.559,3.1-6.251,6.142-16.155,8.16-31.926C580.361,588.388,578.667,587.351,575.912,585.089Z" fill="#1a1a1a"/>
            </g>
          </g>
        </g>
        <g id="Group_84" data-name="Group 84">
          <g id="Group_83" data-name="Group 83">
            <path id="Path_82" data-name="Path 82" d="M435.875,522.39c14.385,20.549,69.869,89.733,79.458,90.417s16.55-5.555,19.18-23.974a205.8,205.8,0,0,0,1.37-38.359c-2.74-3.425-57.538-74.663-57.538-74.663L631.781,369.2l-77.817,8.932s-24.285,8.1-46.8,16.248c-3.5,1.267-6.96,3-10.576,4.6-37.366,16.576-82.485,40.1-86.055,58.34C405.668,482.188,421.491,501.84,435.875,522.39Z" fill="#00385d"/>
          </g>
        </g>
        <g id="Group_86" data-name="Group 86">
          <g id="Group_85" data-name="Group 85">
            <path id="Path_83" data-name="Path 83" d="M496.292,499.662c15.771,20.268,37.845,48.626,39.591,50.809a205.8,205.8,0,0,1-1.374,38.359c-2.632,18.422-9.59,26.03-19.18,23.975-4.771-1.022-21.556-18.342-38.694-38.664C483.356,549.361,489.46,524.411,496.292,499.662Z" fill="#00385d"/>
          </g>
        </g>
        <g id="Group_88" data-name="Group 88">
          <g id="Group_87" data-name="Group 87">
            <path id="Path_84" data-name="Path 84" d="M419.432,615.546c1.37,4.11,52.059,13.015,57.538,8.22,2.918-2.555,23.289-158.231,28.084-163.711,3.254-3.713,91.1,1.37,111.653-5.48,11.775-3.925,20.494-19.529,24.543-34.174a71.349,71.349,0,0,0,2.212-11.234c.342-3.1.555-6.145.678-9.063.233-5.507.144-10.549-.034-14.549q-.072-1.4-.144-2.61a.475.475,0,0,0-.007-.1c-.013-.247-.034-.486-.048-.712-.068-1.1-.144-2.055-.213-2.856-.013-.178-.027-.335-.04-.48-.007-.1-.021-.191-.028-.287-.007-.055-.007-.1-.013-.151-.11-1.213-.192-1.877-.192-1.877l-36.989-.685s-141.165,25.488-157.547,38.359C439.3,421.7,419.432,615.546,419.432,615.546Z" fill="#00385d"/>
          </g>
        </g>
        <g id="Group_92" data-name="Group 92">
          <g id="Group_91" data-name="Group 91">
            <path id="Path_86" data-name="Path 86" d="M451.779,624.046s23.826,3.828,25.2-.281-21.924-8.9-21.924-8.9Z" fill="#1a1a1a"/>
          </g>
        </g>
        <g id="Group_94" data-name="Group 94">
          <g id="Group_93" data-name="Group 93">
            <path id="Path_87" data-name="Path 87" d="M496.586,398.976A614.575,614.575,0,0,1,579.2,389.8a1.368,1.368,0,0,0-.112-2.734h-.011a624.059,624.059,0,0,0-71.916,7.309C503.737,395.839,500.2,397.38,496.586,398.976Z" fill="#0a5485"/>
          </g>
        </g>
        <g id="Group_103" data-name="Group 103">
          <g id="Group_96" data-name="Group 96">
            <g id="Group_95" data-name="Group 95">
              <path id="Path_88" data-name="Path 88" d="M456.824,664.865c-.684,4.795-14.384,4.795-38.358,6.164s-48.227-.685-51.651-4.11,6.442-5.48,11.237-6.85,28.769-15.069,33.564-22.6a40.767,40.767,0,0,0,3.836-8.308c2.083-5.96,4.671-18.406,4.671-18.406,6.4-2.573,34.934,4.11,34.934,4.11a206.083,206.083,0,0,0-.437,23.954C455.543,652.685,457.338,661.275,456.824,664.865Z" fill="#ea9169"/>
            </g>
          </g>
          <g id="Group_98" data-name="Group 98">
            <g id="Group_97" data-name="Group 97">
              <path id="Path_89" data-name="Path 89" d="M456.824,664.864c-.684,4.795-14.384,4.795-38.358,6.164s-48.227-.685-51.651-4.109,6.442-5.48,11.237-6.85,28.769-15.069,33.564-22.6a40.767,40.767,0,0,0,3.836-8.308c3.891-.2,17.981-.076,39.168,9.658C455.543,652.685,457.338,661.275,456.824,664.864Z" fill="#fff"/>
            </g>
          </g>
          <g id="Group_100" data-name="Group 100">
            <g id="Group_99" data-name="Group 99">
              <path id="Path_90" data-name="Path 90" d="M455.8,646.711s-17.49,9.8-25.025,7.057-7.215-7.328-11.644-13.015c-1.518-1.949-8.539-4.317-10.594-2.947s-12.271,12.934-22.359,16.3c-11.039,3.679-18.332,4.937-21.757,8.362s-3.425,6.85-2.74,7.535,13.977,5.48,44.8,4.795,50-2.055,51.374-4.11S456.483,653.561,455.8,646.711Z" fill="#a34b22"/>
            </g>
          </g>
          <g id="Group_102" data-name="Group 102">
            <g id="Group_101" data-name="Group 101">
              <path id="Path_91" data-name="Path 91" d="M406.481,674.795c30.824-.685,50-2.055,51.374-4.11.592-.889.415-4.216-.031-8.257-4.577.6-12.373,1.568-23.259,2.777-18.495,2.055-16.44,4.11-33.564,5.48-15.109,1.208-32.129-1.027-39.531-3.243a3.132,3.132,0,0,0,.21,2.558C362.361,670.687,375.653,675.482,406.481,674.795Z" fill="#1a1a1a"/>
            </g>
          </g>
        </g>
        <g id="Group_105" data-name="Group 105">
          <g id="Group_104" data-name="Group 104">
            <path id="Path_92" data-name="Path 92" d="M483.907,461.814a4.352,4.352,0,0,1,2.753-3.625c1.169-.544,2.811-.578,3.866-1.348,1.508-1.1,1.7-3.252,2.259-4.867a11.412,11.412,0,0,1,3.867-5.256c4.191-3.251,9.778-4.113,14.876-4.841a193.941,193.941,0,0,1,21.906-1.756c15.419-.439,30.835.452,46.255.4,7.29-.023,15.212.388,22.207-1.966,6.164-2.074,11.165-6.609,14.764-11.926,9.311-13.753,8.937-31.022,11.239-46.843.186-1.281,2.227-1.253,2.039.044-3.176,21.826-3.324,56-31.069,61.627-6.68,1.356-13.765,1.105-20.546,1.1-7.939,0-15.875-.236-23.811-.389-15.375-.3-31-.451-46.193,2.258a26.444,26.444,0,0,0-8.985,2.93c-3.784,2.267-4.031,5.1-5.659,8.728-1.016,2.265-2.7,2.6-4.793,3.507-2.931,1.273-3,2.794-2.948,5.432q.07,3.426.141,6.855c.027,1.312-2.011,1.266-2.038-.045C483.97,468.608,483.442,465.019,483.907,461.814Z" fill="#0a5485"/>
          </g>
        </g>
        <g id="Group_107" data-name="Group 107">
          <g id="Group_106" data-name="Group 106">
            <path id="Path_93" data-name="Path 93" d="M461.274,616.236l20.558-131.042c.2-1.292,2.167-.744,1.966.542Q473.517,551.268,463.237,616.8,462.262,616.5,461.274,616.236Z" fill="#0a5485"/>
          </g>
        </g>
      </g>
      <g id="Group_113" data-name="Group 113">
        <g id="Group_109" data-name="Group 109">
          <path id="Path_94" data-name="Path 94" d="M529.568,268.351a37.725,37.725,0,0,0,1.592,16.74,178.2,178.2,0,0,1,5.515,20.469c1.418,6.627,2.636,13.311,3.666,20.008,1,6.515,3.088,12.776,4.032,19.315a49.428,49.428,0,0,1,.224,14.4c-.735,4.779-3.334,8.993-3.8,13.8-.247,2.554.16,8.573,3.542,8.814,3.337.238,6.461,1.636,9.585,2.832,8.991,3.442,17.8,1.439,26.984.068,5.152-.769,10.2-2.622,15.364-2.769,9.961-.283,19.917-.843,29.861-1.472,7.346-.464,14.708-.911,22.029-1.682,13.015-1.37,38.511-5.579,40.477-24.286,1.733-16.508-19.179-67.321-27.4-78.28-4.281-5.713-7.268-9.384-11.281-12.741-.308-.261-.63-.52-.952-.781-.527-.425-1.069-.843-1.643-1.26-.254-.185-.507-.364-.768-.548a121.359,121.359,0,0,0-12.069-7.274c-6.788-3.706-13.706-7.4-20.084-11.165q-1.05-.618-2.076-1.233c-.76-2.63-3.273-6.384-4.87-7.425-.589-.383-1.253,3.548-1.822,3.158-1.253-.849-2.465-1.7-3.623-2.548a10.241,10.241,0,0,0-6.665-2.042c-7.644.439-13.932,5.72-22.289,6.172-2.468.133-5.216,1.691-7.449,2.61-4.681,1.928-9.3,4-13.917,6.08-7.672,3.465-16.4,6.573-20.355,14.813A21.759,21.759,0,0,0,529.568,268.351Z" fill="#ffd91f"/>
        </g>
        <g id="Group_110" data-name="Group 110">
          <path id="Path_95" data-name="Path 95" d="M585.048,265.02c4.233,5.829,9.4,11.179,11.371,18.289.343,1.233,1.9,1.013,2.473.15,8.069-12.069,11.892-26.885,15.549-40.928q-1.048-.617-2.076-1.233c-3.685,13.063-7.124,26.913-14.282,38.5-2.4-6.1-6.945-11.008-10.8-16.3C586.267,262.1,584.02,263.609,585.048,265.02Z" fill="#e4c011"/>
        </g>
        <g id="Group_111" data-name="Group 111">
          <path id="Path_96" data-name="Path 96" d="M556.269,278.055a25.485,25.485,0,0,1,1.063-5.821,110.6,110.6,0,0,1,5.369-16.36c1.766-4.388,3.69-8.709,5.57-13.047.587-1.354,2.251-3.645,1.917-2.265-2.277,9.424-6.556,18.227-9.369,27.484-.28.921-1.051,2.277-1.046,3.213a.449.449,0,0,0,.347.458c.517.058,1.446-1.289,1.788-1.6q1.209-1.111,2.454-2.179c1.944-1.667,4.183-3.742,6.548-4.765.423-.182,1.049-.26,1.222.166.136.336-.152.682-.415.932a139.1,139.1,0,0,0-12.059,13.013C558.788,278.353,556.4,281.052,556.269,278.055Z" fill="#e4c011"/>
        </g>
        <g id="Group_112" data-name="Group 112">
          <path id="Path_97" data-name="Path 97" d="M573.1,269.951c-.032-1.323,1.44-2.059,1.472-.736.191,7.9-1.079,16.965-2.365,24.724-1.487,8.974-2.086,17.57-.691,26.593,2.462,15.92,5.042,34.047,4.528,50.24-.042,1.319-1.563-.858-1.521-2.184.538-16.932-2.109-31.188-4.366-47.86C567.946,304.429,573.493,286.163,573.1,269.951Z" fill="#e4c011"/>
        </g>
      </g>
      <g id="Group_115" data-name="Group 115">
        <path id="Path_98" data-name="Path 98" d="M566.472,351.669c-.659-.049-7.827-2.59-9.728-3.235-1.765-.6-3.8-1.88-5.71-1.32a6.2,6.2,0,0,0-1.856,1.024c-1.767,1.287-3.426,3.539-5.518,4.236s-4.55-.833-6.384.782a4.609,4.609,0,0,0-.88,6c.684.927,1.744,1.567,2.259,2.6.79,1.579.06,3.55.662,5.209.768,2.122,3.442,3.081,4.221,5.2.464,1.261.172,2.749.829,3.921.879,1.57,3.027,1.888,4.3,3.157.364.361.65.795,1.01,1.16,1.3,1.319,3.63,1.816,5.393,2.237a20.825,20.825,0,0,0,4.977.383c.453,0,7.173-.353,7.159-.479-.075-.63-.141-1.261-.206-1.891C566.029,371.1,565.359,361.24,566.472,351.669Z" fill="#e9946b"/>
        <g id="Group_114" data-name="Group 114">
          <path id="Path_99" data-name="Path 99" d="M639.266,345.822l.247-.079-.258-1.287Q639.266,345.137,639.266,345.822Z" fill="#ffd91f"/>
          <path id="Path_100" data-name="Path 100" d="M689.6,349.468c-.855-3.468-2.023-6.853-3.031-9.9-1.114-3.368-2.286-6.724-3.129-10.172-.722-2.951-.731-4.9-3.2-6.815-6,8.876-14.366,13.787-24.279,17.548-6.967,2.643-14.471,5.6-21.794,7.092-.579.118-32.693,6.6-67.7,4.414,0,0-2.944,26.494,2.943,39.741,19.769.659,39.666.549,59.4-.737,6.438-.42,12.926-1.481,19.337-1.644a65.881,65.881,0,0,0,24.853-5.528,18.071,18.071,0,0,0,7.008-5.035c1.048-1.356,1.776-2.934,2.771-4.33,1.306-1.833,3.042-3.316,4.468-5.058C691.756,363.558,691.3,356.351,689.6,349.468Z" fill="#ffd91f"/>
        </g>
        <path id="Path_101" data-name="Path 101" d="M551.932,351.892c-2.9-.242-5.808-.344-8.706-.656-1.473-.159-1.835,2.4-.353,2.609a61.374,61.374,0,0,0,9.059.807,1.381,1.381,0,0,0,0-2.76Z" fill="#d07453"/>
        <path id="Path_102" data-name="Path 102" d="M646.84,342.529c-1.707.4-8.556,1.6-10.267,1.973-2.834-5-2.069-9.8-3.038-15.244-.866-4.866-6.808-15.395-9.8-19.2-1.064-1.351-3.4-.023-2.341,1.419,3.594,4.9,9.355,15.853,9.62,22.107.174,4.113.506,8.044,2.751,11.5a260.194,260.194,0,0,1-63.134,5.08c-1.643-.065-1.576,2.441.041,2.541,24.332,1.506,53.3-1.632,76.968-7.455C649.42,344.813,648.62,342.108,646.84,342.529Z" fill="#e4c011"/>
      </g>
      <g id="Group_116" data-name="Group 116">
        <path id="Path_103" data-name="Path 103" d="M647.979,261.981a20.48,20.48,0,0,0-7.494,1.859c-1.206.784-2.343,1.647-3.555,2.413-5.371,4.771-8.761,11.562-10.9,18.311a70.676,70.676,0,0,0-2.252,9.425q-.465,2.712-.757,5.451a23.917,23.917,0,0,0-.289,3.873c.047.592.192.969.514.839a1.227,1.227,0,0,0,.581-.87c2.112-7.205,2.192-14.98,5.133-21.888.108-.254.237-.5.353-.748a36.93,36.93,0,0,1,3.184-6.3,24.623,24.623,0,0,1,5.146-6.252c2.987-2.589,7.406-5.252,11.591-5.125l-.229-.188C648.674,262.512,648.33,262.247,647.979,261.981Z" fill="#e4c011"/>
      </g>
      <g id="Group_123" data-name="Group 123">
        <g id="Group_118" data-name="Group 118">
          <g id="Group_117" data-name="Group 117">
            <path id="Path_104" data-name="Path 104" d="M575.658,402.418s-1.37,78.088,2.74,81.513,73.294,8.22,77.4-.685c1.674-3.626,5.48-78.773,5.48-78.773l-8.22.685S651,475.027,646.894,476.4s-58.224,2.74-60.964-.685-1.37-73.293-1.37-73.293Z" fill="#4d4d4d"/>
          </g>
        </g>
        <g id="Group_120" data-name="Group 120">
          <g id="Group_119" data-name="Group 119">
            <path id="Path_105" data-name="Path 105" d="M668.13,390.088s-96.582-7.535-100.008-2.74-2.055,13.7,0,15.07,97.268,6.85,100.693,3.425S670.185,390.088,668.13,390.088Z" fill="#ea4550"/>
          </g>
        </g>
        <g id="Group_122" data-name="Group 122">
          <g id="Group_121" data-name="Group 121">
            <path id="Path_106" data-name="Path 106" d="M567.557,403.272a1.028,1.028,0,0,1-.286-1.424h0a1.027,1.027,0,0,1,1.328-.342c3.411,1.1,78.345,5.77,96.675,4.074a1.021,1.021,0,0,1,1.116.916v.011a1.028,1.028,0,0,1-.927,1.118h0c-2.5.232-6.4.333-11.256.333C626.888,407.958,569.751,404.737,567.557,403.272Zm1.14-1.71" fill="#be2328"/>
          </g>
        </g>
      </g>
      <g id="Group_147" data-name="Group 147">
        <g id="Group_125" data-name="Group 125">
          <g id="Group_124" data-name="Group 124">
            <path id="Path_107" data-name="Path 107" d="M585.026,175.721a1.06,1.06,0,0,1-.963-.487,29.381,29.381,0,0,1-3.311-7.9c-1.5-6.008-.36-11.063,3.3-14.618a1.057,1.057,0,0,1,1.5.017l0,0a1.061,1.061,0,0,1-.021,1.5h0c-7.539,7.329.243,19.736.323,19.861a1.052,1.052,0,0,1-.827,1.623Z" fill="#5a475a"/>
          </g>
        </g>
        <g id="Group_127" data-name="Group 127">
          <g id="Group_126" data-name="Group 126">
            <path id="Path_108" data-name="Path 108" d="M584.271,175.389c-.406-3.428-2.82-5.707-2.425-9.561a15.043,15.043,0,0,1,10.017-12.455c3.074-1.014,6.381-.985,9.618-.946l8.965.107a12.21,12.21,0,0,1,5.347.874c2.346,1.169,4.263,2.036,5.136,4.506a37.579,37.579,0,0,1,2.413,8.891c6.045-.447,12.028,5.484,10.39,12.037,2.507,3,2.6,8.157,1.531,10.358-1.827,3.767,1.13,4.553,2.4,7.954a6.4,6.4,0,0,1-.541,5.67A39.442,39.442,0,0,1,626.2,215.866c-4.085,3.12-16.678,9.677-16.678,9.677-8.751.767-22.317-26.019-22.317-26.019q-.422-3.456-.841-6.914l-1.885-15.517Q584.371,176.235,584.271,175.389Z" fill="#5a475a"/>
          </g>
        </g>
        <g id="Group_129" data-name="Group 129">
          <g id="Group_128" data-name="Group 128">
            <path id="Path_109" data-name="Path 109" d="M616.409,213.63s-1.347,2.267-2.892,5.387c-2.023,4.085-5.2,13.151-5.88,17.942a7.9,7.9,0,0,1-1.384,3.466c-3,4.2-8.029,9.243-15.212,15.955-7.374,6.888-16.19,17.993-18.3,20.686,1.185-10.906-.78-21.923-.221-32.859.059-1.236.155-2.472.295-3.7,2.326-4.5,5.689-10.59,5.814-10.885.1.007,1.148-2.895,2.314-3.962.876-.736,1.91-.954,2.55-1.977a34.311,34.311,0,0,0,2.524-4.806Z" fill="#e9946b"/>
          </g>
        </g>
        <g id="Group_140" data-name="Group 140">
          <g id="Group_139" data-name="Group 139">
            <g id="Group_131" data-name="Group 131">
              <g id="Group_130" data-name="Group 130">
                <path id="Path_110" data-name="Path 110" d="M625.992,208.531c-1.177,12.84-9.59,12.33-12.948,11.265-1.167-.369-.419-1.378-.419-1.378-5.45,7.687-12.107,11.515-19.441,11.85a28.6,28.6,0,0,1-12.741-2.616c-.759-.325-1.526-.69-2.293-1.078-4.162-2.118-11.906-7.828-13.019-13.258-.032-.162-.059-.324-.077-.486-1.376-10.54,21.029-40.6,21.029-40.6,2.756-1.2,7.448-.756,9.152.021s6.418,1.932,8.6,3.988c.789,2.8,1.984,9.579,6.28,13.272a26.286,26.286,0,0,1,2.67,2.721c1.22,1.607.526,2.9.19,4.887-.322,1.9-.269,2.953-1.2,4.642a3.6,3.6,0,0,0-.716,2.334,3.7,3.7,0,0,0,2.745,2.25,1.687,1.687,0,0,0,.7-.333C623.387,199.958,626.277,205.421,625.992,208.531Z" fill="#e9946b"/>
              </g>
            </g>
            <g id="Group_133" data-name="Group 133">
              <g id="Group_132" data-name="Group 132">
                <path id="Path_111" data-name="Path 111" d="M578.291,198.177a1.155,1.155,0,0,1,1.551-.44l1.584.9a1.14,1.14,0,1,1-1.111,1.991l-1.585-.9A1.161,1.161,0,0,1,578.291,198.177Z" fill="#d45c48"/>
              </g>
            </g>
            <g id="Group_135" data-name="Group 135">
              <g id="Group_134" data-name="Group 134">
                <path id="Path_112" data-name="Path 112" d="M596.938,184.988c1.182,1.066,2.52,1.939,3.645,3.07,1.141,1.15,2.135,2.438,3.231,3.63.988,1.074-.6,2.708-1.6,1.625-1.094-1.191-2.085-2.485-3.23-3.63-1.128-1.128-2.463-2-3.644-3.071C594.254,185.63,595.848,184,596.938,184.988Z" fill="#5a475a"/>
              </g>
            </g>
            <g id="Group_138" data-name="Group 138">
              <g id="Group_137" data-name="Group 137">
                <g id="Group_136" data-name="Group 136">
                  <path id="Path_113" data-name="Path 113" d="M584.749,179.551a1.094,1.094,0,0,0-.53-2.043,9.242,9.242,0,0,0-5.271,1.23,1.09,1.09,0,0,0-.491,1.461l0,.008a1.1,1.1,0,0,0,1.469.487,7.113,7.113,0,0,1,4.262-1A1.089,1.089,0,0,0,584.749,179.551Z" fill="#5a475a"/>
                </g>
              </g>
            </g>
          </g>
        </g>
        <g id="Group_142" data-name="Group 142">
          <g id="Group_141" data-name="Group 141">
            <path id="Path_114" data-name="Path 114" d="M596.291,192.724a5.464,5.464,0,0,1,1.479.929c.55.508.313,1.339.766,1.857a1.292,1.292,0,0,0,2.177-.417,3.066,3.066,0,0,0-1.173-2.851,6.923,6.923,0,0,0-1.536-.834,6.844,6.844,0,0,0-1.754-.464,2.611,2.611,0,0,0-1.13-.028c-.474.13-1.42,1.094-.706,1.468a1.669,1.669,0,0,0,.754.1A3.1,3.1,0,0,1,596.291,192.724Z" fill="#1a1a1a"/>
          </g>
        </g>
        <g id="Group_144" data-name="Group 144">
          <g id="Group_143" data-name="Group 143">
            <path id="Path_115" data-name="Path 115" d="M575.595,188.515a.506.506,0,0,1-.249-.495,2.437,2.437,0,0,1,1.644-2.139,4.363,4.363,0,0,1,3.376-.016.965.965,0,0,1,.513.554,1.425,1.425,0,0,1-.452,1.483c-.9.8-1.65,0-2.56-.231a1.621,1.621,0,0,0-1.057.09C576.652,187.822,575.641,188.531,575.595,188.515Z" fill="#1a1a1a"/>
          </g>
        </g>
        <g id="Group_146" data-name="Group 146">
          <g id="Group_145" data-name="Group 145">
            <path id="Path_116" data-name="Path 116" d="M623.52,159.4a1.06,1.06,0,0,1-.891-.386c-6.845-8.377-25.773-4.535-25.962-4.5a1.06,1.06,0,0,1-.432-2.075c.828-.173,20.385-4.135,28.036,5.228a1.058,1.058,0,0,1-.148,1.489l0,0A1.048,1.048,0,0,1,623.52,159.4Z" fill="#5a475a"/>
          </g>
        </g>
        <path id="Path_117" data-name="Path 117" d="M583.616,207.467a20.859,20.859,0,0,0-8.078-1.364,1.323,1.323,0,0,0,0,2.645,22.94,22.94,0,0,1,7.391,1.214C584.539,210.487,585.133,208.062,583.616,207.467Z" fill="#d45c48"/>
        <path id="Path_118" data-name="Path 118" d="M600.4,228.576c-1.885,3.644-6.7,14.146-28.039,13.41.059-1.236.309-.25.449-1.479,2.326-4.5,5.819-10.816,5.814-10.885.036-.024,1.1-2.306,1.1-2.274C579.725,227.348,590.984,231.41,600.4,228.576Z" fill="#1a1a1a" opacity="0.29"/>
      </g>
      <g id="Group_828" data-name="Group 828" transform="matrix(0.995, -0.105, 0.105, 0.995, -18.196, 61.143)">
        <path id="Path_35" data-name="Path 35" d="M578.767,203.1a1.11,1.11,0,0,0-.87-.36c-1.972-.025-2.179,2.971-2.816,4.227-1.04,2.05-2.356,3.941-3.551,5.9-2.129,3.489-4.223,7-6.315,10.512-1.546,2.6-3.081,5.2-4.637,7.8-.379.634.254.681.68.077,1.732-2.451,3.281-5.039,4.863-7.588q3.215-5.167,6.369-10.367,1.031-1.694,2.057-3.392a9.076,9.076,0,0,1,2.205-2.851,6.708,6.708,0,0,0,2.113-2.492A1.415,1.415,0,0,0,578.767,203.1Z" fill="#fff"/>
        <path id="Path_36" data-name="Path 36" d="M555.153,238.207s3.359-7.9,4.983-8.167,3.517,1.085,3.353,2.113-9.753,21.636-9.753,21.636l-3.4-8.445Z" fill="#fa8747"/>
      </g>
      <g id="Group_149" data-name="Group 149">
        <path id="Path_122" data-name="Path 122" d="M520.745,357.082a25.324,25.324,0,0,1-9.943.649,27.927,27.927,0,0,1-11.149-5.021c-6.464-4.477-11.857-14.3-9.205-22.311,1.472-4.447,5.383-7.688,7.234-11.992,1.2-2.8,1.484-5.934,2.791-8.684,1.529-3.219,4.274-5.618,6.067-8.665,1.744-2.964,3.057-6.158,4.734-9.16,3.734-6.682,7.812-13.2,11.823-19.716,4.507-7.327,9.534-14.734,13.971-22.545,1.435-2.527,29.1,29.717,24.451,38.434-3.046,5.71-5.779,11.6-8.648,17.4-5.4,10.908-10.847,21.8-16.657,32.492-1.347,2.479-2.73,4.935-4.119,7.389-1.174,2.075-1.812,4.484-3.032,6.493C527.476,354.45,524.252,356.15,520.745,357.082Z" fill="#ffd91f"/>
      </g>
      <g id="Group_150" data-name="Group 150">
        <path id="Path_123" data-name="Path 123" d="M552.6,265.717c-1.713.517-3.425,1.033-5.134,1.56q-.551,3.018-1,6.053c7.007,8.19,13.893,16.656,15.891,13.549C565.448,282.07,553.09,266.242,552.6,265.717Z" fill="#c47b0e"/>
      </g>
      <g id="Group_151" data-name="Group 151">
        <path id="Path_124" data-name="Path 124" d="M577.44,234.219a2.4,2.4,0,0,0-.711-1.125c-1.612-1.716-3.277-3.385-5-4.988a20.135,20.135,0,0,1,1.863-.8,7.039,7.039,0,0,0,2.446-1.484c1.331-1.429,1.126-3.667-.779-4.327-3.482-1.207-7.319-.943-10.858-1.971-1.557-.452-3.126-1.16-4.729-.917-1.657.251-2.973,1.459-4.37,2.385-2.355,1.562-5.113,2.39-7.638,3.658a5.1,5.1,0,0,0-1.654,1.162c-1.529,1.793-.4,4.664-1.352,6.819-.354.8-.98,1.458-1.341,2.256a10.272,10.272,0,0,0-.579,2.427,16.08,16.08,0,0,1-.716,2.574.534.534,0,0,1-.032.35,109.818,109.818,0,0,1-6.956,12.558c-1.5,5.644,7.212,15.289,7.254,15.334,0,0,7.461,9.08,8.745,10.462.337-.865.674-1.729,1.021-2.581,1.943-4.762,3.892-9.528,6.04-14.2,1.224-2.662,2.67-5.212,4.1-7.77.513-.921,1.067-2.708,1.884-3.372.856-.7,2.576-.672,3.63-1.148a5.168,5.168,0,0,0,2.812-2.51c.466-1.222-.052-2.68.683-3.818.5-.771,1.441-1.1,2.158-1.678,1.423-1.139.9-2.463,1.548-3.859C575.481,236.415,577.76,235.912,577.44,234.219Z" fill="#e9946b"/>
      </g>
      <path id="Path_125" data-name="Path 125" d="M570.989,226.281c-1.6-1.217-4.02-3.365-6.148-3.2-1.482.113-3.035,1.153-4.416,1.643a53.911,53.911,0,0,1-6.685,1.833c-1.571.339-1.423,2.808.241,2.553a44.585,44.585,0,0,0,8.007-1.983c1.221-.428,2.353-1.2,3.649-.971a37.1,37.1,0,0,1,5.668,2.506C572.627,229.313,572.186,227.189,570.989,226.281Z" fill="#d07453"/>
      <path id="Path_126" data-name="Path 126" d="M572.37,235.917c-1.732-1.9-3.881-3.74-6.51-4.153-3.025-.474-5.686,1.227-8.4,2.256a1.3,1.3,0,0,0,.919,2.419c1.93-.682,4.043-2,6.139-2.042,2.464-.046,5.85,1.624,7.625,3.055C573.239,238.34,573.4,237.044,572.37,235.917Z" fill="#d07453"/>
      <path id="Path_127" data-name="Path 127" d="M566.67,240.221a22.5,22.5,0,0,0-8.484,1.459c-1.544.546-.647,2.9.9,2.376a33.422,33.422,0,0,1,7.48-1.363C567.916,242.558,568.115,240.285,566.67,240.221Z" fill="#d07453"/>
      <path id="Path_128" data-name="Path 128" d="M549.911,250.764c-1.005-1.7-1.707-2.9-1.317-4.871a7.056,7.056,0,0,0,.358-3.03c-.507-2.362-4.846-3.263-4.2-5.781.292-1.138-.1-2.973-.94-2.128-.758.76-.8,4.646-.294,5.624.765,1.486,2.739,1.81,2.78,3.8.032,1.537-.765,2.51-.38,4.16.32,1.37,2.416,3.3,3.288,4.381C550.223,254.188,550.724,252.136,549.911,250.764Z" fill="#d07453"/>
      <path id="Path_129" data-name="Path 129" d="M558.873,290.174c-4.757,9.648-8.369,17-13.375,26.516-2.393,4.553-3.58,9.228-6.039,13.746a94.157,94.157,0,0,0-6.878,16.142,1.133,1.133,0,0,0,1.913,1.158c3.4-3.748,4.793-10.7,7.213-15.133,2.577-4.72,3.615-9.358,6.1-14.124,5.088-9.74,8.08-17.252,12.776-27.187C561.323,289.74,559.627,288.647,558.873,290.174Z" fill="#ffe7d7"/>
      <path id="Path_130" data-name="Path 130" d="M237.016,507.875c-27.86-19.329-48.076-46.93-54.425-80.616-.792-4.2-7.166-2.414-6.4,1.765,6.194,33.916,27.272,67.143,57.637,84.312C237.416,515.366,240.323,510.169,237.016,507.875Z" fill="#52bbe1" opacity="0.15" style="isolation: isolate"/>
      <path id="Path_131" data-name="Path 131" d="M178.413,408.811c-.529-3.323-2.215-5.784-.63-9.193,1.694-3.642-3.611-6.862-5.461-3.192-2.376,4.717-2.95,12.2,1.973,15.549C176.538,413.5,178.76,410.986,178.413,408.811Z" fill="#52bbe1" opacity="0.15" style="isolation: isolate"/>
      <path id="Path_132" data-name="Path 132" d="M639.853,81.851c-11.154-8.553-26.491-5.5-39.5-7.642a89.779,89.779,0,0,1-40.07-17.48c-2.91-2.234-6.86,2.825-3.954,5.125a93.77,93.77,0,0,0,39.077,18.572c6.918,1.433,13.871,1.8,20.9,2.159,7.088.358,14.057,1.119,20.045,5.248C640.1,90.413,643.3,84.49,639.853,81.851Z" fill="#52bbe1" opacity="0.15" style="isolation: isolate"/>
      <path id="Path_133" data-name="Path 133" d="M636.168,572.262a35.792,35.792,0,0,1-19.716,10.873c-4.158.776-2.35,6.944,1.735,6.292A38.654,38.654,0,0,0,641.006,577.1C643.913,573.832,639.225,569.047,636.168,572.262Z" fill="#52bbe1" opacity="0.15" style="isolation: isolate"/>
      <g id="Group_664" data-name="Group 664">
        <path id="Path_1357" data-name="Path 1357" d="M331.416,100.287a35.792,35.792,0,1,1,35.715,35.869A35.792,35.792,0,0,1,331.416,100.287Z" fill="#a6a8ab"/>
        <path id="Path_1358" data-name="Path 1358" d="M328.505,100.356a35.285,35.285,0,1,1,35.21,35.361A35.285,35.285,0,0,1,328.505,100.356Z" fill="#fff" stroke="#929497" stroke-miterlimit="10" stroke-width="4.83"/>
        <path id="Path_1359" data-name="Path 1359" d="M392.068,106.81a.166.166,0,0,1,.2-.115l2.056.447a.156.156,0,0,1,.117.187l0,.008a.17.17,0,0,1-.2.126l-2.051-.469a.15.15,0,0,1-.118-.178Z" fill="#808184"/>
        <path id="Path_1360" data-name="Path 1360" d="M389.937,112.953a.16.16,0,0,1,.212-.068l1.906.891a.16.16,0,0,1,.073.216h0a.165.165,0,0,1-.217.081h0l-1.9-.914A.16.16,0,0,1,389.937,112.953Z" fill="#808184"/>
        <path id="Path_1361" data-name="Path 1361" d="M386.515,118.482a.153.153,0,0,1,.214-.027l0,0,1.66,1.294a.168.168,0,0,1,.027.232.158.158,0,0,1-.22.036l-.005,0-1.644-1.312A.162.162,0,0,1,386.515,118.482Z" fill="#808184"/>
        <path id="Path_1362" data-name="Path 1362" d="M381.952,123.119a.166.166,0,0,1,.225.033l1.332,1.63a.156.156,0,0,1-.025.218l-.007.006a.172.172,0,0,1-.234-.026l-1.314-1.645a.148.148,0,0,1,.018-.211Z" fill="#808184"/>
        <path id="Path_1363" data-name="Path 1363" d="M376.459,126.6a.159.159,0,0,1,.209.078l.935,1.885a.16.16,0,0,1-.076.215h0a.164.164,0,0,1-.22-.071h0l-.916-1.9a.157.157,0,0,1,.069-.211Z" fill="#808184"/>
        <path id="Path_1364" data-name="Path 1364" d="M370.338,128.781a.152.152,0,0,1,.184.112v0l.487,2.048a.166.166,0,0,1-.124.2.158.158,0,0,1-.195-.11v-.005l-.465-2.056A.163.163,0,0,1,370.338,128.781Z" fill="#808184"/>
        <path id="Path_1365" data-name="Path 1365" d="M363.88,129.549a.149.149,0,0,1,.154.144v.009l.018,2.105a.17.17,0,0,1-.164.168.154.154,0,0,1-.166-.141v-.012l0-2.105A.169.169,0,0,1,363.88,129.549Z" fill="#808184"/>
        <path id="Path_1366" data-name="Path 1366" d="M357.415,128.83a.164.164,0,0,1,.113.195l-.451,2.056a.156.156,0,0,1-.188.116l-.008,0a.169.169,0,0,1-.126-.2l.475-2.051a.15.15,0,0,1,.179-.117Z" fill="#808184"/>
        <path id="Path_1367" data-name="Path 1367" d="M351.283,126.677a.159.159,0,0,1,.068.212l-.9,1.9a.166.166,0,0,1-.3-.144l.924-1.892a.157.157,0,0,1,.207-.079Z" fill="#808184"/>
        <path id="Path_1368" data-name="Path 1368" d="M345.773,123.226a.153.153,0,0,1,.026.214l0,0-1.3,1.652a.167.167,0,0,1-.231.026.157.157,0,0,1-.037-.219l0-.006,1.321-1.638A.164.164,0,0,1,345.773,123.226Z" fill="#808184"/>
        <path id="Path_1369" data-name="Path 1369" d="M341.168,118.632a.166.166,0,0,1-.034.224l-1.637,1.321a.155.155,0,0,1-.219-.026l-.005-.006a.169.169,0,0,1,.027-.233l1.651-1.3a.151.151,0,0,1,.213.017Z" fill="#808184"/>
        <path id="Path_1370" data-name="Path 1370" d="M337.718,113.118a.159.159,0,0,1-.078.209l-1.89.925a.162.162,0,0,1-.215-.077v0a.163.163,0,0,1,.073-.219l1.9-.906a.157.157,0,0,1,.211.068Z" fill="#808184"/>
        <path id="Path_1371" data-name="Path 1371" d="M335.557,106.984a.154.154,0,0,1-.113.185h0l-2.05.48a.166.166,0,0,1-.2-.125.156.156,0,0,1,.108-.194l.007,0,2.056-.46A.162.162,0,0,1,335.557,106.984Z" fill="#808184"/>
        <path id="Path_1372" data-name="Path 1372" d="M334.8,100.522a.149.149,0,0,1-.144.155h-.009l-2.105.017a.172.172,0,0,1-.168-.165.155.155,0,0,1,.141-.165h.012l2.106,0A.168.168,0,0,1,334.8,100.522Z" fill="#808184"/>
        <path id="Path_1373" data-name="Path 1373" d="M335.509,94.053a.165.165,0,0,1-.2.115l-2.055-.447a.157.157,0,0,1-.118-.187l0-.008a.17.17,0,0,1,.2-.126l2.052.469a.151.151,0,0,1,.118.18Z" fill="#808184"/>
        <path id="Path_1374" data-name="Path 1374" d="M337.639,87.91a.157.157,0,0,1-.211.069l-1.906-.891a.161.161,0,0,1-.074-.215v0a.162.162,0,0,1,.216-.08h0l1.9.914A.157.157,0,0,1,337.639,87.91Z" fill="#808184"/>
        <path id="Path_1375" data-name="Path 1375" d="M341.062,82.381a.153.153,0,0,1-.215.027l0,0-1.66-1.294a.168.168,0,0,1-.026-.232.157.157,0,0,1,.219-.037l.006,0,1.644,1.312A.164.164,0,0,1,341.062,82.381Z" fill="#808184"/>
        <path id="Path_1376" data-name="Path 1376" d="M345.625,77.744a.166.166,0,0,1-.225-.033l-1.332-1.63a.154.154,0,0,1,.023-.217l.009-.007a.169.169,0,0,1,.233.026l1.314,1.644a.15.15,0,0,1-.016.212Z" fill="#808184"/>
        <path id="Path_1377" data-name="Path 1377" d="M351.119,74.265a.159.159,0,0,1-.21-.077l-.935-1.886a.161.161,0,0,1,.076-.214l0,0a.165.165,0,0,1,.22.072l.915,1.9a.157.157,0,0,1-.069.211Z" fill="#808184"/>
        <path id="Path_1378" data-name="Path 1378" d="M357.24,72.082a.153.153,0,0,1-.185-.115v0l-.487-2.047a.167.167,0,0,1,.125-.2.159.159,0,0,1,.2.11v.006l.465,2.055A.161.161,0,0,1,357.24,72.082Z" fill="#808184"/>
        <path id="Path_1379" data-name="Path 1379" d="M363.7,71.314a.15.15,0,0,1-.155-.144v-.009l-.017-2.105a.17.17,0,0,1,.165-.168.153.153,0,0,1,.165.141v.011l-.005,2.1A.167.167,0,0,1,363.7,71.314Z" fill="#808184"/>
        <path id="Path_1380" data-name="Path 1380" d="M370.162,72.033a.164.164,0,0,1-.114-.195l.452-2.056a.156.156,0,0,1,.187-.117l.008,0a.17.17,0,0,1,.126.2l-.475,2.051a.15.15,0,0,1-.178.118Z" fill="#808184"/>
        <path id="Path_1381" data-name="Path 1381" d="M376.3,74.186a.16.16,0,0,1-.068-.212l.9-1.9a.166.166,0,0,1,.3.145l-.923,1.892a.157.157,0,0,1-.208.076Z" fill="#808184"/>
        <path id="Path_1382" data-name="Path 1382" d="M381.8,77.637a.153.153,0,0,1-.027-.214l0,0,1.3-1.652a.168.168,0,0,1,.233-.026.158.158,0,0,1,.036.22l0,.005L382.025,77.6A.163.163,0,0,1,381.8,77.637Z" fill="#808184"/>
        <path id="Path_1383" data-name="Path 1383" d="M386.409,82.232a.166.166,0,0,1,.034-.224l1.637-1.322a.156.156,0,0,1,.218.024l.007.009a.169.169,0,0,1-.027.233l-1.651,1.3a.152.152,0,0,1-.214-.018Z" fill="#808184"/>
        <path id="Path_1384" data-name="Path 1384" d="M389.86,87.746a.158.158,0,0,1,.078-.209l1.89-.926a.161.161,0,0,1,.215.077v0a.163.163,0,0,1-.073.218l-1.9.906A.157.157,0,0,1,389.86,87.746Z" fill="#808184"/>
        <path id="Path_1385" data-name="Path 1385" d="M392.02,93.877a.153.153,0,0,1,.114-.185h0l2.049-.479a.167.167,0,0,1,.2.125.159.159,0,0,1-.109.194h-.007l-2.055.46A.163.163,0,0,1,392.02,93.877Z" fill="#808184"/>
        <path id="Path_1386" data-name="Path 1386" d="M392.779,100.341a.148.148,0,0,1,.143-.155h.009l2.105-.017a.17.17,0,0,1,.168.165.153.153,0,0,1-.141.165h-.012l-2.1,0A.166.166,0,0,1,392.779,100.341Z" fill="#808184"/>
        <circle id="Ellipse_92" data-name="Ellipse 92" cx="3.419" cy="3.419" r="3.419" transform="translate(360.37 98.098)" fill="#58595b"/>
        <path id="Path_1387" data-name="Path 1387" d="M363.224,103.432a1.605,1.605,0,0,1-.609-3.09l20.08-8.29a1.606,1.606,0,0,1,1.225,2.969h0l-20.081,8.29A1.6,1.6,0,0,1,363.224,103.432Z" fill="#58595b"/>
        <path id="Path_1388" data-name="Path 1388" d="M363.222,102.963a1.136,1.136,0,0,1-.949-.513l-14.4-21.938a1.137,1.137,0,0,1,1.9-1.247h0l14.4,21.938a1.137,1.137,0,0,1-.951,1.761Z" fill="#58595b"/>
      </g>
      <g id="Group_831" data-name="Group 831">
        <g id="Group_829" data-name="Group 829">
          <path id="Path_2137" data-name="Path 2137" d="M368.586,302.749c-3.1-9.844-12.313-44.96-14.523-46.284-2.849-1.708-67.744-1.364-71.067,0-2.829,1.161,13.9,47.894,16.015,53.535h71.565l-1.99-7.251Z" fill="#9baebf"/>
          <path id="Path_2138" data-name="Path 2138" d="M363.263,300.2c-2.7-8.6-10.752-39.256-12.681-40.412-2.488-1.492-59.15-1.191-62.051,0-2.47,1.013,12.134,41.817,13.983,46.743H365l-1.737-6.331Z" fill="#fff"/>
        </g>
        <g id="Group_830" data-name="Group 830">
          <path id="Path_2139" data-name="Path 2139" d="M324.928,331.293l6.628-24h3.74l-7.3,24Z" fill="#9baebf"/>
          <path id="Path_2140" data-name="Path 2140" d="M341,331.293l-6.249-24h-3.527l6.879,24Z" fill="#9baebf"/>
        </g>
      </g>
    </g>
    <g id="Group_160" data-name="Group 160" transform="translate(13 13)">
      <g transform="matrix(1, 0, 0, 1, 926, 277.8)" filter="url(#Rectangle_3)">
        <rect id="Rectangle_3-2" data-name="Rectangle 3" width="176" height="199" rx="15" transform="translate(626 80.2)" fill="#9ee493"/>
      </g>
      <text id="_300k_" data-name="300k+" transform="translate(1587 437)" fill="#00385d" font-size="30" font-family="SegoeUI-Bold, Segoe UI" font-weight="700"><tspan x="0" y="0">300k+</tspan></text>
      <text id="COVID-19_tests_completed" data-name="COVID-19 tests
completed" transform="translate(1640 479)" fill="#00385d" font-size="15" font-family="SegoeUI, Segoe UI"><tspan x="-50.336" y="0">COVID-19 tests</tspan><tspan x="-35.347" y="23">completed</tspan></text>
    </g>
    <g id="Group_162" data-name="Group 162" transform="translate(-14 21)">
      <g transform="matrix(1, 0, 0, 1, 953, 269.8)" filter="url(#Rectangle_6)">
        <rect id="Rectangle_6-2" data-name="Rectangle 6" width="166" height="162" rx="15" transform="translate(56 235.2)" fill="#9ee493"/>
      </g>
      <text id="_120" data-name="120" transform="translate(1060 580)" fill="#00385d" font-size="30" font-family="SegoeUI-Bold, Segoe UI" font-weight="700"><tspan x="0" y="0">120</tspan></text>
      <text id="Live_sites" data-name="Live sites" transform="translate(1092 614)" fill="#00385d" font-size="15" font-family="SegoeUI, Segoe UI"><tspan x="-29.561" y="0">Live sites</tspan></text>
    </g>
    <g id="Group_161" data-name="Group 161" transform="translate(0 21)">
      <g transform="matrix(1, 0, 0, 1, 939, 269.8)" filter="url(#Ellipse_3)">
        <circle id="Ellipse_3-2" data-name="Ellipse 3" cx="56" cy="56" r="56" transform="translate(632 482.2)" fill="#9ee493"/>
      </g>
      <g id="Group_157" data-name="Group 157" transform="translate(561.755 -93.922)">
        <path id="Path_134" data-name="Path 134" d="M1110.521,883.2h7.3v7.3Z" transform="translate(-34.148 -6.325)" fill="#52bbe1" opacity="0.53"/>
        <path id="Path_135" data-name="Path 135" d="M1049.554,983.162v-7.3l7.3,7.3Z" transform="translate(-2.735 -54.07)" fill="#52bbe1" opacity="0.53"/>
        <path id="Path_136" data-name="Path 136" d="M1072.219,877.889h14.026v57.717h-42V877.889h14.026" transform="translate(0 -3.59)" fill="none" stroke="#00385d" stroke-miterlimit="10" stroke-width="2"/>
        <line id="Line_1" data-name="Line 1" x2="10.173" transform="translate(1065.245 892.305)" fill="none" stroke="#00385d" stroke-linecap="round" stroke-miterlimit="10" stroke-width="2"/>
        <line id="Line_2" data-name="Line 2" x2="10.173" transform="translate(1065.245 903.158)" fill="none" stroke="#00385d" stroke-linecap="round" stroke-miterlimit="10" stroke-width="2"/>
        <line id="Line_3" data-name="Line 3" x2="10.173" transform="translate(1065.245 914.011)" fill="none" stroke="#00385d" stroke-linecap="round" stroke-miterlimit="10" stroke-width="2"/>
        <path id="Path_137" data-name="Path 137" d="M1073.18,871.871v7.176a1.228,1.228,0,0,0,1.228,1.228h.493a1.228,1.228,0,0,0,1.218-1.069l.02-.153a4.3,4.3,0,0,1,4.262-3.742h0a4.3,4.3,0,0,1,4.262,3.742l.02.152a1.228,1.228,0,0,0,1.218,1.069h0a1.228,1.228,0,0,0,1.228-1.228v-7.176a.949.949,0,0,0-.949-.949h-12.05A.949.949,0,0,0,1073.18,871.871Z" transform="translate(-14.909)" fill="none" stroke="#344154" stroke-miterlimit="10" stroke-width="2"/>
        <path id="Path_138" data-name="Path 138" d="M1068.572,932.282l-3.788,4.013-1.832-1.833" transform="translate(-9.638 -31.616)" fill="none" stroke="#00385d" stroke-miterlimit="10" stroke-width="2"/>
        <g id="Group_155" data-name="Group 155" transform="translate(1053.313 890.047)">
          <line id="Line_4" data-name="Line 4" y1="4.517" x2="4.517" transform="translate(0)" fill="none" stroke="#00385d" stroke-miterlimit="10" stroke-width="2"/>
          <line id="Line_5" data-name="Line 5" x1="4.517" y1="4.517" transform="translate(0)" fill="none" stroke="#00385d" stroke-miterlimit="10" stroke-width="2"/>
        </g>
        <g id="Group_156" data-name="Group 156" transform="translate(1053.313 911.752)">
          <line id="Line_6" data-name="Line 6" y1="4.517" x2="4.517" transform="translate(0)" fill="none" stroke="#00385d" stroke-miterlimit="10" stroke-width="2"/>
          <line id="Line_7" data-name="Line 7" x1="4.517" y1="4.517" transform="translate(0)" fill="none" stroke="#00385d" stroke-miterlimit="10" stroke-width="2"/>
        </g>
      </g>
    </g>
  </g>
</svg>
