<svg xmlns="http://www.w3.org/2000/svg" width="260" height="260" viewBox="0 0 260 260">
  <g id="Group_875" data-name="Group 875" transform="translate(-1309 -1263)">
    <rect id="Rectangle_58" data-name="Rectangle 58" width="260" height="260" rx="10" transform="translate(1309 1263)" fill="#5de548" opacity="0.15"/>
    <g id="Group_294" data-name="Group 294" transform="translate(-72.748 -100.371)">
      <rect id="Rectangle_62" data-name="Rectangle 62" width="130" height="130" transform="translate(1446.748 1428.371)" fill="none"/>
      <g id="Group_290" data-name="Group 290" transform="translate(1447.163 1433.659)">
        <path id="Path_410" data-name="Path 410" d="M43.759,294.479H-18.476a2.037,2.037,0,0,1-.5-.062l-14.568-3.962a1.878,1.878,0,0,1-1.321-2.29,1.862,1.862,0,0,1,2.29-1.321l14.341,3.88H43.14c2.6-1.981,3.962-4.065,4.065-6.191.165-3.2-2.579-5.7-2.6-5.716a1.907,1.907,0,0,1,.062-2.868c3.3-2.641,4.973-5.324,4.952-7.944-.021-3.591-3.24-6.149-3.26-6.17a1.848,1.848,0,0,1-.722-1.527,1.829,1.829,0,0,1,.784-1.486c3.281-2.29,5.014-4.725,5.138-7.222.186-3.673-3.1-6.6-3.116-6.644a1.891,1.891,0,0,1,.062-2.889c3.054-2.373,4.5-4.622,4.313-6.686-.227-2.394-2.724-4.354-4.044-5.138l-32.851.247c-2.7.124-4.787-.6-6.129-2.125a6.265,6.265,0,0,1-1.424-4.787C8.432,221.39,9.753,206.8,9.9,205.108c1.135-13.825-5.551-17.643-5.84-17.808-1.052-.64-4.189-2.126-6.025-1.465a2.077,2.077,0,0,0-1.259,1.238c4.7,38.4-28.745,53.259-29.075,53.4a1.878,1.878,0,0,1-2.476-.97,1.912,1.912,0,0,1,.99-2.476C-32.508,236.474-2.319,223-7,187.073a1.739,1.739,0,0,1,.1-.866,5.95,5.95,0,0,1,3.694-3.9c3.838-1.383,8.584,1.424,9.121,1.754.248.124,9.059,4.87,7.718,21.357-.578,6.541-1.527,17.251-1.527,18.3l-.021.31h0a2.638,2.638,0,0,0,.516,1.878c.722.784,2.146.887,3.24.846l33.408-.268a1.993,1.993,0,0,1,.867.206c.248.124,5.922,3.1,6.417,8.316.289,2.951-1.114,5.881-4.168,8.687a12.085,12.085,0,0,1,2.93,8.089c-.165,3.178-1.816,6.108-4.952,8.749a11.718,11.718,0,0,1,3.033,7.408q.031,5.045-4.87,9.636a10.9,10.9,0,0,1,2.456,7.1c-.165,3.446-2.208,6.624-6.087,9.451A1.931,1.931,0,0,1,43.759,294.479Z" transform="translate(72.601 -181.927)"/>
        <path id="Path_411" data-name="Path 411" d="M-8.913,256.849H-23.172A13.588,13.588,0,0,1-36.75,243.271v-45.5a13.589,13.589,0,0,1,13.578-13.578H-8.913A13.589,13.589,0,0,1,4.664,197.771v45.5A13.588,13.588,0,0,1-8.913,256.849Zm-14.259-68.921a9.855,9.855,0,0,0-9.843,9.843v45.5a9.837,9.837,0,0,0,9.843,9.822H-8.913A9.837,9.837,0,0,0,.93,243.271v-45.5a9.855,9.855,0,0,0-9.843-9.843Z" transform="translate(36.75 -137.425)"/>
        <path id="Path_412" data-name="Path 412" d="M-28.175,201.928a7.7,7.7,0,0,1-7.7-7.7,7.7,7.7,0,0,1,7.7-7.7,7.7,7.7,0,0,1,7.7,7.7A7.7,7.7,0,0,1-28.175,201.928Zm0-11.659a3.963,3.963,0,0,0-3.962,3.962,3.963,3.963,0,0,0,3.962,3.962,3.963,3.963,0,0,0,3.962-3.962A3.963,3.963,0,0,0-28.175,190.269Z" transform="translate(53.99 -91.46)" fill="#52bbe1"/>
      </g>
    </g>
  </g>
</svg>
