<svg xmlns="http://www.w3.org/2000/svg" width="260" height="260" viewBox="0 0 260 260">
  <g id="Group_866" data-name="Group 866" transform="translate(-672 -1263)">
    <rect id="Rectangle_56" data-name="Rectangle 56" width="260" height="260" rx="10" transform="translate(672 1263)" fill="#5de548" opacity="0.15"/>
    <g id="Group_292" data-name="Group 292" transform="translate(23.998 -91.775)">
      <rect id="Rectangle_60" data-name="Rectangle 60" width="130" height="130" transform="translate(713.003 1419.776)" fill="none"/>
      <g id="Group_286" data-name="Group 286" transform="translate(722.304 1420.551)">
        <g id="Group_285" data-name="Group 285" transform="translate(23.498 21.987)">
          <path id="Path_390" data-name="Path 390" d="M19.419,237.892h-33.2A15.611,15.611,0,0,1-29.373,222.3V196.865a15.624,15.624,0,0,1,15.591-15.591h33.2A15.629,15.629,0,0,1,35.03,196.865V222.3A15.615,15.615,0,0,1,19.419,237.892Zm-33.2-52.726a11.727,11.727,0,0,0-11.7,11.7V222.3a11.713,11.713,0,0,0,11.7,11.7h33.2a11.7,11.7,0,0,0,11.7-11.7V196.865a11.714,11.714,0,0,0-11.7-11.7Z" transform="translate(29.373 -153.417)" fill="#52bbe1"/>
          <path id="Path_391" data-name="Path 391" d="M14.464,211.7a1.949,1.949,0,0,1-1.957-1.935V202.61A18.785,18.785,0,0,0-6.26,183.842,18.8,18.8,0,0,0-25.028,202.61v7.154a1.931,1.931,0,0,1-1.936,1.935,1.949,1.949,0,0,1-1.957-1.935V202.61A22.682,22.682,0,0,1-6.26,179.95a22.7,22.7,0,0,1,22.681,22.66v7.154A1.949,1.949,0,0,1,14.464,211.7Z" transform="translate(38.451 -179.95)" fill="#52bbe1"/>
          <path id="Path_392" data-name="Path 392" d="M-18.424,209.137a5.442,5.442,0,0,1-5.428-5.428v-3.577a9.8,9.8,0,0,1-4.46-8.247,9.909,9.909,0,0,1,9.889-9.91,9.913,9.913,0,0,1,9.91,9.91,9.8,9.8,0,0,1-4.46,8.247v3.577A5.446,5.446,0,0,1-18.424,209.137Zm0-23.27a6.012,6.012,0,0,0-6,6.018,6.016,6.016,0,0,0,3.366,5.386,1.909,1.909,0,0,1,1.094,1.746v4.692a1.545,1.545,0,0,0,1.536,1.536,1.549,1.549,0,0,0,1.557-1.536v-4.692a1.926,1.926,0,0,1,1.073-1.746,6,6,0,0,0,3.387-5.386A6.016,6.016,0,0,0-18.424,185.866Z" transform="translate(50.615 -139.389)" fill="#52bbe1"/>
        </g>
        <path id="Path_393" data-name="Path 393" d="M25.2,307.354a1.769,1.769,0,0,1-.568-.084c-28.53-8.921-52.474-29.078-53.462-29.94a1.919,1.919,0,0,1-.673-1.157,110.557,110.557,0,0,1,3.051-44.352,79.7,79.7,0,0,0,.021-41.87,1.985,1.985,0,0,1,.274-1.746,1.953,1.953,0,0,1,1.578-.8c42.606,0,47.845-6.775,47.866-6.838a1.944,1.944,0,0,1,3.787-.273c.337.505,5.555,7.112,47.929,7.112a1.94,1.94,0,0,1,1.851,2.546,80.039,80.039,0,0,0,.021,41.87,110.555,110.555,0,0,1,3.051,44.352,1.919,1.919,0,0,1-.673,1.157c-.989.863-24.953,21.019-53.462,29.94A1.812,1.812,0,0,1,25.2,307.354ZM-25.76,274.826c3.745,3.051,25.795,20.514,50.959,28.53,25.164-8.016,47.235-25.48,50.98-28.53a110.109,110.109,0,0,0-3.051-41.933,83.6,83.6,0,0,1-.694-41.6c-32.212-.211-43.405-4.271-47.235-7.364-3.829,3.093-15,7.153-47.214,7.364a83.859,83.859,0,0,1-.694,41.6A109.208,109.208,0,0,0-25.76,274.826Zm52.894-94.28v0Zm0,0Z" transform="translate(30.49 -178.905)"/>
      </g>
    </g>
  </g>
</svg>
