<svg xmlns="http://www.w3.org/2000/svg" width="672.818" height="548.617" viewBox="0 0 672.818 548.617">
  <g id="Group_930" data-name="Group 930" transform="translate(-153.183 -1890.396)">
    <path id="Path_1865" data-name="Path 1865" d="M326.081,736.33c-26.429-91.379-37.773-226.175-.059-313.506,25.428-58.881,64.668-76.778,107.56-93.776,36.441-14.441,56.088-58.609,85.138-89.73C559.935,195.162,614.1,188.23,663.5,188.124c59.9-.129,129.064,8.274,178.795,62.791,28.255,30.974,51.612,76.343,50.21,130.443-1.23,47.475-16.559,88.738,15.669,120.832,26.788,26.676,50.972,48.576,61.527,96.919,9.936,45.508,5.65,104.249-20.321,136.868Z" transform="translate(-148.627 1702.273)" fill="#52bbe1" opacity="0.15"/>
    <g id="Group_791" data-name="Group 791" transform="translate(288.952 1919.014)">
      <g id="Group_229" data-name="Group 229" transform="translate(78.413 0)">
        <g id="Group_185" data-name="Group 185" transform="translate(106.143 38.473)">
          <path id="Path_190" data-name="Path 190" d="M3473.83,326.135s-8.907,24.94-10.094,24.94-14.846-27.909-20.784-33.847a44.328,44.328,0,0,0-13.657-8.907s-.594,47.5,1.188,53.443,12.469,39.785,32.066,39.785c15.5,0,32.482-43.457,38.907-61.632,0,0,.4-3.895-13.374-11.407C3475.018,321.385,3473.83,326.135,3473.83,326.135Z" transform="translate(-3429.199 -267.942)" fill="#fff"/>
          <path id="Path_191" data-name="Path 191" d="M3481.137,393.364c5.838-12.53,11.393-25.128,16.219-38.088.455-1.221,2.423-.708,1.977.545a328.885,328.885,0,0,1-16.3,38.653C3482.39,395.747,3480.547,394.631,3481.137,393.364Z" transform="translate(-3459.088 -285.684)" fill="#fce5eb"/>
          <path id="Path_192" data-name="Path 192" d="M3429.757,347.926s15.262,7.406,14.67,4.437-5.72-7.6-11.47-10.034S3429.757,347.926,3429.757,347.926Z" transform="translate(-3372.182 -280.809)" fill="#1a1a1a"/>
          <path id="Path_193" data-name="Path 193" d="M3460.061,336.527a218.877,218.877,0,0,0,1.782-23.159c.3-13.074-15.143-2.672-15.143-2.672s-1.6,6.282-3.916,14.275C3442.784,324.972,3440.465,328.215,3460.061,336.527Z" transform="translate(-3397.912 -267.348)" fill="#e9946b"/>
          <g id="Group_184" data-name="Group 184" transform="translate(33.944)">
            <path id="Path_194" data-name="Path 194" d="M3455.645,290.5c-.582,2.833,3.358,3.4,5.218,3.03a27.672,27.672,0,0,0,5.417-1.336,17.682,17.682,0,0,0,4.287-2.629c1.282-1.04,2.1-1.31,2.019-3.191l-.676-16.151c-.079-1.885-.436-4.181-2.187-4.847-1-.379-2.158-.065-3.148-.462-1.744-.7-2.343-3.326-4.2-3.6-.684-.1-1.443.152-2.038-.2s-.762-1.2-1.292-1.669c-.609-.542-1.552-.474-2.245-.9-.924-.572-1.129-1.814-1.243-2.9-.376-3.6-.616-7.436-1.664-10.911a2.54,2.54,0,0,0-1.167-1.73c-3.309-1.441-2.863,6.218-2.828,7.626.159,6.227,1.373,12.266,1.776,18.453.114,1.754-.223,2.137-1.75,1.8a18.914,18.914,0,0,0-3.171-.488c-1.983-.094-4.2.419-4.312,2.807-.139,2.963,5.349,3.384,6.934,5.2a11.285,11.285,0,0,1,1.172,1.874,13.973,13.973,0,0,0,4.347,4.665c.767.512,1.68,1.1,1.734,2.022C3456.69,288.062,3455.871,289.4,3455.645,290.5Z" transform="translate(-3442.436 -242.819)" fill="#b3ddd0"/>
            <path id="Path_195" data-name="Path 195" d="M3446.839,281.825a4.978,4.978,0,0,1,1.575,1.215,6,6,0,0,1,.727.849c.063.095.251.651.383.64a11.306,11.306,0,0,1,3.423.248,4.418,4.418,0,0,0-.955-1.976c-.677-.563-1.663-.108-2.453-.2-1.4-.169-2.038-1.3-2.36-2.58-.788-3.138-.173-7.327,1.923-9.859.26-.315.816.022.684.4a39.11,39.11,0,0,0-1.555,4.282,10.7,10.7,0,0,0-.008,4.885,2.38,2.38,0,0,0,1.063,1.629,4.5,4.5,0,0,0,2.209.039,2.15,2.15,0,0,1,1.948,1.142c.37.717.286,2.4,1.17,2.741.106.04.211.081.316.125a1.537,1.537,0,0,0,1.452-.638c.656-.751,1.038-1.854,2.195-1.916a2.027,2.027,0,0,1,1.007.317c.626.272-.084.338,1.046.264.87-.057.918-.244,1.3-.975a12.685,12.685,0,0,1,1.875-3.312c.42-.43,1.039.211.651.657a9.075,9.075,0,0,0-1.252,2.339,10.825,10.825,0,0,1-1.411,2.312,1.74,1.74,0,0,1-.765.627c-.727.235-1.464-.46-2.223-.38a2.433,2.433,0,0,0-1.281.794,2.887,2.887,0,0,1-.621.484c-.163.079-.359.076-.509.154a13.343,13.343,0,0,1,2.3,2.082,6.088,6.088,0,0,1,1.162,2.95c.112,1.037-1.416,1.122-1.717.235-1.172-3.454-5.258-5.57-8.748-5.645a1.705,1.705,0,0,1-1.312-.373,1.793,1.793,0,0,1-.286-.629,5.791,5.791,0,0,0-1.445-2.319,1.035,1.035,0,0,1-.413-.661A1.3,1.3,0,0,1,3446.839,281.825Z" transform="translate(-3436.583 -253.256)" fill="#82bfab"/>
            <g id="Group_183" data-name="Group 183" transform="translate(1.4 1.468)">
              <path id="Path_196" data-name="Path 196" d="M3473.362,251.617a1.012,1.012,0,0,0,.828-.532,13.725,13.725,0,0,0,1.234-2.433c.179-.451.685-1.533.246-1.974a1.023,1.023,0,0,0-.2-.142,9.617,9.617,0,0,0-2.92-1.011,12.177,12.177,0,0,0-2.488-.312,2.387,2.387,0,0,0-1.5.232c-.546.431-.421,1.541-.424,2.148,0,.657-.01,1.319.03,1.975a1.175,1.175,0,0,0,.673,1.062c.331.11.66.222.99.333a1.494,1.494,0,0,0,.189.038l2.3.457A4.385,4.385,0,0,0,3473.362,251.617Z" transform="translate(-3462.927 -245.2)" fill="#4e0c09"/>
              <path id="Path_197" data-name="Path 197" d="M3477.694,252.758a6.73,6.73,0,0,1,4.779,1.071s-5.31,23.565-6.9,24.1-3.717-.536-3.717-1.607S3477.694,252.758,3477.694,252.758Z" transform="translate(-3471.854 -248.066)" fill="#fff" opacity="0.7"/>
              <path id="Path_198" data-name="Path 198" d="M3476.2,277.195c.263-1.068,1.017-4.288,1.275-5.357.53-2.2,1.112-4.4,1.542-6.62a7.273,7.273,0,0,1,4.173.942c-.6,2.488-1.2,4.946-1.917,7.407-.4,1.375-1.271,4.928-1.75,6.277-.4,1.137-.756,2.35-2.365,2.188a7.812,7.812,0,0,1-1.534-.592C3475.127,280.149,3475.891,278.442,3476.2,277.195Z" transform="translate(-3474.791 -252.878)" fill="#ed4450"/>
              <path id="Path_199" data-name="Path 199" d="M3476.927,261.664c.178-.514.988-.3.816.227-.663,2.03-1.146,4.106-1.741,6.155a.442.442,0,0,1-.852-.237A42.445,42.445,0,0,1,3476.927,261.664Z" transform="translate(-3469.173 -251.402)" fill="#fff"/>
              <path id="Path_200" data-name="Path 200" d="M3478.521,275.116a7.093,7.093,0,0,0,.217-.84c.069-.478.9-.37.843.115a2.836,2.836,0,0,1-.288,1.054A.425.425,0,0,1,3478.521,275.116Z" transform="translate(-3473.064 -256.234)" fill="#fff"/>
            </g>
          </g>
        </g>
        <g id="Group_226" data-name="Group 226" transform="translate(0)">
          <g id="Group_193" data-name="Group 193" transform="translate(19.777 186.681)">
            <g id="Group_187" data-name="Group 187" transform="translate(0 270.083)">
              <path id="Path_202" data-name="Path 202" d="M3672.146,955.314s1.125,12.156-.206,16.341c-3.569,11.215-12.6,4.219-16.091-.789-4.1-5.874-5.168-21.13-5.462-25.171-1.161-15.956,3.763-18.655,8.2-21.535s10.192-3.524,10.613-2S3672.146,955.314,3672.146,955.314Z" transform="translate(-3650.215 -921.359)" fill="#3a1b23"/>
            </g>
            <g id="Group_188" data-name="Group 188" transform="translate(65.946 293.537)">
              <path id="Path_203" data-name="Path 203" d="M3498.608,959.405s-4.528,4.2-4.861,12.4c-.207,5.122,2.169,16.833,3.1,18.6.981,1.862,4.606,2.9,9.49,4.149,2.763.709,19.58,3.159,25.321,2.856,18.763-.99,17.318-6.156,9.6-11.043S3498.608,959.405,3498.608,959.405Z" transform="translate(-3493.735 -959.405)" fill="#3a1b23"/>
            </g>
            <g id="Group_189" data-name="Group 189" transform="translate(5.925)">
              <path id="Path_204" data-name="Path 204" d="M3505.56,773.628c.04-7.722,1.585-16.387,4.137-19.351.72-.835,1.715-5.846,3-13.3.139-2.531,1.891-34.327,8.542-62.233,1.258-5.277,4.933-14.785,8.215-22.038,1.161-2.567,1.667-5.49.624-8.032-14.008-34.1-16.613-57.26-17.326-58.987l-.378-30.7c-3.886-27.2,12.1-75.588,12.4-75.74.089-.047,35.667,40.583,36.358,40.539.22,1.384,8.172,118.146,9.37,132.186,1.333,15.625,8.049,78.89,13.939,115.451,2.876,17.852,26.24,29.894,26.736,31.805s-27.261,4.273-33.309-3.281c-4.046-5.06-9.631-15.952-10.775-21.48-1.292-6.24-5.136-16.276-8.064-21.947a236.3,236.3,0,0,1-15.749-37.978c-12.206,23.71-17.286,39.941-18.826,44.786-3.094,9.735-1.6,26.376-3.011,30.8-1.547,4.867-10.909,4.328-12.554-.216A55.485,55.485,0,0,1,3505.56,773.628Z" transform="translate(-3505.559 -483.238)" fill="#e9946b"/>
            </g>
            <g id="Group_190" data-name="Group 190" transform="translate(59.417 89.084)">
              <path id="Path_205" data-name="Path 205" d="M3535.422,628.44c4.322,31.3,9,66.915,11.619,82.253,2.565-7.438,14.088-35.295,18.962-55.629,2.938-12.26,3.319-16.04,3.086-27.13C3556.6,627.6,3547.935,627.687,3535.422,628.44Z" transform="translate(-3535.422 -627.747)" fill="#de835c"/>
            </g>
            <g id="Group_191" data-name="Group 191" transform="translate(33.964 179.555)">
              <path id="Path_206" data-name="Path 206" d="M3624.125,840.1a.976.976,0,0,0,.916-1.311c-.1-.273-10.015-27.67-10.749-58.463a.954.954,0,0,0-1-.952.976.976,0,0,0-.952,1c.743,31.126,10.767,58.811,10.869,59.087A.973.973,0,0,0,3624.125,840.1Z" transform="translate(-3612.341 -779.374)" fill="#d68760"/>
            </g>
            <g id="Group_192" data-name="Group 192" transform="translate(11.546)">
              <path id="Path_207" data-name="Path 207" d="M3536.613,558.978c-3.886-27.2,12.1-75.588,12.4-75.74.089-.047,35.666,40.583,36.357,40.539.021.136.118.937.274,2.271,11.281-.626,19.624,46.144,31.312,46.46.233,11.09-.147,14.87-3.086,27.13-1.5,6.272-3.64,13.259-5.95,20.143-13.963-3-28.343-5.208-66.509-9.633C3531.835,576.4,3536.613,558.978,3536.613,558.978Z" transform="translate(-3535.422 -483.238)" fill="#52bbe1"/>
            </g>
          </g>
          <g id="Group_210" data-name="Group 210" transform="translate(45.885)">
            <g id="Group_194" data-name="Group 194" transform="translate(15.48)">
              <path id="Path_208" data-name="Path 208" d="M3581.642,209.747s8.974-4.967,8.016-11.758c-.968-6.854-6.9-10.234-11.807-13.5-3.854-2.569-13.787-8.16-26.215.887-12.4,9.026-11.662,24.236-.065,42.825C3555.493,234.485,3581.642,209.747,3581.642,209.747Z" transform="translate(-3542.602 -180.409)" fill="#00385d"/>
            </g>
            <g id="Group_195" data-name="Group 195" transform="translate(0 29.375)">
              <path id="Path_209" data-name="Path 209" d="M3621.194,235.034s-10.646-14.009-22.306-2.316,4.7,21.011,4.7,21.011-2.624,7.68,5.542,10.12,16.057-8.924,16.057-8.924A30.023,30.023,0,0,1,3621.194,235.034Z" transform="translate(-3594.696 -228.061)" fill="#00385d"/>
            </g>
            <g id="Group_197" data-name="Group 197" transform="translate(2.898 26.019)">
              <g id="Group_196" data-name="Group 196">
                <path id="Path_210" data-name="Path 210" d="M3624.127,233.755a.779.779,0,0,0,.577-1.151c-.183-.329-4.564-8.079-11.84-9.7-3.742-.832-7.543.122-11.3,2.838a.779.779,0,0,0,.913,1.263c3.378-2.442,6.758-3.31,10.046-2.579,6.6,1.467,10.775,8.858,10.816,8.932A.78.78,0,0,0,3624.127,233.755Z" transform="translate(-3601.244 -222.616)" fill="#00385d"/>
              </g>
            </g>
            <g id="Group_198" data-name="Group 198" transform="translate(5.893 39.439)">
              <path id="Path_211" data-name="Path 211" d="M3550.968,280.214a30.472,30.472,0,0,1,9.212,5.1c14.742,11.309,28.676,35.175,28.676,35.175,11.464-14.29,13.5-28.62,13.658-36.177.028-1.314,0-2.426-.049-3.292-4.568-2.838-9.1-5.911-10.617-8.028a3.119,3.119,0,0,1-.439-.814c-.852-2.5-1.629-11.588-1.256-15.511.2-2.048.384-3.492.384-3.492l-17.888-8.791s.348,19.583-4.9,25.385C3565.3,272.481,3558.456,276.048,3550.968,280.214Z" transform="translate(-3550.968 -244.386)" fill="#e9946b"/>
            </g>
            <g id="Group_199" data-name="Group 199" transform="translate(29.48 44.328)">
              <path id="Path_212" data-name="Path 212" d="M3585.581,276.035a3.137,3.137,0,0,1-.44-.814c-.852-2.5-1.629-11.588-1.256-15.511l-15.6-7.394S3570.79,270.683,3585.581,276.035Z" transform="translate(-3568.288 -252.316)" fill="#3a1714"/>
            </g>
            <g id="Group_208" data-name="Group 208" transform="translate(22.23 17.093)">
              <g id="Group_200" data-name="Group 200" transform="translate(0)">
                <path id="Path_213" data-name="Path 213" d="M3582.835,217.952c.021,3.069,5.7,23.514-7.966,28.728-8.333,3.179-23.76-4.376-24.684-15.072,0,0-7.622-3.557-3.779-11.474,2.825-5.82,7.234,2.841,7.234,2.841s2.818-3.834,4.641-7.055c5.849-.677,18.069-2.642,21.343-7.784C3579.625,208.137,3582.808,213.914,3582.835,217.952Z" transform="translate(-3545.324 -208.137)" fill="#e9946b"/>
              </g>
              <g id="Group_201" data-name="Group 201" transform="translate(18.812 13.932)">
                <path id="Path_214" data-name="Path 214" d="M3575.109,231.076a1.151,1.151,0,0,0-.974-.325c-.042,0-.082,0-.121.007a.214.214,0,0,0-.044,0c-.015,0-.025.009-.041.012-1.223.194-1.46,1.9-.813,2.8a1.023,1.023,0,0,0,.428.536,1.155,1.155,0,0,0,.69.132.278.278,0,0,0,.065.022,1.053,1.053,0,0,0,1.152-.779A1.9,1.9,0,0,0,3575.109,231.076Z" transform="translate(-3572.765 -230.736)" fill="#1a1a1a"/>
              </g>
              <g id="Group_202" data-name="Group 202" transform="translate(34.807 13.9)">
                <path id="Path_215" data-name="Path 215" d="M3549.407,231.206a1.456,1.456,0,0,0-2.136-.1,1.181,1.181,0,0,0-.143.176,1.015,1.015,0,0,0-.2.708c0,.031.005.061.01.092,0,.009,0,.018,0,.028a2.946,2.946,0,0,0,.506,1.283,1.33,1.33,0,0,0,2.119-.178A1.678,1.678,0,0,0,3549.407,231.206Z" transform="translate(-3546.925 -230.686)" fill="#1a1a1a"/>
              </g>
              <g id="Group_203" data-name="Group 203" transform="translate(28.146 23.149)" opacity="0.7">
                <path id="Path_216" data-name="Path 216" d="M3560.685,246.31a.8.8,0,0,0-.933-.6l-1.228.276a.786.786,0,1,0,.33,1.537l1.228-.276A.8.8,0,0,0,3560.685,246.31Z" transform="translate(-3557.904 -245.688)" fill="#3a1714"/>
              </g>
              <g id="Group_204" data-name="Group 204" transform="translate(16.676 6.777)">
                <path id="Path_217" data-name="Path 217" d="M3575.354,219.235c-.963.528-2,.9-2.936,1.481s-1.822,1.3-2.746,1.921c-.835.563-.027,1.914.814,1.345.925-.625,1.8-1.336,2.747-1.921s1.972-.953,2.935-1.481C3577.056,220.094,3576.242,218.749,3575.354,219.235Z" transform="translate(-3569.322 -219.131)" fill="#4e0c09"/>
              </g>
              <g id="Group_205" data-name="Group 205" transform="translate(35.591 8.765)">
                <path id="Path_218" data-name="Path 218" d="M3547.854,223.513a4.667,4.667,0,0,0-2.435-1.134c-.979-.227-1.448,1.275-.458,1.5a3.361,3.361,0,0,1,1.729.687C3547.41,225.277,3548.577,224.223,3547.854,223.513Z" transform="translate(-3544.412 -222.355)" fill="#4e0c09"/>
              </g>
              <g id="Group_207" data-name="Group 207" transform="translate(21.305 28.235)">
                <g id="Group_206" data-name="Group 206" transform="translate(0)">
                  <path id="Path_219" data-name="Path 219" d="M3567.481,257.083a.691.691,0,0,0-.085-1.38c-.042,0-4.214.231-6.873-1.639a.692.692,0,1,0-.8,1.132C3562.787,257.347,3567.29,257.094,3567.481,257.083Z" transform="translate(-3559.433 -253.938)" fill="#1a1a1a"/>
                </g>
              </g>
            </g>
            <g id="Group_209" data-name="Group 209" transform="translate(15.106 79.367)">
              <path id="Path_220" data-name="Path 220" d="M3550.987,310.158c14.742,11.309,25.554,52.353,25.554,52.353,11.465-14.29,16.623-45.8,16.779-53.355-1.615,1.356-5.021,5.831-15.119,6.34C3567.616,316.029,3555.582,311.449,3550.987,310.158Z" transform="translate(-3550.987 -309.156)" fill="#ffd91f"/>
            </g>
          </g>
          <g id="Group_211" data-name="Group 211" transform="translate(0 71.273)">
            <path id="Path_221" data-name="Path 221" d="M3545.743,316.82c8.751-9.577,15.77-13.669,18.7-15.109.966-.468,1.487-.656,1.487-.656s.041-.07.124-.2c.737-1.136,4.735-6.732,10.4-4.162.556.551,22.39,27.869,26.816,46.678l5.017-.925s13.709-34.25,11.392-43.048c0,0,4.97.668,7.1,3.319.1.129.2.252.3.375a23.566,23.566,0,0,0,2.283,2.383c4.689,4.32,7.048,77.544,5.713,76.338l-2.494,3.594s-4.7,5.257-3.038,11.339,20.74,65.451,8.02,124.637l-27.928-2.072-5.432-51.805-13.453,50.406s-36.819-.691-43.019-3.536c0,0-7.516-43.961,6.035-97.8q1.625-6.4,3.559-12.819h.007a.613.613,0,0,1,.029-.1s-36.229-9.676-38.441-19.634C3516.3,372.231,3534.13,329.54,3545.743,316.82Zm18.533,54.481s1.107-9.952-2.769-17.146l-6.082,13.833Z" transform="translate(-3518.661 -296.027)" fill="#fff"/>
          </g>
          <g id="Group_212" data-name="Group 212" transform="translate(40.635 228.965)">
            <path id="Path_222" data-name="Path 222" d="M3635.741,555.7a1.106,1.106,0,0,0,.078-2.209l-23.231-1.659a1.106,1.106,0,1,0-.158,2.207l23.231,1.659C3635.688,555.7,3635.715,555.7,3635.741,555.7Z" transform="translate(-3611.402 -551.829)" fill="#e5eaec"/>
          </g>
          <g id="Group_213" data-name="Group 213" transform="translate(109.223 230.624)">
            <path id="Path_223" data-name="Path 223" d="M3519.2,556.733h12.168a1.106,1.106,0,1,0,0-2.212H3519.2a1.106,1.106,0,1,0,0,2.212Z" transform="translate(-3518.089 -554.521)" fill="#cbcbcb"/>
          </g>
          <g id="Group_214" data-name="Group 214" transform="translate(81.142 177.56)">
            <path id="Path_224" data-name="Path 224" d="M3576.851,506.661c.25-2.788.967-5.51,1.231-8.294a49.519,49.519,0,0,0-.32-9.052c-.589-6.582-1.511-13.121-1.537-19.741a1.171,1.171,0,0,1,2.342,0c.026,6.436.89,12.8,1.487,19.2a56.984,56.984,0,0,1,.416,9.1c-.2,2.96-1.012,5.837-1.278,8.789-.521,5.8,2.435,10.482,3.385,16.009,1.039,6.047-1.236,12.422-1.358,18.5a1.172,1.172,0,0,1-2.342,0c.128-6.288,2.632-13.006,1.165-19.2C3578.8,516.731,3576.354,512.2,3576.851,506.661Z" transform="translate(-3576.226 -468.442)" fill="#e5eaec"/>
          </g>
          <g id="Group_215" data-name="Group 215" transform="translate(45.784 76.104)">
            <path id="Path_225" data-name="Path 225" d="M3584.2,304.716c.685,3.331,1.346,6.668,2.049,9.992,1.107,5.263,1.5,10.66,2.728,15.881a.89.89,0,0,0,.849.644,123.978,123.978,0,0,0,14.512-.971c-2.529,2.458-5,4.964-7.458,7.487-2.119,2.177.3,3.852,1.785,5.719,7.072,8.9,13.786,18.076,21.139,26.757.731.861,1.966-.387,1.241-1.246-6.223-7.347-11.977-15.05-17.877-22.649-1.382-1.779-2.962-3.477-4.233-5.332-.369-.539-1.247-.972-1.037-1.8.077-.31,1.224-1.048,1.458-1.253a33.87,33.87,0,0,0,3.413-3.729,60.816,60.816,0,0,1,4.724-4.56c.7-.661-.059-1.586-.854-1.464a117.838,117.838,0,0,1-16.11,1.276c-1.112-5.011-1.522-10.186-2.581-15.22-.726-3.46-1.416-6.925-2.136-10.384-.082.128-.123.2-.123.2S3585.165,304.248,3584.2,304.716Z" transform="translate(-3584.199 -303.862)" fill="#e5eaec"/>
          </g>
          <g id="Group_216" data-name="Group 216" transform="translate(102.742 78.34)">
            <path id="Path_226" data-name="Path 226" d="M3531.245,369.428c4.215-7.417,7.276-15.091,10.4-22.988.971-2.453.714-3.384-1.424-4.865a44.182,44.182,0,0,1-5.648-4.4c-.316-.3-.6-.638-.878-.954.9-.012,1.82.059,2.7.03,2.037-.059,4.074-.205,6.105-.387a.892.892,0,0,0,.843-1.107c-.861-5.139-2.107-10.22-3.278-15.3-.732-3.161-1.727-6.369-2.506-9.588a23.637,23.637,0,0,1-2.283-2.383c.749,3.816,1.967,7.61,2.845,11.368,1.188,5.086,2.435,10.191,3.348,15.337-1.978.17-3.974.31-5.953.327a17.213,17.213,0,0,0-4.179.211.887.887,0,0,0-.21,1.6c1.17.562,2.025,1.914,3.019,2.751,1.13.954,2.284,1.891,3.471,2.781a18.209,18.209,0,0,1,2.061,1.446c.919.936.685,1.153.363,2.406-.281,1.124-.837,2.242-1.23,3.336a124.1,124.1,0,0,1-9.091,19.481A.88.88,0,0,0,3531.245,369.428Z" transform="translate(-3529.606 -307.489)" fill="#e5eaec"/>
          </g>
          <g id="Group_217" data-name="Group 217" transform="translate(56.665 110.679)">
            <path id="Path_227" data-name="Path 227" d="M3569.524,416.367s-8.3,26-8.85,26-47.568-14.381-48.121-14.934,20.466-67.48,21.572-67.48c.811,0,48.922,15.237,48.774,15.678C3582.346,377.287,3569.524,416.367,3569.524,416.367Z" transform="translate(-3512.542 -359.949)" fill="#ea4550"/>
          </g>
          <g id="Group_218" data-name="Group 218" transform="translate(53.911 150.975)">
            <path id="Path_228" data-name="Path 228" d="M3609.117,428.081a161.02,161.02,0,0,1-27.1-2.765l-8.3,29.315,20.465,5.531h7.191Z" transform="translate(-3573.718 -425.316)" fill="#fff"/>
          </g>
          <g id="Group_219" data-name="Group 219" transform="translate(80.047 165.841)">
            <path id="Path_229" data-name="Path 229" d="M3582.981,458.349s-5.531,11.615-8.3,11.615c-3.319,0,2.98-20.534,2.98-20.534Z" transform="translate(-3573.718 -449.431)" fill="#1a1a1a"/>
          </g>
          <g id="Group_220" data-name="Group 220" transform="translate(81.013 141.502)">
            <path id="Path_230" data-name="Path 230" d="M3530.671,422.187s9.4-.553,11.063-1.66c2.946-1.964,7.744-9.956,9.4-10.509s2.766,2.212,1.659,6.084-3.318,4.425-1.105,4.978a3.582,3.582,0,0,0,1.606-.205,23.179,23.179,0,0,0,2.5-.818,12.515,12.515,0,0,0,4.058-2.118,5.131,5.131,0,0,0,.975-1.216c.147-.257.364-1.087.812-.753a.888.888,0,0,1,.262.45,5.1,5.1,0,0,1,.4,2.217c-.122,1-.826,1.847-1.069,2.831-.248,1-.012,2.142-.54,3.032-.453.764-1.375,1.164-1.81,1.939-.524.933-.215,2.172-.764,3.09-.327.546-.909.891-1.287,1.4a5.959,5.959,0,0,0-.759,2.625,3.969,3.969,0,0,1-1.821,2.743,32.567,32.567,0,0,1-3.452,1.833,62.8,62.8,0,0,1-6.726,2.871,80.3,80.3,0,0,1-21.7,4.415S3525.693,427.719,3530.671,422.187Z" transform="translate(-3522.374 -409.949)" fill="#e9946b"/>
          </g>
          <g id="Group_221" data-name="Group 221" transform="translate(88.975 141.502)">
            <path id="Path_231" data-name="Path 231" d="M3523.269,422.211a2.367,2.367,0,0,1,2.234-.855,14.327,14.327,0,0,0,3.249.17,11.708,11.708,0,0,0,4.556-1.235,16.719,16.719,0,0,0,3.314-3.565c1.138-1.424,2.214-2.9,3.356-4.317.609-.757,1.426-2.063,2.406-2.39,1.66-.553,2.767,2.212,1.66,6.084s-3.319,4.425-1.106,4.978a3.581,3.581,0,0,0,1.606-.205,23.123,23.123,0,0,0,2.5-.818,12.515,12.515,0,0,0,4.058-2.118,5.118,5.118,0,0,0,1.3-1.9c.306-.763.528-.677.972.013a4.252,4.252,0,0,1,.2,4.26,6.142,6.142,0,0,0-.949,1.847c-.064.4.011.813-.039,1.215-.178,1.442-1.839,2.278-2.238,3.676-.161.565-.1,1.176-.278,1.735-.361,1.13-1.438,1.958-1.979,3.014-.5.978-.318,2.143-.971,3.04-1.072,1.468-3.457,2.475-5.074,3.287-2.1,1.052-4.292,1.886-6.465,2.764-2.153.869-4.207,1.9-6.436,2.584a4.25,4.25,0,0,1-1.093.225c-1.577.052-2.83-1.415-3.444-2.716a35.022,35.022,0,0,1-2.228-5.523,19.775,19.775,0,0,1-.364-9.637A8.708,8.708,0,0,1,3523.269,422.211Z" transform="translate(-3521.583 -409.949)" fill="#b3ddd0"/>
          </g>
          <g id="Group_222" data-name="Group 222" transform="translate(29.02 138.806)">
            <path id="Path_232" data-name="Path 232" d="M3649.077,418.851a1.106,1.106,0,0,0,.253-2.183c-4.938-1.161-21.822-5.385-31.8-10.951a1.106,1.106,0,0,0-1.079,1.931c10.225,5.707,27.359,9.995,32.367,11.173A1.126,1.126,0,0,0,3649.077,418.851Z" transform="translate(-3615.889 -405.576)" fill="#fce5eb"/>
          </g>
          <g id="Group_223" data-name="Group 223" transform="translate(89.744 110.063)">
            <path id="Path_233" data-name="Path 233" d="M3556.945,373.947c1.66-3.318,2.051-5.14,1.66-5.531-.553-.554-4.425-1.107-4.978-2.212s2.212-3.319.553-3.872-9.956-3.872-10.51-3.319,0,3.872-.553,3.872-4.978-1.659-5.531-1.106c-.7.7-2.212,4.978-1.66,5.531S3556.945,373.947,3556.945,373.947Z" transform="translate(-3535.807 -358.951)" fill="#4e0c09"/>
          </g>
          <g id="Group_224" data-name="Group 224" transform="translate(35.11 179.007)" opacity="0.51">
            <path id="Path_234" data-name="Path 234" d="M3592.561,483.61l42.585-5.454a191.257,191.257,0,0,1-39.022-7.367s-.005.006-.005,0Q3594.176,477.194,3592.561,483.61Z" transform="translate(-3592.561 -470.789)" fill="#7d94aa"/>
          </g>
          <g id="Group_225" data-name="Group 225" transform="translate(39.388 111.214)">
            <path id="Path_235" data-name="Path 235" d="M3635.121,384.644c3.183-7.7,6.526-15.337,9.685-23.05.563-1.376,2.829-.774,2.257.623-3.158,7.713-6.5,15.347-9.684,23.05C3636.812,386.64,3634.546,386.038,3635.121,384.644Z" transform="translate(-3635.029 -360.817)" fill="#e5eaec"/>
          </g>
        </g>
        <g id="Group_227" data-name="Group 227" transform="translate(72.07 30.108)">
          <path id="Path_236" data-name="Path 236" d="M3544.8,240.328a22,22,0,0,0,3.379,6.1c1.093,1.9,6.68,10.326,19.293,9.411a12.542,12.542,0,0,0,7.25-2.678,11.046,11.046,0,0,0,1.58-1.579,15.423,15.423,0,0,0,2.987-6.556c.1-.44.184-.873.249-1.295a24.7,24.7,0,0,0,.226-6,39.765,39.765,0,0,1-15.16.149,51.961,51.961,0,0,1-10.428-3.088,33.654,33.654,0,0,1-5.131-5.344c-.487-.588-1.312.249-.837.831.95,1.152,1.912,2.286,2.945,3.343l-2.832,11.057a22.656,22.656,0,0,1-2.381-4.662C3545.668,239.318,3544.529,239.621,3544.8,240.328Z" transform="translate(-3544.76 -229.249)" fill="#fff"/>
          <path id="Path_237" data-name="Path 237" d="M3545.52,246.029c1.865,1.348,4.086,1.883,6.206,2.714a70.474,70.474,0,0,0,7.161,2.7,25.931,25.931,0,0,0,13.48-.416c.1-.44.184-.873.249-1.295a25.015,25.015,0,0,1-14.388.285c-2.113-.671-4.126-1.6-6.193-2.411-2.013-.79-4.139-1.312-5.92-2.6C3545.5,244.569,3544.915,245.59,3545.52,246.029Z" transform="translate(-3537.837 -235.253)" fill="#e5eaec"/>
          <path id="Path_238" data-name="Path 238" d="M3550.765,260.87a21.206,21.206,0,0,0,10.024,3.854,34.263,34.263,0,0,0,9.715.131,11.1,11.1,0,0,0,1.58-1.579c-3.177.92-7.067.7-10.244.391a20.717,20.717,0,0,1-10.475-3.818C3550.753,259.4,3550.166,260.424,3550.765,260.87Z" transform="translate(-3540.54 -240.943)" fill="#e5eaec"/>
        </g>
        <g id="Group_228" data-name="Group 228" transform="translate(73.147 27.257)">
          <path id="Path_239" data-name="Path 239" d="M3538.365,225.129c5.336-.159,37.3-1.066,37.841.023.594,1.187-1.188,11.282-3.562,11.876s-5.345.594-6.532,0c-.72-.36-1.1-1.351-1.4-2.039-.218-.5-.413-1-.614-1.5-.166-.412-.251-.944-.672-1.171a1.766,1.766,0,0,0-.8-.174,4.486,4.486,0,0,0-1,.084c-1.3.259-1.552,1.844-1.966,2.9a5.289,5.289,0,0,1-1.1,1.756c-.479.488-1.484.449-2.136.493a24.182,24.182,0,0,1-4.608-.131,6.864,6.864,0,0,1-2.918-.8c-1.782-1.188-3.563-8.314-4.751-8.314-.538,0-2.052-.122-3.546-.255A21.264,21.264,0,0,0,3538.365,225.129Z" transform="translate(-3538.365 -224.624)" fill="#fff" opacity="0.6"/>
          <path id="Path_240" data-name="Path 240" d="M3538.365,225.129c5.336-.159,37.3-1.066,37.841.023.594,1.187-1.188,11.282-3.562,11.876s-5.345.594-6.532,0c-.975-.488-1.32-2-1.775-2.9a1.633,1.633,0,0,0-1.7-1.179,2.768,2.768,0,0,0-1.7.231c-.642.4-.764,1.155-1.093,1.778a8.291,8.291,0,0,1-1.294,1.918c-.479.488-1.484.449-2.136.493a24.182,24.182,0,0,1-4.608-.131,6.864,6.864,0,0,1-2.918-.8c-1.782-1.188-3.563-8.314-4.751-8.314-.538,0-2.052-.122-3.546-.255A21.264,21.264,0,0,0,3538.365,225.129Zm10.6,5.742a13.728,13.728,0,0,0,.616,3.564,3.124,3.124,0,0,0,1.476,1.8,4.233,4.233,0,0,0,1.488.337,23.38,23.38,0,0,0,3.259.071,3.625,3.625,0,0,0,2.238-.657,5.239,5.239,0,0,0,.866-1.206,15.285,15.285,0,0,0,.918-1.679,2.075,2.075,0,0,1,.953-1.1,2.283,2.283,0,0,1,.741-.168,7.993,7.993,0,0,1,1.087-.031,2.773,2.773,0,0,1,1.473.387,3.927,3.927,0,0,1,1.183,2.091,5.3,5.3,0,0,0,.678,1.457c.814,1.1,2.6.855,3.823.843a4.32,4.32,0,0,0,2.6-.424,5.412,5.412,0,0,0,1.379-2.862q.449-1.628.771-3.288.244-1.259.411-2.532c.066-.5.189-1.425-.4-1.682a2.923,2.923,0,0,0-1.059-.115c-.84-.035-1.07-.1-1.923-.094q-1.522.006-3.045-.009c-5.846-.054-11.711-.319-17.524.3-.79.084-1.838.362-2.069,1.244A11.947,11.947,0,0,0,3548.964,230.871Z" transform="translate(-3538.365 -224.624)" fill="#7399c6"/>
        </g>
      </g>
      <g id="Group_232" data-name="Group 232" transform="translate(19.817 192.369)">
        <g id="Group_231" data-name="Group 231">
          <g id="Group_230" data-name="Group 230">
            <path id="Path_241" data-name="Path 241" d="M3596.789,547.155c-2.174-5.641-19.344-52.374-16.44-53.535,3.411-1.364,70.029-1.708,72.954,0,2.606,1.521,14.706,47.648,15.868,48.81s51.114.581,53.438,1.743a2.768,2.768,0,0,1,1.409,2.982Z" transform="translate(-3580.018 -492.465)" fill="#496ea3"/>
          </g>
        </g>
      </g>
      <g id="Group_233" data-name="Group 233" transform="translate(145.184 226.521)">
        <path id="Path_242" data-name="Path 242" d="M3462.608,556.772l7.553-.036a23.777,23.777,0,0,0-.139-4.222,15.513,15.513,0,0,0-4.518-.3,7.725,7.725,0,0,1-.031-3.225c7.608.774,76.024-1.2,83.671-1.117a13.913,13.913,0,0,0,.345,3.709,21.232,21.232,0,0,1,3.908.171q0,2.413,0,4.827l-7.093.338q0,.894,0,1.787c.655.54,1.867-.2,2.412.446a1.345,1.345,0,0,1,.228.793q.131,1.944.083,3.894l3.994.215a22.415,22.415,0,0,1,.52,7.284l-83.407-1.612c.045.045.018.21-.083.189-.132-.027-.168-.195-.177-.329q-.2-3.083-.4-6.165l-3.158.516a.927.927,0,0,1-.762-.1.9.9,0,0,1-.231-.58,16.7,16.7,0,0,1-.136-2.8.675.675,0,0,0-.16-.574.65.65,0,0,0-.4-.092l-2.019-.014Q3462.607,558.273,3462.608,556.772Z" transform="translate(-3462.604 -547.864)" fill="#fff"/>
        <path id="Path_243" data-name="Path 243" d="M3471.447,556.783c9.946-.256,19.918-.064,29.868-.063l30.129,0c5.675,0,11.354-.04,17.029.036a.482.482,0,0,1,0,.964c-19.992.266-40,.038-60,.039-5.675,0-11.356.082-17.029-.064A.457.457,0,0,1,3471.447,556.783Z" transform="translate(-3463.081 -551.234)" fill="#e7ecee"/>
        <path id="Path_244" data-name="Path 244" d="M3552.281,564.467c8.574-.025,17.164-.185,25.735-.014a.5.5,0,0,1,0,.992c-8.571.171-17.161.01-25.735-.014A.482.482,0,0,1,3552.281,564.467Z" transform="translate(-3542.453 -554.197)" fill="#e7ecee"/>
        <path id="Path_245" data-name="Path 245" d="M3468.2,574.47q15.285-.013,30.572-.016c10.177,0,20.4-.291,30.573.016a.5.5,0,0,1,0,1c-10.172.307-20.4.017-30.573.016s-20.382-.007-30.572-.016A.5.5,0,0,1,3468.2,574.47Z" transform="translate(-3441.948 -558.015)" fill="#e7ecee"/>
        <path id="Path_246" data-name="Path 246" d="M3465.569,568.034q6.753-.042,13.507.021a.482.482,0,0,1,0,.963q-6.753.055-13.507.02A.5.5,0,0,1,3465.569,568.034Z" transform="translate(-3390.033 -555.594)" fill="#e7ecee"/>
      </g>
      <g id="Group_234" data-name="Group 234" transform="translate(305.616 132.117)">
        <rect id="Rectangle_24" data-name="Rectangle 24" width="23.618" height="4.724" transform="translate(37.839 70.855)" fill="#e7ecee"/>
        <path id="Path_247" data-name="Path 247" d="M3295.405,397.465a9.22,9.22,0,0,0-2.679-2.266,5.813,5.813,0,0,0-4.479-.051,7.809,7.809,0,0,0-4.887,5.941,4.166,4.166,0,0,0,.132,2.153,5.622,5.622,0,0,0,1.119,1.634,171.162,171.162,0,0,0,15.271,15.307.98.98,0,0,0,.6.315.97.97,0,0,0,.646-.368c2.114-2.13,7.417-7.956,5.073-10.865C3302.876,405.144,3298.979,401.373,3295.405,397.465Z" transform="translate(-3265.634 -394.725)" fill="#333"/>
        <path id="Path_248" data-name="Path 248" d="M3214.628,557.177a2.5,2.5,0,0,1,.52-1.609,2.425,2.425,0,0,1,1.29-.556,62.659,62.659,0,0,1,10.908-.936l31.495-.861a36.069,36.069,0,0,1,18.587,3.042l18.706,7.228a2.142,2.142,0,0,1,1.808,2.482q.014,2.494.025,4.989l-83.6-.527A114.091,114.091,0,0,1,3214.628,557.177Z" transform="translate(-3214.279 -455.487)" fill="#297045"/>
        <path id="Path_249" data-name="Path 249" d="M3301.858,429.43q-.041-1.618-.12-3.238a2.063,2.063,0,0,0-1.144-2.045c-1.987-1.4-4.453-3.924-6.836-4.451-2.656-.589-6.192-.159-8.963-.3a2.977,2.977,0,0,0-1.29.123,2.917,2.917,0,0,0-.986.795c-1.94,2.1-5.989,5.439-6.2,8.412-.194,2.675,1.677,5.757-.791,8.03a6.76,6.76,0,0,1-2.988,1.307,121.133,121.133,0,0,0-13.049,4.185,7.85,7.85,0,0,0-3.335,2c-1.288,1.532-.9,2.869-.7,4.62.3,2.694.062,5.564.092,8.276q.093,8.283.184,16.566.184,16.566.367,33.131a8.639,8.639,0,0,0,.607,3.761c2.16,4.373,8.535.784,11.49-.578.8-.371,12.01-5.053,12.03-4.231q-.581-24.176-1.163-48.351a13.724,13.724,0,0,1,.654-5.636c.735-1.759,2.456-3.256,4.356-3.1a12.479,12.479,0,0,1,3.279,1.189c2.333.89,4.945.574,7.382.032,3.526-.784,7.268-2.693,7.223-6.772C3301.9,438.552,3301.976,434,3301.858,429.43Z" transform="translate(-3243.513 -404.179)" fill="#297045"/>
        <path id="Path_250" data-name="Path 250" d="M3256.973,421.1c2.376,1.051,4.379,2.788,6.806,3.8a11.92,11.92,0,0,0,8.778.458c1.129-.407,1.56,1.337.489,1.772-5.707,2.314-12.916-.507-17.112-4.68C3255.2,421.71,3256.126,420.721,3256.973,421.1Z" transform="translate(-3215.489 -404.808)" fill="#9ee493" opacity="0.1"/>
        <path id="Path_251" data-name="Path 251" d="M3261.587,516.456c3.626-.128,7.279-.271,10.917-.247a1.019,1.019,0,0,1-.586-.883q-1.08-16.761-1.73-33.546-.157-4.131-.286-8.264c-.065-2.1-.451-4.572.5-6.545a9.465,9.465,0,0,1,3.319-3.271c2.255-1.625,4.544-3.2,6.839-4.771.985-.674,1.83.882.919,1.572q-2.745,2.08-5.521,4.12a16.5,16.5,0,0,0-3.045,2.347c-1.057,1.266-1,2.465-1.008,3.966-.037,4.978.332,10,.538,14.977q.611,14.715,1.565,29.414a.872.872,0,0,1-.5.9c.734.012,1.468.028,2.2.057,4.107.159,7.459,1.667,11.065,3.521,4.243,2.182,8.5,4.348,12.721,6.568,2.792,1.467,3.729,3.124,2.9,6.3-.248.952-1.9.792-1.772-.24a6.473,6.473,0,0,0,.116-2.474c-.359-.956-1.913-1.626-2.736-2.046q-2.5-1.281-5.008-2.562c-3.157-1.619-6.288-3.292-9.468-4.865-6.662-3.294-14.72-2.192-21.943-1.938C3260.241,518.594,3260.243,516.5,3261.587,516.456Z" transform="translate(-3247.545 -419.287)" fill="#9ee493" opacity="0.1"/>
        <path id="Path_252" data-name="Path 252" d="M3255.341,442.084c4.284-.086,8.575-.021,12.859-.021,4.24,0,8.646-.314,12.86.164a.882.882,0,0,1,0,1.764c-4.214.478-8.622.164-12.86.164-4.284,0-8.575.065-12.859-.021A1.025,1.025,0,0,1,3255.341,442.084Z" transform="translate(-3222.926 -412.842)" fill="#333"/>
        <path id="Path_253" data-name="Path 253" d="M3237.682,470.608a7.825,7.825,0,0,0,2.294,1.719,1.654,1.654,0,0,1,1.12,1.576q.238,4.245.476,8.49c.039.688-.2,2.23.321,2.729a4.664,4.664,0,0,0,3.44.861c1.437-.057,3.458.087,4.116-1.509a7.881,7.881,0,0,0,.22-2.282c.07-1.027.116-2.055.146-3.084.027-.935.073-1.888.1-2.812a2.774,2.774,0,0,0,2.552-2.27c.206-.917.12-1.868.3-2.775.334.013.79.622,1.042.859l1.113,1.035c.741.69,1.481,1.382,2.212,2.084,1.435,1.38,2.834,2.8,4.125,4.318.881,1.035,1.844,1.937,3.308,1.511a5.7,5.7,0,0,0,3.094-2.528,3.512,3.512,0,0,0,.137-3.768,35.174,35.174,0,0,0-2.49-3.358c-.429-.525-5.209-6.268-4.886-6.5.471-.344.835-.556.783-1.137a21.592,21.592,0,0,0-2.186-2.874,2.812,2.812,0,0,0-1.242-.806,22.476,22.476,0,0,0-17.574,3.111,6.826,6.826,0,0,0-2.094,2.071C3237.2,466.829,3237.473,468.81,3237.682,470.608Z" transform="translate(-3198.895 -419.566)" fill="#333"/>
        <path id="Path_254" data-name="Path 254" d="M3252.007,467.763c1.915-.44,4.294-.7,5.845.789,1.046,1,1.163,2.417,1.229,3.807a21.4,21.4,0,0,1,5.942-4.054c.472-.194.822.623.35.832a16.929,16.929,0,0,0-3.412,2c-.985.752-1.771,1.767-2.811,2.436h0q.015.19.036.374c.061.508-.759.6-.882.12-.338-1.326-.051-2.888-.687-4.12-1.013-1.964-3.591-1.472-5.342-1.212C3251.653,468.824,3251.361,467.912,3252.007,467.763Z" transform="translate(-3204.944 -422.607)" fill="#1a1a1a"/>
        <path id="Path_255" data-name="Path 255" d="M3269.043,473.65c.5,1.663.843,3.386,1.378,5.038.612,1.891,2.426,1.966,4.171,2.141.994.1,1.418,1.688.257,1.9a6.3,6.3,0,0,1-5.55-1.661,5.984,5.984,0,0,1-1.057-2.683c-.338-1.412-.674-2.827-.962-4.25A.915.915,0,0,1,3269.043,473.65Z" transform="translate(-3224.52 -424.747)" fill="#1a1a1a"/>
        <path id="Path_256" data-name="Path 256" d="M3227.349,513.637c.935-4.765,5.431-6.894,9.657-8.258a3.525,3.525,0,0,1,2.24-.941c2.872-.181,5.132,2.086,6.264,4.722.068.092.141.179.2.274,2.56.039,5.119.16,7.6.16h39.417c2.647,0,5.161-.307,7.166,1.68a2.84,2.84,0,0,1,0,3.958c-2,1.988-4.519,1.68-7.166,1.68h-39.417c-1.91,0-3.87.072-5.838.123-.368,6.613-4.526,13.33-9.684,10.957-2-.557-4.327-1.182-5.859-2.585a2.824,2.824,0,0,1-.465-.137C3226.8,523.421,3226.5,517.981,3227.349,513.637Z" transform="translate(-3224.839 -436.801)" fill="#333"/>
        <path id="Path_257" data-name="Path 257" d="M3329.664,512.878c4.19-2.9,6.7,3.47,7.241,6.565.571,3.243.426,9.79-4.354,9.442a.993.993,0,0,1,0-1.985c3.1-.065,2.679-4.984,2.375-6.911-.216-1.366-1.512-7.324-4.327-5.511C3329.587,515.132,3328.693,513.55,3329.664,512.878Z" transform="translate(-3324.325 -439.759)" fill="#1a1a1a"/>
        <path id="Path_258" data-name="Path 258" d="M3313.417,511.975a12.531,12.531,0,0,1,.82,8.216c-.322,1.251-2.122.707-1.906-.525a11.624,11.624,0,0,0-.628-6.688C3311.212,511.819,3312.9,510.8,3313.417,511.975Z" transform="translate(-3290.913 -439.496)" fill="#1a1a1a"/>
        <path id="Path_259" data-name="Path 259" d="M3274.634,449.037a.931.931,0,0,1,1.861,0c.017,1.3.283,2.915-.176,4.15a.791.791,0,0,1-1.51,0C3274.348,451.95,3274.617,450.337,3274.634,449.037Z" transform="translate(-3230.05 -415.211)" fill="#9ee493" opacity="0.1"/>
        <path id="Path_260" data-name="Path 260" d="M3325.373,477.543c.071,4.011.449,8.015.506,12.022.018,1.254-1.744,1.171-1.894,0a99.521,99.521,0,0,1-.5-12.022A.944.944,0,0,1,3325.373,477.543Z" transform="translate(-3309.514 -426.14)" fill="#9ee493" opacity="0.1"/>
        <path id="Path_261" data-name="Path 261" d="M3325.241,469.994a.935.935,0,0,1,.918.919v.567a.918.918,0,0,1-1.837,0v-.567A.929.929,0,0,1,3325.241,469.994Z" transform="translate(-3310.31 -423.594)" fill="#9ee493" opacity="0.1"/>
      </g>
      <g id="Group_235" data-name="Group 235" transform="translate(375.996 212.896)">
        <path id="Path_262" data-name="Path 262" d="M3177.882,556.874a11.626,11.626,0,0,1,2.194-5.451,70.733,70.733,0,0,1,7.495-9.154c.664-.718,1.333-1.432,2-2.15a12.007,12.007,0,0,0,1.622-1.687c1.07-1.783,1.025-3.8,1.185-5.808.08-.994.083-2.042.115-3.083-.159-.057-.322-.107-.476-.173-1.792-.767-.836-3.662.972-3.591a28.888,28.888,0,0,0,5.56.012,1.913,1.913,0,0,1,1.016,3.685c-.181.065-.37.117-.556.172.029,1.007.035,2.017.111,2.977.161,2.009.116,4.025,1.186,5.808a11.933,11.933,0,0,0,1.622,1.687q1,1.077,2,2.15a70.67,70.67,0,0,1,7.495,9.154,11.621,11.621,0,0,1,2.194,5.451,2.129,2.129,0,0,1-.357,1.528,2.452,2.452,0,0,1-1.589.653c-4.824.7-27.014.7-31.839,0a2.457,2.457,0,0,1-1.589-.653A2.128,2.128,0,0,1,3177.882,556.874Z" transform="translate(-3177.873 -525.763)" fill="#fff"/>
        <path id="Path_263" data-name="Path 263" d="M3188.138,554.208a2.179,2.179,0,0,0-.7.063,2.031,2.031,0,0,0-.647.4,23.829,23.829,0,0,0-5.315,6.838,11.888,11.888,0,0,0-1.992,5.842.893.893,0,0,0,.13.535.912.912,0,0,0,.49.272c3.741,1.115,29.483,1,30.474.289a1.28,1.28,0,0,0,.51-.633,1.7,1.7,0,0,0-.4-1.355,108.005,108.005,0,0,0-6.5-8.954c-.911-1.129-1.881-3.038-3.417-3.054-1.98-.02-3.96-.075-5.941-.112Z" transform="translate(-3176.372 -536.672)" fill="#00385d"/>
        <path id="Path_264" data-name="Path 264" d="M3193.534,539.87c-.054-1.182,1.722-1.152,1.821,0,.1,1.111-.1,2.254.033,3.353a7.29,7.29,0,0,0,1.71,3.54,44.159,44.159,0,0,1,3.581,6.263c.538,1.156-1.138,2.178-1.735,1.014-1.35-2.635-2.945-5.029-4.507-7.53C3193.094,544.358,3193.644,542.284,3193.534,539.87Z" transform="translate(-3174.676 -530.838)" fill="#fff"/>
        <path id="Path_265" data-name="Path 265" d="M3190.17,565.938a.951.951,0,0,1,1.329,0,3.691,3.691,0,0,1,1.1,2.479.9.9,0,0,1-.775.878.907.907,0,0,1-.981-.64,4,4,0,0,0-.675-1.388A.962.962,0,0,1,3190.17,565.938Z" transform="translate(-3164.268 -541.068)" fill="#fff"/>
      </g>
      <g id="Group_240" data-name="Group 240" transform="translate(249.074 212.419)">
        <path id="Path_266" data-name="Path 266" d="M3359.953,548.186a.814.814,0,0,1,1.445-.45.7.7,0,0,1,.684.753l0,.049a.749.749,0,0,1,.838-.338.857.857,0,0,1,1.642-.163c.017-.012.031-.026.048-.039a.762.762,0,0,1,1.122.308q.03-.347.059-.693a.868.868,0,0,1,1.537-.5.845.845,0,0,1,1.475.551q-.172,5.947-.483,11.887a.845.845,0,0,1-.942.816,1.454,1.454,0,0,1-.082.344,1.339,1.339,0,0,1-.555.71.875.875,0,0,1-1.486.027,7.418,7.418,0,0,1-1.312-.6c-.029.167-.057.333-.086.5a.686.686,0,0,1-.538.583.844.844,0,0,1-1.457-.182.742.742,0,0,1-1.08.482c-.006.052-.01.1-.017.157a.784.784,0,0,1-1.567,0C3359.109,557.676,3359.671,552.888,3359.953,548.186Z" transform="translate(-3317.9 -533.351)" fill="#1a1a1a"/>
        <g id="Group_236" data-name="Group 236" transform="translate(37.136)">
          <path id="Path_267" data-name="Path 267" d="M3375.564,530.517a.98.98,0,0,0,.646-.7,13.384,13.384,0,0,0,.558-2.583c.056-.467.264-1.6-.254-1.909a1.035,1.035,0,0,0-.219-.085,9.338,9.338,0,0,0-2.984-.229,11.78,11.78,0,0,0-2.408.319,2.308,2.308,0,0,0-1.351.586c-.405.538-.017,1.548.13,2.117.158.616.315,1.239.513,1.843a1.139,1.139,0,0,0,.891.83c.337.022.672.046,1.009.068a1.433,1.433,0,0,0,.186-.011l2.269-.137A4.271,4.271,0,0,0,3375.564,530.517Z" transform="translate(-3369.373 -524.989)" fill="#4e0c09"/>
          <path id="Path_268" data-name="Path 268" d="M3371.054,532.848a6.518,6.518,0,0,1,4.74-.17s.816,23.381-.544,24.274-3.614.411-3.876-.592S3371.054,532.848,3371.054,532.848Z" transform="translate(-3369.59 -527.808)" fill="#fff"/>
          <path id="Path_269" data-name="Path 269" d="M3372.037,557.1c-.016-1.065-.1-4.266-.123-5.332-.043-2.19-.039-4.394-.181-6.58a7.04,7.04,0,0,1,4.141-.143c.053,2.477.087,4.93.023,7.41-.037,1.387.02,4.929-.1,6.312-.1,1.165-.13,2.388-1.677,2.631a7.546,7.546,0,0,1-1.583-.178C3371.76,560.126,3372.056,558.34,3372.037,557.1Z" transform="translate(-3369.904 -532.58)" fill="#ed4450"/>
        </g>
        <g id="Group_237" data-name="Group 237" transform="translate(27.277)">
          <path id="Path_270" data-name="Path 270" d="M3391.556,530.517a.98.98,0,0,0,.645-.7,13.33,13.33,0,0,0,.558-2.583c.057-.467.264-1.6-.254-1.909a1.043,1.043,0,0,0-.218-.085,9.345,9.345,0,0,0-2.986-.229,11.766,11.766,0,0,0-2.407.319,2.309,2.309,0,0,0-1.352.586c-.4.538-.016,1.548.13,2.117.158.616.315,1.239.513,1.843a1.139,1.139,0,0,0,.892.83c.336.022.673.046,1.009.068a1.441,1.441,0,0,0,.187-.011l2.269-.137A4.273,4.273,0,0,0,3391.556,530.517Z" transform="translate(-3385.365 -524.989)" fill="#4e0c09"/>
          <path id="Path_271" data-name="Path 271" d="M3387.047,532.848a6.516,6.516,0,0,1,4.739-.17s.817,23.381-.544,24.274-3.613.411-3.877-.592S3387.047,532.848,3387.047,532.848Z" transform="translate(-3385.582 -527.808)" fill="#fff"/>
          <path id="Path_272" data-name="Path 272" d="M3388.031,557.1c-.016-1.065-.1-4.266-.123-5.332-.043-2.19-.039-4.394-.182-6.58a7.041,7.041,0,0,1,4.142-.143c.053,2.477.088,4.93.022,7.41-.036,1.387.021,4.929-.1,6.312-.1,1.165-.129,2.388-1.677,2.631a7.553,7.553,0,0,1-1.583-.178C3387.752,560.126,3388.049,558.34,3388.031,557.1Z" transform="translate(-3385.897 -532.58)" fill="#ed4450"/>
        </g>
        <g id="Group_238" data-name="Group 238" transform="translate(17.418)">
          <path id="Path_273" data-name="Path 273" d="M3407.55,530.517a.981.981,0,0,0,.645-.7,13.3,13.3,0,0,0,.559-2.583c.056-.467.264-1.6-.255-1.909a1,1,0,0,0-.218-.085,9.346,9.346,0,0,0-2.985-.229,11.78,11.78,0,0,0-2.408.319,2.308,2.308,0,0,0-1.351.586c-.405.538-.016,1.548.13,2.117.158.616.315,1.239.513,1.843a1.138,1.138,0,0,0,.892.83c.336.022.672.046,1.009.068a1.434,1.434,0,0,0,.185-.011l2.269-.137A4.266,4.266,0,0,0,3407.55,530.517Z" transform="translate(-3401.358 -524.989)" fill="#4e0c09"/>
          <path id="Path_274" data-name="Path 274" d="M3403.039,532.848a6.518,6.518,0,0,1,4.74-.17s.816,23.381-.544,24.274-3.614.411-3.876-.592S3403.039,532.848,3403.039,532.848Z" transform="translate(-3401.574 -527.808)" fill="#fff"/>
          <path id="Path_275" data-name="Path 275" d="M3404.023,557.1c-.016-1.065-.1-4.266-.123-5.332-.043-2.19-.039-4.394-.183-6.58a7.043,7.043,0,0,1,4.142-.143c.053,2.477.088,4.93.023,7.41-.037,1.387.02,4.929-.1,6.312-.1,1.165-.13,2.388-1.678,2.631a7.537,7.537,0,0,1-1.582-.178C3403.745,560.126,3404.042,558.34,3404.023,557.1Z" transform="translate(-3401.889 -532.58)" fill="#ed4450"/>
        </g>
        <g id="Group_239" data-name="Group 239" transform="translate(7.559)">
          <path id="Path_276" data-name="Path 276" d="M3423.543,530.517a.983.983,0,0,0,.646-.7,13.346,13.346,0,0,0,.557-2.583c.057-.467.264-1.6-.254-1.909a1.02,1.02,0,0,0-.219-.085,9.34,9.34,0,0,0-2.985-.229,11.777,11.777,0,0,0-2.408.319,2.313,2.313,0,0,0-1.351.586c-.405.538-.016,1.548.129,2.117.159.616.315,1.239.514,1.843a1.138,1.138,0,0,0,.892.83c.336.022.672.046,1.009.068a1.421,1.421,0,0,0,.185-.011l2.269-.137A4.28,4.28,0,0,0,3423.543,530.517Z" transform="translate(-3417.35 -524.989)" fill="#4e0c09"/>
          <path id="Path_277" data-name="Path 277" d="M3419.032,532.848a6.518,6.518,0,0,1,4.74-.17s.816,23.381-.544,24.274-3.614.411-3.876-.592S3419.032,532.848,3419.032,532.848Z" transform="translate(-3417.567 -527.808)" fill="#fff"/>
          <path id="Path_278" data-name="Path 278" d="M3420.014,557.1c-.015-1.065-.1-4.266-.122-5.332-.044-2.19-.039-4.394-.182-6.58a7.039,7.039,0,0,1,4.141-.143c.053,2.477.088,4.93.023,7.41-.037,1.387.021,4.929-.1,6.312-.1,1.165-.13,2.388-1.678,2.631a7.561,7.561,0,0,1-1.583-.178C3419.737,560.126,3420.033,558.34,3420.014,557.1Z" transform="translate(-3417.881 -532.58)" fill="#ed4450"/>
        </g>
        <path id="Path_279" data-name="Path 279" d="M3358.77,544.588a.93.93,0,0,1,.126-.015c16.556-.483,33.195-.064,49.756.07a.712.712,0,0,1,.867.732,200.267,200.267,0,0,1-1.291,20,.873.873,0,0,1-.412.647.7.7,0,0,1-.655.435c-7.883.265-15.792.11-23.679.11h-11.839c-3.631,0-7.6.446-11.183-.17a.654.654,0,0,1-.5-.718.679.679,0,0,1-.159-.332c-.586-3.2-.751-6.5-1.09-9.734-.361-3.445-.785-6.9-1-10.353A.763.763,0,0,1,3358.77,544.588Zm49.073,2.877c-7.1.3-14.263.046-21.368.047-7.042,0-14.088.047-21.132,0,.355,4.113.672,8.228.979,12.345,3.108-.206,6.289-.025,9.4-.024l10.583,0c6.883,0,13.775-.088,20.657.077C3407.263,555.765,3407.581,551.618,3407.843,547.465Z" transform="translate(-3357.709 -532.413)" fill="#333"/>
        <path id="Path_280" data-name="Path 280" d="M3429.126,546.365c.373,6,1.027,12.086,1.016,18.1,0,1.054-1.489,1-1.6,0-.667-5.976-.683-12.092-.969-18.1C3427.525,545.362,3429.065,545.372,3429.126,546.365Z" transform="translate(-3421.4 -532.901)" fill="#1a1a1a"/>
      </g>
      <g id="Group_242" data-name="Group 242" transform="translate(0 511.439)">
        <g id="Group_241" data-name="Group 241">
          <path id="Path_281" data-name="Path 281" d="M3159.243,1013.268c.132,1.825,2.744,2.047,4.122,2.326a60.165,60.165,0,0,0,6.667.76c8.188.715,16.422.978,24.635,1.206,25.512.708,51.049.642,76.568.51,288.14,1.05,311.236.777,311.236-2.624,0-3.11-5.618-2.861-8.1-3.072-12.216-1.036-24.606-.717-36.85-.681-25.08.073-50.16.4-75.239.64q-27.51.264-55.022.474-16.194.12-32.388.216c-10.483.062-21.043-1.019-31.618-1.24q-69.3-1.447-138.618-1.685-16.982-.057-33.965-.043C3168.477,1010.055,3159,1009.857,3159.243,1013.268Z" transform="translate(-3159.239 -1010.051)" fill="#00426e"/>
        </g>
      </g>
      <g id="Group_245" data-name="Group 245" transform="translate(15.948 246.01)">
        <g id="Group_243" data-name="Group 243" transform="translate(3.985 20.476)">
          <path id="Path_282" data-name="Path 282" d="M3726.443,863.671a4.171,4.171,0,0,0,2.4-3.76V614.805h-7.872V856.863c-8.689.863-110.87.525-119.07-.282-1.149-16.417-1.31-180.4-1.121-243.863l-7.873-.024c0,.441-.129,113.886,0,157.676.076,25.727.225,46.3.443,61.133.13,8.831.286,15.714.464,20.458.318,8.472.479,9.777,2.242,11.1,1.039.778,2.607,1.955,27.326,2.154,1.706.014,78.356.021,79.857.021C3723.312,865.235,3725.641,864.072,3726.443,863.671Z" transform="translate(-3592.855 -612.694)" fill="#333"/>
        </g>
        <g id="Group_244" data-name="Group 244" transform="translate(257.487 20.476)">
          <path id="Path_283" data-name="Path 283" d="M3314.692,863.146a4.171,4.171,0,0,0,2.406-3.76l.524-244.581h-7.873l-.525,241.533c-8.69.863-110.87.526-119.07-.282-1.149-16.416-.785-179.872-.6-243.338l-7.873-.024c0,.441-.13,113.886,0,157.676.076,25.727.225,46.3.444,61.133.129,8.831-.24,15.189-.062,19.933.318,8.473.479,9.777,2.243,11.1,1.038.779,2.606,1.956,27.325,2.155,1.706.014,78.356.02,79.857.02C3311.56,864.71,3313.89,863.547,3314.692,863.146Z" transform="translate(-3181.628 -612.694)" fill="#1a1a1a"/>
        </g>
        <path id="Path_1866" data-name="Path 1866" d="M0,0H402.561V24.668H0Z" transform="translate(0)" fill="#00385d"/>
        <rect id="Rectangle_26" data-name="Rectangle 26" width="259.801" height="24.668" transform="translate(142.76)" fill="#421b19"/>
      </g>
    </g>
  </g>
</svg>
