<svg xmlns="http://www.w3.org/2000/svg" width="837.335" height="504.938" viewBox="0 0 837.335 504.938">
  <g id="Group_798" data-name="Group 798" transform="translate(-916 -301.257)">
    <g id="Group_797" data-name="Group 797" transform="translate(500.472 -100.895)">
      <path id="Path_1867" data-name="Path 1867" d="M245.581,771.238S97.75,552.87,213.819,419.021c172.76-199.224,290.337,83.906,356.887-33.267,110.084-193.824,470.223-144.082,360.035,96.939-57.81,126.451,135.605,107.556,56.756,288.794Z" transform="translate(246.178 135.602)" fill="#52bbe1" opacity="0.17"/>
      <g id="Group_792" data-name="Group 792" transform="translate(994.587 530.695)">
        <path id="Path_1520" data-name="Path 1520" d="M2290.482,1341.911l-8.85,64.185a61.877,61.877,0,0,0-.578,8.842l.359,55.516-15.611-.154-6.946-52.159a61.728,61.728,0,0,1-.476-8.956l1.313-67.275Z" transform="translate(-2161.741 -1122.192)" fill="#f6bd96"/>
        <path id="Path_1523" data-name="Path 1523" d="M2259.618,1421.888l.055,4,26.478-1.2.651-2.8Z" transform="translate(-2162.461 -1168.262)" fill="#cf9580"/>
        <path id="Path_1524" data-name="Path 1524" d="M2271,1605.195l-3.7-28.991c5.975,1.522,12.735,1.137,19.065-.385l.19,29.376Z" transform="translate(-2166.891 -1256.932)" fill="#f4da83"/>
        <path id="Path_1525" data-name="Path 1525" d="M2373.573,1358.978l-7.843,56.226a22.387,22.387,0,0,0,.219,7.474l10.6,56.656-14.865-.01-19.045-50.117a22.363,22.363,0,0,1-1.448-8.656l1.948-61.572Z" transform="translate(-2209.443 -1132.023)" fill="#f6bd96"/>
        <path id="Path_1528" data-name="Path 1528" d="M2343.144,1421.888l.156,3.957,27.276-1.179.41-2.778Z" transform="translate(-2210.575 -1168.262)" fill="#cf9580"/>
        <path id="Path_1529" data-name="Path 1529" d="M2374.252,1603.343l-11.384-30.455a48.7,48.7,0,0,0,20.966,0l5.207,29.665Z" transform="translate(-2221.938 -1255.244)" fill="#f4da83"/>
        <path id="Path_1530" data-name="Path 1530" d="M2236.478,1191.029c-13.751,27.127-31.858,96.813-31.858,96.813h104.373a316.139,316.139,0,0,0-5.919-61.27c-6.456-31.491-19.554-37.387-19.554-37.387Z" transform="translate(-2130.781 -1034.216)" fill="#00385d"/>
        <path id="Path_1533" data-name="Path 1533" d="M2284.574,828.448c-10.632,6.34-14.6,17.334-15.5,20.492-3.653,12.779-.161,26.48,3.8,39.158,3.55,11.373,8.56,23.839,19.193,28.379,2.537,1.08,7.566,5.622,11.569,3.757,1.351-.63,1.4-1.578,3.5-3.012.861-.594,4.994-3.407,8.1-2.159,2.233.9,1.777,3.022,4.694,7.52,1.36,2.1,3.882,5.989,8.174,7.9,1.245.555,1.5.435,8.776,1.185,7.671.791,9.06,1.014,9.938.007,1.438-1.652-.533-5.948-1.3-7.871-1.093-2.738-1.957-2.807-3.256-5.53a21.051,21.051,0,0,1-1.92-9.206c.014-5.26,2-5.985,2.54-10.769.573-5.116-1.3-7.306-2.724-13.42-1.752-7.488-.437-10.869-.585-18.237-.068-3.356-.353-17.58-6.636-27.179C2323.966,825.756,2300.938,818.691,2284.574,828.448Z" transform="translate(-2167.022 -823.807)" fill="#17204c"/>
        <path id="Path_1534" data-name="Path 1534" d="M2113.925,1088.916l57.371-2.089c.209-.014,3.47-1.73,7.285-10.8l10-26.4.13-.009,0-.267,9.07-19.635-9.422-2.733-.283-17.881s-8.97-.8-15.07,13.434l-.018-.005-.045.16c-.263.619-.529,1.224-.781,1.9l-7.261,27.85-3.091,11.4a7.952,7.952,0,0,1-3.846,4.888l-46.917,13.988Z" transform="translate(-2076.876 -930.474)" fill="#e9bda0"/>
        <path id="Path_1536" data-name="Path 1536" d="M2279.352,1005.269a4.256,4.256,0,0,0-3.935,2.632l-4.759,11.531c-11.692,14.505-2.3,22.717-2.3,22.717l2.942,42.944,47.044-1.849,16.751-66.355a7.962,7.962,0,0,0-7.1-10.778l-19.478-.844Z" transform="translate(-2165.44 -928.273)" fill="#52bbe1"/>
        <rect id="Rectangle_166" data-name="Rectangle 166" width="33.385" height="45.699" transform="translate(109.173 137.371) rotate(-28.57)" fill="#b5453c"/>
        <line id="Line_111" data-name="Line 111" y1="2.072" x2="28.585" transform="translate(105.856 154.744)" fill="none" stroke="#dcbf66" stroke-miterlimit="10" stroke-width="0.74"/>
        <path id="Path_1538" data-name="Path 1538" d="M2359.672,1038.537l12.548,30.783a5.813,5.813,0,0,1-3.307,7.642c-8.1,2.931-17.845,7.8-28.116,13.284l2.171,5.671c15.175-2.973,29.059-6.906,40.985-12.3a7.238,7.238,0,0,0,5.169-7.7c-1.4-13.286-4.726-43.906-4.726-43.906a12.811,12.811,0,1,0-24.725,6.526Z" transform="translate(-2209.223 -937.728)" fill="#e9bda0"/>
        <path id="Path_1539" data-name="Path 1539" d="M2332.559,984.857h0c-5.254,0-9.514-2-9.514-7.258V957.235h19.027V977.6C2342.072,982.853,2337.812,984.857,2332.559,984.857Z" transform="translate(-2198.998 -900.604)" fill="#e6bda0"/>
        <path id="Path_1540" data-name="Path 1540" d="M2323.062,957.889l-.02,11.383c22.719,3.809,19.73-21.346,19.73-21.346Z" transform="translate(-2198.996 -895.242)" fill="#cf9580"/>
        <path id="Path_1541" data-name="Path 1541" d="M2277.083,902.914a7.487,7.487,0,0,1,7.372,7.6c-.062,4.136-4.015,9.3-8.15,9.239s-5.685-5.221-5.622-9.355S2272.947,902.848,2277.083,902.914Z" transform="translate(-2168.834 -869.312)" fill="#ce9480"/>
        <path id="Path_1542" data-name="Path 1542" d="M2299.348,902.861c-7.129-1.853-18.545-11.589-19-27.368-.022-.749-.119-3.828,0-4.569l3.523-18.9c.927-5.927,8.667-13.584,14.593-12.659l28.364,8.38a6.081,6.081,0,0,1,5.066,6.942l-3.909,24.685c-6.346,14.8-14.68,21.976-27.014,23.584A4.252,4.252,0,0,1,2299.348,902.861Z" transform="translate(-2174.368 -832.664)" fill="#e9bda0"/>
        <path id="Path_1543" data-name="Path 1543" d="M2315.823,962.872c-5.95,1.853-9.889,0-9.889,0" transform="translate(-2189.482 -902.103)" fill="none" stroke="#fff" stroke-linecap="round" stroke-linejoin="round" stroke-width="2" opacity="0.5"/>
        <path id="Path_1544" data-name="Path 1544" d="M2367.719,919.358a7,7,0,0,1,7.1-6.887h0a7,7,0,0,1-.215,13.99h0a7,7,0,0,1-6.887-7.1Z" transform="translate(-2224.731 -874.818)" fill="#e9bda0"/>
        <path id="Path_1545" data-name="Path 1545" d="M2293.1,833.041c-1.514,5.86-4.372,11.425-9.625,14.766-2.2,1.4-4.688,2.332-6.741,3.934s-3.665,4.185-3.08,6.725c.05-12.257,6.467-24.55,17.061-30.715s25.083-5.415,34.368,2.586c8.612,7.421,11.838,20.1,8.966,31.1s-10.444,18.868-20.672,23.816c-.091-11.423.835-20.152-6.639-27.3-3.992-3.814-9.258-6.39-12.289-11.008A15.526,15.526,0,0,1,2293.1,833.041Z" transform="translate(-2170.476 -823.659)" fill="#17204c"/>
        <path id="Path_1546" data-name="Path 1546" d="M2356.876,962.426c8.7.105,10.551,5.91,15.442,4.231,5.141-1.764,8.153-9.912,6.9-15.758-.392-1.83,2.04-6.84,0-11.081a78.04,78.04,0,0,1-4.913-12.848c-2.334-10.279.261-11.781,0-20.56-.2-6.9-4.515-16.334-22.6-27.384-.625,7.215-1.186,13.078-1.575,17.076-.983,10.034-1.463,13.866-1.625,20.472-.189,7.757.377,6.361.027,10.39-.637,7.325-1.46,15.319-6.064,23.178-1.65,2.818-3.65,5.238-2.933,8.172a7.828,7.828,0,0,0,3.836,4.55C2347.6,965.2,2350.734,962.353,2356.876,962.426Z" transform="translate(-2208.412 -855.553)" fill="#17204c"/>
        <path id="Path_1521" data-name="Path 1521" d="M2262.938,1644.9l.191,22.907-37.458-.233.115-2.256c.246-4.824,2.6-8.776,5.785-9.706l6.925-2.024,8.831-8.843Z" transform="translate(-2142.907 -1296.636)" fill="#343e7b"/>
        <path id="Path_1548" data-name="Path 1548" d="M2296.283,909.859a4.133,4.133,0,0,1,4.442.807c1.09.971.86,3.162.888,4.585.083,4.971-2.327,7.746-2.22,8.7.434,1.122,1.669,1.719,2.5,2.578" transform="translate(-2182.638 -873.381)" fill="none" stroke="#d5a27a" stroke-linecap="round" stroke-linejoin="round" stroke-width="1.651"/>
        <path id="Path_1526" data-name="Path 1526" d="M2386.517,1624.7l10.275,20.473-33.72,16.311-.9-2.073c-1.907-4.438-1.537-9.024.909-11.262l5.323-4.872,4.025-11.831Z" transform="translate(-2220.839 -1285.089)" fill="#343e7b"/>
        <path id="Path_1527" data-name="Path 1527" d="M2396.722,1665.245l-2.226-4.435-33.993,16.442,2.226,4.435,33.993-16.443" transform="translate(-2220.575 -1305.89)"/>
        <path id="Path_1868" data-name="Path 1868" d="M2250.649,1511.2" transform="translate(-2157.295 -1219.707)" fill="#f6bd96"/>
        <path id="Path_1522" data-name="Path 1522" d="M2262.195,1692.972l-.042-4.962-37.76-.236.042,4.962,37.757.232" transform="translate(-2142.17 -1321.422)"/>
        <path id="Path_1869" data-name="Path 1869" d="M2065.324,1177.833s-9.847-5.621-14.4-3.511-14.015,4.008-12.509,5.327,6.723-1.129,7.725-.389-6.353,6.362-8.586,7.708-7.783,3.963-7.027,5.037,12.884.947,19.379-3.194,17.6-4.988,17.6-4.988Z" transform="translate(-2030.454 -1025.381)" fill="#e9bda0"/>
        <path id="Path_1870" data-name="Path 1870" d="M2323.824,1182.99s-12.713.508-12.9,3.5,2.44,9.376,3.975,9.768,10.891-7.524,10.891-7.524Z" transform="translate(-2192.009 -1030.648)" fill="#e9bda0"/>
      </g>
      <path id="Path_1871" data-name="Path 1871" d="M2296.95,1499.442h.21a2.2,2.2,0,0,0,2.2-2.251l-3.335-144.568-9.825-1.146,8.378,145.724A2.377,2.377,0,0,0,2296.95,1499.442Z" transform="translate(-1183.186 -597.008)" fill="#9ee493"/>
      <path id="Path_1549" data-name="Path 1549" d="M2332.334,917.532" transform="translate(-1209.761 -347.039)" fill="none" stroke="#3c3c5b" stroke-linecap="round" stroke-miterlimit="10" stroke-width="3"/>
      <path id="Path_1549-2" data-name="Path 1549" d="M2326.176,917.46" transform="translate(-1206.214 -346.997)" fill="none" stroke="#3c3c5b" stroke-linecap="round" stroke-miterlimit="10" stroke-width="3"/>
      <g id="Group_793" data-name="Group 793" transform="translate(1105.884 566.305)">
        <path id="Path_1550" data-name="Path 1550" d="M2292.97,918.847a3.709,3.709,0,0,1,3.016,0" transform="translate(-2292.97 -913.916)" fill="none" stroke="#3c3c5b" stroke-linecap="round" stroke-miterlimit="10" stroke-width="1"/>
        <path id="Path_1550-2" data-name="Path 1550" d="M2326.219,918.847a3.708,3.708,0,0,1,3.015,0" transform="translate(-2312.123 -913.916)" fill="none" stroke="#3c3c5b" stroke-linecap="round" stroke-miterlimit="10" stroke-width="1"/>
        <path id="Path_1551" data-name="Path 1551" d="M2322.6,908.15a11.47,11.47,0,0,1,5.26-.333" transform="translate(-2310.04 -907.654)" fill="none" stroke="#d5a27a" stroke-linecap="round" stroke-miterlimit="10" stroke-width="1.651"/>
      </g>
      <path id="Path_1872" data-name="Path 1872" d="M1621.07,1558.09h-.152a1.593,1.593,0,0,1-1.592-1.629l2.415-104.648,7.112-.83-6.065,105.485A1.721,1.721,0,0,1,1621.07,1558.09Z" transform="translate(-799.041 -654.327)" fill="#9ee493"/>
      <path id="Path_1873" data-name="Path 1873" d="M1523.313,1558.09h-.152a1.593,1.593,0,0,1-1.592-1.629l2.415-104.648,7.112-.83-6.065,105.485A1.72,1.72,0,0,1,1523.313,1558.09Z" transform="translate(-742.729 -654.327)" fill="#9ee493"/>
      <path id="Path_1874" data-name="Path 1874" d="M1784.863,1558.09h.151a1.593,1.593,0,0,0,1.592-1.629l-2.415-104.648-7.112-.83,6.065,105.485A1.721,1.721,0,0,0,1784.863,1558.09Z" transform="translate(-889.914 -654.327)" fill="#9ee493"/>
      <path id="Path_1875" data-name="Path 1875" d="M1514.567,1309.157v-71.71a22.847,22.847,0,0,1,22.847-22.847h51.665a22.847,22.847,0,0,1,22.847,22.847V1311.9Z" transform="translate(-738.696 -518.162)" fill="#9ee493"/>
      <path id="Rectangle_167" data-name="Rectangle 167" d="M0,0H106.616a0,0,0,0,1,0,0V11.321a0,0,0,0,1,0,0H11.321A11.321,11.321,0,0,1,0,0V0A0,0,0,0,1,0,0Z" transform="translate(775.871 790.995)" fill="#9ee493"/>
      <path id="Rectangle_168" data-name="Rectangle 168" d="M5.66,0H79.954a5.661,5.661,0,0,1,5.661,5.661v0a5.661,5.661,0,0,1-5.661,5.661H5.661A5.661,5.661,0,0,1,0,5.661v0A5.66,5.66,0,0,1,5.66,0Z" transform="translate(813.899 790.995)" fill="#9ee493"/>
      <path id="Path_1876" data-name="Path 1876" d="M1712,1392.619c-7.4,12.882-16.71,17.855-16.71,17.855h-38.728S1717.649,1382.792,1712,1392.619Z" transform="translate(-820.491 -619.491)" fill="#233862"/>
      <path id="Path_1877" data-name="Path 1877" d="M1715.915,1586.931a3.58,3.58,0,0,0-.639,3.829.031.031,0,0,0,.01.019c.924,2.553,3.976,5.4,7.521,8.249.453.366.856.7,1.207,1.006.092.081.184.162.271.244.071.062.14.128.208.188,3.306,3.047,2.062,3.745,8,9.928,6.771,7.045,11.433,7.173,12.76,6.53,1.122-.547-1.157-4.283-3.683-8.484-.123-.2-.243-.408-.368-.613-.336-.558-.671-1.125-1-1.686-2.96-5.055-2.2-7.426-1.5-14.949.57-6.113,9.51-34.151,9.51-34.151l-12.977-2.235s-3.907,22.327-8.214,25.765c-2.3,1.832-4.879,1.856-7.092,3.214q-.235.142-.461.291A17.02,17.02,0,0,0,1715.915,1586.931Z" transform="translate(-854.149 -714.134)" fill="#f6bd96"/>
      <path id="Path_1878" data-name="Path 1878" d="M1715.915,1626.305a3.58,3.58,0,0,0-.639,3.829.031.031,0,0,0,.01.019c1.132,2.55,4.106,5.386,7.532,8.223.448.372.843.713,1.195,1.032.092.081.184.162.271.243.071.062.14.128.208.188,3.306,3.047,2.062,3.745,8,9.928,6.771,7.045,11.433,7.172,12.76,6.53,1.122-.547-1.157-4.283-3.683-8.484a28.855,28.855,0,0,1-12.071-8.894c-4.077-5.2-6.8-11.888-9.573-15.761-.156.095-.31.191-.461.291A17.024,17.024,0,0,0,1715.915,1626.305Z" transform="translate(-854.149 -753.508)" fill="#233862"/>
      <path id="Path_1879" data-name="Path 1879" d="M1949.872,1573.46c.8,4.006,6.511,3.337,12.89,1.778s4.863.295,13.942-.711,11.829-4.39,12.106-5.74c.248-1.2-4.238-1.62-9.049-2.174-.605-.068-1.213-.142-1.821-.217-5.433-.682-9.411-4.187-14.346-7.066-4.674-2.727-11.65-13.838-11.65-13.838l-12.451.986s6.534,9.924,9.061,14.238c1.486,2.538,1.407,5.893,1.222,8.485A15.982,15.982,0,0,0,1949.872,1573.46Z" transform="translate(-983.47 -708.768)" fill="#f6bd96"/>
      <path id="Path_1880" data-name="Path 1880" d="M1976.6,1603.937c6.379-1.559,4.863.294,13.942-.711s11.829-4.39,12.106-5.74c.248-1.2-4.238-1.62-9.049-2.174l-.045.092a25.589,25.589,0,0,1-13,4.042c-6.159.149-12.683-1.615-16.937-1.547a15.993,15.993,0,0,0,.1,4.259C1964.516,1606.164,1970.226,1605.5,1976.6,1603.937Z" transform="translate(-997.313 -737.466)" fill="#233862"/>
      <path id="Path_1881" data-name="Path 1881" d="M1793.394,1396.561l-11.639,31.319-15.2,40.894a24.624,24.624,0,0,1-8.073-.737,35.026,35.026,0,0,1-7.807-3.8s4.219-43.909,12.09-69.114c2.017-6.47,4.278-11.7,6.773-14.649C1781.744,1366.054,1793.394,1396.561,1793.394,1396.561Z" transform="translate(-874.706 -611.481)" fill="#233862"/>
      <path id="Path_1882" data-name="Path 1882" d="M1670.554,1297.859c-7.625-2.459-29.374.7-51.22,4.975l-4.574-7.545-47.188-3.685s-15.571,34.532-7.046,56.534c1.253,3.234,3.742,5.308,7.987,5.376,0,0,.687,0,.689,0s28.085-.016,37.205-.016c23.468,0,49.665-16.132,53.054-16.81,5.547-1.109,7.766,9.985,13.313,21.634s52.142,51.588,52.142,51.588,7.161.071,10.12-1.038a9.963,9.963,0,0,0,4.345-2.743S1687.75,1303.406,1670.554,1297.859Z" transform="translate(-763.7 -562.519)" fill="#00385d"/>
      <path id="Path_1883" data-name="Path 1883" d="M1781.755,1453.044l-15.2,40.894a24.62,24.62,0,0,1-8.073-.737,35.022,35.022,0,0,1-7.807-3.8s4.219-43.909,12.09-69.114Z" transform="translate(-874.706 -636.644)" fill="#064e7d"/>
      <path id="Path_1884" data-name="Path 1884" d="M1608.875,1245.182c-14.513.963-40.026-1.427-41-4.11-3.348-9.28-.984-12.164-3.777-26.372l7-19.712s-1.157,21.951,5.316,27.724,26.5,11.145,29.651,15.969A17.654,17.654,0,0,1,1608.875,1245.182Z" transform="translate(-767.229 -506.864)" fill="#297045"/>
      <path id="Path_1885" data-name="Path 1885" d="M1630.486,1288.593s14.319-3.188,16.629-1.917,7.957,5.9,8.664,7.509-5.144-1.223-7.047-1.733c-1.232-.331-4.476.8-6.082,1.332-6.758,2.252-10.9,1.094-10.9,1.094Z" transform="translate(-805.47 -559.508)" fill="#ffb27d"/>
      <path id="Path_1886" data-name="Path 1886" d="M1671.344,1296.482s3,3.87,3.983,4.332a2.936,2.936,0,0,0,1.619.347l-2.021-3.639Z" transform="translate(-829.006 -565.329)" fill="#ffb27d"/>
      <path id="Path_1887" data-name="Path 1887" d="M1669.709,1287.082l8.723,4.236a1.554,1.554,0,0,1-1.445.558,20.825,20.825,0,0,1-3.783-1.04Z" transform="translate(-828.064 -559.914)" fill="#ffb27d"/>
      <path id="Path_1888" data-name="Path 1888" d="M1793.3,1255.348a2.39,2.39,0,0,0-2.343-3.285,4.708,4.708,0,0,0-4.228,3.285,2.391,2.391,0,0,0,2.344,3.285A4.707,4.707,0,0,0,1793.3,1255.348Z" transform="translate(-895.393 -539.742)" fill="#fff"/>
      <path id="Rectangle_169" data-name="Rectangle 169" d="M4.754,0h0A4.753,4.753,0,0,1,9.507,4.753v97.8a4.753,4.753,0,0,1-4.753,4.753h0A4.753,4.753,0,0,1,0,102.552V4.754A4.754,4.754,0,0,1,4.754,0Z" transform="translate(522.356 692.556)" fill="#9ee493"/>
      <path id="Path_1889" data-name="Path 1889" d="M925.345,1558.09h-.152a1.592,1.592,0,0,1-1.592-1.629l2.414-104.648,7.112-.83-6.065,105.485A1.721,1.721,0,0,1,925.345,1558.09Z" transform="translate(-398.277 -654.327)" fill="#9ee493"/>
      <path id="Path_1890" data-name="Path 1890" d="M1186.895,1558.09h.152a1.593,1.593,0,0,0,1.592-1.629l-2.415-104.648-7.112-.83,6.065,105.485A1.721,1.721,0,0,0,1186.895,1558.09Z" transform="translate(-545.461 -654.327)" fill="#9ee493"/>
      <path id="Path_1891" data-name="Path 1891" d="M1035.169,1437.632H916.6v4.461a6.86,6.86,0,0,0,6.86,6.86h111.71a5.073,5.073,0,0,0,5.072-5.072V1442.7A5.072,5.072,0,0,0,1035.169,1437.632Z" transform="translate(-394.243 -646.636)" fill="#9ee493"/>
      <path id="Path_1892" data-name="Path 1892" d="M1334.659,1634.961s-.657,29.485,3.228,29.773c.517.038,19.706.038,19.706.038l19.4-.038s4.937-6.006-2.223-7.254-27.443-24.519-27.443-24.519Z" transform="translate(-635.464 -761.356)" fill="#f6bd96"/>
      <path id="Path_1893" data-name="Path 1893" d="M988.676,1351.64s.816,21.324,4.575,28.474h86.638s20.816,2.155,22.714,3.558c2.394,1.771-9.918,11.887,30.314,80.553l19.707-.5S1133.6,1359.815,1129.936,1357c-5.477-4.216-69.571-18.89-80.543-19.21S988.676,1351.64,988.676,1351.64Z" transform="translate(-435.763 -589.118)" fill="#00385d"/>
      <path id="Path_1894" data-name="Path 1894" d="M1065.51,1037.367c-16.306,4.214-40.03-13.889-40.03-13.889s10.493-7.051,14.385-22.551q.292-1.17.53-2.4a48.836,48.836,0,0,0,.886-8.484l5.533,4.96,1.959,1.751,12.456,11.159s-.157,2.531-.865,7.072c-.25,1.6-.568,3.447-.975,5.524q-.407,2.086-.941,4.468C1065.133,1029.116,1065.51,1037.367,1065.51,1037.367Z" transform="translate(-456.963 -388.806)" fill="#f6bd96"/>
      <path id="Path_1895" data-name="Path 1895" d="M1033.845,1142.485c-.556,3.639.572,6.566,1.113,9.272a10.45,10.45,0,0,1,.245,3.032c-.892,10.064,2.7,11.343,1.574,14.59a79.423,79.423,0,0,1-10.851,4.9c-3.052,1.153-6.711,2.391-10.921,3.554-.22.06-.441.121-.667.181a160.35,160.35,0,0,1-38.277,5.218c-9.248-.248-11.114-23.689-7.683-53.214,5.344-46,12.57-68.3,31.617-84.411,1.2-1.015.391,2.438,6.791,5.525a29.946,29.946,0,0,0,18.585,2.285l4.355,4.466c8.651,13.663,9.558,29.882,8.821,43.4A397.514,397.514,0,0,1,1033.845,1142.485Z" transform="translate(-423.147 -420.712)" fill="#ffd91f"/>
      <path id="Path_1896" data-name="Path 1896" d="M1085.085,1017.008s-.157,2.531-.865,7.072c-12.816-6.3-16.017-13.974-17.022-18.871-.157-.746,1.429-1.009,3.472-1.111l1.959,1.751Z" transform="translate(-480.988 -396.904)" fill="#ed975d"/>
      <rect id="Rectangle_170" data-name="Rectangle 170" width="2.133" height="55.858" transform="translate(712.901 742.92) rotate(-162.63)" fill="#1c468a"/>
      <rect id="Rectangle_171" data-name="Rectangle 171" width="58.616" height="3.507" transform="matrix(-1, -0.01, 0.01, -1, 712.9, 742.92)" fill="#1c468a"/>
      <path id="Path_1897" data-name="Path 1897" d="M1075.877,1241.854a79.409,79.409,0,0,1-10.851,4.9c-30.374-22.158-30.208-74.615-30.374-75.512l38.147,33.591,1.258,19.4a10.449,10.449,0,0,1,.246,3.032C1073.411,1237.328,1077,1238.607,1075.877,1241.854Z" transform="translate(-462.246 -493.187)" fill="#fbd418"/>
      <path id="Path_1898" data-name="Path 1898" d="M1261.591,1272.3a9.426,9.426,0,0,0,5.019-.814c2.578-1.21,11.469-5.028,13.138-4.507s7.122,3.6,8.406,4.185,3.553,3.585,3.553,3.585c-.942.951-4.254-1.23-5.733-1.188s-12.407,6.01-15.655,6.14a62.545,62.545,0,0,1-8.309-.536Z" transform="translate(-592.972 -548.303)" fill="#f6bd96"/>
      <path id="Path_1899" data-name="Path 1899" d="M1308.306,1280.609c.028.178,3.995,4.6,7.017,3.2l-3.312-3.272Z" transform="translate(-619.882 -556.141)" fill="#ffb27d"/>
      <path id="Path_1900" data-name="Path 1900" d="M1273.43,1271.045a57.176,57.176,0,0,0,4.737-4.877s.71.325.739.925a7.946,7.946,0,0,1-.931,2.842Z" transform="translate(-599.792 -547.867)" fill="#ffb27d"/>
      <path id="Path_1901" data-name="Path 1901" d="M1060.544,1088.329c-19.551-11.907-42.628,8.9-32.925,29.63,11.25,24.042,29.978,53.365,44.861,55.1,10.607,1.234,39.716,4.878,54.3,1.428,0,0,4.625-.375,2.125-7,0,0-41.3-12.972-48.193-21.94-3.693-4.806-9.985-14.536-19.714-56.935C1060.958,1088.437,1060.7,1088.422,1060.544,1088.329Z" transform="translate(-456.876 -443.419)" fill="#f6bd96"/>
      <path id="Path_1902" data-name="Path 1902" d="M1205.646,1502.578h-.21a2.2,2.2,0,0,1-2.2-2.251l3.336-144.568,9.825-1.146-8.379,145.724A2.377,2.377,0,0,1,1205.646,1502.578Z" transform="translate(-559.358 -598.814)" fill="#9ee493"/>
      <path id="Rectangle_172" data-name="Rectangle 172" d="M8.722,0H505.93a8.722,8.722,0,0,1,8.722,8.722v0a8.722,8.722,0,0,1-8.722,8.722H8.722A8.722,8.722,0,0,1,0,8.723v0A8.722,8.722,0,0,1,8.722,0Z" transform="translate(629.871 742.159)" fill="#9ee493"/>
      <path id="Path_1903" data-name="Path 1903" d="M2070.9,1252.313h-69l-20.756-51.614h68.892Z" transform="translate(-1007.466 -510.154)" fill="#2b478b"/>
      <path id="Path_1904" data-name="Path 1904" d="M2028.2,1317.7h91.113v2.01h-90.3Z" transform="translate(-1034.568 -577.551)" fill="#2b478b"/>
      <path id="Path_1905" data-name="Path 1905" d="M2071.009,1257.106a2.391,2.391,0,0,1,2.343-3.285,4.708,4.708,0,0,1,4.227,3.285,2.391,2.391,0,0,1-2.344,3.285A4.707,4.707,0,0,1,2071.009,1257.106Z" transform="translate(-1059.151 -540.754)" fill="#fff"/>
      <path id="Path_1906" data-name="Path 1906" d="M999.98,1701.719v.5c0,.8-.382,1.455-.846,1.455H254.157c-.464,0-.846-.657-.846-1.455v-.5c0-.8.382-1.454.846-1.454H999.133C999.6,1700.265,999.98,1700.922,999.98,1701.719Z" transform="translate(252.884 -797.923)" fill="#2e3552"/>
      <g id="Group_795" data-name="Group 795" transform="translate(812.537 587.059)">
        <path id="Path_1907" data-name="Path 1907" d="M1682.563,988.27c1.316,12.625-1.372,25.278-2.342,37.934s.081,26.292,7.728,36.424c-17.228,2.732-35.232-5.427-46.245-18.954s-15.4-31.72-14-49.106c.79-9.8-.859-23.632,5.556-31.087,6.544-7.6,22.216-8.924,31.746-3.844C1675.014,964.971,1681.453,977.622,1682.563,988.27Z" transform="translate(-1616.258 -956.605)" fill="#091a4c"/>
        <path id="Path_1908" data-name="Path 1908" d="M1632.324,985.524a52.393,52.393,0,0,1,20.067-7.159c5.736-.876,12.375-1.117,18.049.9,4.231,6.328,5.723,14.085,5.463,21.6-.155,4.477-2.2,21.5-8.918,27.321-8.854,7.661-27.086-8.862-30.5-14.85-4.406-7.735-6.353-13.468-5.3-22.177A39.969,39.969,0,0,1,1632.324,985.524Z" transform="translate(-1618.249 -968.766)" fill="#f6bd96"/>
        <path id="Path_1909" data-name="Path 1909" d="M1631.963,1073.045l-19.673,25.085-11.239-15.97,18.238-20.421Z" transform="translate(-1601.051 -1017.167)" fill="#f6bd96"/>
        <g id="Group_794" data-name="Group 794" transform="translate(41.464 38.495)">
          <path id="Path_1910" data-name="Path 1910" d="M1715.7,1061.783c.784-.541,1.84-.814,2.352-1.623.231-.725-1.219-3.261-.382-7.124a3.618,3.618,0,0,1,1.518-2.674,5.6,5.6,0,0,1,3.469-.7" transform="translate(-1708.556 -1048.678)" fill="none" stroke="#e7a579" stroke-linecap="round" stroke-linejoin="round" stroke-width="0.59"/>
          <path id="Path_1911" data-name="Path 1911" d="M1700.658,1055.436a3.047,3.047,0,0,0,3.148.379" transform="translate(-1699.893 -1052.03)" fill="none" stroke="#39395c" stroke-linecap="round" stroke-miterlimit="10" stroke-width="0.59"/>
          <path id="Path_1912" data-name="Path 1912" d="M1726.719,1057.173a1.99,1.99,0,0,0,2.4-.015" transform="translate(-1714.905 -1053.022)" fill="none" stroke="#39395c" stroke-linecap="round" stroke-miterlimit="10" stroke-width="0.59"/>
          <path id="Path_1913" data-name="Path 1913" d="M1698.853,1047.8a4.416,4.416,0,0,1,4.211.31" transform="translate(-1698.853 -1047.403)" fill="none" stroke="#e7a579" stroke-linecap="round" stroke-miterlimit="10" stroke-width="0.59"/>
        </g>
        <path id="Path_1914" data-name="Path 1914" d="M1656.5,961.377c5.685,3.679,9.162,6.715,7.414,13.021-1.319,4.762-23.427,38.249-50.855,41.749,1.453-2.628,4.637-12.107,2.791-20.2s-2.653-16.778.688-24.506C1622.777,957.019,1643.509,952.969,1656.5,961.377Z" transform="translate(-1607.968 -956.854)" fill="#091a4c"/>
      </g>
      <path id="Path_1915" data-name="Path 1915" d="M1658.284,1106.734s18.484,3.928,21.626,12.532c3.114,8.526,17.546,59.913,17.546,59.913a12.011,12.011,0,0,1-10.588-3.427c-4.777-4.776-21.151-43.81-21.151-43.81Z" transform="translate(-821.482 -456.027)" fill="#f6bd96"/>
      <path id="Path_1916" data-name="Path 1916" d="M1620.636,1156.9c-.707,47.331-.2,28.355-5.375,32.846-1.248,1.081-4.755,1.726-9.371,2.031-14.513.963-40.026-1.427-41-4.11-3.348-9.28-.984-12.163-3.777-26.372-.291-1.511-.823-3.115-1.075-4.928-1.443-10.416-1.679-22.644.391-40.244.916-7.781,18.552-14.242,19.251-13.825,17.12,10.211,21.846,1.957,21.846,1.957s9.594,1.451,10.809,4.547c2.013,5.131,7.28,14.9,9.062,26C1622.675,1142.755,1620.712,1151.855,1620.636,1156.9Z" transform="translate(-764.244 -453.462)" fill="#297045"/>
      <path id="Path_1917" data-name="Path 1917" d="M1574.923,1126.455c9.046,22.167,10.572,34.275,14.613,57.6a5.112,5.112,0,0,0,4.628,4.221c10.921.871,21,1.479,30.451,2.5,3.693.4,6.68,5.964-.851,8.6-10.775,3.771-14.463,4.184-23.451,5.644-3.9.633-10.017-.505-13.963-.26-7.791.484-12.23-5.271-15.959-12.129-8.319-15.3-9.6-24.22-12.028-39.372-1.476-9.229-2.861-12.956-2-21.619C1557.565,1119.672,1571.923,1119.105,1574.923,1126.455Z" transform="translate(-762.621 -464.614)" fill="#f6bd96"/>
      <g id="Group_796" data-name="Group 796" transform="translate(825.016 689.799)">
        <path id="Path_1918" data-name="Path 1918" d="M1721.6,1315.939h-91.113v2.011h90.3Z" transform="translate(-1630.486 -1266.336)" fill="#ed7d2b"/>
        <path id="Path_1919" data-name="Path 1919" d="M1680.74,1250.555h69l20.756-51.614H1701.6Z" transform="translate(-1659.435 -1198.94)" fill="#f99746"/>
      </g>
      <path id="Path_1920" data-name="Path 1920" d="M1069.154,964.72c24.561,6.771,27.789-49.867,2.206-55.207-26.845-5.6-31.5,19.163-18.749,39.3C1057.136,955.963,1060.864,962.435,1069.154,964.72Z" transform="translate(-468.681 -341.955)" fill="#f6bd96"/>
      <path id="Path_1921" data-name="Path 1921" d="M1040.63,937.86c-2.448-5.594-4.565-11.9-2.64-17.7,1.891-5.693,7.409-9.576,13.2-11.131s11.909-1.166,17.894-.765c3.3.221,6.458-.122,9.466,1.28,0,0,3.975.521,4.972,1.718,1.342,1.611,2.854.611,4.714,1.579,1.982,1.031,2.855,3.393,3.229,5.6a11.8,11.8,0,0,1-.761,7.39c-1.354,2.61-4.147,4.1-6.943,5.008l-1.88.611c-2.349,1.572-2.878,1.8-5.941,1.833a48.316,48.316,0,0,1-6.1-.79c-2.393-.31-6.084-1.279-8.14.357-1.532,1.22-1.9,3.4-1.8,5.359s.545,3.928.181,5.852a7.539,7.539,0,0,0-2.271-1.35,2.556,2.556,0,0,0-2.5.43c-1.022.975-.622,2.745.268,3.844s4.863,3.435,3.218,5.38c-8.478,10.019-9.727,6.677-12.794,6.242-4.518-.641-2.978-5.22-3.424-7.879C1041.834,946.2,1042.452,942.024,1040.63,937.86Z" transform="translate(-463.739 -341.495)" fill="#091a4c"/>
      <path id="Path_1922" data-name="Path 1922" d="M1130.982,989.859a3.4,3.4,0,0,0,4.049-.4" transform="translate(-517.736 -388.47)" fill="none" stroke="#39395c" stroke-linecap="round" stroke-miterlimit="10" stroke-width="0.65"/>
      <path id="Path_1923" data-name="Path 1923" d="M1128.491,982.825a5.974,5.974,0,0,1,5.56.5" transform="translate(-516.301 -384.387)" fill="none" stroke="#39395c" stroke-linecap="round" stroke-miterlimit="10" stroke-width="0.65"/>
      <path id="Path_1924" data-name="Path 1924" d="M1068.77,1000.074c.889,1.1,3.9,3.809,2.319,5.811-5.536,7.033-6.487,5.178-10.974,5.811" transform="translate(-476.914 -394.586)" fill="#091a4c"/>
      <path id="Path_1925" data-name="Path 1925" d="M1071.987,1012.765c-5.536,7.033-8.6,6.676-11.872,6.242" transform="translate(-476.914 -401.897)" fill="#091a4c"/>
      <path id="Path_1926" data-name="Path 1926" d="M1143.47,995.111l1.035,5.191c.341,1.707-.542,3.312-1.769,3.218l-1.131-.086Z" transform="translate(-523.856 -391.727)" fill="#f6bd96"/>
      <path id="Path_1547" data-name="Path 1547" d="M2533.045,822.023" transform="translate(-1325.379 -292.022)" fill="#17204c"/>
      <path id="Path_1927" data-name="Path 1927" d="M1060.544,1088.329c-19.551-11.907-42.628,8.9-32.925,29.63,11.25,24.042,21.722,47.137,26.491,46.053.272.276,27.589-19.681,27.312-19.941-3.693-4.806-10.7-13.061-20.424-55.461C1060.958,1088.437,1060.7,1088.422,1060.544,1088.329Z" transform="translate(-456.876 -443.42)" fill="#ffd91f"/>
    </g>
    <path id="Path_1928" data-name="Path 1928" d="M6601.757,2830.847s-.6,2.965-1.978,7.992a24.629,24.629,0,0,0-.518,9.761s46.035,2.474,47.9.82.907-7.675.435-8.208-6.313-2.323-9.308-4.421-13.229-10.031-16.687-9.71-5.054,3.217-11.619,3.548S6603.387,2829.4,6601.757,2830.847Z" transform="translate(-5402.522 -2046.795)" fill="#52bbe1"/>
    <path id="Path_1929" data-name="Path 1929" d="M6647.159,2876.723c-1.863,1.654-47.9-.82-47.9-.82a24.766,24.766,0,0,1-.046-6.958c24.03,5.05,48.379-.429,48.379-.429C6648.066,2869.048,6649.022,2875.068,6647.159,2876.723Z" transform="translate(-5402.522 -2074.096)" fill="#fff"/>
    <path id="Path_1930" data-name="Path 1930" d="M6599.612,2868.944a111.039,111.039,0,0,0,48.378-.429c-25.057,4.292-45.263.966-43.863,1.127Z" transform="translate(-5402.919 -2074.096)" fill="#9cb9bd"/>
    <rect id="Rectangle_173" data-name="Rectangle 173" width="23.894" height="5.564" transform="translate(1194.901 772.605) rotate(-11)" fill="#021753"/>
    <rect id="Rectangle_174" data-name="Rectangle 174" width="20.894" height="5.564" transform="translate(1458.076 746.164) rotate(-23)" fill="#021753"/>
    <rect id="Rectangle_175" data-name="Rectangle 175" width="20.894" height="5.564" transform="translate(1374.602 748.57) rotate(17)" fill="#021753"/>
  </g>
</svg>
