<svg xmlns="http://www.w3.org/2000/svg" width="546.423" height="440.281" viewBox="0 0 546.423 440.281">
  <g id="Group_790" data-name="Group 790" transform="translate(-1106 -318.738)">
    <path id="Path_1843" data-name="Path 1843" d="M11235.133,2349.546c.491,12.979-3.107,25.717-4.953,38.573s-1.694,26.85,5.429,37.711c-17.774,1.625-35.605-7.922-45.936-22.477s-13.583-33.427-10.978-51.084c1.47-9.956.72-24.187,7.773-31.364,7.2-7.321,23.284-7.611,32.674-1.78C11229,2325.249,11234.719,2338.6,11235.133,2349.546Z" transform="translate(-9742.016 -1996.314)" fill="#00385d"/>
    <path id="Path_1844" data-name="Path 1844" d="M11197.9,2382.71a53.628,53.628,0,0,1,20.973-5.953c5.916-.507,12.711-.3,18.368,2.139,3.892,6.747,4.891,14.768,4.118,22.424-.461,4.56-3.7,21.807-10.952,27.292-9.558,7.224-27.057-10.877-30.134-17.222-3.977-8.195-5.576-14.18-3.913-23A40.915,40.915,0,0,1,11197.9,2382.71Z" transform="translate(-9757.106 -2048.226)" fill="#f6bd96"/>
    <path id="Path_1845" data-name="Path 1845" d="M11128.682,2612.949l-21.781,24.283-10.395-17.064,20-19.618Z" transform="translate(-9673.338 -2237.386)" fill="#f6bd96"/>
    <path id="Path_1846" data-name="Path 1846" d="M11421.247,2594.669c.837-.5,1.934-.707,2.511-1.5.285-.725-1.024-3.411.091-7.3a3.7,3.7,0,0,1,1.729-2.628,5.726,5.726,0,0,1,3.59-.485" transform="translate(-9947.547 -2222.281)" fill="none" stroke="#e7a579" stroke-linecap="round" stroke-linejoin="round" stroke-width="1.594"/>
    <path id="Path_1847" data-name="Path 1847" d="M11383.62,2593.431a3.118,3.118,0,0,0,3.188.6" transform="translate(-9915.775 -2231.376)" fill="none" stroke="#39395c" stroke-linecap="round" stroke-miterlimit="10" stroke-width="1.594"/>
    <path id="Path_1848" data-name="Path 1848" d="M11455.793,2603.12a2.037,2.037,0,0,0,2.453.147" transform="translate(-9976.718 -2239.557)" fill="none" stroke="#39395c" stroke-linecap="round" stroke-miterlimit="10" stroke-width="1.594"/>
    <path id="Path_1849" data-name="Path 1849" d="M11379.906,2571.766a4.519,4.519,0,0,1,4.279.6" transform="translate(-9912.64 -2212.838)" fill="none" stroke="#e7a579" stroke-linecap="round" stroke-miterlimit="10" stroke-width="1.594"/>
    <path id="Path_1850" data-name="Path 1850" d="M11180.442,2320.84c5.556,4.141,8.9,7.475,6.69,13.8-1.669,4.772-26.5,37.47-54.744,39.19,1.661-2.585,5.553-12.048,4.214-20.432s-1.575-17.31,2.358-24.974C11146.3,2314.112,11167.746,2311.378,11180.442,2320.84Z" transform="translate(-9703.638 -1996.521)" fill="#00385d"/>
    <path id="Path_1851" data-name="Path 1851" d="M10975.92,2733.921c-7.059,10.985-6.891,25.009-5.609,38,2.783,28.234,9.879,56.466,24.506,80.776,8.41,13.981,18.947,24.7,35.844,25.86,15.2,1.043,30.617-4.541,42.8-13.429,17.5-12.77,29.568-31.459,41.234-49.71q.674,2.314,1.561,4.558c3.9,9.859,10.811,18.2,18.531,25.329a152.929,152.929,0,0,0,19.3,14.893c6.086,4.036,18.684,8.042,19.127,16.595.084,1.632-.2,3.424.725,4.772,1.16,1.693,3.576,1.8,5.629,1.724,12.656-.8,25.24-.281,37.834-.742.547-.02,1.287-.25,1.213-.793-.047-.345-.418-.532-.744-.659-8.76-3.452-18.16-6.319-26.627-10.79-10.008-5.284-15.768-12.667-22.41-21.566-14.311-19.177-28.359-38.564-42.824-57.626a390.634,390.634,0,0,0-46.441,17.312c-7.637,3.413-34.117,16.787-41.174,18.673-3.686,0-6.4-8.21-6.836-10.565a41.512,41.512,0,0,1,.189-16.248c1.939-8.813,10.914-17.415,9.785-26.81-.857-7.132-8.773-10.643-14.762-14.61a40.33,40.33,0,0,1-17.65-29.946c.492,6.188-17.422-6.115-17.68-6.214C10985.354,2720.363,10978.9,2729.281,10975.92,2733.921Z" transform="translate(-9566.197 -2340.209)" fill="#f6bd96"/>
    <path id="Path_1852" data-name="Path 1852" d="M11004.17,2867.283c8.02-4.883,17.848-11.548,23.795-18.821a52.448,52.448,0,0,0,10.43-21.364c-2.928-1.719-6.459-8.534-6.836-10.565a41.512,41.512,0,0,1,.189-16.248c1.939-8.813,10.914-17.415,9.785-26.81-.857-7.132-8.773-10.643-14.762-14.61-10-6.624-14-17.677-17.25-29.216.383,1.359-17.822-6.845-18.08-6.944-6.088-2.344-12.543,6.574-15.521,11.214-7.059,10.985-6.891,25.008-5.609,38,2.783,28.234,9.879,56.466,24.506,80.776C10997.811,2857.679,11000.445,2863.416,11004.17,2867.283Z" transform="translate(-9566.198 -2340.209)" fill="#297045"/>
    <path id="Path_1853" data-name="Path 1853" d="M11007.108,2928.023c-5.847-9.9-10.562-20.4-15.115-30.938-5.017-11.606-9.755-23.307-12.756-35.621a193.554,193.554,0,0,1-3.4-19.165c-.916-6.566-1.821-13.156-1.646-19.8.137-5.251.341-10.559.713-15.8.153-2.173.361-4.4.735-6.6-6.74,10.91-6.573,24.7-5.312,37.5,2.782,28.234,9.88,56.466,24.507,80.776,3,4.979,5.627,10.717,9.353,14.584,1.385-.843,2.831-1.756,4.294-2.7C11008.022,2929.512,11007.553,2928.776,11007.108,2928.023Z" transform="translate(-9566.217 -2405.881)" fill="#297045"/>
    <path id="Path_1854" data-name="Path 1854" d="M11360.711,3222.042c-14.312-19.177-28.359-38.564-42.824-57.627a390.466,390.466,0,0,0-46.441,17.312c-7.635,3.412-34.117,16.786-41.174,18.673a2.748,2.748,0,0,1-1.2-.3,47.747,47.747,0,0,1-2.854,8.6c-4.58,10.332-12.531,18.831-21.488,25.557-2.533,1.9-5.168,3.668-7.873,5.325,6.705,6.894,14.893,11.54,25.678,12.281,15.2,1.043,30.619-4.541,42.8-13.429,17.5-12.77,29.566-31.459,41.234-49.71q.674,2.314,1.561,4.558c3.9,9.859,10.809,18.2,18.531,25.329a152.95,152.95,0,0,0,19.3,14.893c1.168.774,2.574,1.548,4.092,2.352a45.68,45.68,0,0,0,12.244-11.7C11361.773,3223.454,11361.248,3222.761,11360.711,3222.042Z" transform="translate(-9758.073 -2713.51)" fill="#00385d"/>
    <path id="Path_1855" data-name="Path 1855" d="M11555.256,3387.232c-6.988,2.962-8.771,9.011-15.754,12.028a42.546,42.546,0,0,0,.834,4.7,24.635,24.635,0,0,0,1.164,3.681,74.346,74.346,0,0,0,13.158-7.663c11.881-8.671,29.279-32.107,37.73-44.246C11585.051,3363.62,11568.348,3381.682,11555.256,3387.232Z" transform="translate(-10047.4 -2875.053)" fill="#29294f"/>
    <path id="Path_1856" data-name="Path 1856" d="M11950.524,3370.482c-9.961-4.133-18.626-10.789-26.15-18.435-3.738-3.8-15.917-14.529-19.89-23.889.36,1.137.719,2.275,1.158,3.385,3.9,9.859,10.81,18.2,18.531,25.329a152.888,152.888,0,0,0,19.306,14.893c1.167.774,2.575,1.548,4.09,2.352,1.456-.988,2.852-2.058,4.21-3.171C11951.363,3370.784,11950.938,3370.653,11950.524,3370.482Z" transform="translate(-10355.588 -2851.773)" fill="#29294f"/>
    <path id="Path_1857" data-name="Path 1857" d="M11234.3,3525.392c5.21,6.116,18.188,8.639,24.012,10.228a185.259,185.259,0,0,0,37.177,5.887c21.424,1.341,42.91-.205,64.32-1.751-.395.029-1.654,2.527-1.909,2.923-4.574,7.1-10.917,16.522-11.96,25.1-1.1,9.043-2.089,18.343-2.491,27.5-.373,8.492.709,17.111.054,25.546a12.653,12.653,0,0,1-4.609,8.7l-.146.125a6.925,6.925,0,0,0,2.233,11.65c12.937,4.815,42.4,12.608,42.926,9.951.212-1.071-6.629-6.979-10.6-10.723a42.431,42.431,0,0,0-6.212-5.381h0a13.79,13.79,0,0,1-5.743-7.053,24.887,24.887,0,0,1-1.475-7.873,93.525,93.525,0,0,1,.468-13.063c1.223-9.723,6.967-18.323,10.089-27.615,6.2-18.444,11.131-37.681,10.977-57.267-.039-5.128-.472-11.02-4.584-14.085-2.351-1.753-5.413-2.149-8.327-2.488-32.946-3.835-65.918-7.672-99.034-9.535-11.516-.647-17.92,5.344-26.258,13.188-2.9,2.73-10.573,5.252-11.064,9.205A8.554,8.554,0,0,0,11234.3,3525.392Z" transform="translate(-9787.813 -2993.598)" fill="#f6bd96"/>
    <path id="Path_1858" data-name="Path 1858" d="M11321.542,3537.659c-4.573,7.1-10.916,16.522-11.96,25.1-1.1,9.042-2.088,18.342-2.49,27.495-.187,4.238-.012,8.507.13,12.77a77.436,77.436,0,0,1,9.905-.258,63.6,63.6,0,0,1,6.714.677c.16-.433-.163.43,0,0,3.482-9.161,7.114-19.631,10.236-28.922,6.2-18.444,11.131-37.68,10.977-57.267-.039-5.128-.472-11.02-4.584-14.085-2.353-1.753-5.415-2.149-8.328-2.488-32.946-3.835-67.115-8.576-100.231-10.438-11.516-.647-18.68,3.244-25.76,12.24-4.393,5.581-17.136,12.466-17.136,12.466,6.7,12.1,22.865,15.138,28.688,16.727,12.129,3.309,28.893,4.026,41.428,4.811,21.423,1.342,42.911-.205,64.32-1.751C11323.057,3534.765,11321.8,3537.263,11321.542,3537.659Z" transform="translate(-9751.451 -2988.579)" fill="#00385d"/>
    <path id="Path_1859" data-name="Path 1859" d="M11717.074,2819.374l-13.715,51.213-46.772,16.6" transform="translate(-10146.267 -2422.159)" fill="none" stroke="#b6b2af" stroke-miterlimit="10" stroke-width="16.098"/>
    <path id="Path_1860" data-name="Path 1860" d="M11053.368,2842.755c14.989,21.587,28.38,45.406,43.368,66.993,9.411-6.23,18.86-12.454,28.852-17.728,3.662-1.933,7.1-5.049,10.888-6.508,4.855-1.871,10.521-2.193,15.665-2.023,6.6.217,13.122,1.481,19.608,2.741-7.128,3.126-15.141,3.31-22.8,4.691-8.049,1.452-14.345,4.526-19.314,11-5.312,6.922-14.732,12.388-21.619,17.884-3.162,2.523-6.482,5.123-10.441,5.95-7.819,1.633-15.179-4.029-20.724-9.778-12.338-12.791-22.9-28.486-31.058-44.265a73.67,73.67,0,0,1-7.87-23.554C11036,2837.089,11048.735,2836.082,11053.368,2842.755Z" transform="translate(-9623.704 -2438.381)" fill="#f6bd96"/>
    <path id="Path_1" data-name="Path 1" d="M10487.83,3309.772a18.593,18.593,0,0,1-25.689.9,22.7,22.7,0,0,0-15.535-6.274c-12.547,0-22.7,10.455-22.7,23.3v37.041h28.377a18.073,18.073,0,1,1,0,36.145H10423.9v75.875a18.372,18.372,0,0,1-36.742,0V3327.693a59.4,59.4,0,0,1,99.773-43.619A18.607,18.607,0,0,1,10487.83,3309.772Z" transform="translate(-9074.373 -2802.787)" fill="#00385d"/>
    <path id="Path_2" data-name="Path 2" d="M11074.246,3861.2h-92.006c4.182,17.028,19.416,30.172,37.938,30.172,9.559,0,23.6-3.883,31.365-11.351a17.938,17.938,0,0,1,25.367.275l.023.023c7.166,6.87,6.871,18.52-.3,25.39-16.43,15.828-39.432,21.209-56.457,21.209a74.581,74.581,0,0,1-74.682-74.481c0-.166,0-.332,0-.5,0-40.924,33.158-74.978,74.68-74.978a65.247,65.247,0,0,1,13.145,1.195c20.311,3.884,37.643,16.431,48.393,34.352,4.779,8.365,10.158,19.417,9.559,29.276,0,2.689-1.2,5.676-2.391,8.662C11086.494,3856.119,11081.416,3861.2,11074.246,3861.2Zm-86.928-30.172h63.328c-5.975-11.351-17.027-17.923-30.469-17.923a38.749,38.749,0,0,0-32.859,17.919Z" transform="translate(-9545.825 -3232.336)" fill="#00385d"/>
    <path id="Path_3" data-name="Path 3" d="M11999.916,4526.09h-2.391c-10.16,0-18.223-8.363-18.223-19.119s8.066-19.715,18.223-19.715h2.391c9.857,0,18.223,8.962,18.223,19.715S12009.773,4526.09,11999.916,4526.09Z" transform="translate(-10418.765 -3832.109)" fill="#52bbe1"/>
    <path id="Path_4" data-name="Path 4" d="M9249.913,3351.565a17.723,17.723,0,0,0-17.521-17.923h-.105c-9.26,0-17.325,8.064-17.325,17.924v54.068c0,20.612-15.235,37.644-34.055,37.644-18.521,0-33.755-17.028-33.755-37.644v-53.471c0-9.56-7.767-17.924-17.323-17.924s-17.326,8.364-17.326,17.924v53.471c0,40.627,30.768,73.486,68.406,73.486a68.291,68.291,0,0,0,34.055-9.26v12.248a40.307,40.307,0,0,1-6.622,22.188h0A35.964,35.964,0,0,1,9198.2,3515c-.32.23-.649.455-.981.678l-.234.16q-.548.364-1.106.713l-.147.094a54.305,54.305,0,0,1-6.912,3.609l-.076.032q-.683.3-1.376.58l-.235.093c-.411.167-.827.33-1.244.488l-.329.123q-.586.216-1.177.428l-.392.135q-.565.2-1.14.383l-.437.139q-.557.178-1.12.348l-.469.139-1.11.321-.5.135q-.549.148-1.1.289l-.514.129q-.554.136-1.108.265l-.526.118c-.372.083-.749.165-1.118.243l-.534.107q-.564.114-1.133.22c-.179.033-.354.067-.535.1q-.573.107-1.153.2c-.173.03-.347.06-.522.089-.4.064-.792.123-1.189.182l-.5.075c-.415.059-.833.114-1.249.167l-.449.059c-.453.056-.9.107-1.358.154l-.351.038q-.814.085-1.634.156l-.081.007q-1.736.148-3.486.231c-.133.008-.268.011-.4.016-.438.019-.88.038-1.318.051-.2.006-.407.01-.611.015-.37.008-.742.017-1.115.021H9155.5c-.256,0-.512,0-.765-.01q-.48,0-.963-.015l-.8-.022c-.309-.01-.618-.02-.926-.032-.274-.01-.551-.024-.827-.038-.3-.014-.594-.03-.891-.048l-.855-.053-.865-.062c-.289-.022-.577-.045-.864-.071l-.844-.075-.882-.087c-.272-.029-.544-.058-.816-.089l-.9-.107-.792-.1c-.306-.04-.61-.079-.914-.123l-.762-.112q-.466-.067-.931-.141l-.731-.121c-.321-.054-.632-.107-.947-.163-.232-.042-.463-.086-.694-.129-.321-.061-.648-.121-.971-.185q-.322-.064-.643-.133c-.337-.068-.677-.138-1.01-.214-.186-.04-.367-.083-.55-.125q-.545-.122-1.088-.249c-.111-.027-.223-.055-.334-.084q-2.848-.693-5.576-1.574l-.32-.107c-.364-.12-.724-.244-1.082-.368l-.45-.153c-.337-.121-.672-.245-1.008-.368-.166-.061-.333-.122-.5-.184-.32-.122-.641-.248-.961-.374l-.521-.207c-.312-.126-.62-.256-.93-.386-.174-.075-.351-.148-.524-.223q-.453-.2-.9-.4-.268-.119-.535-.242c-.293-.135-.583-.274-.871-.413-.176-.084-.35-.17-.524-.256-.286-.141-.569-.284-.855-.428l-.515-.268q-.42-.22-.829-.447a40.408,40.408,0,0,1-14.9-13.261,38.769,38.769,0,0,1-6.99-22.186V3286.92c0-9.857-8.515-17.924-18.293-17.924-10.407,0-18.608,8.066-18.608,17.924v195.187a74.247,74.247,0,0,0,21.229,51.751h0c24.117,28.216,88.256,39.833,131.433,14.893a74.621,74.621,0,0,0,18.832-14.825c.022-.023.045-.045.063-.067h0a76.408,76.408,0,0,0,20.105-51.752Z" transform="translate(-7952.248 -2803.421)" fill="#00385d"/>
    <path id="Path_2144" data-name="Path 2144" d="M11950.524,3370.482c-6.937-6.709-18.626-10.789-26.15-18.435-3.738-3.8-15.917-14.529-19.89-23.889.36,1.137.719,2.275,1.158,3.385,3.9,9.859,10.81,18.2,18.531,25.329a152.888,152.888,0,0,0,19.306,14.893c1.167.774,2.575,1.548,4.09,2.352,1.456-.988,2.852-2.058,4.21-3.171C11951.363,3370.784,11950.938,3370.653,11950.524,3370.482Z" transform="translate(-10355.588 -2851.773)" fill="#29294f"/>
  </g>
</svg>
