<svg xmlns="http://www.w3.org/2000/svg" width="446.578" height="712.402" viewBox="0 0 446.578 712.402">
  <g id="Group_929" data-name="Group 929" transform="translate(-1228 -1124.262)">
    <g id="Group_743" data-name="Group 743" transform="translate(2043.03 1170.244)">
      <g id="OBJECTS" transform="translate(-1287.826 -45.982)">
        <g id="Group_734" data-name="Group 734" transform="translate(648.428)">
          <circle id="Ellipse_99" data-name="Ellipse 99" cx="49.633" cy="49.633" r="49.633" transform="matrix(0.162, -0.987, 0.987, 0.162, 3.835, 101.786)" fill="#00385d"/>
          <circle id="Ellipse_100" data-name="Ellipse 100" cx="44.283" cy="44.283" r="44.283" transform="matrix(0.521, -0.854, 0.854, 0.521, 0, 75.622)" fill="#fffbfa"/>
          <path id="Path_1553" data-name="Path 1553" d="M-793.345,120.084a2.4,2.4,0,0,1-2.4,2.4,2.4,2.4,0,0,1-2.4-2.4,2.4,2.4,0,0,1,2.4-2.4A2.4,2.4,0,0,1-793.345,120.084Z" transform="translate(857.379 -59.224)" fill="#00385d"/>
          <path id="Path_1554" data-name="Path 1554" d="M-767.932,119.449a2.4,2.4,0,0,1-2.4,2.4,2.4,2.4,0,0,1-2.4-2.4,2.4,2.4,0,0,1,2.4-2.4A2.4,2.4,0,0,1-767.932,119.449Z" transform="translate(868.858 -59.511)" fill="#00385d"/>
          <path id="Path_1555" data-name="Path 1555" d="M-793.345,94.245a2.4,2.4,0,0,1-2.4,2.4,2.4,2.4,0,0,1-2.4-2.4,2.4,2.4,0,0,1,2.4-2.4A2.4,2.4,0,0,1-793.345,94.245Z" transform="translate(857.379 -70.895)" fill="#00385d"/>
          <path id="Path_1556" data-name="Path 1556" d="M-818.9,120.084a2.4,2.4,0,0,1-2.4,2.4,2.4,2.4,0,0,1-2.4-2.4,2.4,2.4,0,0,1,2.4-2.4A2.4,2.4,0,0,1-818.9,120.084Z" transform="translate(845.839 -59.224)" fill="#00385d"/>
          <path id="Path_1557" data-name="Path 1557" d="M-793.345,144.875a2.4,2.4,0,0,1-2.4,2.4,2.4,2.4,0,0,1-2.4-2.4,2.4,2.4,0,0,1,2.4-2.4A2.4,2.4,0,0,1-793.345,144.875Z" transform="translate(857.379 -48.027)" fill="#00385d"/>
          <path id="Path_1558" data-name="Path 1558" d="M-782.116,107.455c-2.024,2.988-4.227,5.831-6.427,8.681-2.25,2.809-4.489,5.627-6.932,8.283a.5.5,0,0,1-.71.031.5.5,0,0,1-.075-.652c2.021-2.989,4.246-5.818,6.46-8.655,2.265-2.8,4.523-5.6,6.964-8.257a.46.46,0,0,1,.65-.029A.46.46,0,0,1-782.116,107.455Z" transform="translate(858.19 -64.17)" fill="#00385d"/>
          <path id="Path_1559" data-name="Path 1559" d="M-795.781,121.116a54.4,54.4,0,0,1,.341,6.023,49.513,49.513,0,0,1-.3,6.023.506.506,0,0,1-.568.434.505.505,0,0,1-.434-.434,49.538,49.538,0,0,1-.3-6.023,54.436,54.436,0,0,1,.343-6.023.463.463,0,0,1,.52-.4A.467.467,0,0,1-795.781,121.116Z" transform="translate(857.875 -57.857)" fill="#00385d"/>
          <path id="Path_1560" data-name="Path 1560" d="M-781.487,95.488a10.118,10.118,0,0,1-.959,2.408,9.157,9.157,0,0,1-1.519,2.093.524.524,0,0,1-.742-.022.527.527,0,0,1-.132-.467,9.187,9.187,0,0,1,.994-2.388,10.2,10.2,0,0,1,1.556-2.074.48.48,0,0,1,.679.019A.483.483,0,0,1-781.487,95.488Z" transform="translate(863.383 -69.513)" fill="#00385d"/>
          <path id="Path_1561" data-name="Path 1561" d="M-770.936,105.55a11.209,11.209,0,0,1-2.1,1.739,10.2,10.2,0,0,1-2.448,1.2.523.523,0,0,1-.646-.36.53.53,0,0,1,.109-.486,10.243,10.243,0,0,1,2.125-1.7,11.194,11.194,0,0,1,2.471-1.161.479.479,0,0,1,.592.328A.484.484,0,0,1-770.936,105.55Z" transform="translate(867.311 -65.064)" fill="#00385d"/>
          <path id="Path_1562" data-name="Path 1562" d="M-809.435,95.038a10.1,10.1,0,0,1,1.556,2.074,9.144,9.144,0,0,1,1,2.388.525.525,0,0,1-.406.621.527.527,0,0,1-.467-.132,9.2,9.2,0,0,1-1.52-2.093,10.172,10.172,0,0,1-.958-2.408.48.48,0,0,1,.369-.571A.485.485,0,0,1-809.435,95.038Z" transform="translate(851.912 -69.513)" fill="#00385d"/>
          <path id="Path_1563" data-name="Path 1563" d="M-819.684,104.775a11.166,11.166,0,0,1,2.471,1.161,10.215,10.215,0,0,1,2.127,1.7.522.522,0,0,1-.051.737.527.527,0,0,1-.486.109,10.17,10.17,0,0,1-2.448-1.2,11.118,11.118,0,0,1-2.1-1.739.478.478,0,0,1,.045-.675A.48.48,0,0,1-819.684,104.775Z" transform="translate(847.374 -65.064)" fill="#00385d"/>
          <path id="Path_1564" data-name="Path 1564" d="M-782.288,144.215a10.238,10.238,0,0,1-1.556-2.073,9.217,9.217,0,0,1-.994-2.389.525.525,0,0,1,.4-.621.529.529,0,0,1,.469.132,9.158,9.158,0,0,1,1.519,2.093,10.1,10.1,0,0,1,.959,2.41.48.48,0,0,1-.37.569A.486.486,0,0,1-782.288,144.215Z" transform="translate(863.383 -49.543)" fill="#00385d"/>
          <path id="Path_1565" data-name="Path 1565" d="M-771.427,134.02a11.268,11.268,0,0,1-2.471-1.163,10.121,10.121,0,0,1-2.127-1.7.524.524,0,0,1,.051-.737.531.531,0,0,1,.486-.109,10.179,10.179,0,0,1,2.449,1.2,11.266,11.266,0,0,1,2.1,1.741.478.478,0,0,1-.045.675A.488.488,0,0,1-771.427,134.02Z" transform="translate(867.311 -53.532)" fill="#00385d"/>
          <path id="Path_1566" data-name="Path 1566" d="M-810.235,143.767a10.156,10.156,0,0,1,.959-2.41,9.205,9.205,0,0,1,1.518-2.093.524.524,0,0,1,.743.022.531.531,0,0,1,.132.467,9.276,9.276,0,0,1-1,2.389,10.122,10.122,0,0,1-1.556,2.073.48.48,0,0,1-.679-.019A.485.485,0,0,1-810.235,143.767Z" transform="translate(851.913 -49.543)" fill="#00385d"/>
          <path id="Path_1567" data-name="Path 1567" d="M-820.175,133.245a11.177,11.177,0,0,1,2.1-1.741,10.169,10.169,0,0,1,2.448-1.2.524.524,0,0,1,.646.36.529.529,0,0,1-.109.486,10.121,10.121,0,0,1-2.127,1.7,11.205,11.205,0,0,1-2.471,1.163.478.478,0,0,1-.591-.33A.482.482,0,0,1-820.175,133.245Z" transform="translate(847.374 -53.532)" fill="#00385d"/>
        </g>
        <g id="Group_735" data-name="Group 735" transform="translate(576.021 132.827)" opacity="0.43">
          <rect id="Rectangle_137" data-name="Rectangle 137" width="185.82" height="266.531" transform="translate(266.531 0) rotate(89.998)" fill="#ffd91f" opacity="0.42"/>
          <rect id="Rectangle_138" data-name="Rectangle 138" width="169.494" height="247.859" transform="translate(256.779 7.728) rotate(89.998)" fill="#ffd91f" stroke="#fff" stroke-miterlimit="10" stroke-width="0.72"/>
        </g>
        <g id="Group_739" data-name="Group 739" transform="translate(716.457 305.848)">
          <path id="Path_1599" data-name="Path 1599" d="M-867.735,240.3l5.677-59.819h98.806l-8,63.243H-875.279V240.3Z" transform="translate(875.279 -180.482)" fill="#496ea3"/>
        </g>
        <g id="Group_742" data-name="Group 742" transform="translate(472.795 361.424)">
          <path id="Path_1690" data-name="Path 1690" d="M0,0H446.578V20.251H0Z" transform="translate(0 0)" fill="#52bbe1"/>
          <path id="Path_1603" data-name="Path 1603" d="M0,0H426.382V228.88H0Z" transform="translate(10.098 20.251)" fill="#9ee493"/>
          <path id="Path_1601" data-name="Path 1601" d="M-812.468,300.783h-37.249V263.534h-46.038v37.249H-933v46.037h37.249V384.07h46.038V346.821h37.249Z" transform="translate(1096.122 -198.546)" fill="#52bbe1"/>
          <path id="Path_1602" data-name="Path 1602" d="M-1025.158,232.774V442.727h385.967V232.717" transform="translate(1054.498 -212.465)" fill="none" stroke="#3c3c3b" stroke-linecap="round" stroke-linejoin="round" stroke-width="0.5"/>
          <rect id="Rectangle_145" data-name="Rectangle 145" width="426.382" height="9.188" transform="translate(10.098 20.251)" fill="#84c5e3" opacity="0.2"/>
        </g>
      </g>
    </g>
    <g id="Group_767" data-name="Group 767" transform="translate(1484.901 1285.461)">
      <path id="Path_1663" data-name="Path 1663" d="M1116.669,429.114c-.454,12,2.874,23.786,4.582,35.678s1.567,24.835-5.021,34.88c16.44,1.5,32.933-7.328,42.487-20.79s12.565-30.919,10.154-47.25c-1.359-9.209-.666-22.372-7.189-29.011-6.656-6.771-21.538-7.039-30.221-1.645C1122.342,406.639,1117.053,418.988,1116.669,429.114Z" transform="translate(-1048.724 -397.209)" fill="#091a4c"/>
      <path id="Path_1664" data-name="Path 1664" d="M1201.21,805.05s.51,7.807-3.468,12.246-18.775,6.791-20.764,11.84,14.91,5.362,20.59,3.816,20.438-2.765,24.133-2.967-4.751-24.754-5.509-25.433S1201.21,805.05,1201.21,805.05Z" transform="translate(-1176.816 -299.525)" fill="#f6bd96"/>
      <path id="Path_1665" data-name="Path 1665" d="M1111.263,801.013s-3.666,16.485-3.317,22.848,8.093,16.233,14.046,15.908,10.882-4.3,9.43-12.045-5.959-26.155-5.959-26.155Z" transform="translate(-1000.44 -300.324)" fill="#f6bd96"/>
      <path id="Path_1666" data-name="Path 1666" d="M1216.136,604.537s3.8-125.568-2.163-131.529c-2.388-2.388-21.9-8.83-35.239-11.023a156.782,156.782,0,0,0-35.591-1.876s-20.337,24.372-20.337,33.417-1.3,111.979-1.3,111.979c-15.741,5.8-40.1,110.075-41.924,136.94s2.124,151.823,2.124,151.823l22.922-2.487c12.515-19.626,18.151-122.976,21.809-135.839,5.047-17.753,28.745-72.116,28.745-72.116l12.21-5.323s-2.827,81.942-1.794,100.827-.144,110.36-.144,110.36l22.991-1.257c18-32.278,30.857-181.216,30.43-189.015s7.521-20.588,9.184-42.915C1229.37,638.886,1216.136,604.537,1216.136,604.537Z" transform="translate(-1061.174 -382.189)" fill="#00385d"/>
      <rect id="Rectangle_147" data-name="Rectangle 147" width="40.778" height="4.318" transform="translate(73.95 219.121)" fill="#fff"/>
      <rect id="Rectangle_148" data-name="Rectangle 148" width="13.097" height="7.122" rx="2.872" transform="translate(87.548 218.051)" fill="#00385d"/>
      <path id="Path_1667" data-name="Path 1667" d="M1131.855,603.787s3.373-111.511-1.229-129.35c-5.969-4.022-24.956-11.136-29.607-11.5.847,9.168-7.472,60.738-16.008,87.218-5.389,16.721-4.592,37.227-2.558,53.163h-.009a217.525,217.525,0,0,0,5.449,27.85c.491.149,13.149,6.941,35.141,6.942.941-.052,9.178-.6,18.592-2.067A255.953,255.953,0,0,0,1131.855,603.787Z" transform="translate(-976.893 -381.439)" fill="#001c41" opacity="0.38"/>
      <path id="Path_1668" data-name="Path 1668" d="M1187.208,633.112c.483-1.587-3.258-19.72-4.425-29.1h-.025c-7.732-62.8-.77-142.769-.663-143.983h-.015c-.469.46-1.794,1.957-3.562,4.1-5.459,6.956-15.92,21.059-16.971,28.244-.019.216-.031.426-.031.629v.193c0,1.133-.02,3.391-.049,6.508,0,.608-.03,1.242-.072,1.9-.26,26.48-1.236,103.845-1.236,103.845-5.084,1.875-11.067,14.024-16.9,30.516C1162.2,637.155,1185.87,637.5,1187.208,633.112Z" transform="translate(-1099.825 -382.135)" fill="#001c41" opacity="0.38"/>
      <path id="Path_1669" data-name="Path 1669" d="M1133.331,620.255c.036,15.745-42.348,16.857-62.495,7.812l2.194-68.251,6.911-97.21s25.464,5.05,34.133,10.943c0,0,2.812,101.068,5.278,121.626S1133.315,613.077,1133.331,620.255Z" transform="translate(-956.109 -381.518)" fill="#297045"/>
      <path id="Path_1670" data-name="Path 1670" d="M1161.331,465.573s-9.945,80.478-9.945,101.447-3.97,57.146-3.97,57.146,21.45,8.223,36.422,4.523c0,0-14.219-80.733-14.219-86s14.413-82.68,14.413-82.68S1170.344,460.74,1161.331,465.573Z" transform="translate(-1101.76 -382.142)" fill="#297045"/>
      <path id="Path_1671" data-name="Path 1671" d="M1203.4,810.779l-27.815,1.809-.034-7.195,28.959-1.583Z" transform="translate(-1157.137 -299.653)" fill="#00243b"/>
      <path id="Path_1672" data-name="Path 1672" d="M1135.374,807.035l-27.589,1.809-.157-7.163,28.96-1.583Z" transform="translate(-1004.984 -300.543)" fill="#00243b"/>
      <path id="Path_1673" data-name="Path 1673" d="M1220.135,813.556c-2.195,2.772-9.351,8.449-30.3,5.939-5.455,2.2-11.625,4.3-12.859,7.43-1.989,5.05,14.91,5.361,20.59,3.816s20.438-2.765,24.133-2.967C1223.713,827.664,1222.122,820.324,1220.135,813.556Z" transform="translate(-1176.816 -297.314)" fill="#011a2b"/>
      <path id="Path_1674" data-name="Path 1674" d="M1107.946,821.235c.347,6.363,8.093,16.233,14.046,15.908s10.882-4.3,9.43-12.046c-.49-2.6-1.324-6.42-2.217-10.336-.759,4.832-3,13.054-9.357,10.208-6.877-3.079-9.914-10.224-11.12-13.012A52.862,52.862,0,0,0,1107.946,821.235Z" transform="translate(-1000.44 -297.698)" fill="#011a2b"/>
      <path id="Path_1675" data-name="Path 1675" d="M1152.1,573.485c8.047-.409,18.28-.925,28.358-1.422-.6-3.489-1.215-7.08-1.826-10.671l-25.769,1.367C1152.64,566.322,1152.376,569.968,1152.1,573.485Z" transform="translate(-1103.997 -357.816)" fill="#001653" opacity="0.18" style="mix-blend-mode: multiply;isolation: isolate"/>
      <path id="Path_1676" data-name="Path 1676" d="M1081.7,570.565h.139c6.252,0,30.587,6.642,39.426,6.642a17.153,17.153,0,0,0,8.362-2.173c-.015-.073-.027-.153-.041-.227-.177-.961-.335-1.979-.465-3.064-.063-.527-.126-1.109-.19-1.737-.319-3.045-.555-6.487-.768-9.735h-46.133Z" transform="translate(-965.879 -358.085)" fill="#001653" opacity="0.18" style="mix-blend-mode: multiply;isolation: isolate"/>
      <path id="Path_1677" data-name="Path 1677" d="M1137.2,464.638s-7.524,1.582-18.145,37.167-3.564,81.3,3.766,86.048,78.506,2.989,78.506,2.989l.276-25.638s-53.885-8.42-59.218-14.962c-1.311-1.607.938-8.495.47-16.326C1141.411,509.866,1137.2,464.638,1137.2,464.638Z" transform="translate(-1077.452 -381.03)" fill="#297045"/>
      <path id="Path_1678" data-name="Path 1678" d="M1193.277,533.469s-7.366-5.07-10.13-8.463-8.3-7.957-8.548-5.536,2.287,5.9,2.287,5.9-10.062-7.029-11.395-5.943-2.655,8.619-1.724,16.935,24.52,14.371,24.52,14.371Z" transform="translate(-1130.895 -368.037)" fill="#f6bd96"/>
      <path id="Path_1679" data-name="Path 1679" d="M1176.642,593.195c-25.663,4.283-79.825-14.789-101.789-21.691l8.233-28.494s64.687,17.9,73.163,14.092c4.19-1.88,14.927-21.8,18.865-42.066,4.029-20.728,3.029-43.6,3.029-43.6s18.583,24.31,13.347,75.776C1187.493,586.478,1187.936,591.31,1176.642,593.195Z" transform="translate(-1020.177 -379.4)" fill="#297045"/>
      <path id="Path_1680" data-name="Path 1680" d="M1105.8,523.548s-6.058,5.127-10.783,8.98-12.131,14.2-12.131,14.2,8.787,2.087,11.867,2.4,13.208-5.322,16.727-4.965,2.494-4.857-1.819-3.963-8.582,1.349-8.582,1.349,10.119-6.636,14.844-10.489.9-6.766-2.965-3.614a37.9,37.9,0,0,1-8.058,4.937s13.614-11.5,11.639-13.927S1105.8,523.548,1105.8,523.548Z" transform="translate(-955.825 -368.232)" fill="#f6bd96"/>
      <path id="Path_1681" data-name="Path 1681" d="M1124.078,439.141s-1.45,20.337-3.34,24.776a6.657,6.657,0,0,1-2.49,2.9c-5.352,3.6,4.2,48.873,9.068,47.872,5.25-1.079,18.236-29.159,22.422-38.269a5.4,5.4,0,0,0-2.579-7.177l-.032-.015c-4.516-2-1.187-39.283-1.187-39.283Z" transform="translate(-1029.844 -389.353)" fill="#f6bd96"/>
      <path id="Path_1682" data-name="Path 1682" d="M1146.41,428.763a2.241,2.241,0,0,1,.956,2.171c-.242,3.13-1.875,7.03-3.28,9.838-6.49,12.978-15.858,19.251-22.312,20.14,1.606-6.564,2.775-22.956,2.775-22.956Z" transform="translate(-1033.312 -389.638)" fill="#f26e5a" opacity="0.65" style="mix-blend-mode: multiply;isolation: isolate"/>
      <path id="Path_1683" data-name="Path 1683" d="M1160.065,421.084s-3.324-14.687-14.338-19.044-21.089-1.081-24.911,13.295,1.707,37.181,8.4,44.18S1159.236,454.783,1160.065,421.084Z" transform="translate(-1043.258 -396.479)" fill="#f6bd96"/>
      <path id="Path_1684" data-name="Path 1684" d="M1114.865,421.795s5.52-8.554,8.91-3.607.385,16.754-6.021,17.371S1114.865,421.795,1114.865,421.795Z" transform="translate(-1001.358 -392.545)" fill="#fc7e72"/>
      <path id="Path_1685" data-name="Path 1685" d="M1152,442.6c-1.143-.682-2.641-.966-3.429-2.046-.388-.99,1.4-4.658-.123-9.969-.436-1.518-.919-2.861-2.363-3.588a7.828,7.828,0,0,0-4.9-.662" transform="translate(-1060.343 -390.253)" fill="none" stroke="#e7a579" stroke-linecap="round" stroke-linejoin="round" stroke-width="1"/>
      <path id="Path_1686" data-name="Path 1686" d="M1139.092,428.044a4.256,4.256,0,0,1-4.354.82" transform="translate(-1041.102 -389.81)" fill="none" stroke="#39395c" stroke-linecap="round" stroke-miterlimit="10" stroke-width="1"/>
      <path id="Path_1687" data-name="Path 1687" d="M1150.457,429.705a2.781,2.781,0,0,1-3.35.2" transform="translate(-1067.805 -389.412)" fill="none" stroke="#39395c" stroke-linecap="round" stroke-miterlimit="10" stroke-width="1"/>
      <path id="Path_1688" data-name="Path 1688" d="M1139.945,424.676a6.174,6.174,0,0,0-5.844.821" transform="translate(-1041.166 -390.713)" fill="none" stroke="#e7a579" stroke-linecap="round" stroke-miterlimit="10" stroke-width="1.594"/>
      <path id="Path_1689" data-name="Path 1689" d="M1117.777,402.364c-5.138,3.829-8.232,6.914-6.187,12.76,1.544,4.414,24.513,34.657,50.635,36.248-1.537-2.391-5.136-11.143-3.9-18.9s1.457-16.011-2.181-23.1C1149.354,396.14,1129.521,393.611,1117.777,402.364Z" transform="translate(-1034.745 -397.202)" fill="#091a4c"/>
    </g>
    <g id="Group_770" data-name="Group 770" transform="translate(1278.106 1293.621)">
      <path id="Path_1691" data-name="Path 1691" d="M6664.519,1967.367a.312.312,0,0,0-.165.335c.494,2.621,5.168,27.213,9.035,41.236,5.7,20.686,7.552,62.892,9.395,73.151a19.135,19.135,0,0,1,.275,4.654s20.741-7.627,19.571-11.841c-3.729-13.438-6.436-35.316-7.4-49.033-1.427-20.35,1.708-44.329-10.247-68.746a.279.279,0,0,0-.378-.09Z" transform="translate(-6561.347 -1830.186)" fill="#f6bd96"/>
      <path id="Path_1692" data-name="Path 1692" d="M6726.554,2217.386s10.977,27.091-7.594,39.2a1.759,1.759,0,0,1-2.685-1.1,167.706,167.706,0,0,1-3.392-16.932.32.32,0,0,0-.636.041c-.064,4.047-.236,9.851-.691,10.469,0,0-7.046-14.286,0-29.132C6718.5,2205.281,6726.554,2217.386,6726.554,2217.386Z" transform="translate(-6583.785 -1973.314)" fill="#f6bd96"/>
      <path id="Path_1693" data-name="Path 1693" d="M6525.831,2779.844s-.058.609-.058,1.626c0,3.051.524,9.774,4.727,14.736,5.606,6.614,5.64,14.844-.283,16.25s-20.044-.449-20.044-.449-3.194-6.294-1.012-23.1,3.445-35.247,3.445-35.247l16.091-2.851Z" transform="translate(-6465.477 -2275.402)" fill="#f6bd96"/>
      <path id="Path_1694" data-name="Path 1694" d="M6526.036,2834.838s5.967,9.188,7.366,13.022,1.095,13.369,0,14.351c-9.654,8.645-27.954.864-27.954.864a139.458,139.458,0,0,1-1.895-14.118c-.633-7.781-.277-15.031,1.895-15.031s2.551,4.08,7.5,2.928S6520.954,2833.685,6526.036,2834.838Z" transform="translate(-6462.527 -2323.248)" fill="#52bbe1"/>
      <path id="Path_1695" data-name="Path 1695" d="M6504.82,2878.474a58.4,58.4,0,0,0,13.468,4.337c5.013.813,11.764-1.719,16.858-4.263.262,4.076-.114,8.643-.856,9.306-9.651,8.644-27.952.864-27.952.864S6505.477,2884.378,6504.82,2878.474Z" transform="translate(-6463.418 -2348.891)" fill="#fff"/>
      <path id="Path_1696" data-name="Path 1696" d="M6625.711,2777.289c-2.087,7.449-.023,15.651,5.331,20.573a27.87,27.87,0,0,0,6.424,4.5c9.372,4.648,21.513,3.6,23.206,13.151s-59.437-2.679-59.437-2.679,4.24-23.224,4.515-27.113-.373-18.174-.373-18.174l23.606-1.923Z" transform="translate(-6518.917 -2283.928)" fill="#f6bd96"/>
      <path id="Path_1697" data-name="Path 1697" d="M6602.429,2831.768s-.747,3.688-2.46,9.94a30.654,30.654,0,0,0-.644,12.14s57.257,3.077,59.575,1.02,1.128-9.546.541-10.209-7.853-2.89-11.577-5.5-16.456-12.476-20.756-12.077-6.285,4-14.451,4.413S6604.457,2829.968,6602.429,2831.768Z" transform="translate(-6517.628 -2319.303)" fill="#52bbe1"/>
      <path id="Path_1698" data-name="Path 1698" d="M6658.9,2878.724c-2.318,2.057-59.575-1.02-59.575-1.02a30.8,30.8,0,0,1-.057-8.655c29.888,6.282,60.173-.534,60.173-.534C6660.028,2869.178,6661.218,2876.666,6658.9,2878.724Z" transform="translate(-6517.628 -2343.158)" fill="#fff"/>
      <path id="Path_1699" data-name="Path 1699" d="M6599.615,2869.049a138.1,138.1,0,0,0,60.172-.534c-31.166,5.338-56.3,1.2-54.556,1.4Z" transform="translate(-6517.975 -2343.158)" fill="#9cb9bd"/>
      <path id="Path_1700" data-name="Path 1700" d="M6493.749,2255.122l5.381,235.158,25.735-3.692s8.156-188.708,12.927-194.3,6.683.352,6.683.352,20.527,78.51,16.707,94.17-20.857,99.555-20.857,99.555l24.677,1.119s28.162-64.32,28.162-109.064-17.4-119.131-17.4-119.131Z" transform="translate(-6457.045 -1990.073)" fill="#00385d"/>
      <rect id="Rectangle_149" data-name="Rectangle 149" width="29.719" height="6.92" transform="translate(82.287 490.351)" fill="#021753"/>
      <rect id="Rectangle_150" data-name="Rectangle 150" width="30.004" height="8.74" transform="translate(39.805 491.467)" fill="#021753"/>
      <path id="Path_1701" data-name="Path 1701" d="M6511.537,2538.588a.663.663,0,0,0,.168-.022.9.9,0,0,0,.577-1.066c-4.753-24.9-5.06-186.718-5.063-188.348a.832.832,0,0,0-.76-.891h0a.836.836,0,0,0-.761.9c.011,6.668.311,163.641,5.1,188.734A.8.8,0,0,0,6511.537,2538.588Z" transform="translate(-6463.922 -2043.687)" fill="#021753"/>
      <path id="Path_1702" data-name="Path 1702" d="M6612.323,2534.655a.778.778,0,0,0,.716-.585c1.157-3.692,28.276-90.546,26.741-102.539-1.514-11.82-18.84-86.283-19.577-89.447a.758.758,0,0,0-.936-.626.919.919,0,0,0-.534,1.1c.182.773,18.042,77.525,19.54,89.242,1.479,11.546-26.383,100.759-26.664,101.657a.943.943,0,0,0,.452,1.147A.666.666,0,0,0,6612.323,2534.655Z" transform="translate(-6524.861 -2039.752)" fill="#021753"/>
      <path id="Path_1703" data-name="Path 1703" d="M6652.031,1865.959c21.567,14.825,24.667,27.692,33.73,45.452l-37.535,13.691Z" transform="translate(-6552.064 -1775.116)" fill="#ffd91f"/>
      <path id="Path_1704" data-name="Path 1704" d="M6564,2011.322c-2.088,0-64.607,7.643-99.343-2.78,0,0,0-50.874-.958-81.773-4.078-23.464-17.8-105.915-10.58-113.142,5.249-5.245,17.2-9.154,25.472-11.356l.974-.259q1.148-.3,2.3-.518c.146-.03.293-.055.438-.081a2.442,2.442,0,0,1,.26-.046c.359-.064.722-.119,1.081-.174.271-.038.544-.077.814-.106s.565-.064.845-.094a38.016,38.016,0,0,1,8.839.161l18.64,2.529.008,0,.008.008c.361.276,7.093,5.462,14.489,11.53,5.671,4.655,11.738,9.828,15.616,13.707,5.6,5.6,10.874,29.383,14.09,46.787,2.232,12.065,2.266,40.214,2.266,40.214Z" transform="translate(-6432.47 -1728.559)" fill="#ffd91f"/>
      <path id="Path_1705" data-name="Path 1705" d="M6453.641,1821.332c2.86-2.671,7.269-4.82,10.873-6.311l0,.006s6.883-3.774,13.13,21.98-3.866,55.617-3.267,59.487c.684,4.419-3.241,68.168-3.241,68.168-6.955,5.971-7.1-23.747-7.136-23.943-.051-2.022-.106-3.986-.165-5.875C6461.871,1923.514,6445.272,1829.139,6453.641,1821.332Z" transform="translate(-6432.609 -1736.631)" fill="#efca17"/>
      <path id="Path_1706" data-name="Path 1706" d="M6445.214,1992.935s.955,27.153.955,42.53c0,24.626,7.087,58.179,8.6,68.337a19.476,19.476,0,0,0,1.2,4.442c1.163,2.867-20.792,3.064-20.966,2.51-2.242-7.146-14.357-49.3-16.349-71.494-2.1-23.372,0-58.489,0-58.489Z" transform="translate(-6413.281 -1832.15)" fill="#f6bd96"/>
      <path id="Path_1707" data-name="Path 1707" d="M6596.55,1807.6v0l-.008-.009Z" transform="translate(-6516.215 -1732.464)" fill="#fae0b2"/>
      <path id="Path_1708" data-name="Path 1708" d="M6611.051,1819.143c-7.4-6.069-14.129-11.255-14.488-11.531l.094.055.037.025c.025.017.046.03.074.047s.033.022.049.034c.044.029.095.059.145.093l.059.038c.057.034.116.072.174.115a.233.233,0,0,1,.032.017.373.373,0,0,1,.046.034c.017.009.028.017.042.025.03.021.063.038.093.059s.034.021.051.034c.12.076.247.161.386.25l.077.051c2.3,1.5,7.224,4.757,12.682,8.593C6610.6,1817.085,6610.8,1817.878,6611.051,1819.143Z" transform="translate(-6516.228 -1732.476)" fill="#fae0b2"/>
      <path id="Path_1709" data-name="Path 1709" d="M6574.517,1755.5c-1.455,7.653-2.144,15.9-.831,20.7,0,0-3.025,13.093-10.564,13.73s-21.824-22.542-21.824-22.542l15.684-24.671Z" transform="translate(-6484.415 -1695.119)" fill="#f6bd96"/>
      <path id="Path_1710" data-name="Path 1710" d="M6589.13,1767.51a24.856,24.856,0,0,1-19.871-18.787l3.819-6.008,17.533,12.781A85.714,85.714,0,0,0,6589.13,1767.51Z" transform="translate(-6500.511 -1695.119)" fill="#f6ab77" opacity="0.4" style="mix-blend-mode: multiply;isolation: isolate"/>
      <path id="Path_1711" data-name="Path 1711" d="M6605.243,1658.365s7.388,46.349-5.83,51.7-31.081-3.231-32.411-18.957S6569.038,1643.308,6605.243,1658.365Z" transform="translate(-6499.078 -1644.308)" fill="#f6bd96"/>
      <path id="Path_1712" data-name="Path 1712" d="M6574.427,1706.9s-2.4-6.492-5.949-5.569c-8.06,2.094-2.147,16.44.5,16.832C6574.361,1718.962,6576.539,1714.715,6574.427,1706.9Z" transform="translate(-6497.712 -1671.246)" fill="#ffb582"/>
      <path id="Path_1713" data-name="Path 1713" d="M6450.667,1841.86c.268,15.377-8.056,60.744-8.056,60.744s-32.285-.649-34.879-3.243,5.721-71.055,19.98-80.649C6444.742,1807.254,6450.409,1827.024,6450.667,1841.86Z" transform="translate(-6407.261 -1736.895)" fill="#ffd91f"/>
      <path id="Path_1714" data-name="Path 1714" d="M6544.138,1660.541c-2.449-5.6-4.568-11.915-2.641-17.716,1.893-5.7,7.415-9.585,13.215-11.142s11.92-1.168,17.911-.767c3.308.222,6.464-.121,9.476,1.282a20.974,20.974,0,0,0,10.836,2.02c2.088-.194,4.328-.687,6.191.282,1.985,1.032,2.857,3.4,3.232,5.6a11.809,11.809,0,0,1-.763,7.4,10.65,10.65,0,0,1-6.95,5.012c-3.021.779-6.588-.146-9.211,1.61-2.352,1.573-16.711,2.086-18.912,1.014-2.365-1.151-5.4-2.021-7.453-.383-1.534,1.221-1.9,3.406-1.8,5.364s.547,3.933.181,5.859a7.537,7.537,0,0,0-2.273-1.351,2.558,2.558,0,0,0-2.5.431c-1.024.976-.623,2.748.269,3.848s2.156,1.858,2.989,3c2.285,3.147,1.683,8.767-2.809,9.4-4.524.638-3.9-5.225-4.351-7.886C6548.018,1668.893,6545.962,1664.708,6544.138,1660.541Z" transform="translate(-6484.099 -1630.558)" fill="#091a4c"/>
      <path id="Path_1715" data-name="Path 1715" d="M6455.589,2249.993s0,35.817,23.4,43.672a3.738,3.738,0,0,0,4.869-4.131c-.646-4.078-1.824-10.81-3.953-21.311a.385.385,0,0,1,.735-.22c1.767,4.552,4.389,11.046,5.161,11.555,0,0,2-19.11-12.181-32.96C6459.631,2232.93,6455.589,2249.993,6455.589,2249.993Z" transform="translate(-6435.079 -1982.114)" fill="#f6bd96"/>
      <path id="Path_1716" data-name="Path 1716" d="M6618.33,1713.9a7.356,7.356,0,0,1,4.486-.229" transform="translate(-6528.758 -1678.245)" fill="none" stroke="#091a4c" stroke-linecap="round" stroke-miterlimit="10" stroke-width="1"/>
      <path id="Path_1717" data-name="Path 1717" d="M6654.437,1709.862a11.273,11.273,0,0,1,2.876-.147" transform="translate(-6549.541 -1676.101)" fill="none" stroke="#091a4c" stroke-linecap="round" stroke-miterlimit="10" stroke-width="1"/>
      <ellipse id="Ellipse_103" data-name="Ellipse 103" cx="1.348" cy="0.487" rx="1.348" ry="0.487" transform="translate(90.593 37.659)" fill="#091a4c" opacity="0.66"/>
      <ellipse id="Ellipse_104" data-name="Ellipse 104" cx="0.981" cy="0.456" rx="0.981" ry="0.456" transform="translate(105.983 35.293)" fill="#091a4c" opacity="0.66"/>
      <path id="Path_1718" data-name="Path 1718" d="M6640.676,1730.79a2.19,2.19,0,0,0,.934.132,2.394,2.394,0,0,0,2.143-2.569c-.241-3.859-1.729-11.338-1.729-11.338s-.376-2,.311-2.444" transform="translate(-6541.621 -1678.919)" fill="none" stroke="#f6ab77" stroke-linecap="round" stroke-miterlimit="10" stroke-width="1"/>
      <path id="Path_1719" data-name="Path 1719" d="M6633.853,1766.541s4.235,1.049,6.34-.3" transform="translate(-6537.693 -1708.661)" fill="none" stroke="#f6ab77" stroke-linecap="round" stroke-miterlimit="10" stroke-width="1"/>
    </g>
  </g>
</svg>
