<svg xmlns="http://www.w3.org/2000/svg" xmlns:xlink="http://www.w3.org/1999/xlink" width="585.18" height="450.533" viewBox="0 0 585.18 450.533">
  <defs>
    <linearGradient id="linear-gradient" x1="0.5" x2="0.5" y2="1" gradientUnits="objectBoundingBox">
      <stop offset="0" stop-color="#fff" stop-opacity="0.02"/>
      <stop offset="0.552" stop-color="#fff" stop-opacity="0.431"/>
      <stop offset="1" stop-color="#fff" stop-opacity="0"/>
    </linearGradient>
    <filter id="Rectangle_208" x="252.679" y="85.336" width="127" height="127" filterUnits="userSpaceOnUse">
      <feOffset dx="5" dy="9" input="SourceAlpha"/>
      <feGaussianBlur stdDeviation="13.5" result="blur"/>
      <feFlood flood-opacity="0.141"/>
      <feComposite operator="in" in2="blur"/>
      <feComposite in="SourceGraphic"/>
    </filter>
    <filter id="Rectangle_210" x="135.679" y="126.336" width="131" height="107" filterUnits="userSpaceOnUse">
      <feOffset dx="5" dy="9" input="SourceAlpha"/>
      <feGaussianBlur stdDeviation="13.5" result="blur-2"/>
      <feFlood flood-opacity="0.141"/>
      <feComposite operator="in" in2="blur-2"/>
      <feComposite in="SourceGraphic"/>
    </filter>
    <clipPath id="clip-path">
      <rect id="Rectangle_209" data-name="Rectangle 209" width="29" height="29" transform="translate(613 525)" fill="#00385d"/>
    </clipPath>
  </defs>
  <g id="Group_810" data-name="Group 810" transform="translate(-228.821 -422.164)">
    <path id="Path_1868" data-name="Path 1868" d="M2250.649,1511.2" transform="translate(-1496.209 -756.445)" fill="#f6bd96"/>
    <path id="Path_1872" data-name="Path 1872" d="M1621.793,1602.487h-.215a2.253,2.253,0,0,1-2.252-2.3l3.416-148.025,10.06-1.174-8.579,149.209A2.434,2.434,0,0,1,1621.793,1602.487Z" transform="translate(-1243.487 -732.344)" fill="#ffd91f"/>
    <path id="Path_1873" data-name="Path 1873" d="M1524.036,1602.487h-.215a2.253,2.253,0,0,1-2.252-2.3l3.416-148.025,10.06-1.174-8.579,149.209A2.433,2.433,0,0,1,1524.036,1602.487Z" transform="translate(-1204.354 -732.344)" fill="#ffd91f"/>
    <path id="Path_1874" data-name="Path 1874" d="M1788.089,1602.487h.214a2.253,2.253,0,0,0,2.252-2.3l-3.416-148.025-10.06-1.174,8.579,149.209A2.434,2.434,0,0,0,1788.089,1602.487Z" transform="translate(-1306.636 -732.344)" fill="#ffd91f"/>
    <path id="Path_1875" data-name="Path 1875" d="M1514.567,1348.351V1246.917a32.317,32.317,0,0,1,32.318-32.317h73.08a32.317,32.317,0,0,1,32.317,32.317v105.311Z" transform="translate(-1201.552 -637.719)" fill="#ffd91f"/>
    <path id="Rectangle_167" data-name="Rectangle 167" d="M0,0H150.808a0,0,0,0,1,0,0V16.014a0,0,0,0,1,0,0H16.014A16.014,16.014,0,0,1,0,0V0A0,0,0,0,1,0,0Z" transform="translate(313.016 710.635)" fill="#ffd91f"/>
    <path id="Rectangle_168" data-name="Rectangle 168" d="M8.006,0H113.094A8.007,8.007,0,0,1,121.1,8.007v0a8.007,8.007,0,0,1-8.007,8.007H8.007A8.007,8.007,0,0,1,0,8.007v0A8.006,8.006,0,0,1,8.006,0Z" transform="translate(366.808 710.635)" fill="#ffd91f"/>
    <path id="Path_1876" data-name="Path 1876" d="M1734.981,1393.493c-10.469,18.222-23.637,25.255-23.637,25.255h-54.781S1742.969,1379.593,1734.981,1393.493Z" transform="translate(-1258.393 -708.135)" fill="#233862"/>
    <path id="Path_1877" data-name="Path 1877" d="M1716.3,1600.247a5.064,5.064,0,0,0-.9,5.417.045.045,0,0,0,.014.027c1.307,3.611,5.624,7.643,10.638,11.669.64.518,1.21.988,1.707,1.423.13.115.261.229.383.344.1.088.2.181.295.266,4.676,4.31,2.917,5.3,11.317,14.044,9.578,9.966,16.173,10.146,18.049,9.237,1.587-.774-1.637-6.059-5.21-12-.173-.286-.344-.577-.521-.866-.476-.789-.949-1.591-1.421-2.385-4.187-7.15-3.111-10.5-2.119-21.145.806-8.647,13.451-48.307,13.451-48.307l-18.355-3.162s-5.527,31.581-11.618,36.445c-3.256,2.592-6.9,2.625-10.031,4.546-.221.134-.439.271-.651.412A24.071,24.071,0,0,0,1716.3,1600.247Z" transform="translate(-1281.783 -773.906)" fill="#f6bd96"/>
    <path id="Path_1878" data-name="Path 1878" d="M1716.3,1627.609a5.064,5.064,0,0,0-.9,5.417.044.044,0,0,0,.014.027c1.6,3.607,5.808,7.619,10.655,11.632.633.526,1.192,1.009,1.69,1.46.13.115.261.229.383.344.1.088.2.181.295.266,4.676,4.31,2.917,5.3,11.317,14.044,9.578,9.966,16.173,10.145,18.049,9.237,1.587-.774-1.637-6.059-5.21-12a40.818,40.818,0,0,1-17.074-12.581c-5.767-7.36-9.614-16.816-13.541-22.294-.221.134-.439.27-.651.412A24.073,24.073,0,0,0,1716.3,1627.609Z" transform="translate(-1281.783 -801.266)" fill="#233862"/>
    <path id="Path_1879" data-name="Path 1879" d="M1954.174,1585.053c1.132,5.666,9.209,4.721,18.232,2.516s6.879.417,19.72-1.006,16.732-6.209,17.124-8.119c.351-1.694-5.995-2.292-12.8-3.076-.856-.1-1.716-.2-2.576-.307-7.685-.964-13.312-5.923-20.292-10-6.611-3.857-16.479-19.574-16.479-19.574l-17.611,1.4s9.242,14.038,12.817,20.14c2.1,3.59,1.991,8.336,1.729,12A22.6,22.6,0,0,0,1954.174,1585.053Z" transform="translate(-1371.651 -770.174)" fill="#f6bd96"/>
    <path id="Path_1880" data-name="Path 1880" d="M1982.026,1607.512c9.024-2.205,6.879.416,19.72-1.006s16.732-6.21,17.124-8.12c.351-1.694-5.995-2.291-12.8-3.076l-.064.131a36.2,36.2,0,0,1-18.391,5.718c-8.712.211-17.94-2.285-23.957-2.188a22.626,22.626,0,0,0,.136,6.025C1964.927,1610.662,1973,1609.717,1982.026,1607.512Z" transform="translate(-1381.271 -790.117)" fill="#233862"/>
    <path id="Path_1881" data-name="Path 1881" d="M1811.1,1404.834l-16.463,44.3-21.494,57.845a34.833,34.833,0,0,1-11.419-1.043c-5.142-1.487-11.043-5.376-11.043-5.376s5.968-62.109,17.1-97.762c2.853-9.152,6.052-16.554,9.58-20.721C1794.62,1361.681,1811.1,1404.834,1811.1,1404.834Z" transform="translate(-1296.068 -702.566)" fill="#233862"/>
    <path id="Path_1882" data-name="Path 1882" d="M1717.219,1300.452c-10.786-3.479-41.549.988-72.451,7.037l-6.47-10.672-66.748-5.213s-22.025,48.845-9.967,79.967c1.772,4.574,5.294,7.509,11.3,7.6,0,0,.972,0,.974,0s39.727-.023,52.627-.023c33.195,0,70.25-22.818,75.045-23.777,7.846-1.569,10.985,14.123,18.831,30.6s73.755,72.971,73.755,72.971,10.13.1,14.315-1.469c4.5-1.687,6.146-3.88,6.146-3.88S1741.542,1308.3,1717.219,1300.452Z" transform="translate(-1218.927 -668.543)" fill="#00385d"/>
    <path id="Path_1883" data-name="Path 1883" d="M1794.635,1466.622l-21.494,57.845a34.829,34.829,0,0,1-11.419-1.043c-5.142-1.487-11.043-5.376-11.043-5.376s5.968-62.109,17.1-97.762Z" transform="translate(-1296.068 -720.055)" fill="#064e7d"/>
    <path id="Path_1884" data-name="Path 1884" d="M1627.433,1265.988c-20.529,1.362-56.617-2.019-57.99-5.814-4.735-13.127-1.392-17.205-5.343-37.3l9.9-27.882s-1.637,31.049,7.52,39.216,37.49,15.764,41.941,22.588A24.972,24.972,0,0,1,1627.433,1265.988Z" transform="translate(-1221.38 -629.865)" fill="#297045"/>
    <path id="Path_1885" data-name="Path 1885" d="M1630.486,1289.511s20.254-4.509,23.522-2.712,11.255,8.343,12.255,10.621-7.276-1.73-9.968-2.451c-1.743-.468-6.331,1.127-8.6,1.884-9.559,3.186-15.416,1.547-15.416,1.547Z" transform="translate(-1247.954 -666.451)" fill="#ffb27d"/>
    <path id="Path_1886" data-name="Path 1886" d="M1671.344,1296.482s4.244,5.474,5.635,6.128a4.152,4.152,0,0,0,2.29.49l-2.859-5.147Z" transform="translate(-1264.311 -670.494)" fill="#ffb27d"/>
    <path id="Path_1887" data-name="Path 1887" d="M1669.709,1287.082l12.338,5.991a2.2,2.2,0,0,1-2.044.79,29.456,29.456,0,0,1-5.352-1.47Z" transform="translate(-1263.654 -666.732)" fill="#ffb27d"/>
    <path id="Path_1888" data-name="Path 1888" d="M1796.074,1256.709c.737-2.566-.748-4.646-3.314-4.646a6.66,6.66,0,0,0-5.98,4.646c-.735,2.567.749,4.647,3.315,4.647A6.658,6.658,0,0,0,1796.074,1256.709Z" transform="translate(-1310.445 -652.715)" fill="#fff"/>
    <path id="Path_1902" data-name="Path 1902" d="M1206.645,1576.247h-.3a3.212,3.212,0,0,1-3.111-3.372l4.718-216.546,13.9-1.716L1210,1572.891A3.451,3.451,0,0,1,1206.645,1576.247Z" transform="translate(-950.744 -703.551)" fill="#9ee493"/>
    <path id="Path_2000" data-name="Path 2000" d="M1206.645,1576.247h-.3a3.212,3.212,0,0,1-3.111-3.372l4.718-216.546,13.9-1.716L1210,1572.891A3.451,3.451,0,0,1,1206.645,1576.247Z" transform="translate(-578.959 -703.551)" fill="#9ee493"/>
    <path id="Rectangle_172" data-name="Rectangle 172" d="M12.337,0H413.419a12.338,12.338,0,0,1,12.338,12.338v0a12.338,12.338,0,0,1-12.338,12.338H12.337A12.337,12.337,0,0,1,0,12.339v0A12.337,12.337,0,0,1,12.337,0Z" transform="translate(237.852 641.553)" fill="#9ee493"/>
    <path id="Path_1905" data-name="Path 1905" d="M2071.064,1258.468c-.736-2.566.748-4.647,3.314-4.647a6.66,6.66,0,0,1,5.979,4.647c.735,2.567-.748,4.647-3.315,4.647A6.658,6.658,0,0,1,2071.064,1258.468Z" transform="translate(-1424.244 -653.418)" fill="#fff"/>
    <path id="Path_1907" data-name="Path 1907" d="M1705.407,1001.4c1.861,17.858-1.94,35.755-3.312,53.658s.115,37.191,10.931,51.521c-24.369,3.864-49.836-7.677-65.413-26.811s-21.788-44.868-19.8-69.461c1.118-13.866-1.216-33.427,7.859-43.972,9.256-10.755,31.424-12.623,44.9-5.437C1694.729,968.439,1703.837,986.334,1705.407,1001.4Z" transform="translate(-1246.739 -534.441)" fill="#091a4c"/>
    <path id="Path_1908" data-name="Path 1908" d="M1632.911,988.761a74.111,74.111,0,0,1,28.385-10.127c8.113-1.24,17.505-1.581,25.53,1.275,5.985,8.95,8.095,19.924,7.728,30.554-.219,6.332-3.105,30.417-12.615,38.646-12.524,10.837-38.312-12.535-43.138-21-6.232-10.941-8.986-19.05-7.5-31.37A56.541,56.541,0,0,1,1632.911,988.761Z" transform="translate(-1248.122 -542.891)" fill="#f6bd96"/>
    <path id="Path_1909" data-name="Path 1909" d="M1644.776,1077.731l-27.828,35.483-15.9-22.589,25.8-28.885Z" transform="translate(-1236.171 -576.525)" fill="#f6bd96"/>
    <path id="Path_1910" data-name="Path 1910" d="M1715.7,1066.826c1.109-.765,2.6-1.152,3.326-2.3.326-1.026-1.725-4.612-.541-10.077.338-1.562.736-2.951,2.147-3.783a7.915,7.915,0,0,1,4.907-1" transform="translate(-1282.065 -571.674)" fill="none" stroke="#e7a579" stroke-linecap="round" stroke-linejoin="round" stroke-width="0.59"/>
    <path id="Path_1911" data-name="Path 1911" d="M1700.658,1055.436a4.31,4.31,0,0,0,4.453.536" transform="translate(-1276.044 -574.006)" fill="none" stroke="#39395c" stroke-linecap="round" stroke-miterlimit="10" stroke-width="0.59"/>
    <path id="Path_1912" data-name="Path 1912" d="M1726.719,1057.179a2.816,2.816,0,0,0,3.4-.021" transform="translate(-1286.478 -574.693)" fill="none" stroke="#39395c" stroke-linecap="round" stroke-miterlimit="10" stroke-width="0.59"/>
    <path id="Path_1913" data-name="Path 1913" d="M1698.853,1047.959a6.247,6.247,0,0,1,5.957.438" transform="translate(-1275.322 -570.787)" fill="none" stroke="#e7a579" stroke-linecap="round" stroke-miterlimit="10" stroke-width="0.59"/>
    <path id="Path_1914" data-name="Path 1914" d="M1674.507,963.176c8.041,5.2,12.959,9.5,10.487,18.418-1.866,6.736-33.138,54.1-71.934,59.054,2.056-3.717,6.559-17.125,3.948-28.568s-3.753-23.732.973-34.663C1626.8,957.011,1656.13,951.283,1674.507,963.176Z" transform="translate(-1240.979 -534.613)" fill="#091a4c"/>
    <path id="Path_1915" data-name="Path 1915" d="M1658.284,1106.734s26.146,5.557,30.59,17.727c4.4,12.061,24.818,84.748,24.818,84.748a16.99,16.99,0,0,1-14.976-4.847c-6.757-6.756-29.917-61.969-29.917-61.969Z" transform="translate(-1259.082 -594.539)" fill="#f6bd96"/>
    <path id="Path_1916" data-name="Path 1916" d="M1646.218,1179.544c-1,66.95-.281,40.108-7.6,46.46-1.766,1.53-6.726,2.441-13.256,2.872-20.529,1.363-56.617-2.019-57.99-5.814-4.735-13.127-1.392-17.205-5.343-37.3-.412-2.137-1.165-4.406-1.52-6.971-2.041-14.734-2.375-32.03.554-56.925,1.3-11.006,26.242-20.145,27.231-19.555,24.217,14.444,30.9,2.768,30.9,2.768s13.571,2.053,15.289,6.432c2.848,7.258,10.3,21.073,12.818,36.781C1649.1,1159.531,1646.325,1172.4,1646.218,1179.544Z" transform="translate(-1219.305 -592.754)" fill="#297045"/>
    <path id="Path_1917" data-name="Path 1917" d="M1582.725,1128.451c12.795,31.356,14.954,48.482,20.67,81.472a7.231,7.231,0,0,0,6.546,5.971c15.448,1.232,29.71,2.092,43.073,3.543,5.223.567,9.449,8.436-1.2,12.164-15.241,5.333-20.458,5.918-33.171,7.983-5.52.9-14.169-.714-19.75-.368-11.021.684-17.3-7.456-22.573-17.156-11.768-21.646-13.585-34.259-17.014-55.692-2.088-13.055-4.047-18.327-2.822-30.58C1558.172,1118.855,1578.482,1118.054,1582.725,1128.451Z" transform="translate(-1218.178 -600.504)" fill="#f6bd96"/>
    <path id="Path_1918" data-name="Path 1918" d="M1759.365,1315.939H1630.486v2.845h127.735Z" transform="translate(-1247.954 -678.285)" fill="#ed7d2b"/>
    <path id="Path_1919" data-name="Path 1919" d="M1680.74,1271.949h97.6l29.359-73.009H1710.25Z" transform="translate(-1268.07 -631.449)" fill="#f99746"/>
    <rect id="Rectangle_174" data-name="Rectangle 174" width="29.555" height="7.87" transform="translate(570.078 789.936) rotate(-23)" fill="#021753"/>
    <rect id="Rectangle_175" data-name="Rectangle 175" width="29.555" height="7.87" transform="translate(452.003 793.338) rotate(17)" fill="#021753"/>
    <g id="Group_710" data-name="Group 710" transform="translate(659.242 686.426)">
      <g id="Group_643" data-name="Group 643" transform="translate(0)">
        <path id="Path_1231" data-name="Path 1231" d="M8913.481,1140.236c-.264-3.26-.151-6.583-.3-9.808-.288-6.367-.615-12.732-1.028-19.092-.828-12.8-1.768-25.605-3.323-38.336-1.365-11.171-2.19-24.46-8.552-34.136-2.959-4.5-7.528-9.236-12.7-11.106-5.229-1.89-10.371.042-14.939,2.7a.625.625,0,0,1-.631-1.078c6.194-3.6,12.829-5.13,19.245-1.187,6.864,4.218,11.794,11.287,14.189,18.882,2.983,9.466,3.959,19.752,5.063,29.578,1.253,11.134,2.074,22.316,2.819,33.494.4,5.962.717,11.929,1,17.9.182,3.893-.022,8.053.348,12.057C8914.28,1140.149,8913.885,1140.2,8913.481,1140.236Z" transform="translate(-8840.421 -996.701)" fill="#0a8e6d"/>
        <path id="Path_1232" data-name="Path 1232" d="M8731.732,1132.475c-.87.11-1.743.175-2.613.26,2.572-10.759,1.4-22.311,1.707-33.263.43-15.224.835-30.451,1.646-45.66.7-13.057,1.683-27.289,6.838-39.584.318.211.642.409.973.6A94.594,94.594,0,0,0,8735.75,1033a202.548,202.548,0,0,0-2.123,22.64c-.739,14.4-1.129,28.812-1.536,43.223-.3,10.774.827,22.176-1.43,32.839,1.514-5.04,2.051-10.5,2.609-15.518.964-8.631,2.213-17.049,5.106-25.287,3-8.526,7.554-16.123,11.581-24.155,2.9-5.792,6-12.853,12.574-15.24,7.748-2.817,15.984,1.447,19.661,8.445.373.71-.7,1.343-1.079.63a15.551,15.551,0,0,0-13.243-8.692c-5.348-.114-9.387,2.887-12.277,7.141-2.447,3.607-4.091,7.678-6.186,11.486a165.023,165.023,0,0,0-7.575,14.923c-4.216,9.925-6.125,20.093-7.314,30.749C8733.929,1121.471,8733.372,1127.208,8731.732,1132.475Z" transform="translate(-8653.184 -989.539)" fill="#0a8e6d"/>
        <path id="Path_1233" data-name="Path 1233" d="M8889.292,1083.876a23.225,23.225,0,0,1,22.809,4.715c6.672,5.705,9.614,14.633,11.648,22.884,2.461,9.988,4.492,20.194,6.184,30.337,1.86,11.163,3.387,22.4,6.022,33.407-.436.034-.87.048-1.3.046-1.835-7.721-3.128-15.563-4.367-23.406-1.53-9.669-3.347-19.227-5.315-28.812-3.217-15.672-7.762-39.206-28.344-39.286-6.453-.025-19.309,4.471-19.565,12.234-.027.8-1.276.805-1.248,0C8876.031,1089.369,8883.9,1085.7,8889.292,1083.876Z" transform="translate(-8863.282 -1031.656)" fill="#0a8e6d"/>
        <path id="Path_1234" data-name="Path 1234" d="M8927.7,987.131c5.864-2.247,14.189,2.435,15.216,8.783,4.249-2.457,10.858-2.942,12.707,2.56,2.872,8.547-7.729,13.511-12.375,18.227a.944.944,0,0,1-1.615-.813,57.614,57.614,0,0,0,1.289-8.5c.1-1.087-.362-2.408-1.433-2.616a1.972,1.972,0,0,0-2.062,1.484c-.665,2.16.526,5.272.655,7.515.116,2.013.5,4.377-1.3,5.736-1.093.825-2.513.761-3.816.8-3.83.123-6.35-.171-10.023,1.571a.953.953,0,0,1-1.44-.737c-.536-3.541-2.76-5.943-3.7-9.219a5.181,5.181,0,0,1,.333-4.162,4.88,4.88,0,0,1,3.224-2.057c.634-.176,3.638-.136,4-.684q-.737-5.468-4.506-2.106-.905,1.469-1.859,2.907a.946.946,0,0,1-1.774-.366C8918.025,998.7,8920.759,989.792,8927.7,987.131Z" transform="translate(-8900.032 -972.511)" fill="#39b04a"/>
        <g id="Group_637" data-name="Group 637" transform="translate(63.385)">
          <g id="Group_636" data-name="Group 636">
            <path id="Path_1235" data-name="Path 1235" d="M8720.144,971.046c2.354-3.175,6.125-4.952,8.637-8.1a.632.632,0,0,0-.128-.981c-3-1.437-5.517.233-7.572,2.974a18.788,18.788,0,0,1,2.03-4.608c3.945-6.357,11.386-9.922,18.715-10.262,5.405-.252,12.782.51,15.926,5.454,4.4-4.628,12.68-5.133,18.31-2.9,7.572,3.005,12.281,10.732,13.081,18.629a26.826,26.826,0,0,1-.138,6.736c-1.166-1.505-2.438-2.909-3.543-4.129-1.579-1.745-5.516-6.524-8.434-5.356-3.879,1.553.843,6.362,2.232,7.727,2.068,2.026,4.559,3.8,6.022,6.336.506.879.965,1.8,1.388,2.737a33.442,33.442,0,0,1-5.078,7.252c-.529.591-1.075,1.169-1.61,1.752a29.546,29.546,0,0,0-1.871-7.842c-.87-2.41-2.956-8.2-6.426-7.72-5.073.7-1.341,7.718,0,9.883,1.4,2.265,3.6,4.659,4.006,7.352.454,3-1.309,6.182-3.255,8.322-2.364,2.6-5.417,4.469-8.072,6.777s-5.022,5.326-5.238,8.837c-1.28-3.2-4.116-5.5-6.979-7.416s-5.936-3.666-8.132-6.322c-4.264-5.15-1.951-10.167,1.014-15.144,1.254-2.1,2.683-6.817-1.231-7.221-3.744-.386-6.35,4.641-7.212,7.5a21.986,21.986,0,0,0-.588,8.827,51.414,51.414,0,0,1-8.148-7.414,18.458,18.458,0,0,1,1.04-6.59c1.114-2.942,3.32-4.974,5.093-7.488,1.463-2.08,3.4-7.141-.812-7.572-3.673-.375-7.557,4.265-9.209,7.036a21.492,21.492,0,0,0-1.985,4.474c-.041-.122-.1-.233-.137-.357A34.1,34.1,0,0,1,8720.144,971.046Zm49.488-.316a1.618,1.618,0,0,0,2.072,1.384.638.638,0,0,0,.458-.6,1.924,1.924,0,0,0-.082-.447.54.54,0,0,0-.1-.721,1.914,1.914,0,0,0-1.915-.383A.639.639,0,0,0,8769.632,970.73Zm-1.447-3.835a.66.66,0,0,0,.6-.74,1.118,1.118,0,0,0-.414-1.1,1.875,1.875,0,0,0-2.349-.538.635.635,0,0,0-.287.7A2.369,2.369,0,0,0,8768.185,966.895Zm-3.518,3.946c.622.4,1.613.762,2.235.162a1.606,1.606,0,0,0-.239-2.273,7.026,7.026,0,0,0-2.194-1.343.652.652,0,0,0-.8.218.572.572,0,0,0-.359.393A2.663,2.663,0,0,0,8764.667,970.841Zm-18.341-2.722c1.185-.076,2.87-.878,2.98-2.225a1.786,1.786,0,0,0-1.376-1.895.488.488,0,0,0-.456-.152c-.074.01-.151.029-.228.043a2.712,2.712,0,0,0-.893.1.575.575,0,0,0-.392.361,3.528,3.528,0,0,0-1.524,1.439C8743.784,967.093,8745.067,968.2,8746.326,968.119Zm-2.548-8.075c1.387,1.124,4.039,1.473,5.78,1.324,1.71-.146,3.946-1.475,2-3.144-1.68-1.447-5.127-2.338-7.146-1.2a.578.578,0,0,0-.247.281,1.74,1.74,0,0,0-.853.622A1.537,1.537,0,0,0,8743.778,960.044Z" transform="translate(-8720.133 -950.03)" fill="#39b04a"/>
          </g>
          <path id="Path_1236" data-name="Path 1236" d="M8742.711,971.318a11.639,11.639,0,0,1,8.6-8.544c3.637-.9,8.111-.99,11.455.949a.532.532,0,0,1,.639.146,13.063,13.063,0,0,1,2.986,4.557c.166.482-.334.856-.77.768-2.107-.426-3.988-1.648-6.1-2.177-2.51-.626-5.24-1.082-7.764-.316a10.048,10.048,0,0,0-5.9,5.109,27.026,27.026,0,0,0-2.131,5.413c-.271.937-.51,1.883-.732,2.832a12.173,12.173,0,0,0-.156,2.562c-.1,4.128-.02,8.256.08,12.383.146,6.116.309,12.236.008,18.35-.039.8-.705,2.274-.666,1.469.4-8.079-.211-16.134-.508-24.206C8741.514,984.352,8740.99,977.433,8742.711,971.318Z" transform="translate(-8705.478 -957.494)" fill="#00b580"/>
        </g>
        <g id="Group_639" data-name="Group 639" transform="translate(103.252 56.557)">
          <g id="Group_638" data-name="Group 638">
            <path id="Path_1237" data-name="Path 1237" d="M8663.1,1112.118a18.634,18.634,0,0,1,6.961-8.1,15.21,15.21,0,0,1,10.311-2.776c3.219.42,4.639,2.339,6.969,3.993.17-5.262,4.41-8.277,9.566-8.131a13.151,13.151,0,0,1,1.947.207,11.562,11.562,0,0,0-3.812,9.317.633.633,0,0,0,1.066.442c2.793-2.327,4.375-5.82,7.264-8.022a15.932,15.932,0,0,1,3.553,3.013c-3.787,1.648-7.2,5.306-6.854,8.79a.633.633,0,0,0,.791.6,13.135,13.135,0,0,0,3.709-2.154,9.936,9.936,0,0,1,5.771-2.053,38.437,38.437,0,0,1,2.984,7.606c-5.518-1.983-11.838-2.727-14.836,2.615a.64.64,0,0,0,.221.854c3.854,2.776,8.879-1.447,12.73,1.508a8.619,8.619,0,0,1,2.426,3.14,14.957,14.957,0,0,1-.455,2.014,20.39,20.39,0,0,1-2.506,5.181c-3.137-2.632-7.859-6.393-10.736-3.842a.631.631,0,0,0,0,.883c2.258,2.238,5.139,3.815,6.842,6.575.18.292.348.6.51.911a17.432,17.432,0,0,0-2.8,4.6c-.662,1.8-.6,3.7-1.43,5.446a.64.64,0,0,1-.855.224,48.729,48.729,0,0,0-11.168-2.939c-.115-2.286.949-4.283,1.939-6.787a5.119,5.119,0,0,0,.314-3.927,3.228,3.228,0,0,0-5.445-.948c-2.322,2.571-2.535,6.894-1.467,10.8a37.983,37.983,0,0,1-7.715-2.3c-.289-.127-.568-.27-.848-.41a9.763,9.763,0,0,1,.48-2.259c.424-1.205,1.145-2.251,1.65-3.418a6,6,0,0,0,.17-5.172c-1.027-2.182-3.344-3.729-5.428-1.828-2.518,2.3-2.326,5.982-1.309,9.708a34.567,34.567,0,0,1-6.842-8.36,15.843,15.843,0,0,1,5.455-9.786c1.5-1.177,4.148-2.358,4.793-4.315,1.182-3.6-4.645-3.74-6.582-2.226-3.4,2.663-4.223,8.317-4.809,12.275-.084.558-.146,1.121-.217,1.683-.48-.88-.934-1.764-1.363-2.641C8662.459,1118.878,8661.689,1115.544,8663.1,1112.118Zm33.328-.922c.09-.177.174-.353.264-.529.359-.718-.717-1.349-1.076-.63-.09.176-.178.353-.266.529C8694.988,1111.284,8696.068,1111.915,8696.428,1111.2Zm-4.9-.486c1.227.255,2.109-2.075,1.193-2.8a1.206,1.206,0,0,0-1.115-.15c-.428.142-1.062.535-1.062,1.053C8690.545,1109.508,8690.7,1110.537,8691.529,1110.71Zm-2.945,14.623a1.187,1.187,0,0,0,1.121-1c.078-.571-.615-1.717-1.279-1.282-.447.294-1.066.657-1.072,1.265A1.03,1.03,0,0,0,8688.584,1125.333Zm-9.473-4.036c.168.681,1.688.8,2.123.348a2.847,2.847,0,0,0,.014-3.983.631.631,0,0,0-.758-.1A3.281,3.281,0,0,0,8679.111,1121.3Z" transform="translate(-8662.36 -1097.095)" fill="#39b04a"/>
          </g>
          <path id="Path_1238" data-name="Path 1238" d="M8765.986,1121.758c2.1-1.55,4.188-2.74,6.87-2.68a.625.625,0,0,1,0,1.249c-2.464-.054-4.323,1.1-6.24,2.51C8765.97,1123.314,8765.344,1122.23,8765.986,1121.758Z" transform="translate(-8761.701 -1110.623)" fill="#00b580"/>
          <path id="Path_1239" data-name="Path 1239" d="M8784.309,1132.747a2.42,2.42,0,0,0,.447-.557.626.626,0,0,1,1.08.63,3.6,3.6,0,0,1-.645.809C8784.607,1134.179,8783.721,1133.3,8784.309,1132.747Z" transform="translate(-8781.242 -1118.508)" fill="#00b580"/>
          <path id="Path_1240" data-name="Path 1240" d="M8768.761,1155.744a2.663,2.663,0,0,1,.53-.379,7.951,7.951,0,0,1,1.2-.882c.461-.224.808.252.8.73a1.242,1.242,0,0,1-.417.872,2.174,2.174,0,0,1-.868.465,1.527,1.527,0,0,1-.758.065.73.73,0,0,1-.556-.475A.416.416,0,0,1,8768.761,1155.744Z" transform="translate(-8760.674 -1132.378)" fill="#00b580"/>
          <path id="Path_1241" data-name="Path 1241" d="M8777.717,1168.074v1.776c0,1.064-1.27.442-1.553-.1a1.926,1.926,0,0,1-.194-.767,1.674,1.674,0,0,1,.148-.941C8776.418,1167.5,8777.717,1167.126,8777.717,1168.074Z" transform="translate(-8769.897 -1140.419)" fill="#00b580"/>
          <path id="Path_1242" data-name="Path 1242" d="M8765.389,1164.414a1.777,1.777,0,0,1,1.129-.433.476.476,0,0,1,.434.4.646.646,0,0,1-.273.486,4.019,4.019,0,0,1-.994.661c-.168.079-.4.133-.52-.01a.451.451,0,0,1-.068-.3,1.452,1.452,0,0,1,.063-.52A.819.819,0,0,1,8765.389,1164.414Z" transform="translate(-8754.957 -1138.255)" fill="#00b580"/>
          <path id="Path_1243" data-name="Path 1243" d="M8740.925,1180.316c.257-.757,1.463-.432,1.2.332-.2.6,0,1.29-.356,1.849a.662.662,0,0,1-.631.334c-.5-.082-.362-.6-.368-.944A4.557,4.557,0,0,1,8740.925,1180.316Z" transform="translate(-8720.809 -1148.047)" fill="#00b580"/>
          <path id="Path_1244" data-name="Path 1244" d="M8696.51,1179.853c.65.137,2,.792,2.09,1.565a.185.185,0,0,1-.121.209.27.27,0,0,1-.121-.01l-1.131-.269c-.385-.092-1.266-.241-1.467-.643C8695.533,1180.249,8696.08,1179.763,8696.51,1179.853Z" transform="translate(-8659.921 -1148.02)" fill="#00b580"/>
          <path id="Path_1245" data-name="Path 1245" d="M8699.577,1186.243a.794.794,0,0,1,1.179.183,4.077,4.077,0,0,1,.537,2.238.541.541,0,0,1-.313.416.533.533,0,0,1-.436-.056,1.592,1.592,0,0,1-.343-.292c-.188-.194-.377-.388-.567-.583a1.894,1.894,0,0,1-.534-.783.932.932,0,0,1,1.167-1.131.989.989,0,0,0-.795.1" transform="translate(-8663.929 -1151.847)" fill="#00b580"/>
          <path id="Path_1246" data-name="Path 1246" d="M8693.316,1199.855a3.331,3.331,0,0,1,.158,1.532c-.095.788-1.344.8-1.247,0a2.568,2.568,0,0,0-.117-1.2C8691.841,1199.428,8693.047,1199.1,8693.316,1199.855Z" transform="translate(-8653.42 -1160.073)" fill="#00b580"/>
          <path id="Path_1247" data-name="Path 1247" d="M8702.39,1205.384a.625.625,0,0,1,0,1.249A.625.625,0,0,1,8702.39,1205.384Z" transform="translate(-8666.647 -1163.739)" fill="#00b580"/>
          <path id="Path_1248" data-name="Path 1248" d="M8740.745,1194.374a.625.625,0,0,1,0,1.249A.625.625,0,0,1,8740.745,1194.374Z" transform="translate(-8719.756 -1156.963)" fill="#00b580"/>
          <path id="Path_1249" data-name="Path 1249" d="M8743.965,1198.156a.651.651,0,0,1,.506-.537l.109-.026c.92-.217.883,1.2.725,1.736-.07.241-.221.5-.471.531a.638.638,0,0,1-.549-.313A1.973,1.973,0,0,1,8743.965,1198.156Z" transform="translate(-8725.257 -1158.931)" fill="#00b580"/>
          <path id="Path_1250" data-name="Path 1250" d="M8773.646,1179.22l-.023,0c.173-.784,1.376-.452,1.2.333a1.121,1.121,0,0,1-.3.548C8774.007,1180.714,8773.127,1179.828,8773.646,1179.22Z" transform="translate(-8766.073 -1147.362)" fill="#00b580"/>
          <path id="Path_1251" data-name="Path 1251" d="M8792.834,1143.55c.047-.045.093-.091.137-.137a.625.625,0,0,1,.883.883c-.044.046-.09.091-.137.137A.625.625,0,0,1,8792.834,1143.55Z" transform="translate(-8792.637 -1125.487)" fill="#00b580"/>
        </g>
        <g id="Group_641" data-name="Group 641" transform="translate(30.414 47.668)">
          <g id="Group_640" data-name="Group 640">
            <path id="Path_1252" data-name="Path 1252" d="M8803.6,1093.033c.795-3,1.555-6.85,4.325-8.739,2.668-1.818,6.214-.743,8.7.891a12.458,12.458,0,0,1,3.459,3.365c1.287,1.893,1.891,4.179,3.873,5.439,3.2-3.278.692-9.032,2.359-13,1.516-3.6,5.541-4.886,9.007-5.834,7.158-1.958,18.95-2.328,22.7,5.792.124.269.04.717-.323.764-4.888.642-11.863-2.093-15.859,1.931-.543.546-2.039,2.259-1.993,3.1.1,1.8,2.1.936,3.034.62a54.511,54.511,0,0,1,5.581-1.86c4.676-1.054,10.261-1.3,14.348,1.621,3.5,2.5,4.792,6.674,5.191,10.77.043.444-.474.592-.794.448-3.325-1.488-6.492-3.408-10.113-4.1a20.5,20.5,0,0,0-9.691.524c-.791.231-4.093.872-3.119,2.232.332.462,2.453.188,2.979.159,2.553-.142,5.086-.327,7.646-.244,4.829.156,11.27.9,14.315,5.2,2.613,3.689,2,8.686,2.254,12.947a.527.527,0,0,1-.793.448c-2.876-1.627-5.219-4-8.058-5.674a31.432,31.432,0,0,0-10.539-3.6c-1.565-.279-6.164-1.766-7.5-.775-1.567,1.167,1.318,2.163,2.049,2.46,1.343.545,2.729.991,4.1,1.458,5.3,1.805,11.109,3.639,14.974,7.947,2.987,3.332,2.6,8.161,1.139,12.121a.532.532,0,0,1-.775.309c-6.393-4.076-12.314-8.821-18.558-13.114a15.283,15.283,0,0,0-3.952-2.238q-1.475-.858-1.755.921-1.336,1.131.056,2.066a9.986,9.986,0,0,0,1.593,1.379,46.63,46.63,0,0,0,6.249,3.519c3.875,1.991,8.362,4.224,10.348,8.35,2.479,5.148-.976,9.71-4.168,13.575a.526.526,0,0,1-.741-.011,16.591,16.591,0,0,1-2.323-5.143,17.9,17.9,0,0,0-5.245-7.662,39.511,39.511,0,0,0-5.918-4.1c-.846-.5-3.83-2.465-4.13-.357-.12.851,1.338,2.391,1.827,2.939,3.079,3.444,7.44,5.532,10.217,9.292,3.02,4.087,1.3,7.3-2.575,9.957a.525.525,0,0,1-.78-.458c.435-3.492-2.007-7.336-4.833-9.274a5.624,5.624,0,0,0-1.314-.716q-.557,1.011-1.118,2.021c.051.374.94.937,1.238,1.214a9.142,9.142,0,0,1,2.039,2.527c.875,1.646,1.516,3.856.134,5.408a7.858,7.858,0,0,1-2.881,1.642,22.719,22.719,0,0,0-4.748,2.958.532.532,0,0,1-.87-.243c-.813-2.472-4.525-2.437-6.2-4.121-1.492-1.5-1.553-3.8-1.669-5.79-.113-1.921-.116-6.722,1.45-9.267-.607-.675-1.167-.558-1.675.358a10.4,10.4,0,0,0-.985,2.371,15.785,15.785,0,0,0-.538,4.313c-.021,2.414.314,4.821.53,7.221a.527.527,0,0,1-.526.522c-2.853-.2-7.479-2.288-7.98-5.43-.771-4.874,3.042-10.118,5.515-13.912,1.331-2.044,3.982-5.092,4.242-7.61.286-2.764-2.229-3.548-4.089-1.847a9.628,9.628,0,0,0-1.856,2.6,45.992,45.992,0,0,0-5.171,18.856.529.529,0,0,1-.664.5c-2.166-.747-4.212-2.53-6.06-3.88a3.769,3.769,0,0,1-1.907-3.564c.17-1.862,1.288-3.566,2.088-5.2a57.935,57.935,0,0,1,4.553-7.954c.923-1.314,1.9-2.591,2.89-3.851a21.8,21.8,0,0,0,2.545-3.167c.312-.623-.346-3.06-1.08-3.282-.716-.216-1.906.873-2.395,1.322a16.487,16.487,0,0,0-1.83,2.114c-3.757,4.855-6.845,10.717-6.788,16.99a.53.53,0,0,1-.794.448c-2.118-.959-3.082-3.868-3.841-5.888a23.507,23.507,0,0,1-1.434-10.4,21.736,21.736,0,0,1,9.918-16.505,6.2,6.2,0,0,0-2.764.086,4.745,4.745,0,0,0-2.209,1.278,19.468,19.468,0,0,1-2.046,2.343.531.531,0,0,1-.82-.118C8800.737,1100.68,8802.795,1096.072,8803.6,1093.033Zm29.269,15.736a3.812,3.812,0,0,0,.623.5,2.084,2.084,0,0,0,1.862.471,2.663,2.663,0,0,0,.268-.011.519.519,0,0,0,.366-.344c.011-.01.021-.022.03-.033a.491.491,0,0,0,.343-.744,2.46,2.46,0,0,0-1.1-.927c-.04-.038-.074-.081-.116-.118a.522.522,0,0,0-.51-.1,4.333,4.333,0,0,0-1.138-.122.541.541,0,0,0-.509.384,1.788,1.788,0,0,0-.04.251c-.023.019-.048.029-.068.049A.531.531,0,0,0,8832.865,1108.769Zm.353-4.093c.228.012.47.014.715.01a5.613,5.613,0,0,0,2.3.1,1.722,1.722,0,0,0,1.382-1.093.909.909,0,0,0,.324-1.133c-.312-.634-1.241-.856-1.855-1.024a.5.5,0,0,0-.271,0c-1.524-.367-3.52.11-4.28,1.2C8830.622,1104.047,8832.151,1104.619,8833.218,1104.676Zm-4.094-7.309c.057.61.7.927,1.236,1.023a3.769,3.769,0,0,0,1.5-.082,3.409,3.409,0,0,0,1.669-.4,1.289,1.289,0,0,0,.65-.958.486.486,0,0,0,0-.053,1.22,1.22,0,0,0-.9-1.277,4.336,4.336,0,0,0-3.249.47C8829.583,1096.358,8829.069,1096.786,8829.124,1097.367Zm-9.578,5.9a1.109,1.109,0,0,0,.443.722.906.906,0,0,0,.029.091.766.766,0,0,0,.162.173,1.427,1.427,0,0,0,1.691.343,1.066,1.066,0,0,0,.565-.938,1.387,1.387,0,0,0,.114-1.043.648.648,0,0,0-.04-.064,1.077,1.077,0,0,0-.817-.829C8820.827,1101.466,8819.423,1102.249,8819.546,1103.262Z" transform="translate(-8800.108 -1073.981)" fill="#39b04a"/>
          </g>
          <path id="Path_1253" data-name="Path 1253" d="M8904.56,1103.515c4.813,1.7,6.738,7.3,10.257,10.6a.435.435,0,0,1,.231.219.352.352,0,0,0,.035.032.525.525,0,0,1,.184.5,80.257,80.257,0,0,1,2.737,8.815c.24.817.5,1.629.756,2.439.065.066.11.145.177.208a.548.548,0,0,1,.114.694c.774,2.394,1.574,4.778,2.2,7.224a94.733,94.733,0,0,1,2.4,10.531c.508,3.724.08,7.069.807,10.762.13.66-.19,1.331-.319.668-.616-3.123-.911-6.277-1.284-9.434a84.341,84.341,0,0,0-2.385-11.348c-.581-2.238-1.057-4.649-1.763-6.812-.661-2.027-2.258-3.785-2.891-5.775a23.254,23.254,0,0,0-3.933-6.972c-3.581-4.824-7.379-10.557-14.252-7.941-.48.183-.85-.348-.767-.768C8897.535,1103.745,8901.54,1102.45,8904.56,1103.515Z" transform="translate(-8890.319 -1091.933)" fill="#0b7c5c"/>
        </g>
        <g id="Group_642" data-name="Group 642" transform="translate(0 49.125)">
          <path id="Path_1254" data-name="Path 1254" d="M9007.176,1097.433c-.268-1.128-.816-2.384-1.937-2.672a2.283,2.283,0,0,0-2.486,1.4,4.428,4.428,0,0,0-.014,3.037c.3.99.772,1.92,1.083,2.907a9.219,9.219,0,0,1,.329,3.831,17.444,17.444,0,0,1-2.442,1.654,22.4,22.4,0,0,1-4.372,1.789,11.434,11.434,0,0,0,.451-1.772,4.2,4.2,0,0,0-.138-2.3,2,2,0,0,0-1.767-1.3c-1.34.024-2.006,1.619-2.243,2.939a27.309,27.309,0,0,1-.717,3.428c-2.039.32-4.1.5-6.12.631-2.283.146-3.683-.167-4.641-1.055-.912-.844-1.439-2.217-1.945-4.23a57.3,57.3,0,0,1-2.017-10.227,12.689,12.689,0,0,1,1.573-1.5,12.046,12.046,0,0,0,3.184-2.9c.738-1.244.557-3.2-.787-3.734a3.1,3.1,0,0,0-2.746.593c-.177.118-.329.266-.5.393.925-3.612,2.615-7.209,5.792-9.254,4.86-3.113,12.17-.368,13.4,4.817a6.678,6.678,0,0,1,.187,1.981,11.5,11.5,0,0,1,2.377-1.449c2.577-2.319,9.18,2.957,10.174,5.391,1.726,4.188-.244,9.022-3.306,12.758A16.434,16.434,0,0,0,9007.176,1097.433Z" transform="translate(-8978.201 -1077.768)" fill="#39b04a"/>
        </g>
      </g>
      <path id="Path_1255" data-name="Path 1255" d="M8799.414,1334.286l-5.39-35.516h59.752l-5.391,35.516c-.011.063-.019.125-.03.188-1.424,8.922-9.461,15.291-18.5,15.291h-11.918c-9.035,0-17.073-6.369-18.5-15.291C8799.434,1334.412,8799.426,1334.349,8799.414,1334.286Z" transform="translate(-8749.651 -1164.655)" fill="#e5e1e1"/>
      <g id="Group_644" data-name="Group 644" transform="translate(44.374 134.115)">
        <path id="Path_1256" data-name="Path 1256" d="M8872.516,1298.77l5.39,35.516c.01.063.02.125.03.188,1.423,8.922,9.461,15.291,18.5,15.291h-9.179c-9.037,0-17.074-6.369-18.5-15.291-.011-.063-.019-.125-.03-.188l-5.39-35.516Z" transform="translate(-8863.335 -1298.77)" fill="#d4d4d4" opacity="0.78"/>
      </g>
    </g>
    <path id="Path_1999" data-name="Path 1999" d="M1218.446,1576.248h.3a3.213,3.213,0,0,0,3.111-3.372l-4.718-216.547-13.9-1.717,11.852,218.279A3.451,3.451,0,0,0,1218.446,1576.248Z" transform="translate(-942.754 -704.711)" fill="#9ee493"/>
    <path id="Path_2001" data-name="Path 2001" d="M1218.446,1576.248h.3a3.213,3.213,0,0,0,3.111-3.372l-4.718-216.547-13.9-1.717,11.852,218.279A3.451,3.451,0,0,0,1218.446,1576.248Z" transform="translate(-570.97 -704.711)" fill="#9ee493"/>
    <path id="Path_1906" data-name="Path 1906" d="M786.814,1702.1v.632c0,1.009-.273,1.84-.6,1.84H253.916c-.332,0-.6-.831-.6-1.84v-.632c0-1.008.273-1.838.6-1.838H786.209C786.541,1700.265,786.814,1701.1,786.814,1702.1Z" transform="translate(-24.49 -831.879)" fill="#2e3552"/>
    <path id="Rectangle_207" data-name="Rectangle 207" d="M12,0H33A12,12,0,0,1,45,12v0a0,0,0,0,1,0,0H0a0,0,0,0,1,0,0v0A12,12,0,0,1,12,0Z" transform="translate(262 629)" fill="#00385d"/>
    <line id="Line_124" data-name="Line 124" y1="52" transform="translate(284.5 580.371)" fill="none" stroke="#00385d" stroke-width="3"/>
    <line id="Line_125" data-name="Line 125" y1="39.499" x2="19.5" transform="matrix(0.998, -0.07, 0.07, 0.998, 280.692, 545.715)" fill="none" stroke="#00385d" stroke-width="3"/>
    <line id="Line_126" data-name="Line 126" y1="16.723" x2="9" transform="matrix(0.998, -0.07, 0.07, 0.998, 293.602, 540.695)" fill="none" stroke="#52bbe1" stroke-linecap="round" stroke-width="5"/>
    <circle id="Ellipse_113" data-name="Ellipse 113" cx="5" cy="5" r="5" transform="translate(279 577.871)" fill="#52bbe1"/>
    <path id="Path_2002" data-name="Path 2002" d="M2.949,0h13.22L20.2,11.393l-22.271-.1Z" transform="matrix(0.391, -0.921, 0.921, 0.391, 296.62, 558.377)" fill="#00385d"/>
    <path id="Path_2003" data-name="Path 2003" d="M37.183,1.238,60.23.973,93.668,103.442,19.45,109.914Z" transform="translate(292.164 599.176) rotate(-65)" fill="url(#linear-gradient)"/>
    <g transform="matrix(1, 0, 0, 1, 228.82, 422.16)" filter="url(#Rectangle_208)">
      <rect id="Rectangle_208-2" data-name="Rectangle 208" width="46" height="46" rx="7" transform="translate(288.18 116.84)" fill="#9ee493"/>
    </g>
    <g transform="matrix(1, 0, 0, 1, 228.82, 422.16)" filter="url(#Rectangle_210)">
      <rect id="Rectangle_210-2" data-name="Rectangle 210" width="50" height="26" rx="7" transform="translate(171.18 157.84)" fill="#9ee493"/>
    </g>
    <g id="Mask_Group_11" data-name="Mask Group 11" transform="translate(-87 23)" clip-path="url(#clip-path)">
      <path id="padlock" d="M23.563,10.75h-.9V7.167a7.167,7.167,0,0,0-14.333,0V10.75h-.9A2.691,2.691,0,0,0,4.75,13.438V25.979a2.691,2.691,0,0,0,2.688,2.688H23.563a2.691,2.691,0,0,0,2.688-2.688V13.438A2.691,2.691,0,0,0,23.563,10.75ZM10.722,7.167a4.778,4.778,0,0,1,9.556,0V10.75H10.722Zm5.972,12.807v2.721a1.194,1.194,0,1,1-2.389,0V19.974a2.389,2.389,0,1,1,2.389,0Z" transform="translate(611.833 525)" fill="#00385d"/>
    </g>
    <text id="_" data-name="******" transform="translate(410 600)" fill="#00385d" font-size="11" font-family="SegoeUI, Segoe UI" letter-spacing="0.09em"><tspan x="0" y="0">******</tspan></text>
  </g>
</svg>
