<svg xmlns="http://www.w3.org/2000/svg" width="202" height="202" viewBox="0 0 202 202">
  <g id="Group_910" data-name="Group 910" transform="translate(-1026 -1397)">
    <rect id="Rectangle_16" data-name="Rectangle 16" width="202" height="202" rx="12" transform="translate(1026 1397)" fill="#52bbe1" opacity="0.1"/>
    <g id="Group_281" data-name="Group 281" transform="translate(-13.5 -0.342)">
      <rect id="Rectangle_41" data-name="Rectangle 41" width="116" height="116" transform="translate(1082.5 1443.341)" fill="none"/>
      <g id="Group_280" data-name="Group 280" transform="translate(1247.5 731.011)">
        <g id="Group_279" data-name="Group 279" transform="translate(-158 724)">
          <g id="Group_278" data-name="Group 278" transform="translate(0 0)">
            <path id="Path_368" data-name="Path 368" d="M411.534,268.515H357.116a1.525,1.525,0,0,1-1.515-1.532V195.7a1.525,1.525,0,0,1,1.515-1.532h9.5a1.524,1.524,0,1,1,0,3.047h-7.971v68.253h52.886a1.523,1.523,0,1,1,0,3.047Z" transform="translate(-355.601 -185.934)"/>
            <path id="Path_369" data-name="Path 369" d="M371.642,236.036a1.526,1.526,0,0,1-1.532-1.515v-37.3h-7.971a1.524,1.524,0,1,1,0-3.047h9.5a1.525,1.525,0,0,1,1.515,1.532v38.82A1.511,1.511,0,0,1,371.642,236.036Z" transform="translate(-278.157 -185.934)"/>
            <path id="Path_370" data-name="Path 370" d="M381.673,197.216H360.212a1.524,1.524,0,0,1,0-3.047h21.461a1.524,1.524,0,0,1,0,3.047Z" transform="translate(-307.705 -185.934)"/>
            <path id="Path_371" data-name="Path 371" d="M379.762,197.216H358.318a1.524,1.524,0,1,1,0-3.047h21.444a1.524,1.524,0,1,1,0,3.047Z" transform="translate(-337.269 -185.934)"/>
            <path id="Path_372" data-name="Path 372" d="M368.117,206.831h-8.482a1.526,1.526,0,0,1-1.515-1.532v-8.466a1.525,1.525,0,0,1,1.515-1.532h8.482a1.525,1.525,0,0,1,1.515,1.532V205.3A1.525,1.525,0,0,1,368.117,206.831Zm-6.95-3.047h5.419v-5.435h-5.419Z" transform="translate(-316.632 -168.406)" fill="#52bbe1"/>
            <path id="Path_388" data-name="Path 388" d="M368.117,206.831h-8.482a1.526,1.526,0,0,1-1.515-1.532v-8.466a1.525,1.525,0,0,1,1.515-1.532h8.482a1.525,1.525,0,0,1,1.515,1.532V205.3A1.525,1.525,0,0,1,368.117,206.831Zm-6.95-3.047h5.419v-5.435h-5.419Z" transform="translate(-333.448 -168.406)" fill="#52bbe1"/>
            <path id="Path_389" data-name="Path 389" d="M368.117,206.831h-8.482a1.526,1.526,0,0,1-1.515-1.532v-8.466a1.525,1.525,0,0,1,1.515-1.532h8.482a1.525,1.525,0,0,1,1.515,1.532V205.3A1.525,1.525,0,0,1,368.117,206.831Zm-6.95-3.047h5.419v-5.435h-5.419Z" transform="translate(-350.264 -168.406)" fill="#52bbe1"/>
            <path id="Path_373" data-name="Path 373" d="M369.138,206.831h-8.465a1.54,1.54,0,0,1-1.532-1.532v-8.466a1.539,1.539,0,0,1,1.532-1.532h8.465a1.539,1.539,0,0,1,1.532,1.532V205.3A1.539,1.539,0,0,1,369.138,206.831Zm-6.95-3.047h5.436v-5.435h-5.436Z" transform="translate(-300.837 -168.406)" fill="#52bbe1"/>
            <path id="Path_374" data-name="Path 374" d="M370.16,206.831h-8.482a1.526,1.526,0,0,1-1.515-1.532v-8.466a1.525,1.525,0,0,1,1.515-1.532h8.482a1.525,1.525,0,0,1,1.515,1.532V205.3A1.525,1.525,0,0,1,370.16,206.831Zm-6.951-3.047h5.419v-5.435H363.21Z" transform="translate(-285.026 -168.406)" fill="#52bbe1"/>
            <path id="Path_375" data-name="Path 375" d="M366.09,207.86h-8.482a1.526,1.526,0,0,1-1.532-1.515v-8.482a1.54,1.54,0,0,1,1.532-1.532h8.482a1.526,1.526,0,0,1,1.515,1.532v8.482A1.512,1.512,0,0,1,366.09,207.86Zm-6.951-3.047h5.419v-5.419h-5.419Z" transform="translate(-348.253 -152.487)"/>
            <path id="Path_376" data-name="Path 376" d="M367.1,207.86H358.63a1.515,1.515,0,0,1-1.532-1.515v-8.482a1.529,1.529,0,0,1,1.532-1.532H367.1a1.539,1.539,0,0,1,1.532,1.532v8.482A1.525,1.525,0,0,1,367.1,207.86Zm-6.95-3.047h5.435v-5.419h-5.435Z" transform="translate(-332.442 -152.487)"/>
            <path id="Path_377" data-name="Path 377" d="M368.117,207.86h-8.482a1.512,1.512,0,0,1-1.515-1.515v-8.482a1.526,1.526,0,0,1,1.515-1.532h8.482a1.525,1.525,0,0,1,1.515,1.532v8.482A1.511,1.511,0,0,1,368.117,207.86Zm-6.95-3.047h5.419v-5.419h-5.419Z" transform="translate(-316.632 -152.487)"/>
            <path id="Path_378" data-name="Path 378" d="M362.287,207.86h-1.614a1.525,1.525,0,0,1-1.532-1.515v-8.482a1.54,1.54,0,0,1,1.532-1.532h8.465a1.539,1.539,0,0,1,1.532,1.532v3.212a1.523,1.523,0,0,1-3.047,0v-1.68h-5.436v5.419h.1a1.524,1.524,0,1,1,0,3.047Z" transform="translate(-300.837 -152.487)"/>
            <path id="Path_379" data-name="Path 379" d="M370.16,201.354a1.525,1.525,0,0,1-1.532-1.515v-.445H363.21a1.53,1.53,0,0,1-1.531,1.417,1.511,1.511,0,0,1-1.515-1.515v-1.433a1.526,1.526,0,0,1,1.515-1.532h8.482a1.525,1.525,0,0,1,1.515,1.532v1.977A1.511,1.511,0,0,1,370.16,201.354Z" transform="translate(-285.026 -152.487)"/>
            <path id="Path_380" data-name="Path 380" d="M366.09,208.89h-8.482a1.54,1.54,0,0,1-1.532-1.532v-8.482a1.526,1.526,0,0,1,1.532-1.515h8.482a1.512,1.512,0,0,1,1.515,1.515v8.482A1.526,1.526,0,0,1,366.09,208.89Zm-6.951-3.064h5.419v-5.419h-5.419Z" transform="translate(-348.253 -136.553)"/>
            <path id="Path_381" data-name="Path 381" d="M367.1,208.89H358.63a1.529,1.529,0,0,1-1.532-1.532v-8.482a1.515,1.515,0,0,1,1.532-1.515H367.1a1.525,1.525,0,0,1,1.532,1.515v8.482A1.539,1.539,0,0,1,367.1,208.89Zm-6.95-3.064h5.435v-5.419h-5.435Z" transform="translate(-332.442 -136.553)"/>
            <path id="Path_382" data-name="Path 382" d="M368.117,208.89h-8.482a1.526,1.526,0,0,1-1.515-1.532v-8.482a1.512,1.512,0,0,1,1.515-1.515h8.482a1.511,1.511,0,0,1,1.515,1.515v8.482A1.525,1.525,0,0,1,368.117,208.89Zm-6.95-3.064h5.419v-5.419h-5.419Z" transform="translate(-316.632 -136.553)"/>
            <path id="Path_383" data-name="Path 383" d="M367.723,212.956H357.693a1.515,1.515,0,0,1-1.515-1.532V195.2a1.525,1.525,0,0,1,1.515-1.532h10.031a1.526,1.526,0,0,1,1.515,1.532v16.223A1.515,1.515,0,0,1,367.723,212.956Zm-8.5-3.047h6.967V196.716h-6.967Z" transform="translate(-346.675 -193.669)"/>
            <path id="Path_384" data-name="Path 384" d="M369.633,212.956H359.619a1.529,1.529,0,0,1-1.531-1.532V195.2a1.539,1.539,0,0,1,1.531-1.532h10.014a1.54,1.54,0,0,1,1.532,1.532v16.223A1.529,1.529,0,0,1,369.633,212.956Zm-8.482-3.047h6.967V196.716h-6.967Z" transform="translate(-317.126 -193.669)"/>
            <path id="Path_385" data-name="Path 385" d="M371.545,212.956H361.514A1.515,1.515,0,0,1,360,211.424V195.2a1.526,1.526,0,0,1,1.515-1.532h10.031a1.525,1.525,0,0,1,1.515,1.532v16.223A1.515,1.515,0,0,1,371.545,212.956Zm-8.5-3.047h6.967V196.716h-6.967Z" transform="translate(-287.563 -193.669)"/>
          </g>
          <path id="Path_386" data-name="Path 386" d="M381,240.337a21.848,21.848,0,1,1,21.84-21.856A21.885,21.885,0,0,1,381,240.337Zm0-40.649a18.793,18.793,0,1,0,18.793,18.793A18.821,18.821,0,0,0,381,199.689Z" transform="translate(-300.837 -147.676)"/>
          <text id="_5" data-name="5" transform="translate(72.435 80.652)" fill="#52bbe1" font-size="26" font-family="SegoeUI, Segoe UI"><tspan x="0" y="0">5</tspan></text>
        </g>
      </g>
    </g>
  </g>
</svg>
