<svg xmlns="http://www.w3.org/2000/svg" width="663.499" height="525.281" viewBox="0 0 663.499 525.281">
  <g id="Group_646" data-name="Group 646" transform="translate(1.935 0.89)">
    <g id="Group_630" data-name="Group 630" transform="translate(403.535 236.184)">
      <path id="Path_1214" data-name="Path 1214" d="M8383.615,919.151c1.56,5.01,7.033,7.587,12.078,9.027,4.827,1.377,10.362,2.161,14.581-.559,2.831-1.825,4.546-4.913,6.149-7.876q2.556-4.727,5.114-9.455c.789-1.461,5.32-7.607,4.792-9.117-.909-2.6-9.5,6.373-11.327,7.676a56,56,0,0,1-15.082,7.623C8398.481,916.941,8384.031,920.674,8383.615,919.151Z" transform="translate(-8357.239 -900.701)" fill="#f6bd96"/>
      <path id="Path_1215" data-name="Path 1215" d="M8462.6,937.156c-6.026-.589-12.117-3.632-17.874-1.753a9.313,9.313,0,0,1-2.747.72,2.049,2.049,0,0,1-2.133-1.508c-.129-.933.654-1.721,1.392-2.306a33.586,33.586,0,0,1,34.63-3.858C8485.294,932.986,8465.963,937.484,8462.6,937.156Z" transform="translate(-8439.834 -911.952)" fill="#f6bd96"/>
    </g>
    <line id="Line_92" data-name="Line 92" x1="93.967" y1="130.138" transform="translate(0 75.568)" fill="none" stroke="#a6a8ab" stroke-miterlimit="10" stroke-width="4.774"/>
    <line id="Line_93" data-name="Line 93" y1="113.519" x2="45.631" transform="translate(613.718)" fill="none" stroke="#a6a8ab" stroke-miterlimit="10" stroke-width="4.774"/>
    <path id="Path_1216" data-name="Path 1216" d="M8734.51,817.306c-7.863-9.3-17.33-17.274-28.947-20.361-14.529-3.862-29.83.535-44.215,4.9L8546.236,836.81c17.589,4.42,19.719,13.807,37.81,15.082,33.1,2.333,82.421-7.137,114.577-15.325,3.595,14.8,7.275,29.831,14.816,43.069,11.044,19.385,49.66,46.535,62.4,12.424,3.682-9.855-5.993-22.251-10.522-30.837-6.568-12.447-16.271-24.268-24.483-35.745C8738.848,822.7,8736.743,819.95,8734.51,817.306Z" transform="translate(-8392.311 -616.433)" fill="#00385d"/>
    <path id="Path_1217" data-name="Path 1217" d="M8613,870.634A189.15,189.15,0,0,0,8645.476,861a113.028,113.028,0,0,0,14.57-6.805c2.37-1.35,4.705-2.761,7.074-4.114,1.2-.685,2.406-1.355,3.632-1.993a6.431,6.431,0,0,1,1.831-.921c.631-.016.97.883,1.259,1.334,11.062,17.345,15.757,38.388,29.508,54.025,10.363,11.784,23.942,20.544,38.416,26.6-16.743,10.363-43.507-10.258-52.4-25.868-7.542-13.237-11.223-28.264-14.818-43.069-30.21,7.693-75.565,16.512-108.391,15.617C8581.863,874.968,8597.556,873.709,8613,870.634Z" transform="translate(-8368.235 -640.057)" fill="#054977"/>
    <path id="Path_1218" data-name="Path 1218" d="M8728.774,803.712c-17.3-5.665-34.927-11.821-49.023-23.347a62.967,62.967,0,0,1-16.443-21.6,92.191,92.191,0,0,1-5.1-13.166c-.75-2.456-1.316-10.788-4.605-11.2-3.662-.463-7.588,8.11-8.62,10.793a30.876,30.876,0,0,0-1.752,13.893c.864,9.531,5.127,18.653,10.507,26.452,8.8,12.756,25.637,21.025,39.273,28.388,49.323,26.626,101.928,49.74,157.76,54.667,10.139.895,26.736.937,30.686-11.236,4.3-13.247-14.19-14.547-22.676-16.608q-41.95-10.189-83.353-22.475Q8752,811.317,8728.774,803.712Z" transform="translate(-8550.338 -588.522)" fill="#f6bd96"/>
    <path id="Path_1219" data-name="Path 1219" d="M8646.206,841.937c2.386-4.406,5-8.71,7.808-12.872,12.586,8.14,27.107,13.219,41.442,17.912q23.222,7.6,46.65,14.554,41.388,12.276,83.353,22.475c8.485,2.061,26.973,3.361,22.676,16.608-3.949,12.174-20.547,12.13-30.686,11.236-55.832-4.927-108.437-28.041-157.76-54.667-5.274-2.848-11.025-5.836-16.607-9.162C8644.08,845.962,8645.127,843.932,8646.206,841.937Z" transform="translate(-8517.021 -631.787)" fill="#00385d"/>
    <path id="Path_1220" data-name="Path 1220" d="M8385.729,753.635a52.761,52.761,0,0,0-14.2,1.971,75.3,75.3,0,0,0-38.22,25.145c-11.854,14.839-18.9,26.5-29.506,42.255a146.889,146.889,0,0,1-49.059,45.568c-10.04,5.692-21.334,7.76-31.383,12.77-9.948,4.958-10.037,16.4-7.363,27.26,6.381,25.924,27.638,14.36,44.349,6.971a339.786,339.786,0,0,0,57.069-32.349c9.236-6.453,17.963-12.893,27.657-18.677l30.206-18.026c20.36-12.149,37.461-30.459,36.881-55.755C8411.795,774.97,8404.091,753.881,8385.729,753.635Z" transform="translate(-7847.661 -597.321)" fill="#ffd91f"/>
    <g id="Group_631" data-name="Group 631" transform="translate(482.935 77.558)">
      <path id="Path_1221" data-name="Path 1221" d="M8250.265,717.562c1.21-.2,2.419-.451,3.579-.575a12.733,12.733,0,0,0,5.921-2.531,17.246,17.246,0,0,0,6.605-11.619l7.771-60.278-28.18-3.632q-1.526,11.851-3.056,23.7c-.055,3.575-1.18,7.409-1.688,10.955-.472,3.3-.592,6.54-1.06,9.851q-1.629,11.5-3.259,23.009a13.168,13.168,0,0,0-.072,4.947,7.233,7.233,0,0,0,3.5,4.419,15.883,15.883,0,0,0,6.462,2.016A15.557,15.557,0,0,0,8250.265,717.562Z" transform="translate(-8204.57 -622.47)" fill="#e7a579"/>
      <path id="Path_1222" data-name="Path 1222" d="M8256.92,694.984c-35.807,8.949-35.8-71.476.708-81.523,41.425-11.4,42.979,30.343,23.8,59.067C8274.63,682.72,8269.006,691.963,8256.92,694.984Z" transform="translate(-8220.197 -609.955)" fill="#f6bd96"/>
      <path id="Path_1223" data-name="Path 1223" d="M8293.769,647c3.136-7.167,5.847-15.247,3.382-22.672-2.422-7.293-9.491-12.266-16.913-14.259s-15.255-1.495-22.923-.981c-4.232.283-8.272-.155-12.126,1.641a26.84,26.84,0,0,1-13.866,2.585c-2.675-.248-5.539-.879-7.923.361-2.539,1.321-3.658,4.346-4.137,7.167-.54,3.184-.512,6.6.976,9.467,1.733,3.343,5.246,5.476,8.894,6.415,3.868,1,8.432-.188,11.789,2.06,3.01,2.014,5.833,5.8,9.756,5.843,2.4.026,4.1-1.745,6.247-2.024a24.608,24.608,0,0,0,8.2-2.522c3.025-1.473,6.9-2.586,9.537-.49,1.964,1.562,2.429,4.359,2.3,6.864s-.7,5.033-.232,7.5a9.651,9.651,0,0,1,2.909-1.729,3.273,3.273,0,0,1,3.2.551c1.311,1.25.8,3.517-.343,4.924s-2.761,2.378-3.825,3.843c-2.925,4.027-2.153,11.22,3.595,12.031,5.788.817,5-6.686,5.567-10.092C8288.8,657.684,8291.435,652.329,8293.769,647Z" transform="translate(-8218.941 -608.625)" fill="#091a4c"/>
    </g>
    <path id="Path_1224" data-name="Path 1224" d="M8350.356,764.425c-99.655-5.854-196.865-44.3-273.4-108.225,15.837,37.622,34.784,73.692,58.9,106.626,50.207,68.558,126.24,122.646,211.051,127.943,67.6,4.223,127.4-11.434,179.372-54.868,81.266-67.907,108.362-196.888,139.049-275.427C8569.319,729.635,8532.925,775.149,8350.356,764.425Z" transform="translate(-8026.122 -509.067)" fill="#9ee493"/>
    <g id="Group_635" data-name="Group 635" transform="translate(397.289 223.9)">
      <g id="Group_634" data-name="Group 634" transform="translate(0)">
        <g id="Group_632" data-name="Group 632" transform="translate(0 0.363)">
          <path id="Rectangle_121" data-name="Rectangle 121" d="M9.463,0h6.907a9.463,9.463,0,0,1,9.463,9.463V28.252a0,0,0,0,1,0,0H0a0,0,0,0,1,0,0V9.463A9.463,9.463,0,0,1,9.463,0Z" transform="translate(25.565 31.666) rotate(-171.753)" fill="#39b04a"/>
        </g>
        <g id="Group_633" data-name="Group 633" transform="translate(3.148)">
          <path id="Path_1225" data-name="Path 1225" d="M8466.828,878.624l26.622,3.859a.272.272,0,1,0,.077-.538l-26.62-3.859a.272.272,0,1,0-.079.538Z" transform="translate(-8466.596 -878.084)" fill="#39b04a"/>
        </g>
      </g>
      <path id="Path_1226" data-name="Path 1226" d="M8495.665,891.264s-2.118.613-2.935,17.442" transform="translate(-8479.547 -884.106)" fill="none" stroke="#1a5b22" stroke-linecap="round" stroke-miterlimit="10" stroke-width="4"/>
    </g>
    <path id="Path_1227" data-name="Path 1227" d="M8218.916,1042.023a591.189,591.189,0,0,0,70.957-7.781c22.516-3.921,45.482-8.864,66.746-17.408,40.712-16.359,74.641-46.086,104.912-77.14,10.965-11.249,21.325-23.077,31.54-35.027-17.605,33.765-39.327,64.841-67.638,88.5-51.978,43.434-111.77,59.091-179.372,54.868a226.167,226.167,0,0,1-37.613-5.6C8211.938,1042.3,8215.428,1042.2,8218.916,1042.023Z" transform="translate(-7925.27 -666.33)" fill="#76bc6b"/>
    <path id="Path_1228" data-name="Path 1228" d="M8362.273,827.5a27.635,27.635,0,0,0-4.181.492c-14.763,2.885-20.747,13.768-26.087,26.387-5.644,13.335-11.112,26.728-16.1,40.327a67,67,0,0,1-36.688-11.619c-10.606-7.073-26.893-15.01-26.893-15.01s-6.171,13.051-4.791,14.76c6.323,7.841,25.672,21.988,32.936,29,8.824,8.523,22.907,16.163,35.534,13.753,9.318-1.78,20.861-8.411,27.043-15.606,10.214-11.886,20.646-23.876,28.306-37.629,5.685-10.207,16.878-29.982,5.758-40.076C8373.154,828.691,8367.672,827.286,8362.273,827.5Z" transform="translate(-7835.169 -631.063)" fill="#f6bd96"/>
    <path id="Path_1229" data-name="Path 1229" d="M8279.8,837.048a129.611,129.611,0,0,1-10.272,18.437,149.446,149.446,0,0,0-18.479-14.361c-5.52-3.627-11.191-7.168-16.953-10.458-1.592-.908-3.216-1.778-4.871-2.593a175.747,175.747,0,0,0,8.684-20.683c3.787-11.47,8.762-21.111,19.511-28.541,14.7-10.164,33.75-7.921,34.646,11.51a51.034,51.034,0,0,1-1.537,12.97A165.616,165.616,0,0,1,8279.8,837.048Z" transform="translate(-7735.584 -606.124)" fill="#ffd91f"/>
    <path id="Path_1230" data-name="Path 1230" d="M8307.394,780.916a78.572,78.572,0,0,0-16.345,27.354c-2.509,7.092-5.1,14.157-7.521,21.281-.368,1.08-.663,2.167-.937,3.258-.551-.32-1.093-.665-1.646-.981-1.591-.908-3.215-1.778-4.87-2.593a176.069,176.069,0,0,0,8.684-20.683c3.786-11.47,8.763-21.111,19.51-28.542a35.1,35.1,0,0,1,9.235-4.567A44.949,44.949,0,0,0,8307.394,780.916Z" transform="translate(-7782.429 -607.287)" fill="#deba0d"/>
    <g id="Group_645" data-name="Group 645" transform="translate(102.729 262.974)">
      <g id="Group_643" data-name="Group 643" transform="translate(0)">
        <path id="Path_1231" data-name="Path 1231" d="M8930.7,1187.382c-.372-4.6-.214-9.3-.42-13.851-.406-8.991-.868-17.98-1.451-26.961-1.172-18.071-2.5-36.16-4.7-54.139-1.927-15.775-3.093-34.543-12.076-48.208-4.179-6.355-10.633-13.044-17.936-15.683-7.383-2.669-14.645.059-21.1,3.806a.882.882,0,0,1-.89-1.523c8.745-5.08,18.115-7.244,27.176-1.677,9.692,5.957,16.657,15.939,20.038,26.666,4.214,13.368,5.591,27.894,7.151,41.771,1.768,15.723,2.93,31.516,3.981,47.3.561,8.42,1.011,16.846,1.406,25.275.257,5.5-.032,11.373.49,17.028C8931.829,1187.259,8931.27,1187.328,8930.7,1187.382Z" transform="translate(-8827.523 -984.678)" fill="#0a8e6d"/>
        <path id="Path_1232" data-name="Path 1232" d="M8732.81,1181.218c-1.228.156-2.461.247-3.69.367,3.633-15.194,1.973-31.508,2.41-46.974.607-21.5,1.178-43,2.326-64.483.986-18.44,2.375-38.538,9.656-55.9q.671.447,1.374.841c-3.411,8.854-5.242,18.629-6.4,25.668a285.987,285.987,0,0,0-3,31.973c-1.045,20.334-1.594,40.689-2.168,61.04-.43,15.215,1.166,31.317-2.021,46.376,2.141-7.117,2.9-14.833,3.687-21.915,1.36-12.189,3.124-24.077,7.212-35.711,4.229-12.04,10.668-22.769,16.355-34.113,4.1-8.179,8.479-18.151,17.756-21.522,10.945-3.978,22.574,2.044,27.766,11.927.527,1-.994,1.9-1.522.89-3.694-7.031-10.578-12.1-18.7-12.275-7.553-.161-13.256,4.077-17.336,10.085-3.459,5.094-5.779,10.842-8.736,16.221a232.889,232.889,0,0,0-10.7,21.075c-5.952,14.017-8.649,28.376-10.329,43.424C8735.911,1165.678,8735.125,1173.78,8732.81,1181.218Z" transform="translate(-8621.882 -979.362)" fill="#0a8e6d"/>
        <path id="Path_1233" data-name="Path 1233" d="M8894.85,1084.376c11.308-3.822,23.146-1.094,32.211,6.658,9.422,8.057,13.579,20.665,16.45,32.317,3.477,14.106,6.344,28.518,8.73,42.842,2.628,15.765,4.784,31.636,8.506,47.178q-.921.072-1.84.065c-2.591-10.9-4.415-21.978-6.167-33.055-2.16-13.654-4.727-27.153-7.506-40.689-4.543-22.132-10.963-55.368-40.028-55.48-9.113-.036-27.267,6.314-27.631,17.277-.038,1.132-1.8,1.137-1.764,0C8876.122,1092.133,8887.236,1086.949,8894.85,1084.376Z" transform="translate(-8858.118 -1010.63)" fill="#0a8e6d"/>
        <path id="Path_1234" data-name="Path 1234" d="M8931.311,987.366c8.281-3.173,20.038,3.439,21.489,12.4,6-3.47,15.333-4.155,17.943,3.615,4.056,12.069-10.917,19.081-17.478,25.74a1.333,1.333,0,0,1-2.279-1.147,81.235,81.235,0,0,0,1.82-12c.138-1.535-.511-3.4-2.024-3.694a2.782,2.782,0,0,0-2.91,2.1c-.94,3.05.743,7.445.925,10.613.164,2.843.706,6.182-1.833,8.1-1.541,1.164-3.549,1.074-5.39,1.133-5.41.173-8.969-.241-14.156,2.219a1.347,1.347,0,0,1-2.035-1.041c-.757-5-3.9-8.394-5.218-13.019a7.309,7.309,0,0,1,.468-5.877c1.1-1.762,2.665-2.381,4.555-2.9.9-.248,5.137-.193,5.653-.966q-1.043-7.723-6.364-2.974-1.279,2.075-2.626,4.1a1.336,1.336,0,0,1-2.5-.517C8917.642,1003.7,8921.5,991.125,8931.311,987.366Z" transform="translate(-8892.233 -966.72)" fill="#39b04a"/>
        <g id="Group_637" data-name="Group 637" transform="translate(89.513)">
          <g id="Group_636" data-name="Group 636">
            <path id="Path_1235" data-name="Path 1235" d="M8720.148,979.71c3.322-4.483,8.65-6.994,12.2-11.435a.9.9,0,0,0-.18-1.385c-4.239-2.03-7.791.33-10.7,4.2a26.526,26.526,0,0,1,2.867-6.507c5.571-8.978,16.078-14.011,26.428-14.493,7.635-.355,18.054.72,22.491,7.7,6.213-6.536,17.907-7.249,25.859-4.092,10.691,4.244,17.345,15.156,18.473,26.308a37.912,37.912,0,0,1-.194,9.513c-1.647-2.126-3.443-4.109-5-5.831-2.231-2.464-7.793-9.213-11.91-7.564-5.479,2.193,1.189,8.984,3.154,10.912,2.917,2.861,6.436,5.366,8.5,8.948a43.169,43.169,0,0,1,1.957,3.865,47.164,47.164,0,0,1-7.168,10.241c-.749.835-1.519,1.651-2.277,2.474a41.662,41.662,0,0,0-2.642-11.075c-1.227-3.4-4.174-11.579-9.074-10.9-7.165.99-1.893,10.9,0,13.957,1.983,3.2,5.081,6.58,5.658,10.383.644,4.243-1.847,8.73-4.594,11.752-3.342,3.676-7.653,6.311-11.4,9.57s-7.092,7.521-7.4,12.48c-1.808-4.521-5.811-7.762-9.856-10.472s-8.383-5.177-11.486-8.928c-6.019-7.273-2.752-14.358,1.435-21.386,1.771-2.972,3.787-9.627-1.738-10.2-5.289-.545-8.967,6.555-10.185,10.591a31.01,31.01,0,0,0-.832,12.466,72.739,72.739,0,0,1-11.509-10.47,26.064,26.064,0,0,1,1.472-9.307c1.572-4.155,4.688-7.025,7.189-10.575,2.069-2.937,4.806-10.085-1.146-10.693-5.186-.529-10.674,6.024-13,9.937a30.158,30.158,0,0,0-2.806,6.319c-.058-.173-.136-.33-.192-.5A48.1,48.1,0,0,1,8720.148,979.71Zm69.888-.446a2.285,2.285,0,0,0,2.926,1.955.9.9,0,0,0,.647-.85,2.577,2.577,0,0,0-.118-.63.761.761,0,0,0-.135-1.018,2.7,2.7,0,0,0-2.7-.541A.9.9,0,0,0,8790.036,979.263Zm-2.046-5.416a.931.931,0,0,0,.851-1.044,1.58,1.58,0,0,0-.584-1.55,2.649,2.649,0,0,0-3.317-.759.893.893,0,0,0-.4,1A3.343,3.343,0,0,0,8787.99,973.847Zm-4.967,5.573c.879.564,2.28,1.075,3.155.229.971-.94.488-2.38-.336-3.21a9.933,9.933,0,0,0-3.1-1.9.925.925,0,0,0-1.127.308.8.8,0,0,0-.5.556A3.76,3.76,0,0,0,8783.023,979.42Zm-25.9-3.844c1.673-.107,4.053-1.239,4.208-3.142a2.523,2.523,0,0,0-1.944-2.676.689.689,0,0,0-.644-.214c-.1.014-.212.041-.32.061a3.822,3.822,0,0,0-1.261.138.81.81,0,0,0-.553.51,4.966,4.966,0,0,0-2.153,2.032C8753.532,974.127,8755.344,975.69,8757.124,975.576Zm-3.6-11.4c1.961,1.587,5.706,2.081,8.164,1.87,2.412-.207,5.573-2.083,2.834-4.44-2.374-2.043-7.243-3.3-10.092-1.7a.8.8,0,0,0-.352.4,2.471,2.471,0,0,0-1.2.878A2.173,2.173,0,0,0,8753.523,964.172Z" transform="translate(-8720.134 -950.03)" fill="#39b04a"/>
          </g>
          <path id="Path_1236" data-name="Path 1236" d="M8743.217,975.094a16.429,16.429,0,0,1,12.142-12.065c5.136-1.275,11.454-1.4,16.178,1.34a.75.75,0,0,1,.9.206,18.453,18.453,0,0,1,4.217,6.436c.233.681-.472,1.208-1.085,1.085-2.978-.6-5.633-2.328-8.62-3.074-3.54-.885-7.4-1.528-10.963-.446a14.192,14.192,0,0,0-8.337,7.215,38.108,38.108,0,0,0-3.01,7.645c-.384,1.323-.72,2.659-1.034,4a17.053,17.053,0,0,0-.22,3.618c-.139,5.829-.028,11.66.111,17.488.206,8.637.436,17.279.012,25.914-.056,1.13-1,3.211-.94,2.075.56-11.41-.3-22.785-.717-34.184C8741.525,993.5,8740.786,983.73,8743.217,975.094Z" transform="translate(-8690.633 -955.571)" fill="#00b580"/>
        </g>
        <g id="Group_639" data-name="Group 639" transform="translate(145.814 79.871)">
          <g id="Group_638" data-name="Group 638">
            <path id="Path_1237" data-name="Path 1237" d="M8663.406,1118.311a26.312,26.312,0,0,1,9.826-11.444c4.269-2.853,9.385-4.6,14.563-3.92,4.546.594,6.552,3.3,9.84,5.639.242-7.431,6.229-11.689,13.512-11.483a18.506,18.506,0,0,1,2.747.292,16.341,16.341,0,0,0-5.384,13.157.894.894,0,0,0,1.5.623c3.947-3.286,6.183-8.219,10.26-11.328a22.57,22.57,0,0,1,5.02,4.255c-5.35,2.327-10.163,7.493-9.681,12.414a.894.894,0,0,0,1.117.85,18.521,18.521,0,0,0,5.238-3.042,14.036,14.036,0,0,1,8.151-2.9,54.533,54.533,0,0,1,4.216,10.741c-7.795-2.8-16.72-3.851-20.956,3.692a.9.9,0,0,0,.316,1.207c5.439,3.92,12.536-2.044,17.976,2.13a12.163,12.163,0,0,1,3.427,4.434,21.648,21.648,0,0,1-.644,2.845,28.782,28.782,0,0,1-3.537,7.317c-4.431-3.717-11.1-9.028-15.164-5.425a.89.89,0,0,0,0,1.247c3.188,3.161,7.258,5.387,9.663,9.285.254.412.491.845.719,1.286a24.657,24.657,0,0,0-3.956,6.5c-.937,2.538-.84,5.223-2.02,7.691a.9.9,0,0,1-1.206.317c-5.037-2.2-10.4-3.2-15.775-4.151-.161-3.228,1.343-6.048,2.737-9.584.687-1.74,1.247-3.739.445-5.546a4.557,4.557,0,0,0-7.688-1.339c-3.281,3.631-3.582,9.736-2.072,15.252a53.668,53.668,0,0,1-10.895-3.25c-.408-.179-.8-.381-1.2-.579a13.93,13.93,0,0,1,.682-3.191c.6-1.7,1.615-3.179,2.33-4.828a8.481,8.481,0,0,0,.238-7.3c-1.451-3.082-4.722-5.266-7.664-2.581-3.554,3.243-3.286,8.448-1.849,13.71a48.9,48.9,0,0,1-9.664-11.806,22.393,22.393,0,0,1,7.706-13.819c2.115-1.662,5.859-3.331,6.768-6.094,1.669-5.082-6.558-5.282-9.293-3.143-4.81,3.761-5.964,11.745-6.792,17.335-.117.787-.206,1.584-.308,2.377-.676-1.243-1.317-2.491-1.926-3.73C8662.5,1127.857,8661.411,1123.15,8663.406,1118.311Zm47.064-1.3.374-.747c.506-1.013-1.015-1.906-1.522-.89l-.374.747C8708.441,1117.132,8709.963,1118.025,8710.471,1117.009Zm-6.918-.686c1.731.36,2.978-2.93,1.687-3.959a1.7,1.7,0,0,0-1.575-.211c-.6.2-1.5.756-1.5,1.486C8702.165,1114.625,8702.382,1116.078,8703.553,1116.323Zm-4.161,20.651a1.677,1.677,0,0,0,1.586-1.415c.109-.807-.87-2.425-1.807-1.811-.632.414-1.5.928-1.514,1.787A1.452,1.452,0,0,0,8699.392,1136.974Zm-13.374-5.7c.237.961,2.382,1.131,3,.492a4.018,4.018,0,0,0,.021-5.624.892.892,0,0,0-1.07-.138A4.626,4.626,0,0,0,8686.018,1131.274Z" transform="translate(-8662.36 -1097.095)" fill="#39b04a"/>
          </g>
          <path id="Path_1238" data-name="Path 1238" d="M8766.1,1122.864c2.97-2.189,5.914-3.869,9.7-3.785a.882.882,0,0,1,0,1.763c-3.48-.077-6.106,1.549-8.814,3.545C8766.073,1125.061,8765.19,1123.531,8766.1,1122.864Z" transform="translate(-8760.045 -1107.138)" fill="#00b580"/>
          <path id="Path_1239" data-name="Path 1239" d="M8784.389,1133.1a3.4,3.4,0,0,0,.633-.786.883.883,0,0,1,1.523.89,5.052,5.052,0,0,1-.91,1.143C8784.809,1135.123,8783.559,1133.878,8784.389,1133.1Z" transform="translate(-8780.058 -1112.993)" fill="#00b580"/>
          <path id="Path_1240" data-name="Path 1240" d="M8768.8,1156.287a3.779,3.779,0,0,1,.747-.536,11.236,11.236,0,0,1,1.7-1.245c.651-.317,1.141.356,1.133,1.031a1.762,1.762,0,0,1-.588,1.232,3.062,3.062,0,0,1-1.227.657,2.155,2.155,0,0,1-1.07.091,1.032,1.032,0,0,1-.786-.67A.586.586,0,0,1,8768.8,1156.287Z" transform="translate(-8757.375 -1123.289)" fill="#00b580"/>
          <path id="Path_1241" data-name="Path 1241" d="M8778.441,1168.314v2.508c0,1.5-1.793.623-2.193-.136a2.762,2.762,0,0,1-.275-1.083,2.383,2.383,0,0,1,.211-1.328C8776.607,1167.5,8778.441,1166.975,8778.441,1168.314Z" transform="translate(-8767.397 -1129.259)" fill="#00b580"/>
          <path id="Path_1242" data-name="Path 1242" d="M8765.508,1164.595a2.516,2.516,0,0,1,1.595-.611.681.681,0,0,1,.617.566.933.933,0,0,1-.388.686,5.688,5.688,0,0,1-1.406.934c-.24.111-.565.188-.733-.015a.643.643,0,0,1-.1-.417,2,2,0,0,1,.091-.734A1.1,1.1,0,0,1,8765.508,1164.595Z" transform="translate(-8750.777 -1127.653)" fill="#00b580"/>
          <path id="Path_1243" data-name="Path 1243" d="M8740.992,1180.494c.362-1.069,2.066-.61,1.7.469-.287.852,0,1.822-.5,2.611a.936.936,0,0,1-.891.472c-.7-.116-.51-.847-.518-1.334A6.342,6.342,0,0,1,8740.992,1180.494Z" transform="translate(-8712.584 -1134.922)" fill="#00b580"/>
          <path id="Path_1244" data-name="Path 1244" d="M8696.841,1179.858c.918.193,2.82,1.118,2.952,2.209a.263.263,0,0,1-.173.295.378.378,0,0,1-.17-.014l-1.6-.379c-.544-.13-1.789-.341-2.071-.908C8695.461,1180.416,8696.234,1179.73,8696.841,1179.858Z" transform="translate(-8645.168 -1134.902)" fill="#00b580"/>
          <path id="Path_1245" data-name="Path 1245" d="M8699.784,1186.317a1.121,1.121,0,0,1,1.665.259,5.758,5.758,0,0,1,.758,3.16.672.672,0,0,1-1.055.508,2.233,2.233,0,0,1-.485-.412l-.8-.823a2.66,2.66,0,0,1-.756-1.106,1.318,1.318,0,0,1,1.647-1.6,1.394,1.394,0,0,0-1.121.146" transform="translate(-8649.442 -1137.744)" fill="#00b580"/>
          <path id="Path_1246" data-name="Path 1246" d="M8693.827,1200.031a4.679,4.679,0,0,1,.226,2.164c-.135,1.113-1.9,1.126-1.764,0a3.579,3.579,0,0,0-.162-1.694C8691.745,1199.428,8693.449,1198.967,8693.827,1200.031Z" transform="translate(-8637.487 -1143.851)" fill="#00b580"/>
          <path id="Path_1247" data-name="Path 1247" d="M8702.638,1205.384a.882.882,0,0,1,0,1.763A.882.882,0,0,1,8702.638,1205.384Z" transform="translate(-8652.163 -1146.572)" fill="#00b580"/>
          <path id="Path_1248" data-name="Path 1248" d="M8740.994,1194.374a.882.882,0,0,1,0,1.763A.882.882,0,0,1,8740.994,1194.374Z" transform="translate(-8711.351 -1141.542)" fill="#00b580"/>
          <path id="Path_1249" data-name="Path 1249" d="M8743.977,1198.4a.92.92,0,0,1,.712-.758l.156-.036c1.3-.306,1.247,1.7,1.024,2.451-.1.34-.314.7-.665.75a.906.906,0,0,1-.776-.442A2.8,2.8,0,0,1,8743.977,1198.4Z" transform="translate(-8717.558 -1143.002)" fill="#00b580"/>
          <path id="Path_1250" data-name="Path 1250" d="M8773.712,1179.4l-.033,0c.243-1.108,1.943-.639,1.7.469a1.6,1.6,0,0,1-.419.774C8774.221,1181.514,8772.979,1180.262,8773.712,1179.4Z" transform="translate(-8763.017 -1134.414)" fill="#00b580"/>
          <path id="Path_1251" data-name="Path 1251" d="M8792.91,1143.682l.193-.193a.882.882,0,0,1,1.247,1.247l-.193.193A.882.882,0,0,1,8792.91,1143.682Z" transform="translate(-8792.63 -1118.174)" fill="#00b580"/>
        </g>
        <g id="Group_641" data-name="Group 641" transform="translate(42.951 67.318)">
          <g id="Group_640" data-name="Group 640">
            <path id="Path_1252" data-name="Path 1252" d="M8805.036,1100.887c1.121-4.244,2.194-9.674,6.107-12.341,3.767-2.568,8.774-1.049,12.291,1.258a17.572,17.572,0,0,1,4.885,4.751c1.818,2.674,2.671,5.9,5.472,7.682,4.516-4.63.976-12.755,3.331-18.354,2.14-5.082,7.825-6.9,12.719-8.239,10.109-2.766,26.764-3.287,32.056,8.179.175.38.055,1.012-.456,1.079-6.9.906-16.754-2.956-22.4,2.726-.768.772-2.88,3.19-2.815,4.381.137,2.541,2.966,1.321,4.285.875a77.137,77.137,0,0,1,7.883-2.626c6.6-1.488,14.489-1.833,20.262,2.289,4.938,3.526,6.767,9.425,7.33,15.209.062.627-.667.835-1.121.633-4.7-2.1-9.168-4.813-14.281-5.787a28.941,28.941,0,0,0-13.686.74c-1.119.326-5.781,1.231-4.4,3.152.468.653,3.464.266,4.205.224,3.605-.2,7.183-.462,10.8-.345,6.818.22,15.912,1.269,20.213,7.337,3.692,5.209,2.825,12.267,3.188,18.284a.746.746,0,0,1-1.12.633c-4.063-2.3-7.371-5.646-11.381-8.012a44.37,44.37,0,0,0-14.883-5.08c-2.212-.394-8.7-2.493-10.587-1.094-2.215,1.647,1.859,3.054,2.893,3.474,1.9.77,3.853,1.4,5.789,2.059,7.491,2.549,15.688,5.139,21.146,11.223,4.22,4.7,3.668,11.526,1.607,17.117a.75.75,0,0,1-1.094.436c-9.027-5.756-17.392-12.458-26.207-18.519a21.58,21.58,0,0,0-5.582-3.161q-2.083-1.211-2.478,1.3-1.888,1.6.078,2.917a14.117,14.117,0,0,0,2.25,1.947,65.737,65.737,0,0,0,8.824,4.97c5.473,2.812,11.81,5.965,14.614,11.792,3.5,7.269-1.379,13.713-5.887,19.171a.742.742,0,0,1-1.047-.016c-1.7-2.139-2.4-4.719-3.283-7.262a25.278,25.278,0,0,0-7.405-10.82,55.768,55.768,0,0,0-8.357-5.8c-1.194-.7-5.41-3.482-5.832-.5-.171,1.2,1.89,3.376,2.581,4.15,4.349,4.864,10.506,7.813,14.427,13.122,4.265,5.772,1.842,10.3-3.636,14.061a.743.743,0,0,1-1.1-.646c.615-4.932-2.834-10.36-6.824-13.1a7.97,7.97,0,0,0-1.854-1.011q-.788,1.427-1.581,2.854c.072.528,1.329,1.323,1.75,1.714a12.947,12.947,0,0,1,2.88,3.569c1.234,2.324,2.138,5.446.188,7.638-1.047,1.177-2.676,1.712-4.069,2.319a32,32,0,0,0-6.7,4.177.753.753,0,0,1-1.231-.343c-1.148-3.491-6.39-3.442-8.75-5.819-2.1-2.12-2.191-5.368-2.355-8.177-.16-2.713-.165-9.493,2.049-13.087-.857-.953-1.646-.788-2.366.506a14.7,14.7,0,0,0-1.391,3.348,22.207,22.207,0,0,0-.76,6.091c-.03,3.409.443,6.808.746,10.2a.743.743,0,0,1-.741.738c-4.029-.282-10.563-3.231-11.269-7.669-1.09-6.883,4.294-14.289,7.786-19.647,1.88-2.886,5.623-7.191,5.991-10.747.4-3.9-3.148-5.011-5.775-2.608a13.549,13.549,0,0,0-2.62,3.676,64.927,64.927,0,0,0-7.3,26.629.747.747,0,0,1-.938.711c-3.059-1.054-5.947-3.572-8.558-5.479-1.769-1.291-2.9-2.745-2.692-5.033.241-2.63,1.817-5.036,2.948-7.349a81.694,81.694,0,0,1,6.43-11.232c1.3-1.856,2.679-3.659,4.081-5.439,1.1-1.4,2.8-2.887,3.594-4.472.438-.88-.487-4.322-1.527-4.635-1.01-.3-2.691,1.233-3.38,1.866a23.326,23.326,0,0,0-2.587,2.985c-5.3,6.856-9.664,15.134-9.583,23.993a.75.75,0,0,1-1.121.633c-2.993-1.355-4.354-5.462-5.425-8.315a33.211,33.211,0,0,1-2.026-14.692c.875-9.978,5.926-17.777,14.009-23.309a8.773,8.773,0,0,0-3.9.121,6.7,6.7,0,0,0-3.119,1.805c-1.06,1.1-1.655,2.367-2.889,3.309a.751.751,0,0,1-1.159-.167C8801,1111.687,8803.9,1105.179,8805.036,1100.887Zm41.333,22.222a5.4,5.4,0,0,0,.879.711,2.943,2.943,0,0,0,2.63.665c.127-.01.249.007.379-.016a.731.731,0,0,0,.516-.485c.017-.015.03-.031.045-.047a.694.694,0,0,0,.484-1.051,3.473,3.473,0,0,0-1.553-1.309c-.058-.054-.105-.115-.165-.167a.736.736,0,0,0-.72-.142,6.1,6.1,0,0,0-1.607-.172.76.76,0,0,0-.716.542,2.194,2.194,0,0,0-.058.355c-.031.027-.067.04-.1.07A.75.75,0,0,0,8846.369,1123.109Zm.5-5.78c.32.017.662.02,1.01.015a7.92,7.92,0,0,0,3.242.147,2.43,2.43,0,0,0,1.951-1.543,1.284,1.284,0,0,0,.458-1.6c-.44-.9-1.754-1.209-2.619-1.446a.705.705,0,0,0-.383,0c-2.153-.518-4.971.156-6.046,1.7C8843.2,1116.441,8845.36,1117.249,8846.866,1117.329Zm-5.781-10.322c.081.861.988,1.309,1.748,1.445a5.328,5.328,0,0,0,2.121-.116,4.814,4.814,0,0,0,2.355-.563,1.821,1.821,0,0,0,.918-1.353c0-.026,0-.05,0-.075a1.724,1.724,0,0,0-1.27-1.8,6.126,6.126,0,0,0-4.589.664C8841.733,1105.582,8841.008,1106.187,8841.085,1107.007Zm-13.525,8.325a1.562,1.562,0,0,0,.626,1.02,1.347,1.347,0,0,0,.04.129,1.167,1.167,0,0,0,.229.244,2.018,2.018,0,0,0,2.39.484,1.507,1.507,0,0,0,.8-1.325,1.972,1.972,0,0,0,.163-1.473c-.015-.036-.042-.058-.059-.091a1.523,1.523,0,0,0-1.154-1.17C8829.368,1112.8,8827.386,1113.9,8827.56,1115.332Z" transform="translate(-8800.108 -1073.981)" fill="#39b04a"/>
          </g>
          <path id="Path_1253" data-name="Path 1253" d="M8907.738,1103.664c6.795,2.4,9.516,10.311,14.484,14.968a.616.616,0,0,1,.326.309c.017.015.031.031.048.046a.732.732,0,0,1,.26.712c1.71,4.022,2.63,8.264,3.867,12.449.34,1.155.7,2.3,1.068,3.445.089.093.156.2.249.293a.774.774,0,0,1,.16.98c1.1,3.38,2.223,6.748,3.1,10.2a133.652,133.652,0,0,1,3.39,14.873c.719,5.258.115,9.983,1.14,15.2.183.932-.269,1.879-.452.944-.868-4.411-1.286-8.865-1.813-13.323a118.775,118.775,0,0,0-3.366-16.026c-.822-3.16-1.491-6.565-2.489-9.62-.935-2.863-3.189-5.346-4.084-8.156-1.216-3.819-3.193-6.662-5.554-9.845-5.056-6.813-10.421-14.909-20.124-11.214-.68.259-1.2-.491-1.084-1.085C8897.817,1103.99,8903.472,1102.161,8907.738,1103.664Z" transform="translate(-8887.626 -1087.309)" fill="#0b7c5c"/>
        </g>
        <g id="Group_642" data-name="Group 642" transform="translate(0 69.375)">
          <path id="Path_1254" data-name="Path 1254" d="M9019.12,1105.539c-.377-1.592-1.151-3.367-2.736-3.773a3.224,3.224,0,0,0-3.512,1.974,6.243,6.243,0,0,0-.017,4.289c.42,1.4,1.09,2.711,1.527,4.105a13.023,13.023,0,0,1,.467,5.41,24.906,24.906,0,0,1-3.452,2.335,31.6,31.6,0,0,1-6.173,2.526,15.883,15.883,0,0,0,.638-2.5,5.957,5.957,0,0,0-.194-3.247,2.826,2.826,0,0,0-2.5-1.841c-1.893.034-2.832,2.287-3.167,4.15a38.564,38.564,0,0,1-1.014,4.841c-2.878.453-5.79.709-8.64.891-3.227.207-5.2-.235-6.558-1.49-1.285-1.192-2.032-3.131-2.745-5.973-1.224-4.84-2.533-9.582-2.848-14.443a17.9,17.9,0,0,1,2.222-2.116c1.6-1.272,3.454-2.346,4.5-4.1s.786-4.515-1.111-5.272a4.378,4.378,0,0,0-3.876.837c-.252.166-.468.375-.707.556,1.306-5.1,3.692-10.181,8.181-13.069,6.863-4.4,17.186-.519,18.922,6.8a9.451,9.451,0,0,1,.263,2.8,16.2,16.2,0,0,1,3.359-2.046c3.636-3.275,12.962,4.177,14.365,7.613,2.438,5.914-.344,12.74-4.667,18.017A23.259,23.259,0,0,0,9019.12,1105.539Z" transform="translate(-8978.201 -1077.768)" fill="#39b04a"/>
        </g>
      </g>
      <path id="Path_1255" data-name="Path 1255" d="M8801.637,1348.927l-7.612-50.157h84.382l-7.612,50.157c-.015.089-.027.177-.042.266-2.011,12.6-13.361,21.594-26.12,21.594H8827.8c-12.76,0-24.11-8.994-26.121-21.594C8801.664,1349.1,8801.651,1349.015,8801.637,1348.927Z" transform="translate(-8731.359 -1109.37)" fill="#e5e1e1"/>
      <g id="Group_644" data-name="Group 644" transform="translate(62.665 189.4)">
        <path id="Path_1256" data-name="Path 1256" d="M8876.3,1298.77l7.612,50.157c.014.089.027.177.043.266,2.01,12.6,13.36,21.594,26.12,21.594h-12.965c-12.76,0-24.109-8.995-26.12-21.594-.015-.089-.027-.177-.042-.266l-7.612-50.157Z" transform="translate(-8863.335 -1298.77)" fill="#d4d4d4" opacity="0.78"/>
      </g>
    </g>
    <path id="Path_1257" data-name="Path 1257" d="M8332.183,696.953a22.892,22.892,0,0,1-1.427,13.247c-.435,1.014-.951,2.143-.558,3.173.455,1.187,1.871,1.632,3.108,1.927" transform="translate(-7831.551 -571.425)" fill="none" stroke="#e7a579" stroke-linecap="round" stroke-miterlimit="10" stroke-width="1.651"/>
    <path id="Path_1258" data-name="Path 1258" d="M8312.213,705.157a5.059,5.059,0,0,1-6.061-.03" transform="translate(-7797.475 -575.159)" fill="none" stroke="#39395c" stroke-linecap="round" stroke-miterlimit="10" stroke-width="1.651"/>
    <path id="Path_1259" data-name="Path 1259" d="M8340.481,703.242a3.227,3.227,0,0,1-3.179-.182" transform="translate(-7842.66 -574.215)" fill="none" stroke="#39395c" stroke-linecap="round" stroke-miterlimit="10" stroke-width="1.651"/>
    <path id="Path_1260" data-name="Path 1260" d="M8312.15,694.423c-2.383-1.177-6.062-1.242-8.309.328" transform="translate(-7796.157 -569.872)" fill="none" stroke="#39395c" stroke-linecap="round" stroke-miterlimit="10" stroke-width="1.651"/>
    <path id="Path_1261" data-name="Path 1261" d="M8340.592,694.754a7.221,7.221,0,0,0-4.582-1.2" transform="translate(-7842.069 -569.859)" fill="none" stroke="#39395c" stroke-linecap="round" stroke-miterlimit="10" stroke-width="1.651"/>
    <path id="Path_1262" data-name="Path 1262" d="M8485.691,901.427c-.6,1.586-1.985,3.12-1.773,4.6.216,1.5,1.146,2.932,1.165,4.33.021,1.675,1.738,2.7,3.172,3.241,3.667,1.377,8.274-1.859,10.29-7.227s.68-10.838-2.987-12.215a6.042,6.042,0,0,0-4.116-.317,11.243,11.243,0,0,0-4.24,3.035C8486.205,898.044,8486.307,899.79,8485.691,901.427Z" transform="translate(-8081.278 -661.271)" fill="#f6bd96"/>
  </g>
</svg>
