<svg xmlns="http://www.w3.org/2000/svg" width="202" height="202" viewBox="0 0 202 202">
  <g id="Group_912" data-name="Group 912" transform="translate(-997 -1733)">
    <rect id="Rectangle_14" data-name="Rectangle 14" width="202" height="202" rx="12" transform="translate(997 1733)" fill="#52bbe1" opacity="0.1"/>
    <g id="Group_178" data-name="Group 178" transform="translate(811.996 383)">
      <rect id="Rectangle_19" data-name="Rectangle 19" width="116" height="116" transform="translate(228.003 1393)" fill="none"/>
      <g id="Group_175" data-name="Group 175" transform="translate(229 1403)">
        <g id="Group_173" data-name="Group 173" transform="translate(0 6.799)">
          <path id="Path_152" data-name="Path 152" d="M95.451,222.554H-14.919a1.814,1.814,0,0,1-1.818-1.818V135.172a1.814,1.814,0,0,1,1.818-1.819H95.451a1.814,1.814,0,0,1,1.818,1.819v85.564A1.814,1.814,0,0,1,95.451,222.554ZM-13.08,218.9H93.613V137.01H-13.08Z" transform="translate(16.737 -133.353)" fill="#00385d"/>
          <path id="Path_153" data-name="Path 153" d="M-2.22,148.322H-12.4a1.831,1.831,0,0,1-1.818-1.838V136.3a1.814,1.814,0,0,1,1.818-1.819H-2.22A1.814,1.814,0,0,1-.4,136.3v10.179A1.831,1.831,0,0,1-2.22,148.322Zm-8.341-3.676h6.5v-6.5h-6.5Z" transform="translate(64.007 -112.092)" fill="#00385d"/>
          <path id="Path_184" data-name="Path 184" d="M-2.22,148.322H-12.4a1.831,1.831,0,0,1-1.818-1.838V136.3a1.814,1.814,0,0,1,1.818-1.819H-2.22A1.814,1.814,0,0,1-.4,136.3v10.179A1.831,1.831,0,0,1-2.22,148.322Zm-8.341-3.676h6.5v-6.5h-6.5Z" transform="translate(64.007 -112.112)" fill="#00385d"/>
          <path id="Path_183" data-name="Path 183" d="M-2.22,148.322H-12.4a1.831,1.831,0,0,1-1.818-1.838V136.3a1.814,1.814,0,0,1,1.818-1.819H-2.22A1.814,1.814,0,0,1-.4,136.3v10.179A1.831,1.831,0,0,1-2.22,148.322Zm-8.341-3.676h6.5v-6.5h-6.5Z" transform="translate(43.826 -112.092)" fill="#52bbe1"/>
          <path id="Path_185" data-name="Path 185" d="M-2.22,148.322H-12.4a1.831,1.831,0,0,1-1.818-1.838V136.3a1.814,1.814,0,0,1,1.818-1.819H-2.22A1.814,1.814,0,0,1-.4,136.3v10.179A1.831,1.831,0,0,1-2.22,148.322Zm-8.341-3.676h6.5v-6.5h-6.5Z" transform="translate(23.646 -112.092)" fill="#00385d"/>
          <path id="Path_154" data-name="Path 154" d="M-1.2,148.322H-11.359a1.848,1.848,0,0,1-1.838-1.838V136.3a1.831,1.831,0,0,1,1.838-1.819H-1.2A1.831,1.831,0,0,1,.639,136.3v10.179A1.848,1.848,0,0,1-1.2,148.322Zm-8.341-3.676h6.523v-6.5H-9.54Z" transform="translate(83.166 -112.092)" fill="#00385d"/>
          <path id="Path_155" data-name="Path 155" d="M-.177,148.322H-10.357a1.831,1.831,0,0,1-1.818-1.838V136.3a1.814,1.814,0,0,1,1.818-1.819H-.177A1.814,1.814,0,0,1,1.641,136.3v10.179A1.831,1.831,0,0,1-.177,148.322Zm-8.341-3.676h6.5v-6.5h-6.5Z" transform="translate(102.344 -112.092)" fill="#00385d"/>
          <path id="Path_156" data-name="Path 156" d="M-4.245,149.351H-14.424a1.835,1.835,0,0,1-1.838-1.838V137.353a1.848,1.848,0,0,1,1.838-1.838H-4.245a1.831,1.831,0,0,1,1.818,1.838v10.159A1.818,1.818,0,0,1-4.245,149.351Zm-8.341-3.657h6.5v-6.523h-6.5Z" transform="translate(25.651 -92.782)" fill="#00385d"/>
          <path id="Path_157" data-name="Path 157" d="M-3.242,149.351H-13.4a1.822,1.822,0,0,1-1.838-1.838V137.353a1.835,1.835,0,0,1,1.838-1.838H-3.242A1.848,1.848,0,0,1-1.4,137.353v10.159A1.835,1.835,0,0,1-3.242,149.351Zm-8.341-3.657h6.523v-6.523h-6.523Z" transform="translate(44.829 -92.782)" fill="#00385d"/>
          <path id="Path_158" data-name="Path 158" d="M-2.22,149.351H-12.4a1.818,1.818,0,0,1-1.818-1.838V137.353a1.831,1.831,0,0,1,1.818-1.838H-2.22A1.831,1.831,0,0,1-.4,137.353v10.159A1.818,1.818,0,0,1-2.22,149.351Zm-8.341-3.657h6.5v-6.523h-6.5Z" transform="translate(64.007 -92.782)" fill="#52bbe1"/>
          <path id="Path_159" data-name="Path 159" d="M-1.2,149.351H-11.359a1.835,1.835,0,0,1-1.838-1.838V137.353a1.848,1.848,0,0,1,1.838-1.838H-1.2a1.848,1.848,0,0,1,1.838,1.838v10.159A1.835,1.835,0,0,1-1.2,149.351Zm-8.341-3.657h6.523v-6.523H-9.54Z" transform="translate(83.166 -92.782)" fill="#00385d"/>
          <path id="Path_160" data-name="Path 160" d="M-.177,149.351H-10.357a1.818,1.818,0,0,1-1.818-1.838V137.353a1.831,1.831,0,0,1,1.818-1.838H-.177a1.831,1.831,0,0,1,1.818,1.838v10.159A1.818,1.818,0,0,1-.177,149.351Zm-8.341-3.657h6.5v-6.523h-6.5Z" transform="translate(102.344 -92.782)" fill="#00385d"/>
          <path id="Path_161" data-name="Path 161" d="M-4.245,150.361H-14.424a1.831,1.831,0,0,1-1.838-1.819V138.363a1.83,1.83,0,0,1,1.838-1.818H-4.245a1.814,1.814,0,0,1,1.818,1.818v10.179A1.814,1.814,0,0,1-4.245,150.361Zm-8.341-3.657h6.5v-6.5h-6.5Z" transform="translate(25.651 -73.454)" fill="#00385d"/>
          <path id="Path_162" data-name="Path 162" d="M-3.242,150.361H-13.4a1.818,1.818,0,0,1-1.838-1.819V138.363a1.818,1.818,0,0,1,1.838-1.818H-3.242A1.831,1.831,0,0,1-1.4,138.363v10.179A1.831,1.831,0,0,1-3.242,150.361Zm-8.341-3.657h6.523v-6.5h-6.523Z" transform="translate(44.829 -73.454)" fill="#00385d"/>
          <path id="Path_163" data-name="Path 163" d="M-2.22,150.361H-12.4a1.814,1.814,0,0,1-1.818-1.819V138.363a1.814,1.814,0,0,1,1.818-1.818H-2.22A1.814,1.814,0,0,1-.4,138.363v10.179A1.814,1.814,0,0,1-2.22,150.361Zm-8.341-3.657h6.5v-6.5h-6.5Z" transform="translate(64.007 -73.454)" fill="#00385d"/>
          <path id="Path_164" data-name="Path 164" d="M-1.2,150.361H-11.359a1.831,1.831,0,0,1-1.838-1.819V138.363a1.831,1.831,0,0,1,1.838-1.818H-1.2a1.83,1.83,0,0,1,1.838,1.818v10.179A1.831,1.831,0,0,1-1.2,150.361ZM-9.54,146.7h6.523v-6.5H-9.54Z" transform="translate(83.166 -73.454)" fill="#00385d"/>
          <path id="Path_186" data-name="Path 186" d="M-1.2,150.361H-11.359a1.831,1.831,0,0,1-1.838-1.819V138.363a1.831,1.831,0,0,1,1.838-1.818H-1.2a1.83,1.83,0,0,1,1.838,1.818v10.179A1.831,1.831,0,0,1-1.2,150.361ZM-9.54,146.7h6.523v-6.5H-9.54Z" transform="translate(103.366 -73.454)" fill="#00385d"/>
        </g>
        <g id="Group_174" data-name="Group 174" transform="translate(10.021)">
          <path id="Path_165" data-name="Path 165" d="M-14.392,149.928a1.847,1.847,0,0,1-1.838-1.838V134.847a1.847,1.847,0,0,1,1.838-1.838,1.847,1.847,0,0,1,1.838,1.838V148.09A1.847,1.847,0,0,1-14.392,149.928Z" transform="translate(16.23 -133.009)" fill="#00385d"/>
          <path id="Path_166" data-name="Path 166" d="M-13.884,149.928a1.835,1.835,0,0,1-1.838-1.838V134.847a1.835,1.835,0,0,1,1.838-1.838,1.83,1.83,0,0,1,1.818,1.838V148.09A1.83,1.83,0,0,1-13.884,149.928Z" transform="translate(25.763 -133.009)" fill="#00385d"/>
          <path id="Path_167" data-name="Path 167" d="M-13.4,149.928a1.83,1.83,0,0,1-1.818-1.838V134.847a1.83,1.83,0,0,1,1.818-1.838,1.847,1.847,0,0,1,1.838,1.838V148.09A1.847,1.847,0,0,1-13.4,149.928Z" transform="translate(35.296 -133.009)" fill="#00385d"/>
          <path id="Path_168" data-name="Path 168" d="M-12.869,149.928a1.847,1.847,0,0,1-1.838-1.838V134.847a1.847,1.847,0,0,1,1.838-1.838,1.83,1.83,0,0,1,1.818,1.838V148.09A1.83,1.83,0,0,1-12.869,149.928Z" transform="translate(44.81 -133.009)" fill="#00385d"/>
          <path id="Path_169" data-name="Path 169" d="M-12.381,149.928A1.83,1.83,0,0,1-14.2,148.09V134.847a1.83,1.83,0,0,1,1.818-1.838,1.847,1.847,0,0,1,1.838,1.838V148.09A1.847,1.847,0,0,1-12.381,149.928Z" transform="translate(54.342 -133.009)" fill="#00385d"/>
          <path id="Path_170" data-name="Path 170" d="M-11.854,149.928a1.847,1.847,0,0,1-1.838-1.838V134.847a1.847,1.847,0,0,1,1.838-1.838,1.83,1.83,0,0,1,1.818,1.838V148.09A1.83,1.83,0,0,1-11.854,149.928Z" transform="translate(63.856 -133.009)" fill="#00385d"/>
          <path id="Path_171" data-name="Path 171" d="M-11.366,149.928a1.83,1.83,0,0,1-1.818-1.838V134.847a1.83,1.83,0,0,1,1.818-1.838,1.835,1.835,0,0,1,1.838,1.838V148.09A1.835,1.835,0,0,1-11.366,149.928Z" transform="translate(73.389 -133.009)" fill="#00385d"/>
          <path id="Path_172" data-name="Path 172" d="M-10.839,149.928a1.847,1.847,0,0,1-1.838-1.838V134.847a1.847,1.847,0,0,1,1.838-1.838A1.847,1.847,0,0,1-9,134.847V148.09A1.847,1.847,0,0,1-10.839,149.928Z" transform="translate(82.903 -133.009)" fill="#00385d"/>
          <path id="Path_173" data-name="Path 173" d="M-10.331,149.928a1.835,1.835,0,0,1-1.838-1.838V134.847a1.835,1.835,0,0,1,1.838-1.838,1.83,1.83,0,0,1,1.818,1.838V148.09A1.83,1.83,0,0,1-10.331,149.928Z" transform="translate(92.436 -133.009)" fill="#00385d"/>
          <path id="Path_174" data-name="Path 174" d="M-9.843,149.928a1.83,1.83,0,0,1-1.818-1.838V134.847a1.83,1.83,0,0,1,1.818-1.838A1.847,1.847,0,0,1-8,134.847V148.09A1.847,1.847,0,0,1-9.843,149.928Z" transform="translate(101.969 -133.009)" fill="#00385d"/>
        </g>
      </g>
    </g>
  </g>
</svg>
