<svg xmlns="http://www.w3.org/2000/svg" width="463.038" height="406.817" viewBox="0 0 463.038 406.817">
  <g id="Group_712" data-name="Group 712" transform="translate(-359.963 -1876.094)">
    <g id="Group_709" data-name="Group 709" transform="translate(-8437.442 -602.712)">
      <g id="Group_671" data-name="Group 671" transform="translate(8932.599 2629.772)">
        <path id="Path_1410" data-name="Path 1410" d="M9481.377,2976.47l36.512,130.481a3.728,3.728,0,0,1-7.156,2.09L9470.1,2975.524C9473.853,2975.929,9477.611,2976.264,9481.377,2976.47Z" transform="translate(-9334.02 -2881.408)" fill="#262728"/>
        <g id="Group_669" data-name="Group 669" transform="translate(0 24.149)">
          <path id="Path_1411" data-name="Path 1411" d="M9215.042,2839.225l-20.719,168.387a3.125,3.125,0,0,0,6.188.878l26.947-167.5a6.271,6.271,0,1,0-12.384-1.992C9215.063,2839.063,9215.051,2839.157,9215.042,2839.225Z" transform="translate(-9194.3 -2833.719)" fill="#262728"/>
        </g>
        <g id="Group_670" data-name="Group 670" transform="translate(25.493)">
          <path id="Path_1412" data-name="Path 1412" d="M9251.3,2824.856l96.466-27.781a6.271,6.271,0,0,0-3.471-12.053c-.076.022-.176.053-.25.077l-95.223,31.786a4.175,4.175,0,0,0,2.478,7.971Z" transform="translate(-9245.967 -2784.776)" fill="#262728"/>
        </g>
      </g>
      <g id="Group_672" data-name="Group 672" transform="translate(8797.405 2514.514)">
        <path id="Path_1413" data-name="Path 1413" d="M8921.93,2557.111a25.328,25.328,0,0,0-1.52,4.917,28.026,28.026,0,0,0,1.6,11.48c1.635,5.111,4.1,9.985,5.4,15.2,5.787,23.092,10.285,46.567,14.971,69.9,4.738,23.6,8.787,47.32,13.9,70.847,2.564,11.8,5.024,23.633,5.921,35.7.7,9.364.483,22.077,9.617,27.333,6.989,4.021,15.863,3.53,23.6,4.675,15.943,2.359,32.059,2.232,48,4.485,14.847,2.1,29.656,4.878,44.352,7.837,7.76,1.562,15.691,3.611,23.6,2.737,7.446-.823,14.6-2.928,21.908-4.465q11.467-2.41,22.939-4.8c15.293-3.172,30.6-6.28,45.939-9.23,10.4-2,21.115-1.555,31.5-3.651,5.65-1.14,9.869-.92,10.748-6.766,1.084-7.22,1.008-17.551-1.707-24.462-2.841-7.227-10.328-11.773-17.03-14.951-16.622-7.881-36-10.688-53.97-13.9a315.175,315.175,0,0,0-35.012-4.233c-9.911-.644-19.81-3.276-29.727-3.9-1.462-3.89-2.494-7.95-3.922-11.866-2.375-6.515-5.258-12.852-7.9-19.258a209.572,209.572,0,0,1-11.362-37.861c-4.141-19.982-8.315-39.984-13.274-59.785-3.613-14.429-9.145-30.711-23.718-37.333-16.325-7.417-35.579-3.634-52.844-3.489-12.2.1-24.421.266-36.619-.048-5.294-.136-10.571-.616-15.866-.739a61.386,61.386,0,0,0-8.662.2c-2.519.3-5.369.375-7.676,1.52a6.355,6.355,0,0,0-.957.582A6.253,6.253,0,0,0,8921.93,2557.111Z" transform="translate(-8920.297 -2551.177)" fill="#9ee493"/>
        <path id="Path_1414" data-name="Path 1414" d="M8943,2606.359c9.215,34.413,17.949,68.9,25.255,103.772,3.093,14.76,6.1,29.537,9.118,44.313.776,3.8,2.077,15.108,6.284,16.771,2.825,1.118,5.754-1.31,7.621-3.708,15.162-19.475,7.05-39,2.429-60.423-3.254-15.08-6.576-30.149-10.348-45.109-3.8-15.083-8.667-29.868-12.381-44.965-2.963-12.048-6.031-24.03-12.611-34.686-3.707-6-9.076-14.534-16.863-15.114-2.092-.906-3.6,2.065-3.98,5.442C8936.229,2584.019,8940.1,2595.534,8943,2606.359Z" transform="translate(-8928.893 -2559.215)" fill="#297045"/>
        <path id="Path_1415" data-name="Path 1415" d="M9187.466,2927.958c30.086,2.278,60.218.385,90.343.7,15.093.158,30,1.3,45,2.9,6.718.714,13.5,1.372,20.251,1.712,4.266.215,7.431-.623,10.334-3.8a1.33,1.33,0,0,0,0-1.831l-1.009-1.19a1.208,1.208,0,0,0-2.092.639,1.19,1.19,0,0,0-1.2-1.018c-4.1-.037-7.547-1.97-11.39-3.1-3.222-.944-6.518-1.638-9.806-2.306-7.931-1.611-15.893-3.079-23.834-4.637-14.542-2.854-29.3-6.268-44.128-7.189-24.975-1.552-51.453,4.071-73.123,16.707A1.306,1.306,0,0,0,9187.466,2927.958Z" transform="translate(-9054.992 -2732.24)" fill="#297045"/>
        <path id="Path_1416" data-name="Path 1416" d="M9117.146,3012.869c8.549,1.142,47.014,11.744,48.16-3.216.277-3.623,1.141-13.783-1.128-16.528-3.762-4.551-13.946-4.25-19.231-4.889-7.5-.907-15.014-1.646-22.483-2.756-13.558-2.014-27.018-4.695-40.567-6.783-10.879-1.677-21.691-3.356-32.521-5.319-6.494-1.177-18.1-4.208-23.812.479-8.469,6.948.293,21.722,7.445,25.637,5.1,2.791,11.01,3.608,16.771,4.377l44.848,5.99Z" transform="translate(-8971.861 -2764.023)" fill="#297045"/>
      </g>
      <g id="Group_679" data-name="Group 679" transform="translate(8992.651 2819.725)">
        <g id="Group_673" data-name="Group 673" transform="translate(6.156 0)">
          <path id="Path_1417" data-name="Path 1417" d="M9337.9,3190.955a24.84,24.84,0,0,1-7.94-1.867l.756-17.159,21.993-2.168-.873,20.307c-.52.078-1.041.142-1.559.2A65.7,65.7,0,0,1,9337.9,3190.955Z" transform="translate(-9329.233 -3169.761)" fill="#e7a579"/>
          <path id="Path_1418" data-name="Path 1418" d="M9337.154,3210.8a65.72,65.72,0,0,0,12.379-.684c.516-.062,1.038-.126,1.557-.2l-.865,20.129-21.734-4.664.725-16.445A24.846,24.846,0,0,0,9337.154,3210.8Z" transform="translate(-9328.49 -3189.605)" fill="#e5e6e7"/>
        </g>
        <g id="Group_678" data-name="Group 678" transform="translate(0 29.151)">
          <path id="Path_1419" data-name="Path 1419" d="M9319.143,3238.414a70.179,70.179,0,0,0,3.076-8.005c7.535,2.8,14.961.976,22.371-1.565,1.094,3.883,4.65,8.4,5.611,9.677a6.635,6.635,0,0,0,.7.864,12.777,12.777,0,0,0,1.508,1.562,11.325,11.325,0,0,0,1.773,1.516,15.834,15.834,0,0,0,1.782,1.24c.647.438,1.3.83,1.957,1.223.612.386,1.276.734,1.9,1.074.539.326,1.078.652,1.625.934.074.059.158.074.232.133.621.341,1.243.681,1.914.985a87.319,87.319,0,0,0,12.817,5.444,13.776,13.776,0,0,1,4,1.766,6.667,6.667,0,0,1,1.668,8.082c-1.661,2.954-5.824,2.318-8.345,1.831-17.554-3.213-37.638-7.1-55.132-10.628C9313.018,3253.43,9318.055,3240.587,9319.143,3238.414Z" transform="translate(-9316.013 -3228.843)" fill="#52bbe1"/>
          <path id="Path_1420" data-name="Path 1420" d="M9381.849,3286.672c-1.786,2.506-5.657,1.961-8.056,1.517-17.559-3.256-37.658-7.1-55.16-10.641a3.212,3.212,0,0,1-2.49-3.312Z" transform="translate(-9316.078 -3251.839)" fill="#00385d"/>
          <g id="Group_674" data-name="Group 674" transform="translate(42.196 18.224)">
            <path id="Path_1421" data-name="Path 1421" d="M9401.881,3271.028a.8.8,0,0,0,.506.274,1.089,1.089,0,0,0,.963-.342l3.561-4.2c-.671-.3-1.293-.644-1.914-.984l-3.164,3.665A1.134,1.134,0,0,0,9401.881,3271.028Z" transform="translate(-9401.532 -3265.778)" fill="#00385d"/>
          </g>
          <g id="Group_675" data-name="Group 675" transform="translate(38.532 16.082)">
            <path id="Path_1422" data-name="Path 1422" d="M9394.413,3266.65a1.287,1.287,0,0,0,.548.282,1.037,1.037,0,0,0,.971-.387l3.445-4.033c-.621-.341-1.285-.689-1.9-1.074l-3.063,3.59A1.223,1.223,0,0,0,9394.413,3266.65Z" transform="translate(-9394.106 -3261.438)" fill="#00385d"/>
          </g>
          <g id="Group_676" data-name="Group 676" transform="translate(34.936 13.619)">
            <path id="Path_1423" data-name="Path 1423" d="M9387.15,3261.456a.867.867,0,0,0,.5.274,1.056,1.056,0,0,0,1.014-.379l3.162-3.666a15.53,15.53,0,0,1-1.781-1.24l-2.939,3.38A1.219,1.219,0,0,0,9387.15,3261.456Z" transform="translate(-9386.818 -3256.446)" fill="#00385d"/>
          </g>
          <g id="Group_677" data-name="Group 677" transform="translate(31.371 10.541)">
            <path id="Path_1424" data-name="Path 1424" d="M9379.926,3255.584a.865.865,0,0,0,.506.274,1.09,1.09,0,0,0,.963-.341l3.221-3.749a12.582,12.582,0,0,1-1.508-1.562l-3.23,3.793A1.174,1.174,0,0,0,9379.926,3255.584Z" transform="translate(-9379.594 -3250.207)" fill="#00385d"/>
          </g>
        </g>
      </g>
      <g id="Group_684" data-name="Group 684" transform="translate(9023.02 2691.271)">
        <path id="Path_1425" data-name="Path 1425" d="M9379.336,2931.132c14.445,5.847,31.049,12.431,45.585,18.037,2.084.826,5.548,2.055,7.351-.013a5.245,5.245,0,0,0-.363-6.736,12.943,12.943,0,0,0-3.174-2.1,82.067,82.067,0,0,1-10.208-6.565c-.532-.358-1.018-.738-1.5-1.117-.056-.06-.124-.086-.18-.147-.43-.319-.846-.673-1.263-1.027-.485-.379-1-.772-1.477-1.186-.507-.427-1.013-.854-1.507-1.315a14.4,14.4,0,0,1-1.355-1.3,10.106,10.106,0,0,1-1.312-1.517,11.17,11.17,0,0,1-1.08-1.508,5.667,5.667,0,0,1-.48-.81,26.738,26.738,0,0,1-1.824-3.909c-.443-1.425-.1-3.062-1.086-4.3-1.021-1.25-2.78-1.167-4.264-1.3a.688.688,0,0,1-.3-.035c-1.7-.171-2.308-.754-3.717-1.6-2.375-1.408-6.884-2.364-9.488-3.269-.55-.208-3.445,6-5.77,8.937C9380.707,2919.906,9374.734,2929.277,9379.336,2931.132Z" transform="translate(-9377.59 -2909.419)" fill="#52bbe1"/>
        <path id="Path_1426" data-name="Path 1426" d="M9431.955,2968.513c-1.851,1.689-5.077.583-7.062-.187-14.534-5.641-31.157-12.2-45.606-18.052a2.771,2.771,0,0,1-1.688-3.073Z" transform="translate(-9377.56 -2928.559)" fill="#00385d"/>
        <g id="Group_680" data-name="Group 680" transform="translate(35.892 23.218)">
          <path id="Path_1427" data-name="Path 1427" d="M9450.5,2960.124a.742.742,0,0,0,.395.306.959.959,0,0,0,.865-.106l3.584-2.731c-.531-.358-1.018-.738-1.5-1.117l-3.176,2.375A.874.874,0,0,0,9450.5,2960.124Z" transform="translate(-9450.303 -2956.476)" fill="#00385d"/>
        </g>
        <g id="Group_681" data-name="Group 681" transform="translate(33.054 20.859)">
          <path id="Path_1428" data-name="Path 1428" d="M9444.719,2955.322a1.2,1.2,0,0,0,.429.319.906.906,0,0,0,.878-.14l3.463-2.62c-.484-.379-1-.772-1.477-1.186l-3.08,2.332A.938.938,0,0,0,9444.719,2955.322Z" transform="translate(-9444.551 -2951.695)" fill="#00385d"/>
        </g>
        <g id="Group_682" data-name="Group 682" transform="translate(30.337 18.246)">
          <path id="Path_1429" data-name="Path 1429" d="M9439.233,2949.893a.8.8,0,0,0,.4.306.923.923,0,0,0,.912-.127l3.175-2.375a14.447,14.447,0,0,1-1.356-1.3l-2.946,2.187A.939.939,0,0,0,9439.233,2949.893Z" transform="translate(-9439.044 -2946.399)" fill="#00385d"/>
        </g>
        <g id="Group_683" data-name="Group 683" transform="translate(27.654 15.222)">
          <path id="Path_1430" data-name="Path 1430" d="M9433.8,2944.007a.8.8,0,0,0,.395.307.956.956,0,0,0,.863-.106l3.236-2.431a11.17,11.17,0,0,1-1.08-1.508l-3.248,2.466A.9.9,0,0,0,9433.8,2944.007Z" transform="translate(-9433.607 -2940.269)" fill="#00385d"/>
        </g>
      </g>
      <path id="Path_1431" data-name="Path 1431" d="M9220.209,2783.416c17.1-15.928,38.438-31.106,57.524-44.588,17.853-12.609,37.122-33.322,56.737-21.764,24.18,14.247,5,65.9-3.811,92.118-7.65,1.415-16.5-2.829-24.146-1.415-5.619-41.194-1.4-31.894-2.147-43.46-25.792,27.681-46.873,48.382-76.332,58.162Z" transform="translate(-274.827 -118.985)" fill="#00385d"/>
      <path id="Path_1432" data-name="Path 1432" d="M9252.378,2794.561l-20.53,5.774c-17.246-2.78-29.023-14.137-37.062-27.525,6.069-3.535,11.786-7.912,17.842-10.727C9222.734,2776.153,9235.843,2786.83,9252.378,2794.561Z" transform="translate(-261.948 -143.508)" fill="#f6bd96"/>
      <path id="Path_1433" data-name="Path 1433" d="M9190.059,2654.212l-2.9,1.779c-.132-.6-.283-1.172-.41-1.779Z" transform="translate(-257.877 -88.86)" fill="#a6a8ab"/>
      <path id="Path_1434" data-name="Path 1434" d="M9178.178,2663.24c4.528,20.668,10.718,34.178,20.6,47.931-6.056,2.815-17.4,10.185-23.469,13.719-14.3-23.819-14.41-56.244-14.41-56.244Z" transform="translate(-244.779 -93.434)" fill="#e8c51d"/>
      <path id="Path_1435" data-name="Path 1435" d="M9176.551,2887.219c-8.191,5.067-25.646,4.074-36.074,1.905,10.3-14.941,30.019-26.611,43.408-40.009C9188.637,2863.043,9191.479,2877.984,9176.551,2887.219Z" transform="translate(-234.435 -187.598)" fill="#e76464"/>
      <path id="Path_1436" data-name="Path 1436" d="M9057.293,2676.3c1.718-14.946,7.84-34.884,21.111-43.646,10.108-6.674,26.791-12.095,38.921-8.231,14.319,4.562,7.765,27.431,8.755,38.4a190.507,190.507,0,0,0,14.983,58.713c1.065,2.449,2.2,4.975,2.173,7.646-.064,5.615-6.733,10.134-10.518,13.411-5.252,4.55-10.642,8.939-15.967,13.4-2.2,1.839-28.551,26.675-27.791,27.1-12.008-6.687-25.254-46.959-28.443-62.228C9057.458,2706.229,9055.586,2691.166,9057.293,2676.3Z" transform="translate(-191.966 -73.117)" fill="#ffd91f"/>
      <g id="Group_685" data-name="Group 685" transform="translate(8880.301 2678.317)">
        <path id="Path_1437" data-name="Path 1437" d="M9117.193,2905.649c1.035-9.806,6.226-11.862,15.431-12.277,29.033-1.31,57.455-4.17,86.615-2.8,8.422.4,17.854,1.5,23.131,8.075,3.812,4.75,4.458,11.224,4.9,17.3a1001.2,1001.2,0,0,1,1.37,121.454c-8.376,2.739-16.924,3.319-29.672,4.045-5.959-23.919-18.006-110-18.048-110-14.513.38-25.372.9-40,2-10.621.8-21.859.7-31.16-4.492A24.013,24.013,0,0,1,9117.193,2905.649Z" transform="translate(-9102.877 -2886.734)" fill="#00385d"/>
        <path id="Path_1438" data-name="Path 1438" d="M9210.893,2949.385l12.528,121.26-1.683.1c-5.959-23.919-18.006-110-18.049-110-14.512.38-25.371.9-40,2-10.621.8-21.86.7-31.162-4.492a25.085,25.085,0,0,1-9.99-10.205C9148.29,2962.937,9181.439,2946.741,9210.893,2949.385Z" transform="translate(-9105.649 -2916.03)" fill="#012a46" opacity="0.78"/>
        <path id="Path_1439" data-name="Path 1439" d="M9138.273,2883.164c-12.762,10.615-26.732,22.184-33.272,31.667-5.69-3.169-11.649-13.9-16.694-25.92A276.066,276.066,0,0,1,9138.273,2883.164Z" transform="translate(-9088.307 -2883.164)" fill="#ffd91f"/>
      </g>
      <path id="Path_1440" data-name="Path 1440" d="M9304.367,2865.951c1.175.107,2.354.159,3.524.308A7.86,7.86,0,0,1,9304.367,2865.951Z" transform="translate(-317.461 -196.127)" fill="#d0ccc8"/>
      <g id="Group_686" data-name="Group 686" transform="translate(8923.025 2629.744)">
        <rect id="Rectangle_130" data-name="Rectangle 130" width="46.791" height="4.69" transform="translate(0 48.157)" fill="#808184"/>
        <path id="Path_1441" data-name="Path 1441" d="M9313.191,2837.565h-84.112l12-46.932a7.863,7.863,0,0,1,7.618-5.915h73.68a3.361,3.361,0,0,1,3.256,4.193Z" transform="translate(-9202.347 -2784.718)" fill="#a6a8ab"/>
        <path id="Path_1442" data-name="Path 1442" d="M9241.079,2790.71l-12,46.931h5.226l13.5-52.772A7.847,7.847,0,0,0,9241.079,2790.71Z" transform="translate(-9202.347 -2784.795)" fill="#808184"/>
        <circle id="Ellipse_94" data-name="Ellipse 94" cx="3.946" cy="3.946" r="3.946" transform="translate(75.134 27.685) rotate(-76.717)" fill="#fff" opacity="0.88"/>
      </g>
      <path id="Path_1443" data-name="Path 1443" d="M9117.985,2751.44c1.729,16.586,7.144,56.886,7.144,56.886,12.941-3.933,25.66-3.61,38.546-6.482l-3.122,12.145c-17.18,4.96-33.485,11.23-36.369,12.047-5.092,1.442-10.982,1.259-15.171-1.975-3.77-2.91-5.5-7.687-6.905-12.237-5.315-17.2-9.984-34.339-11.814-51.839C9100.973,2757.713,9105.725,2751.451,9117.985,2751.44Z" transform="translate(-209.012 -138.116)" fill="#f6bd96"/>
      <g id="Group_688" data-name="Group 688" transform="translate(8879.302 2565.352)">
        <path id="Path_1444" data-name="Path 1444" d="M9086.686,2687.583c.8-10.127,1.564-26.277,9.5-31.186,11.969-7.406,23.568,5.447,24.318,17.234.852,13.355,3.223,26.1,4.554,38.858-13.607.012-25.978.2-37.831,2.723A150.786,150.786,0,0,1,9086.686,2687.583Z" transform="translate(-9086.281 -2654.213)" fill="#ffd91f"/>
        <path id="Path_1445" data-name="Path 1445" d="M9086.686,2692.156c.7-8.893,1.381-22.425,6.906-28.916-5.851,17.92-3.981,37.311-2.574,55.831-1.271.218-2.537.446-3.795.714A150.786,150.786,0,0,1,9086.686,2692.156Z" transform="translate(-9086.281 -2658.786)" fill="#e2c01c"/>
        <g id="Group_687" data-name="Group 687" transform="translate(34.774 25.634)">
          <path id="Path_1446" data-name="Path 1446" d="M9156.878,2707.5c-.045-.442-.077-.891-.119-1.334C9156.8,2706.6,9156.842,2707.049,9156.878,2707.5Z" transform="translate(-9156.759 -2706.167)" fill="#ffd91f"/>
          <path id="Path_1447" data-name="Path 1447" d="M9156.964,2708.87c1.082,10.642,2.8,20.978,3.88,31.308-1.331,0-2.607.02-3.915.027C9157.363,2726.932,9157.6,2716.871,9156.964,2708.87Z" transform="translate(-9156.845 -2707.536)" fill="#ffd91f"/>
        </g>
      </g>
      <path id="Path_1448" data-name="Path 1448" d="M9350.595,3167.007a2.361,2.361,0,0,1,.808,1c.811,1.651.1,3.838.1,5.582v5.3s-12.727,7.27-34.514,4.3c-.466-.063-1.775-8.895-1.866-9.7-.564-4.974,7.351-3.1,10.36-3.186,3.833-.112,7.664-.351,11.477-.78a50.241,50.241,0,0,0,10.293-2C9348.491,3167.11,9349.662,3166.412,9350.595,3167.007Z" transform="translate(-322.895 -348.525)" fill="#02253d"/>
      <path id="Path_1449" data-name="Path 1449" d="M9416.426,2905.729c-.643,1.832-1.656,3.7-3.418,4.518-1.605.742-3.475.451-5.213.129q-9.937-1.843-19.723-4.42.35-4.4.7-8.8a3.651,3.651,0,0,1,.474-1.823c.819-1.185,2.595-.993,4-.67,7.969,1.833,17.407,2.7,24.922,5.854A35.989,35.989,0,0,1,9416.426,2905.729Z" transform="translate(-359.866 -210.546)" fill="#02253d"/>
      <g id="Group_692" data-name="Group 692" transform="translate(8831.227 2652.132)">
        <g id="Group_689" data-name="Group 689" transform="translate(85.367 6.576)">
          <path id="Path_1450" data-name="Path 1450" d="M9162.135,2851.519l65.586,215.516a3.728,3.728,0,0,0,7.156-2.09L9174.172,2848a6.27,6.27,0,1,0-12.076,3.379C9162.105,2851.419,9162.124,2851.484,9162.135,2851.519Z" transform="translate(-9161.862 -2843.422)" fill="#262728"/>
        </g>
        <g id="Group_690" data-name="Group 690" transform="translate(4.694 26.705)">
          <path id="Path_1451" data-name="Path 1451" d="M9019.1,2889.725l-20.719,168.387a3.125,3.125,0,0,0,6.188.878l26.947-167.5a6.271,6.271,0,1,0-12.383-1.992C9019.121,2889.563,9019.108,2889.657,9019.1,2889.725Z" transform="translate(-8998.357 -2884.219)" fill="#262728"/>
        </g>
        <g id="Group_691" data-name="Group 691" transform="translate(0 0)">
          <path id="Path_1452" data-name="Path 1452" d="M8994.182,2872.731l104.7-30.341a6.271,6.271,0,1,0-3.491-12.047c-.068.02-.162.05-.23.072l-103.459,34.345a4.174,4.174,0,0,0,2.477,7.971Z" transform="translate(-8988.845 -2830.094)" fill="#262728"/>
        </g>
      </g>
      <g id="Group_708" data-name="Group 708" transform="translate(8885.129 2478.806)">
        <path id="Path_1465" data-name="Path 1465" d="M9131.385,2581.54c-1.078-.284-2.15-.615-3.189-.825a11.573,11.573,0,0,1-5.139-2.794,15.663,15.663,0,0,1-4.982-11.073l-1.885-55.183,25.8-.881q.372,10.849.741,21.7c-.255,3.239.437,6.8.593,10.052.145,3.027-.023,5.966.118,9q.492,10.544.983,21.088a11.991,11.991,0,0,1-.355,4.48,6.571,6.571,0,0,1-3.547,3.7,14.431,14.431,0,0,1-6.016,1.272A14.178,14.178,0,0,1,9131.385,2581.54Z" transform="translate(-9107.26 -2495.006)" fill="#e7a579"/>
        <path id="Path_1466" data-name="Path 1466" d="M9136.321,2558.479c31.622,11.15,38.476-61.593,6.315-73.8-36.494-13.849-41.462,23.777-26.57,51.394C9121.35,2545.876,9125.647,2554.716,9136.321,2558.479Z" transform="translate(-9103.224 -2480.281)" fill="#f6bd96"/>
        <path id="Path_1467" data-name="Path 1467" d="M9100.705,2511.551c-2.225-6.749-3.988-14.29-1.123-20.794,2.813-6.39,9.631-10.285,16.514-11.454s13.926-.05,20.817,1.069c3.8.618,7.5.565,10.827,2.519a24.376,24.376,0,0,0,12.32,3.521c2.44,0,5.086-.322,7.137,1,2.184,1.412,2.937,4.243,3.129,6.836a13.731,13.731,0,0,1-1.689,8.479c-1.854,2.875-5.213,4.505-8.592,5.043-3.584.571-7.609-.889-10.84.857-2.893,1.564-5.77,4.75-9.322,4.453-2.168-.181-3.557-1.928-5.477-2.364a22.346,22.346,0,0,1-7.2-2.98c-2.611-1.591-6.024-2.928-8.584-1.258-1.909,1.246-2.568,3.736-2.667,6.013s.2,4.611-.432,6.8a8.756,8.756,0,0,0-2.482-1.812,2.974,2.974,0,0,0-2.939.226c-1.291,1.018-1.02,3.113-.109,4.483s2.294,2.387,3.131,3.8c2.3,3.892.99,10.332-4.277,10.575-5.3.245-3.947-6.474-4.174-9.6C9104.283,2521.642,9102.361,2516.575,9100.705,2511.551Z" transform="translate(-9098.092 -2478.806)" fill="#091a4c"/>
      </g>
      <path id="Path_1468" data-name="Path 1468" d="M9166.629,2571.416a2.544,2.544,0,0,1-3.59.393" transform="translate(-245.865 -46.916)" fill="none" stroke="#39395c" stroke-linecap="round" stroke-miterlimit="10" stroke-width="1.816"/>
      <path id="Path_1469" data-name="Path 1469" d="M9202.172,2572.589a2.469,2.469,0,0,1-2.76.561" transform="translate(-264.291 -47.51)" fill="none" stroke="#39395c" stroke-linecap="round" stroke-miterlimit="10" stroke-width="1.816"/>
      <path id="Path_1470" data-name="Path 1470" d="M9167.043,2561.691a19,19,0,0,0-10.043.956" transform="translate(-242.805 -41.844)" fill="none" stroke="#39395c" stroke-linecap="round" stroke-miterlimit="10" stroke-width="2.287"/>
      <path id="Path_1471" data-name="Path 1471" d="M9201.535,2563.5a17.72,17.72,0,0,0-4.972,0" transform="translate(-262.848 -42.819)" fill="none" stroke="#39395c" stroke-linecap="round" stroke-miterlimit="10" stroke-width="2.287"/>
      <path id="Path_1472" data-name="Path 1472" d="M9185.418,2575.266c-.343,3.25-.633,6.764,1.05,9.566.3.5.671,1.052.5,1.608a1.709,1.709,0,0,1-1.078.939,9.542,9.542,0,0,1-2.234.633" transform="translate(-256.312 -48.866)" fill="none" stroke="#e7a579" stroke-linecap="round" stroke-miterlimit="10" stroke-width="1.816"/>
    </g>
    <g id="Group_711" data-name="Group 711" transform="translate(648 1974.842)">
      <g id="Group_643" data-name="Group 643" transform="translate(0)">
        <path id="Path_1231" data-name="Path 1231" d="M8918.944,1155.194c-.3-3.686-.171-7.444-.336-11.091-.325-7.2-.7-14.4-1.162-21.589-.938-14.469-2-28.954-3.76-43.35-1.543-12.631-2.477-27.659-9.67-38.6-3.346-5.089-8.514-10.445-14.361-12.558-5.911-2.137-11.726.047-16.892,3.047a.706.706,0,0,1-.712-1.219c7-4.068,14.5-5.8,21.76-1.342,7.761,4.77,13.338,12.763,16.045,21.352,3.374,10.7,4.477,22.335,5.727,33.447,1.415,12.589,2.346,25.235,3.188,37.875.449,6.742.81,13.489,1.126,20.238.206,4.4-.025,9.106.393,13.634C8919.849,1155.1,8919.4,1155.151,8918.944,1155.194Z" transform="translate(-8836.329 -992.886)" fill="#0a8e6d"/>
        <path id="Path_1232" data-name="Path 1232" d="M8732.074,1147.94c-.983.125-1.971.2-2.955.294,2.909-12.166,1.579-25.229,1.93-37.613.486-17.215.943-34.434,1.862-51.632.79-14.765,1.9-30.858,7.732-44.76.358.239.724.462,1.1.673a106.925,106.925,0,0,0-5.128,20.553,229.154,229.154,0,0,0-2.4,25.6c-.837,16.282-1.276,32.58-1.736,48.876-.344,12.183.934,25.076-1.618,37.134,1.714-5.7,2.319-11.877,2.952-17.548,1.089-9.76,2.5-19.279,5.774-28.595,3.386-9.641,8.542-18.232,13.1-27.315,3.284-6.549,6.789-14.534,14.218-17.233,8.764-3.185,18.075,1.636,22.232,9.55.422.8-.8,1.519-1.219.713-2.958-5.63-8.471-9.69-14.977-9.828-6.048-.129-10.614,3.264-13.882,8.075-2.77,4.079-4.627,8.682-7,12.988a186.567,186.567,0,0,0-8.566,16.875c-4.766,11.224-6.926,22.721-8.271,34.77C8734.558,1135.5,8733.928,1141.985,8732.074,1147.94Z" transform="translate(-8643.252 -986.31)" fill="#0a8e6d"/>
        <path id="Path_1233" data-name="Path 1233" d="M8891.056,1084.035c9.054-3.06,18.533-.876,25.792,5.331,7.544,6.452,10.873,16.547,13.172,25.876,2.783,11.295,5.079,22.835,6.99,34.3,2.1,12.623,3.831,25.332,6.811,37.776q-.737.057-1.473.052c-2.074-8.731-3.535-17.6-4.938-26.468-1.729-10.933-3.784-21.742-6.01-32.581-3.638-17.722-8.778-44.334-32.052-44.424-7.3-.029-21.832,5.055-22.124,13.834-.03.907-1.443.911-1.412,0C8876.06,1090.246,8884.959,1086.1,8891.056,1084.035Z" transform="translate(-8861.644 -1024.985)" fill="#0a8e6d"/>
        <path id="Path_1234" data-name="Path 1234" d="M8928.849,987.206c6.631-2.541,16.045,2.754,17.207,9.932,4.8-2.778,12.277-3.327,14.367,2.894,3.247,9.664-8.741,15.278-13.994,20.611a1.067,1.067,0,0,1-1.825-.919,65.075,65.075,0,0,0,1.457-9.609c.11-1.229-.408-2.723-1.621-2.958a2.228,2.228,0,0,0-2.33,1.679c-.753,2.442.6,5.962.741,8.5.131,2.276.564,4.95-1.468,6.487-1.234.932-2.842.86-4.316.908-4.332.139-7.181-.193-11.335,1.777a1.078,1.078,0,0,1-1.629-.833c-.606-4-3.12-6.721-4.179-10.424a5.851,5.851,0,0,1,.375-4.706,5.52,5.52,0,0,1,3.646-2.326c.718-.2,4.113-.154,4.527-.773q-.835-6.184-5.1-2.381-1.024,1.661-2.1,3.287a1.07,1.07,0,0,1-2.006-.414C8917.9,1000.283,8920.994,990.215,8928.849,987.206Z" transform="translate(-8897.558 -970.674)" fill="#39b04a"/>
        <g id="Group_637" data-name="Group 637" transform="translate(71.675)">
          <g id="Group_636" data-name="Group 636">
            <path id="Path_1235" data-name="Path 1235" d="M8720.146,973.795c2.66-3.59,6.927-5.6,9.766-9.157a.716.716,0,0,0-.144-1.109c-3.395-1.625-6.238.264-8.564,3.363a21.249,21.249,0,0,1,2.3-5.211c4.461-7.189,12.874-11.219,21.161-11.6,6.113-.284,14.456.576,18.01,6.168,4.975-5.233,14.338-5.8,20.706-3.276,8.561,3.4,13.888,12.135,14.791,21.065a30.338,30.338,0,0,1-.155,7.617c-1.319-1.7-2.758-3.29-4.006-4.669-1.787-1.973-6.24-7.377-9.537-6.057-4.387,1.756.952,7.194,2.525,8.738,2.336,2.291,5.153,4.3,6.809,7.165a34.481,34.481,0,0,1,1.567,3.095,37.765,37.765,0,0,1-5.739,8.2c-.6.668-1.216,1.322-1.824,1.981a33.346,33.346,0,0,0-2.115-8.868c-.981-2.725-3.342-9.272-7.266-8.73-5.737.792-1.516,8.727,0,11.175,1.588,2.561,4.068,5.269,4.53,8.314.516,3.4-1.479,6.991-3.679,9.41-2.676,2.943-6.128,5.054-9.13,7.663s-5.679,6.022-5.923,9.993c-1.447-3.62-4.653-6.216-7.893-8.385s-6.712-4.145-9.2-7.149c-4.819-5.824-2.2-11.5,1.148-17.124,1.419-2.38,3.032-7.709-1.392-8.165-4.235-.437-7.18,5.248-8.155,8.48a24.835,24.835,0,0,0-.666,9.982,58.24,58.24,0,0,1-9.215-8.384,20.861,20.861,0,0,1,1.178-7.452c1.259-3.327,3.755-5.625,5.757-8.468,1.657-2.352,3.849-8.075-.918-8.562-4.152-.424-8.547,4.823-10.411,7.956a24.166,24.166,0,0,0-2.246,5.06c-.046-.138-.108-.264-.154-.4A38.51,38.51,0,0,1,8720.146,973.795Zm55.96-.357a1.83,1.83,0,0,0,2.343,1.565.719.719,0,0,0,.519-.681,2.038,2.038,0,0,0-.095-.5.609.609,0,0,0-.107-.815,2.164,2.164,0,0,0-2.165-.433A.723.723,0,0,0,8776.105,973.437Zm-1.638-4.337a.745.745,0,0,0,.681-.836,1.266,1.266,0,0,0-.467-1.241,2.122,2.122,0,0,0-2.657-.608.716.716,0,0,0-.323.8A2.677,2.677,0,0,0,8774.468,969.1Zm-3.978,4.462c.7.451,1.826.861,2.527.184a1.816,1.816,0,0,0-.27-2.57,7.943,7.943,0,0,0-2.48-1.518.741.741,0,0,0-.9.247.642.642,0,0,0-.4.445A3.012,3.012,0,0,0,8770.49,973.563Zm-20.737-3.078c1.339-.086,3.245-.992,3.369-2.516a2.02,2.02,0,0,0-1.557-2.143.553.553,0,0,0-.516-.172c-.084.011-.17.033-.257.049a3.055,3.055,0,0,0-1.009.111.65.65,0,0,0-.443.409,3.976,3.976,0,0,0-1.724,1.627C8746.877,969.325,8748.327,970.576,8749.753,970.485Zm-2.884-9.131c1.57,1.271,4.569,1.666,6.537,1.5,1.932-.166,4.463-1.668,2.27-3.556-1.9-1.636-5.8-2.644-8.081-1.359a.648.648,0,0,0-.281.318,1.977,1.977,0,0,0-.964.7A1.741,1.741,0,0,0,8746.869,961.354Z" transform="translate(-8720.134 -950.03)" fill="#39b04a"/>
          </g>
          <path id="Path_1236" data-name="Path 1236" d="M8742.872,972.516a13.154,13.154,0,0,1,9.722-9.661c4.112-1.021,9.172-1.119,12.954,1.073a.6.6,0,0,1,.721.165,14.775,14.775,0,0,1,3.376,5.153c.188.545-.377.968-.868.869-2.385-.481-4.511-1.864-6.9-2.462-2.835-.708-5.924-1.224-8.778-.357a11.362,11.362,0,0,0-6.676,5.777,30.561,30.561,0,0,0-2.41,6.121c-.307,1.059-.576,2.129-.828,3.2a13.7,13.7,0,0,0-.176,2.9c-.11,4.668-.022,9.336.09,14,.165,6.916.349,13.836.009,20.75-.044.9-.8,2.571-.753,1.662.448-9.136-.238-18.244-.574-27.371C8741.518,987.255,8740.926,979.431,8742.872,972.516Z" transform="translate(-8700.767 -956.884)" fill="#00b580"/>
        </g>
        <g id="Group_639" data-name="Group 639" transform="translate(116.756 63.954)">
          <g id="Group_638" data-name="Group 638">
            <path id="Path_1237" data-name="Path 1237" d="M8663.2,1114.083a21.066,21.066,0,0,1,7.867-9.163,17.209,17.209,0,0,1,11.662-3.139c3.64.475,5.246,2.645,7.879,4.515.193-5.95,4.987-9.36,10.818-9.195a14.829,14.829,0,0,1,2.2.234,13.085,13.085,0,0,0-4.312,10.535.716.716,0,0,0,1.205.5c3.161-2.631,4.951-6.581,8.216-9.071a18.067,18.067,0,0,1,4.019,3.407c-4.283,1.863-8.138,6-7.751,9.94a.716.716,0,0,0,.895.681,14.83,14.83,0,0,0,4.194-2.436,11.24,11.24,0,0,1,6.526-2.321,43.579,43.579,0,0,1,3.376,8.6c-6.241-2.242-13.388-3.083-16.779,2.956a.724.724,0,0,0,.253.966c4.355,3.139,10.038-1.636,14.394,1.705a9.748,9.748,0,0,1,2.744,3.551,17.51,17.51,0,0,1-.516,2.278,23.078,23.078,0,0,1-2.832,5.859c-3.548-2.976-8.888-7.229-12.143-4.344a.713.713,0,0,0,0,1c2.553,2.531,5.812,4.314,7.737,7.435.2.33.394.677.576,1.03a19.733,19.733,0,0,0-3.168,5.205c-.75,2.033-.673,4.182-1.617,6.158a.723.723,0,0,1-.966.254,55.193,55.193,0,0,0-12.632-3.324c-.129-2.585,1.075-4.843,2.192-7.674a5.774,5.774,0,0,0,.356-4.441,3.649,3.649,0,0,0-6.156-1.072c-2.628,2.907-2.868,7.8-1.659,12.213a42.959,42.959,0,0,1-8.724-2.6c-.327-.144-.643-.305-.96-.464a11.164,11.164,0,0,1,.546-2.555c.479-1.363,1.294-2.545,1.866-3.866a6.793,6.793,0,0,0,.19-5.848c-1.162-2.468-3.78-4.217-6.137-2.067-2.846,2.6-2.631,6.764-1.48,10.978a39.164,39.164,0,0,1-7.738-9.454,17.933,17.933,0,0,1,6.171-11.065c1.693-1.331,4.691-2.667,5.419-4.879,1.336-4.069-5.251-4.229-7.441-2.517-3.851,3.011-4.775,9.4-5.438,13.88-.094.631-.165,1.268-.246,1.9-.541-1-1.055-1.995-1.542-2.987C8662.473,1121.727,8661.6,1117.957,8663.2,1114.083Zm37.685-1.042q.151-.3.3-.6c.405-.811-.812-1.526-1.219-.713-.1.2-.2.4-.3.6C8699.259,1113.139,8700.477,1113.854,8700.883,1113.041Zm-5.539-.549c1.387.289,2.385-2.346,1.351-3.17a1.364,1.364,0,0,0-1.262-.169c-.483.161-1.2.605-1.2,1.19C8694.232,1111.132,8694.406,1112.295,8695.344,1112.491Zm-3.332,16.535a1.343,1.343,0,0,0,1.271-1.133c.087-.646-.7-1.942-1.447-1.45-.506.332-1.205.743-1.212,1.431A1.163,1.163,0,0,0,8692.012,1129.026Zm-10.709-4.564c.19.77,1.907.906,2.4.394a3.218,3.218,0,0,0,.018-4.5.715.715,0,0,0-.857-.11A3.7,3.7,0,0,0,8681.3,1124.462Z" transform="translate(-8662.36 -1097.095)" fill="#39b04a"/>
          </g>
          <path id="Path_1238" data-name="Path 1238" d="M8766.021,1122.109c2.377-1.753,4.734-3.1,7.77-3.031a.706.706,0,0,1,0,1.412c-2.787-.061-4.89,1.24-7.058,2.838C8766,1123.868,8765.295,1122.643,8766.021,1122.109Z" transform="translate(-8761.175 -1109.517)" fill="#00b580"/>
          <path id="Path_1239" data-name="Path 1239" d="M8784.334,1132.859a2.756,2.756,0,0,0,.507-.629.707.707,0,0,1,1.22.713,4.052,4.052,0,0,1-.729.915C8784.67,1134.478,8783.669,1133.482,8784.334,1132.859Z" transform="translate(-8780.866 -1116.758)" fill="#00b580"/>
          <path id="Path_1240" data-name="Path 1240" d="M8768.772,1155.916a3.02,3.02,0,0,1,.6-.429,9.01,9.01,0,0,1,1.36-1c.521-.253.914.285.907.826a1.412,1.412,0,0,1-.471.987,2.452,2.452,0,0,1-.981.526,1.729,1.729,0,0,1-.857.073.828.828,0,0,1-.63-.537A.468.468,0,0,1,8768.772,1155.916Z" transform="translate(-8759.626 -1129.494)" fill="#00b580"/>
          <path id="Path_1241" data-name="Path 1241" d="M8777.947,1168.15v2.008c0,1.2-1.437.5-1.757-.109a2.23,2.23,0,0,1-.221-.867,1.911,1.911,0,0,1,.169-1.064C8776.479,1167.5,8777.947,1167.078,8777.947,1168.15Z" transform="translate(-8769.104 -1136.878)" fill="#00b580"/>
          <path id="Path_1242" data-name="Path 1242" d="M8765.426,1164.471a2.013,2.013,0,0,1,1.276-.49.545.545,0,0,1,.494.453.748.748,0,0,1-.31.549,4.575,4.575,0,0,1-1.126.748c-.192.089-.453.151-.588-.012a.515.515,0,0,1-.077-.334,1.608,1.608,0,0,1,.072-.588A.882.882,0,0,1,8765.426,1164.471Z" transform="translate(-8753.631 -1134.892)" fill="#00b580"/>
          <path id="Path_1243" data-name="Path 1243" d="M8740.946,1180.373c.29-.856,1.654-.489,1.36.375-.229.682,0,1.459-.4,2.091a.749.749,0,0,1-.713.378c-.561-.093-.408-.678-.415-1.068A5.092,5.092,0,0,1,8740.946,1180.373Z" transform="translate(-8718.199 -1143.883)" fill="#00b580"/>
          <path id="Path_1244" data-name="Path 1244" d="M8696.615,1179.855c.734.154,2.258.9,2.363,1.769a.211.211,0,0,1-.139.236.3.3,0,0,1-.136-.011l-1.278-.3c-.436-.1-1.432-.273-1.658-.727C8695.51,1180.3,8696.129,1179.753,8696.615,1179.855Z" transform="translate(-8655.239 -1143.858)" fill="#00b580"/>
          <path id="Path_1245" data-name="Path 1245" d="M8699.642,1186.266a.9.9,0,0,1,1.333.207,4.612,4.612,0,0,1,.607,2.531.608.608,0,0,1-.353.471.6.6,0,0,1-.492-.064,1.8,1.8,0,0,1-.389-.33l-.641-.659a2.134,2.134,0,0,1-.605-.885,1.056,1.056,0,0,1,1.319-1.279,1.116,1.116,0,0,0-.9.117" transform="translate(-8659.332 -1147.373)" fill="#00b580"/>
          <path id="Path_1246" data-name="Path 1246" d="M8693.477,1199.911a3.755,3.755,0,0,1,.182,1.732c-.108.891-1.521.9-1.412,0a2.871,2.871,0,0,0-.131-1.357C8691.811,1199.428,8693.174,1199.059,8693.477,1199.911Z" transform="translate(-8648.365 -1154.926)" fill="#00b580"/>
          <path id="Path_1247" data-name="Path 1247" d="M8702.468,1205.384a.706.706,0,0,1,0,1.412A.706.706,0,0,1,8702.468,1205.384Z" transform="translate(-8662.051 -1158.292)" fill="#00b580"/>
          <path id="Path_1248" data-name="Path 1248" d="M8740.824,1194.374a.706.706,0,0,1,0,1.412A.706.706,0,0,1,8740.824,1194.374Z" transform="translate(-8717.088 -1152.07)" fill="#00b580"/>
          <path id="Path_1249" data-name="Path 1249" d="M8743.969,1198.232a.737.737,0,0,1,.57-.607l.125-.029c1.04-.245,1,1.357.82,1.963-.081.272-.252.564-.532.6a.726.726,0,0,1-.622-.354A2.24,2.24,0,0,1,8743.969,1198.232Z" transform="translate(-8722.814 -1153.877)" fill="#00b580"/>
          <path id="Path_1250" data-name="Path 1250" d="M8773.667,1179.278l-.026,0c.194-.887,1.556-.512,1.361.376a1.279,1.279,0,0,1-.336.62C8774.074,1180.968,8773.08,1179.966,8773.667,1179.278Z" transform="translate(-8765.104 -1143.254)" fill="#00b580"/>
          <path id="Path_1251" data-name="Path 1251" d="M8792.858,1143.592c.052-.051.1-.1.154-.154a.707.707,0,0,1,1,1l-.155.155A.706.706,0,0,1,8792.858,1143.592Z" transform="translate(-8792.634 -1123.167)" fill="#00b580"/>
        </g>
        <g id="Group_641" data-name="Group 641" transform="translate(34.392 53.903)">
          <g id="Group_640" data-name="Group 640">
            <path id="Path_1252" data-name="Path 1252" d="M8804.054,1095.525c.9-3.4,1.757-7.746,4.891-9.882,3.017-2.056,7.026-.84,9.842,1.007a14.069,14.069,0,0,1,3.911,3.8c1.456,2.141,2.139,4.725,4.381,6.151,3.616-3.707.781-10.213,2.668-14.7,1.713-4.069,6.266-5.526,10.184-6.6,8.095-2.214,21.43-2.632,25.668,6.549.14.3.043.81-.365.864-5.527.725-13.416-2.367-17.934,2.183-.615.618-2.307,2.554-2.255,3.508.109,2.034,2.374,1.058,3.431.7a61.873,61.873,0,0,1,6.313-2.1c5.287-1.192,11.6-1.468,16.224,1.833,3.954,2.823,5.419,7.547,5.87,12.178.049.5-.535.669-.9.507-3.76-1.682-7.341-3.854-11.436-4.634a23.173,23.173,0,0,0-10.958.592c-.9.261-4.629.986-3.526,2.524.375.523,2.773.213,3.367.18,2.887-.16,5.751-.37,8.646-.276,5.459.177,12.74,1.016,16.184,5.875,2.957,4.171,2.263,9.822,2.553,14.64a.6.6,0,0,1-.9.507c-3.254-1.84-5.9-4.521-9.113-6.416a35.527,35.527,0,0,0-11.917-4.068c-1.771-.316-6.97-2-8.478-.876-1.773,1.319,1.489,2.446,2.316,2.782,1.518.616,3.085,1.121,4.636,1.648,6,2.041,12.562,4.115,16.932,8.987,3.379,3.767,2.937,9.229,1.287,13.706a.6.6,0,0,1-.876.349c-7.229-4.609-13.926-9.975-20.984-14.829a17.277,17.277,0,0,0-4.47-2.531q-1.668-.97-1.983,1.041-1.512,1.279.063,2.336a11.329,11.329,0,0,0,1.8,1.559,52.664,52.664,0,0,0,7.066,3.979c4.382,2.251,9.456,4.777,11.7,9.442,2.8,5.821-1.1,10.98-4.713,15.35a.594.594,0,0,1-.838-.013,18.774,18.774,0,0,1-2.629-5.815,20.246,20.246,0,0,0-5.93-8.664,44.66,44.66,0,0,0-6.692-4.641c-.956-.563-4.332-2.788-4.669-.4-.138.962,1.512,2.7,2.066,3.323,3.481,3.894,8.412,6.256,11.551,10.507,3.416,4.622,1.476,8.251-2.91,11.259a.6.6,0,0,1-.885-.517c.493-3.949-2.269-8.3-5.463-10.487a6.4,6.4,0,0,0-1.486-.81q-.63,1.143-1.266,2.285c.059.423,1.064,1.059,1.4,1.372a10.365,10.365,0,0,1,2.3,2.858c.988,1.861,1.713,4.361.15,6.115a8.883,8.883,0,0,1-3.258,1.857,25.613,25.613,0,0,0-5.367,3.345.6.6,0,0,1-.986-.275c-.919-2.8-5.115-2.756-7.006-4.66-1.686-1.7-1.754-4.3-1.886-6.547-.128-2.172-.132-7.6,1.641-10.479-.687-.763-1.318-.631-1.9.405a11.778,11.778,0,0,0-1.113,2.681,17.781,17.781,0,0,0-.607,4.877c-.025,2.73.354,5.452.6,8.165a.594.594,0,0,1-.593.591c-3.227-.226-8.459-2.587-9.023-6.141-.873-5.511,3.438-11.441,6.234-15.732,1.506-2.311,4.5-5.758,4.8-8.605.323-3.126-2.521-4.012-4.624-2.088a10.851,10.851,0,0,0-2.1,2.944,51.985,51.985,0,0,0-5.848,21.322.6.6,0,0,1-.751.569c-2.449-.844-4.763-2.86-6.853-4.387-1.417-1.034-2.323-2.2-2.156-4.03.193-2.106,1.456-4.032,2.36-5.885a65.483,65.483,0,0,1,5.148-8.994c1.043-1.486,2.146-2.93,3.268-4.355a24.657,24.657,0,0,0,2.879-3.581c.351-.7-.391-3.46-1.224-3.712-.809-.244-2.155.987-2.706,1.494a18.737,18.737,0,0,0-2.072,2.39c-4.246,5.49-7.738,12.118-7.673,19.212a.6.6,0,0,1-.9.507c-2.4-1.085-3.486-4.374-4.344-6.658a26.582,26.582,0,0,1-1.623-11.764c.7-7.99,4.746-14.234,11.218-18.664a7.023,7.023,0,0,0-3.126.1,5.36,5.36,0,0,0-2.5,1.446,21.956,21.956,0,0,1-2.312,2.649.6.6,0,0,1-.929-.134C8800.82,1104.172,8803.146,1098.961,8804.054,1095.525Zm33.1,17.793a4.334,4.334,0,0,0,.7.569,2.356,2.356,0,0,0,2.105.533c.1-.008.2.006.3-.013a.586.586,0,0,0,.412-.389.518.518,0,0,0,.036-.037.555.555,0,0,0,.388-.841,2.78,2.78,0,0,0-1.243-1.048c-.046-.043-.085-.092-.132-.134a.589.589,0,0,0-.576-.114,4.893,4.893,0,0,0-1.287-.137.61.61,0,0,0-.574.434,1.735,1.735,0,0,0-.045.284c-.025.022-.055.032-.078.056A.6.6,0,0,0,8837.15,1113.319Zm.4-4.628c.257.013.53.016.809.012a6.346,6.346,0,0,0,2.6.117,1.948,1.948,0,0,0,1.563-1.235,1.029,1.029,0,0,0,.366-1.282c-.353-.717-1.4-.968-2.1-1.158a.565.565,0,0,0-.307,0c-1.725-.415-3.98.125-4.842,1.36C8834.613,1107.98,8836.342,1108.626,8837.548,1108.691Zm-4.629-8.265c.065.689.792,1.048,1.4,1.157a4.271,4.271,0,0,0,1.7-.093,3.849,3.849,0,0,0,1.885-.451,1.458,1.458,0,0,0,.736-1.084c0-.021,0-.04,0-.06a1.381,1.381,0,0,0-1.017-1.444,4.9,4.9,0,0,0-3.674.532C8833.438,1099.284,8832.857,1099.769,8832.919,1100.426Zm-10.83,6.666a1.255,1.255,0,0,0,.5.817c.016.033.014.072.032.1a.938.938,0,0,0,.183.2,1.617,1.617,0,0,0,1.914.388,1.207,1.207,0,0,0,.64-1.061,1.578,1.578,0,0,0,.13-1.18.822.822,0,0,0-.047-.073,1.218,1.218,0,0,0-.924-.937C8823.537,1105.061,8821.949,1105.946,8822.089,1107.092Z" transform="translate(-8800.107 -1073.981)" fill="#39b04a"/>
          </g>
          <path id="Path_1253" data-name="Path 1253" d="M8905.568,1103.562c5.441,1.918,7.619,8.256,11.6,11.985a.493.493,0,0,1,.262.248c.013.012.024.025.038.036a.586.586,0,0,1,.208.57,90.935,90.935,0,0,1,3.1,9.969c.272.925.563,1.842.855,2.758.071.075.125.164.2.235a.62.62,0,0,1,.128.785c.878,2.707,1.78,5.4,2.485,8.169a106.847,106.847,0,0,1,2.714,11.909c.576,4.21.093,7.993.913,12.169.146.746-.215,1.5-.362.756-.7-3.531-1.029-7.1-1.452-10.668a95.184,95.184,0,0,0-2.7-12.833c-.658-2.531-1.194-5.257-1.993-7.7-.748-2.292-2.554-4.28-3.271-6.531a26.24,26.24,0,0,0-4.446-7.883c-4.049-5.455-8.345-11.938-16.114-8.979-.544.207-.962-.393-.867-.869C8897.625,1103.823,8902.152,1102.358,8905.568,1103.562Z" transform="translate(-8889.464 -1090.466)" fill="#0b7c5c"/>
        </g>
        <g id="Group_642" data-name="Group 642" transform="translate(0 55.549)">
          <path id="Path_1254" data-name="Path 1254" d="M9010.966,1100.005c-.3-1.275-.922-2.7-2.191-3.021a2.581,2.581,0,0,0-2.812,1.58,5,5,0,0,0-.014,3.434c.336,1.12.873,2.171,1.223,3.287a10.411,10.411,0,0,1,.374,4.332,19.988,19.988,0,0,1-2.764,1.87,25.328,25.328,0,0,1-4.943,2.023,12.666,12.666,0,0,0,.511-2,4.773,4.773,0,0,0-.155-2.6,2.264,2.264,0,0,0-2-1.474c-1.516.027-2.268,1.831-2.536,3.323a30.761,30.761,0,0,1-.812,3.876c-2.3.363-4.636.568-6.918.713-2.583.166-4.164-.188-5.251-1.193-1.028-.955-1.627-2.507-2.2-4.782a64.629,64.629,0,0,1-2.28-11.565,14.31,14.31,0,0,1,1.778-1.695c1.28-1.018,2.766-1.879,3.6-3.285s.629-3.615-.89-4.222a3.5,3.5,0,0,0-3.1.67c-.2.133-.375.3-.566.445,1.045-4.085,2.956-8.152,6.55-10.465,5.5-3.52,13.761-.416,15.151,5.447a7.581,7.581,0,0,1,.211,2.24,12.964,12.964,0,0,1,2.689-1.638c2.911-2.622,10.379,3.344,11.5,6.1,1.951,4.736-.275,10.2-3.737,14.427A18.628,18.628,0,0,0,9010.966,1100.005Z" transform="translate(-8978.201 -1077.768)" fill="#39b04a"/>
        </g>
      </g>
      <path id="Path_1255" data-name="Path 1255" d="M8800.119,1338.931l-6.095-40.161h67.565l-6.095,40.161c-.012.071-.022.142-.034.213-1.609,10.089-10.7,17.291-20.914,17.291h-13.479c-10.217,0-19.3-7.2-20.915-17.291C8800.142,1339.073,8800.131,1339,8800.119,1338.931Z" transform="translate(-8743.848 -1147.114)" fill="#e5e1e1"/>
      <g id="Group_644" data-name="Group 644" transform="translate(50.177 151.656)">
        <path id="Path_1256" data-name="Path 1256" d="M8873.715,1298.77l6.1,40.161c.011.071.021.142.034.213,1.609,10.089,10.7,17.291,20.915,17.291h-10.381c-10.218,0-19.306-7.2-20.915-17.291-.012-.071-.022-.142-.034-.213l-6.095-40.161Z" transform="translate(-8863.335 -1298.77)" fill="#d4d4d4" opacity="0.78"/>
      </g>
    </g>
  </g>
</svg>
