<svg xmlns="http://www.w3.org/2000/svg" width="608" height="598.258" viewBox="0 0 608 598.258">
  <g id="Group_924" data-name="Group 924" transform="translate(-1172 -331.621)">
    <rect id="Rectangle_268" data-name="Rectangle 268" width="515" height="581" transform="translate(1211.5 348.879)" fill="#52bbe1" opacity="0.15"/>
    <path id="Path_2150" data-name="Path 2150" d="M368.586,302.749c-3.1-9.844-12.313-44.96-14.523-46.284-2.849-1.708-67.744-1.364-71.067,0-2.829,1.161,13.9,47.894,16.015,53.535h71.565l-1.99-7.251Z" transform="translate(1007.317 307.922)" fill="#9baebf"/>
    <path id="Path_2151" data-name="Path 2151" d="M363.263,300.2c-2.7-8.6-10.752-39.256-12.681-40.412-2.488-1.492-59.15-1.191-62.051,0-2.47,1.013,12.134,41.817,13.983,46.743H365l-1.737-6.331Z" transform="translate(1007.317 307.922)" fill="#fff"/>
    <g id="Group_873" data-name="Group 873" transform="translate(1465.486 474.824)">
      <path id="Path_1520" data-name="Path 1520" d="M131.927,252.211l6.126,136.676,16.618.164,9.654-136.841Z" transform="translate(-102.213 -18.311)" fill="#f6bd96"/>
      <path id="Path_1521" data-name="Path 1521" d="M163.137,370.24l-9.4,9.413-7.372,2.155c-3.389.99-5.9,5.2-6.158,10.333l-.123,2.4,39.876.249-.2-24.386Z" transform="translate(-127.292 0.337)" fill="#343e7b"/>
      <path id="Path_1522" data-name="Path 1522" d="M180.178,392.54l-40.194-.247-.044-5.283,40.2.251.044,5.283" transform="translate(-127.348 2.986)"/>
      <path id="Path_1523" data-name="Path 1523" d="M163.411,283.382l-.208,2.958-30.065,1.3-.191-4.257Z" transform="translate(-102.48 -13.386)" fill="#cf9580"/>
      <path id="Path_1524" data-name="Path 1524" d="M156.331,374.655l2.379-31.318a43.857,43.857,0,0,1-20.5,0l1.505,31.15Z" transform="translate(-103.868 -3.914)" fill="#f4da83"/>
      <path id="Path_1525" data-name="Path 1525" d="M98.611,258.863l6.132,136.676,16.62.164,9.651-136.841Z" transform="translate(-30.32 -17.26)" fill="#f6bd96"/>
      <path id="Path_1526" data-name="Path 1526" d="M129.812,376.891l-9.4,9.413-7.373,2.155c-3.388.99-5.9,5.2-6.157,10.333l-.116,2.4,39.874.249-.2-24.385Z" transform="translate(-55.391 1.388)" fill="#343e7b"/>
      <path id="Path_1527" data-name="Path 1527" d="M146.868,399.2l-40.2-.251-.044-5.283,40.2.251.044,5.283" transform="translate(-55.458 4.037)"/>
      <path id="Path_1528" data-name="Path 1528" d="M130.1,283.382l-.21,2.958-30.065,1.3-.191-4.257Z" transform="translate(-30.587 -13.386)" fill="#cf9580"/>
      <path id="Path_1529" data-name="Path 1529" d="M123.016,381.307l2.379-31.318a43.856,43.856,0,0,1-20.5,0l1.505,31.15Z" transform="translate(-31.974 -2.863)" fill="#f4da83"/>
      <path id="Path_1530" data-name="Path 1530" d="M167.5,192.686s13.943,6.276,20.816,39.8a336.576,336.576,0,0,1,6.3,65.225H83.508s19.276-74.183,33.914-103.061Z" transform="translate(-76.437 -27.715)" fill="#00385d"/>
      <path id="Path_1533" data-name="Path 1533" d="M151.2,66.873c6.687,10.218,6.991,25.36,7.064,28.934.157,7.843-1.241,11.442.623,19.414,1.518,6.509,3.51,8.84,2.9,14.286-.57,5.092-2.689,5.864-2.7,11.463a22.417,22.417,0,0,0,2.045,9.8c1.383,2.9,2.3,2.973,3.466,5.887.821,2.047,2.919,6.62,1.388,8.379-.934,1.071-2.413.834-10.579-.008-7.748-.8-8.017-.672-9.343-1.261-4.569-2.033-7.254-6.172-8.7-8.409-3.106-4.787-2.621-7.051-5-8.005-3.31-1.328-7.709,1.666-8.626,2.3-2.238,1.527-2.293,2.536-3.731,3.206-4.26,1.986-9.615-2.85-12.315-4-11.319-4.833-16.653-18.1-20.433-30.211-4.215-13.5-7.932-28.08-4.044-41.684C84.177,73.6,88.4,61.9,99.716,55.148,117.136,44.761,141.651,52.282,151.2,66.873Z" transform="translate(-46.11 -50.207)" fill="#17204c"/>
      <path id="Path_1534" data-name="Path 1534" d="M136.2,235.146l10.847-50.9,4.232-15.605L159,138.994c.268-.723.551-1.366.831-2.025l.049-.171.019.006c6.494-15.15,16.043-14.3,16.043-14.3l.3,19.035,10.031,2.91-9.655,20.9,0,.285-.138.009-10.644,30.376c-4.061,9.654-7.833,21.182-8.054,21.2l-5.358,21.674Z" transform="translate(-129.108 -38.805)" fill="#e9bda0"/>
      <path id="Path_1535" data-name="Path 1535" d="M162.459,230.074c-.261,9.91,4.8,16.141,12.223,16.777s12.086-7.257,14.058-14.6c.834-3.1.629-7.328-1.031-9.792-2.206-3.264-6.96-3.8-11.8-4.217-3.435-.3-7.937-2.323-9.933,3.035C164.853,224.295,162.548,226.6,162.459,230.074Z" transform="translate(-162.449 -23.776)" fill="#edbc9f"/>
      <line id="Line_110" data-name="Line 110" x2="1.549" y2="7.63" transform="translate(13.799 139.234)" fill="none" stroke="#cb9180" stroke-linecap="round" stroke-linejoin="round" stroke-width="0.524"/>
      <path id="Path_1536" data-name="Path 1536" d="M137.449,121l20.735.9a8.475,8.475,0,0,1,7.559,11.473L147.91,204.014l-50.08,1.969L94.7,160.267s-10-8.742,2.449-24.183l5.066-12.275a4.53,4.53,0,0,1,4.188-2.8Z" transform="translate(-56.673 -39.04)" fill="#52bbe1"/>
      <line id="Line_111" data-name="Line 111" x1="50.08" y2="1.969" transform="translate(41.154 164.971)" fill="none" stroke="#dcbf66" stroke-miterlimit="10" stroke-width="0.74"/>
      <path id="Path_1538" data-name="Path 1538" d="M122.458,127.721a13.2,13.2,0,0,1,8.36.771,13.753,13.753,0,0,1,7.989,9.91h0c1.794,0,2.2,35.687-1.523,53.28a24.179,24.179,0,0,1-3.607,8.984,8.438,8.438,0,0,1-8.81,3.077l-38.3-7.915c-1.991-.5-1.3-15.53-1.3-15.53s27.126,4.331,27.587,4.119a4.288,4.288,0,0,0,2.365-4.652l-2.736-34.417A13.661,13.661,0,0,1,122.458,127.721Z" transform="translate(-23.86 -38.035)" fill="#e9bda0"/>
      <path id="Path_1539" data-name="Path 1539" d="M136.067,123.963V102.284H115.811v21.679c0,5.593,4.535,7.726,10.128,7.726h0C131.532,131.689,136.067,129.556,136.067,123.963Z" transform="translate(-55.292 -41.998)" fill="#e6bda0"/>
      <path id="Path_1540" data-name="Path 1540" d="M136.051,98.656s3.181,26.779-21,22.723l.021-12.117Z" transform="translate(-54.529 -42.571)" fill="#cf9580"/>
      <path id="Path_1541" data-name="Path 1541" d="M141.05,89.08c-.067,4.4,1.582,9.889,5.985,9.959s8.61-5.432,8.677-9.835a7.97,7.97,0,0,0-7.848-8.091C143.461,81.044,141.117,84.68,141.05,89.08Z" transform="translate(-104.162 -45.343)" fill="#ce9480"/>
      <path id="Path_1542" data-name="Path 1542" d="M124.477,124.092c13.129-1.71,22-9.351,28.758-25.106L157.4,72.709A6.475,6.475,0,0,0,152,65.317l-30.2-8.921c-6.308-.984-14.548,7.168-15.534,13.478l-3.75,20.117c-.126.787-.023,4.066,0,4.864.486,16.8,12.64,27.162,20.229,29.135A4.536,4.536,0,0,0,124.477,124.092Z" transform="translate(-61.238 -49.26)" fill="#e9bda0"/>
      <path id="Path_1543" data-name="Path 1543" d="M129.118,103.536s6.121,4.622,15.369,0" transform="translate(-79.121 -41.8)" fill="none" stroke="#cb9180" stroke-linecap="round" stroke-linejoin="round" stroke-width="0.524"/>
      <path id="Path_1544" data-name="Path 1544" d="M103.03,92.171a7.448,7.448,0,0,0,7.332,7.561h0a7.447,7.447,0,0,0,.229-14.893h0a7.447,7.447,0,0,0-7.561,7.331Z" transform="translate(-22.348 -44.754)" fill="#e9bda0"/>
      <path id="Path_1545" data-name="Path 1545" d="M118.293,75.007c3.226,4.916,8.832,7.657,13.082,11.718,7.957,7.613,6.97,16.9,7.067,29.066,10.889-5.269,18.949-13.643,22.006-25.354s-.376-25.2-9.544-33.1c-9.885-8.517-25.308-9.316-36.587-2.754s-18.11,19.65-18.162,32.7c-.623-2.7,1.094-5.452,3.279-7.159s4.835-2.7,7.176-4.188c5.591-3.556,8.634-9.48,10.246-15.719A16.526,16.526,0,0,0,118.293,75.007Z" transform="translate(-57.854 -50.223)" fill="#17204c"/>
      <path id="Path_1546" data-name="Path 1546" d="M93.8,161.052a8.336,8.336,0,0,1-4.083-4.844c-.764-3.123,1.365-5.7,3.122-8.7,4.9-8.366,5.777-16.878,6.456-24.674.373-4.29-.229-2.8-.029-11.061.171-7.032.683-11.111,1.73-21.793.415-4.257,1.011-10.5,1.677-18.178,19.253,11.763,23.843,21.8,24.06,29.151.274,9.345-2.49,10.944,0,21.887a83.039,83.039,0,0,0,5.231,13.677c2.168,4.514-.42,9.848,0,11.8,1.337,6.223-1.869,14.9-7.342,16.776-5.206,1.788-7.177-4.392-16.44-4.5C101.639,160.508,98.3,163.533,93.8,161.052Z" transform="translate(-21.664 -46.814)" fill="#17204c"/>
      <path id="Path_1547" data-name="Path 1547" d="M64.149,51.191" transform="translate(76.45 -50.07)" fill="#17204c"/>
      <path id="Path_1548" data-name="Path 1548" d="M144.548,101.78c-.889-.915-2.2-1.551-2.666-2.744-.115-1.013,2.45-3.966,2.362-9.259-.03-1.513.215-3.847-.945-4.88a4.4,4.4,0,0,0-4.728-.859" transform="translate(-90.13 -44.935)" fill="none" stroke="#d5a27a" stroke-linecap="round" stroke-linejoin="round" stroke-width="1.651"/>
      <path id="Path_1549" data-name="Path 1549" d="M133.286,88.293c-1.094-.025-2.779-.032-4.169-.02" transform="translate(-67.919 -44.212)" fill="none" stroke="#3c3c5b" stroke-linecap="round" stroke-miterlimit="10" stroke-width="1.651"/>
      <path id="Path_1550" data-name="Path 1550" d="M146.361,88.582c-.862,0-2.264-.006-3.21,0" transform="translate(-97.245 -44.163)" fill="none" stroke="#3c3c5b" stroke-linecap="round" stroke-miterlimit="10" stroke-width="1.651"/>
      <path id="Path_1551" data-name="Path 1551" d="M134.063,84.223a12.192,12.192,0,0,0-5.6.354" transform="translate(-67.939 -44.879)" fill="none" stroke="#d5a27a" stroke-linecap="round" stroke-miterlimit="10" stroke-width="1.651"/>
      <g id="Group_871" data-name="Group 871" transform="translate(51.011 115.545)">
        <rect id="Rectangle_146" data-name="Rectangle 146" width="30.152" height="0.502" transform="translate(6.32 32.082) rotate(-100.121)" fill="#e5e5e5"/>
        <path id="Path_1605" data-name="Path 1605" d="M139.966,151.631c.226.74.792,1.223,1.265,1.08s.676-.863.45-1.6-.792-1.223-1.265-1.082S139.741,150.89,139.966,151.631Z" transform="translate(-139.874 -150.004)" fill="#00385d"/>
      </g>
      <path id="Path_1537" data-name="Path 1537" d="M135.747,191.479c3.268.675,6.155,1.311,8.983-1.371,2.08-1.972,2-4.853,2.622-7.881.616-2.981,2.4-6.027,1.3-8.624-1.192-2.8-4.879-4.234-8.187-4.92a11.64,11.64,0,1,0-4.713,22.8Z" transform="translate(-80.564 -31.546)" fill="#edbc9f"/>
    </g>
    <path id="Path_2152" data-name="Path 2152" d="M324.928,331.293l6.628-24h3.74l-7.3,24Z" transform="translate(1007.317 307.922)" fill="#9baebf"/>
    <path id="Path_2153" data-name="Path 2153" d="M341,331.293l-6.249-24h-3.527l6.879,24Z" transform="translate(1007.317 307.922)" fill="#9baebf"/>
    <g id="Group_874" data-name="Group 874" transform="translate(5436.937 20270.508)">
      <circle id="Ellipse_99" data-name="Ellipse 99" cx="30.499" cy="30.499" r="30.499" transform="matrix(0.162, -0.987, 0.987, 0.162, -4056.688, -19797.34)" fill="#00385d"/>
      <circle id="Ellipse_100" data-name="Ellipse 100" cx="27.211" cy="27.211" r="27.211" transform="matrix(0.521, -0.854, 0.854, 0.521, -4059.044, -19813.418)" fill="#fffbfa"/>
      <path id="Path_1553" data-name="Path 1553" d="M-795.195,119.16a1.474,1.474,0,0,1-1.475,1.475,1.474,1.474,0,0,1-1.474-1.475,1.474,1.474,0,0,1,1.474-1.474A1.474,1.474,0,0,1-795.195,119.16Z" transform="translate(-3224.501 -19941.648)" fill="#00385d"/>
      <path id="Path_1554" data-name="Path 1554" d="M-769.781,118.525A1.473,1.473,0,0,1-771.254,120a1.473,1.473,0,0,1-1.474-1.474,1.474,1.474,0,0,1,1.474-1.474A1.474,1.474,0,0,1-769.781,118.525Z" transform="translate(-3227.245 -19941.58)" fill="#00385d"/>
      <path id="Path_1555" data-name="Path 1555" d="M-795.195,93.321a1.474,1.474,0,0,1-1.475,1.475,1.474,1.474,0,0,1-1.474-1.475,1.474,1.474,0,0,1,1.474-1.474A1.474,1.474,0,0,1-795.195,93.321Z" transform="translate(-3224.501 -19938.859)" fill="#00385d"/>
      <path id="Path_1556" data-name="Path 1556" d="M-820.745,119.16a1.474,1.474,0,0,1-1.474,1.475,1.474,1.474,0,0,1-1.474-1.475,1.474,1.474,0,0,1,1.474-1.474A1.474,1.474,0,0,1-820.745,119.16Z" transform="translate(-3221.743 -19941.648)" fill="#00385d"/>
      <path id="Path_1557" data-name="Path 1557" d="M-795.195,143.95a1.474,1.474,0,0,1-1.475,1.474,1.474,1.474,0,0,1-1.474-1.474,1.474,1.474,0,0,1,1.474-1.475A1.474,1.474,0,0,1-795.195,143.95Z" transform="translate(-3224.501 -19944.324)" fill="#00385d"/>
      <path id="Path_1558" data-name="Path 1558" d="M-787.6,107.178c-1.243,1.836-2.6,3.583-3.949,5.334-1.383,1.726-2.758,3.458-4.259,5.09a.309.309,0,0,1-.436.019.309.309,0,0,1-.046-.4c1.242-1.837,2.609-3.575,3.97-5.318,1.392-1.719,2.78-3.441,4.279-5.074a.282.282,0,0,1,.4-.018A.283.283,0,0,1-787.6,107.178Z" transform="translate(-3224.695 -19940.467)" fill="#00385d"/>
      <path id="Path_1559" data-name="Path 1559" d="M-796.268,120.961a33.42,33.42,0,0,1,.21,3.7,30.417,30.417,0,0,1-.185,3.7.311.311,0,0,1-.349.267.31.31,0,0,1-.267-.267,30.441,30.441,0,0,1-.185-3.7,33.436,33.436,0,0,1,.211-3.7.284.284,0,0,1,.319-.245A.287.287,0,0,1-796.268,120.961Z" transform="translate(-3224.62 -19941.975)" fill="#00385d"/>
      <path id="Path_1560" data-name="Path 1560" d="M-782.783,95.264a6.217,6.217,0,0,1-.59,1.48,5.627,5.627,0,0,1-.933,1.286.322.322,0,0,1-.456-.013.324.324,0,0,1-.081-.287,5.644,5.644,0,0,1,.611-1.467,6.269,6.269,0,0,1,.956-1.275.3.3,0,0,1,.418.012A.3.3,0,0,1-782.783,95.264Z" transform="translate(-3225.937 -19939.189)" fill="#00385d"/>
      <path id="Path_1561" data-name="Path 1561" d="M-772.947,105.244a6.888,6.888,0,0,1-1.293,1.069,6.265,6.265,0,0,1-1.5.736.321.321,0,0,1-.4-.221.326.326,0,0,1,.067-.3,6.294,6.294,0,0,1,1.306-1.047,6.878,6.878,0,0,1,1.518-.714.294.294,0,0,1,.364.2A.3.3,0,0,1-772.947,105.244Z" transform="translate(-3226.875 -19940.252)" fill="#00385d"/>
      <path id="Path_1562" data-name="Path 1562" d="M-809.747,94.987a6.205,6.205,0,0,1,.956,1.275,5.621,5.621,0,0,1,.612,1.467.322.322,0,0,1-.25.382.324.324,0,0,1-.287-.081,5.657,5.657,0,0,1-.934-1.286,6.25,6.25,0,0,1-.589-1.48.3.3,0,0,1,.227-.351A.3.3,0,0,1-809.747,94.987Z" transform="translate(-3223.195 -19939.189)" fill="#00385d"/>
      <path id="Path_1563" data-name="Path 1563" d="M-819.919,104.768a6.86,6.86,0,0,1,1.518.714,6.278,6.278,0,0,1,1.307,1.047.321.321,0,0,1-.031.453.324.324,0,0,1-.3.067,6.249,6.249,0,0,1-1.5-.736,6.83,6.83,0,0,1-1.293-1.069.294.294,0,0,1,.028-.415A.3.3,0,0,1-819.919,104.768Z" transform="translate(-3222.11 -19940.252)" fill="#00385d"/>
      <path id="Path_1564" data-name="Path 1564" d="M-783.276,142.251a6.289,6.289,0,0,1-.956-1.274,5.663,5.663,0,0,1-.611-1.468.322.322,0,0,1,.249-.382.325.325,0,0,1,.288.081,5.628,5.628,0,0,1,.933,1.286,6.208,6.208,0,0,1,.59,1.481.3.3,0,0,1-.227.35A.3.3,0,0,1-783.276,142.251Z" transform="translate(-3225.937 -19943.963)" fill="#00385d"/>
      <path id="Path_1565" data-name="Path 1565" d="M-773.248,132.581a6.922,6.922,0,0,1-1.518-.715,6.219,6.219,0,0,1-1.307-1.047.322.322,0,0,1,.031-.453.326.326,0,0,1,.3-.067,6.254,6.254,0,0,1,1.5.736,6.924,6.924,0,0,1,1.293,1.07.294.294,0,0,1-.028.415A.3.3,0,0,1-773.248,132.581Z" transform="translate(-3226.875 -19943.008)" fill="#00385d"/>
      <path id="Path_1566" data-name="Path 1566" d="M-810.239,141.975a6.244,6.244,0,0,1,.59-1.481,5.655,5.655,0,0,1,.933-1.286.322.322,0,0,1,.457.013.326.326,0,0,1,.081.287,5.7,5.7,0,0,1-.612,1.468,6.222,6.222,0,0,1-.956,1.274.3.3,0,0,1-.417-.012A.3.3,0,0,1-810.239,141.975Z" transform="translate(-3223.195 -19943.963)" fill="#00385d"/>
      <path id="Path_1567" data-name="Path 1567" d="M-820.221,132.105a6.869,6.869,0,0,1,1.293-1.07,6.249,6.249,0,0,1,1.5-.736.322.322,0,0,1,.4.221.325.325,0,0,1-.067.3,6.221,6.221,0,0,1-1.307,1.047,6.884,6.884,0,0,1-1.518.715.294.294,0,0,1-.363-.2A.3.3,0,0,1-820.221,132.105Z" transform="translate(-3222.11 -19943.008)" fill="#00385d"/>
    </g>
    <line id="Line_144" data-name="Line 144" x2="608" transform="translate(1172 348.121)" fill="none" stroke="#89c0d5" stroke-width="33"/>
    <path id="Path_2154" data-name="Path 2154" d="M1206.645,1576.247h-.3a3.212,3.212,0,0,1-3.111-3.372l4.718-216.546,13.9-1.716L1210,1572.891A3.451,3.451,0,0,1,1206.645,1576.247Z" transform="translate(86.755 -693.336)" fill="#9ee493"/>
    <path id="Rectangle_270" data-name="Rectangle 270" d="M12.337,0H350.419a12.338,12.338,0,0,1,12.338,12.338v0a12.338,12.338,0,0,1-12.338,12.338H12.337A12.337,12.337,0,0,1,0,12.339v0A12.337,12.337,0,0,1,12.337,0Z" transform="translate(1275.351 651.766)" fill="#9ee493"/>
    <path id="Path_2155" data-name="Path 2155" d="M1218.446,1576.248h.3a3.213,3.213,0,0,0,3.111-3.372l-4.718-216.547-13.9-1.717,11.852,218.279A3.451,3.451,0,0,0,1218.446,1576.248Z" transform="translate(94.745 -694.496)" fill="#9ee493"/>
    <path id="Rectangle_271" data-name="Rectangle 271" d="M12,0H33A12,12,0,0,1,45,12v0a0,0,0,0,1,0,0H0a0,0,0,0,1,0,0v0A12,12,0,0,1,12,0Z" transform="translate(1316.842 639.766)" fill="#00385d"/>
  </g>
</svg>
