<svg xmlns="http://www.w3.org/2000/svg" width="551.511" height="500.408" viewBox="0 0 551.511 500.408">
  <g id="Group_912" data-name="Group 912" transform="translate(-171 -1797.891)">
    <g id="Group_666" data-name="Group 666" transform="translate(-2993.023 2193.03)" opacity="0.15">
      <line id="Line_99" data-name="Line 99" x1="164.064" transform="translate(3491.958 -229.033)" fill="none" stroke="#231f20" stroke-miterlimit="10" stroke-width="1.616"/>
      <g id="Group_665" data-name="Group 665" transform="translate(3491.958 -394.331)">
        <line id="Line_100" data-name="Line 100" x1="164.064" transform="translate(0 132.238)" fill="none" stroke="#231f20" stroke-miterlimit="10" stroke-width="1.616"/>
        <line id="Line_101" data-name="Line 101" x1="164.064" transform="translate(0 99.179)" fill="none" stroke="#231f20" stroke-miterlimit="10" stroke-width="1.616"/>
        <line id="Line_102" data-name="Line 102" x1="164.064" transform="translate(0 66.119)" fill="none" stroke="#231f20" stroke-miterlimit="10" stroke-width="1.616"/>
        <path id="Path_1389" data-name="Path 1389" d="M164.064,0H0" transform="translate(0 33.06)" fill="none" stroke="#231f20" stroke-width="1.616"/>
        <path id="Path_1390" data-name="Path 1390" d="M164.064,0H0" transform="translate(0 0)" fill="none" stroke="#231f20" stroke-width="1.616"/>
        <line id="Line_104" data-name="Line 104" y2="165.396" transform="translate(32.939)" fill="none" stroke="#231f20" stroke-miterlimit="10" stroke-width="1.616"/>
        <line id="Line_105" data-name="Line 105" y2="165.396" transform="translate(65.878)" fill="none" stroke="#231f20" stroke-miterlimit="10" stroke-width="1.616"/>
        <line id="Line_106" data-name="Line 106" y2="165.396" fill="none" stroke="#231f20" stroke-miterlimit="10" stroke-width="1.616"/>
        <line id="Line_107" data-name="Line 107" y2="165.396" transform="translate(164.064)" fill="none" stroke="#231f20" stroke-miterlimit="10" stroke-width="1.616"/>
        <line id="Line_108" data-name="Line 108" y2="165.396" transform="translate(131.125)" fill="none" stroke="#231f20" stroke-miterlimit="10" stroke-width="1.616"/>
        <line id="Line_109" data-name="Line 109" y2="165.396" transform="translate(98.187)" fill="none" stroke="#231f20" stroke-miterlimit="10" stroke-width="1.616"/>
      </g>
    </g>
    <g id="Group_663" data-name="Group 663" transform="translate(-1069.549 -846.582)">
      <path id="Path_1338" data-name="Path 1338" d="M1654.631,3134.708a63.361,63.361,0,0,1-20.476,26.34c-30.157,22.885-79.244,20.771-114.311,19.453-69.155-2.614-139.377-9.8-204.715-33.93-34.027-12.569-61.274-38.4-70.425-74.18-7.33-28.657-4-59.015,2.572-87.854,5.943-26.068,14.606-51.77,28.6-74.555,18.006-29.33,54.719-68.3,92.8-58.85,15.87,3.938,28.661,15.688,38.828,28.494a169.656,169.656,0,0,1,27.725,50.873c6.1,17.991,9.333,37.356,19.768,53.231,12.381,18.836,33.453,29.734,55.092,34.113,23.707,4.8,47.343-1.491,71.232,2.941,25.475,4.727,49.611,18.658,64.337,39.974C1660.4,3082.075,1664.767,3110.869,1654.631,3134.708Z" transform="translate(0 -36.356)" fill="#ffd91f"/>
      <path id="Path_1334" data-name="Path 1334" d="M1498.854,2787.327c.78,20.638-4.943,40.893-7.877,61.336s-2.693,42.7,8.634,59.966c-28.264,2.584-56.619-12.6-73.044-35.741s-21.6-53.154-17.457-81.231c2.337-15.831,1.144-38.461,12.361-49.874,11.441-11.642,37.027-12.1,51.955-2.83C1489.1,2748.689,1498.2,2769.92,1498.854,2787.327Z" transform="translate(-51.86)" fill="#091a4c"/>
      <path id="Path_1335" data-name="Path 1335" d="M1554.834,2954.7c-3.953,11.7-31.184,73.094-39.455,81.053l17.789,20.841c8.9-5.825,27.132-71.56,29.963-94.083Z" transform="translate(-85.244 -68.928)" fill="#f6bd96"/>
      <path id="Path_1336" data-name="Path 1336" d="M1587.751,2932.1a28.427,28.427,0,0,1,11.048-2.68,24.9,24.9,0,0,1,4.557.265c.751.115,3.769.629,3.286,1.4a1.8,1.8,0,0,1-1.064.7q-3.081,1.075-6.147,2.188-2.453.891-4.9,1.806c-.554.208,1.251,1.314,1.33,1.38a6.132,6.132,0,0,1,1.679,2.4,8.14,8.14,0,0,1,.062,5.717c-1.06,2.933-3.506,5.168-6.173,6.783a25.419,25.419,0,0,1-13.8,3.644c-2.367-.067-4.957-2.857-5.5-5.076-.553-2.254.379-4.557,1.547-6.452,2.771-4.5,7.332-8.129,11.8-10.837A24.17,24.17,0,0,1,1587.751,2932.1Z" transform="translate(-102.795 -61.083)" fill="#f6bd96"/>
      <path id="Path_1337" data-name="Path 1337" d="M1647.623,2959.383l-26.977.438a2.2,2.2,0,0,1-2.158-2.793l14.059-50.594a2.2,2.2,0,0,1,2.087-1.613l26.976-.438a2.2,2.2,0,0,1,2.159,2.793l-14.059,50.594A2.2,2.2,0,0,1,1647.623,2959.383Z" transform="translate(-117.2 -53.32)" fill="#091a4c"/>
      <path id="Path_1339" data-name="Path 1339" d="M1492.347,2974.326c.6,20.812,5.529,42.149,20.894,57.1,11.643,11.332,27.235,17.662,43.094,20.259,24.519,4.015,52.4.152,74.989-11.926-14.408.381-28.771,1.545-43.159-1.368-21.639-4.379-42.71-15.277-55.093-34.113-10.434-15.875-13.666-35.24-19.768-53.231a169.486,169.486,0,0,0-16.775-35.1C1494.737,2935.386,1491.785,2954.756,1492.347,2974.326Z" transform="translate(-78.078 -56.907)" fill="#ffd91f"/>
      <path id="Path_1340" data-name="Path 1340" d="M1422.235,2896.61c12.448,7.346,22.777,33.947,69.2,32.266-12.833-12.086-27.193-31.933-31.59-42.132-3.084-7.152-5.248-14.187-4.461-21.936s3.92-13.251,13.135-14.8c-6.282-2.24-12.006-4.131-19.384-6.844-3.066-1.128-24.148-14.5-24.148-14.5S1435.929,2876.948,1422.235,2896.61Z" transform="translate(-56.353 -29.834)" fill="#f6b07f"/>
      <path id="Path_1341" data-name="Path 1341" d="M1541.765,3253c-18.7-2.5-37.234-6.141-55.782-9.553-19.138-3.52-38.248-7.242-57.183-11.746-30.936-7.358-61.647-16.769-90.224-30.889-24.432-12.072-47.429-27.727-65.682-48.122a157.328,157.328,0,0,1-31.55-53.832c-1.458,17.093-.854,34.239,3.386,50.817,9.151,35.778,36.4,61.611,70.425,74.181,65.337,24.135,135.561,31.316,204.715,33.93,18.225.685,40.229,1.553,61.4-.954C1568.066,3255.973,1554.884,3254.752,1541.765,3253Z" transform="translate(-0.024 -113.641)" fill="#eeca1a"/>
      <path id="Path_1342" data-name="Path 1342" d="M1425.913,3039.664a196.383,196.383,0,0,1-35.529-87.039c-1.2-8.242-1.964-16.843-6.148-24.046-7.4-12.736-24.672-13.287-22.782,3.724,1.544,13.9,7.016,28.288,12.782,40.931a181.994,181.994,0,0,0,22.4,36.744C1405.112,3020.776,1418.073,3028.922,1425.913,3039.664Z" transform="translate(-37.456 -57.933)" fill="#eeca1a"/>
      <path id="Path_1343" data-name="Path 1343" d="M1988.689,3237.053c-1.384,3.42-5.538,4.959-9.219,4.7s-7.107-1.866-10.617-3a42.5,42.5,0,0,0-19.905-1.5c-5.06.833-11.121,2.284-14.632-1.454-3.032-3.228-2.137-8.312-2.266-12.74a24.261,24.261,0,0,0-9.951-18.708c1.077.769,4.955-6.68,6.482-7.049,3.25-.786,6.447-2.645,8.685-.365,4.713,4.8,10.265,15.382,15.505,19.774A113.434,113.434,0,0,0,1988.689,3237.053Z" transform="translate(-211.396 -143.723)" fill="#f5b284"/>
      <path id="Path_1344" data-name="Path 1344" d="M1995.416,3280.874c-.694,2.424-4.3,2.086-6.2,1.964-2.758-.177-5.584-.02-8.277-.357-4.594-.575-9.009.526-13.566.78a45.582,45.582,0,0,1-13.391-1.248c-6.184-1.522-11.008-1.224-17.264.181-4.7,1.056-12.712,1.521-15.663-3.356-1.995-3.3-.364-7.5-.4-11.35-.052-6.088-4.357-11.279-8.927-15.3-7.231-6.365-14.869-11.937-15.257-22.479-.28-7.617,10.306-14.709,17.358-12.6,5.543,1.656,8.213,7.738,10.72,12.952a78.625,78.625,0,0,0,12.839,19.048c5.316,5.8,13.888,9.271,20.778,12.854,0,.641,6.646,3.454,7.466,3.88l8.252,4.289q3.929,2.042,7.859,4.085a22.164,22.164,0,0,0,8,2.176,10.252,10.252,0,0,1,3.977,1.036A3.245,3.245,0,0,1,1995.416,3280.874Z" transform="translate(-203.445 -150.2)" fill="#f6bd96"/>
      <path id="Path_1345" data-name="Path 1345" d="M1763.527,3119.825c19.2,11.279,23.089,5.747,40.972,19,3.361,2.492,16.268,11.043,20.3,12.289,2.361.731,8.554,8.287,10.412,9.371,3.752,2.189,13.907,12.039,14.054,12.88.378,2.157-12.2,15.548-18.16,18.919-11.128,6.293-19.208,14.093-31.615,17.8-1.668.5-21.532-27.9-40.837-42.307-13.673-10.2-27.582-20.771-43.748-26.5-13.3-4.711-24.953-12.125-39.427-13.279-9.731-.776-19.649-1.718-29.458-2.309-3.945-.237-28.622-3.13-30.6.018l21.674-34.487c6.175-9.826,7.887-15.156,19.8-13.008,23.969,4.322,47.2,12.1,69.35,22.16A400.632,400.632,0,0,1,1763.527,3119.825Z" transform="translate(-116.272 -107.091)" fill="#02406a"/>
      <path id="Path_1346" data-name="Path 1346" d="M1529.656,3030.62c-6.635,5.613-9.749,14.181-13.408,22.067-3.66,7.863-8.8,16-17.044,18.681-6.046,1.954-12.658.591-18.7-1.364-25.157-8.159-46.361-26.293-61.109-48.224-14.772-21.908-23.454-47.474-28.476-73.428-3.545-18.271-4.545-41.884,13.476-53.269,9.522-6.022,21.976-4.249,32.635-.568,13.794,4.75,27.589,12.5,37.93,22.885,9.863,9.885,23.816,21.657,24.339,36.816q.034.75,0,1.5c-.227,8.364-4.772,15.863-5.136,24.112-.272,6.614,1.455,15.067,3.682,21.272a48.339,48.339,0,0,0,5.363,10.522,49.359,49.359,0,0,0,7.386,8.568C1512.7,3022.121,1526.68,3033.143,1529.656,3030.62Z" transform="translate(-45.992 -49.215)" fill="#297045"/>
      <path id="Path_1347" data-name="Path 1347" d="M1543.676,3040.654a30.4,30.4,0,0,0-3.84,11,53.548,53.548,0,0,1-19.976-33.044c-1.091-6.2-.818-13.249,3.341-17.976,2.341-2.658,5.636-4.249,8.477-6.363a22.184,22.184,0,0,0,8.09-9.522c-.227,8.364-4.772,15.863-5.137,24.112-.272,6.614,1.455,15.067,3.682,21.272A48.335,48.335,0,0,0,1543.676,3040.654Z" transform="translate(-86.464 -78.247)" fill="#22653d"/>
      <path id="Path_1348" data-name="Path 1348" d="M1558.031,3132.938c9.624-.328,19.288-1.431,29.043-2.579l66.571-7.827c19.024-2.237,37.155-5.305,56.131-3.143,30.38,3.462,50.03,11.723,76,26.368,4.077,2.3,16.693,11.544,16.693,11.544,2.4-1.776,7.532-6.3,9.418-10.128,1.318-2.677-30.161-26.89-44.2-38.568-34.544-28.738-77.382-47.007-121.777-53.392a246.086,246.086,0,0,0-67.1-.493c-19.882,2.621-44.962,7.4-61.052,20.157-7.94,6.3-32.936,24.488-24.046,37.285,7.4,10.657,20.136,15.064,32.214,17.97A118.631,118.631,0,0,0,1558.031,3132.938Z" transform="translate(-77.94 -99.311)" fill="#00385d"/>
      <path id="Path_1349" data-name="Path 1349" d="M1612.883,3183.372c-38.237,2.409-76.924,4.794-114.622-2.042a190.58,190.58,0,0,1-54.254-18.151c-11.1-5.8-41.481-22.1-42.8-35.937,25.99-7.616,60.531-2.847,86.752,1.789a293.622,293.622,0,0,1,82.9,27.862A281.383,281.383,0,0,1,1612.883,3183.372Z" transform="translate(-49.831 -121.202)" fill="#eeca1a"/>
      <path id="Path_1350" data-name="Path 1350" d="M1417.644,2764.354c10.2-5.553,21.844-8.48,33.349-9.467,9.406-.807,20.212-.486,29.207,3.4,6.189,10.728,7.778,23.483,6.549,35.657-.733,7.251-5.875,34.676-17.415,43.4-15.2,11.487-43.023-17.3-47.917-27.385-6.323-13.032-8.867-22.549-6.222-36.576A65.082,65.082,0,0,1,1417.644,2764.354Z" transform="translate(-53.849 -6.84)" fill="#f6bd96"/>
      <path id="Path_1351" data-name="Path 1351" d="M1395.955,3145.069a302.587,302.587,0,0,1,151.844,26.364" transform="translate(-48.202 -127.626)" fill="none" stroke="#e1bf18" stroke-linecap="round" stroke-miterlimit="10" stroke-width="9.883"/>
      <path id="Path_1352" data-name="Path 1352" d="M1495.058,2838.564c1.331-.795,3.075-1.125,3.992-2.383.453-1.153-1.629-5.425.144-11.608.507-1.767,1.069-3.33,2.752-4.178a9.1,9.1,0,0,1,5.708-.771" transform="translate(-78.941 -26.981)" fill="none" stroke="#eba475" stroke-linecap="round" stroke-linejoin="round" stroke-width="1.594"/>
      <path id="Path_1354" data-name="Path 1354" d="M1480.229,2824.914a7.183,7.183,0,0,1,6.8.956" transform="translate(-74.341 -28.529)" fill="none" stroke="#e7a579" stroke-linecap="round" stroke-miterlimit="10" stroke-width="1.594"/>
      <path id="Path_1355" data-name="Path 1355" d="M1467.858,2741.378c8.835,6.584,14.154,11.886,10.639,21.937-2.654,7.589-42.145,59.583-87.051,62.318,2.641-4.11,8.828-19.158,6.7-32.49s-2.506-27.525,3.75-39.712C1413.575,2730.679,1447.669,2726.333,1467.858,2741.378Z" transform="translate(-46.804 -0.028)" fill="#091a4c"/>
      <path id="Path_1356" data-name="Path 1356" d="M1415.161,2938.267c-2.663,7.417-.905,15.649,1.453,23.168a155.465,155.465,0,0,0,79.707,92.279c6.721,3.245,14.208,6.054,21.5,4.483,7.405-1.594,13.123-7.376,17.927-13.233,8.725-10.637,21.241-61.181,30.061-72.414,4.064-5.175,8.7-9.993,11.7-15.854,3.6-7.049,4.7-14.767,5.379-22.632a.7.7,0,0,0-1.214-.536c-5.255,6.327-18,15.572-23.409,18.853l4.3-14.477a28.327,28.327,0,0,0-12.662,16.328c-1.821,6.33-1.355,13.085-2.495,19.572-1.907,10.85-23.121,48.481-28.76,48.483-3.382,0-6.409-1.988-9.138-3.985a162.934,162.934,0,0,1-52.856-66.034c-2.476-5.683-4.67-11.587-8.4-16.541C1439.876,2924.584,1420.573,2923.192,1415.161,2938.267Z" transform="translate(-53.745 -60.385)" fill="#f6bd96"/>
    </g>
    <g id="Group_664" data-name="Group 664" transform="translate(-1116.829 1383.566)">
      <path id="Path_1357" data-name="Path 1357" d="M1658.006,497.719a52.241,52.241,0,1,1,52.129,52.353A52.3,52.3,0,0,1,1658.006,497.719Z" transform="translate(-2.658 0)" fill="#a6a8ab"/>
      <path id="Path_1358" data-name="Path 1358" d="M1651.1,498.343a51.5,51.5,0,1,1,51.391,51.612A51.56,51.56,0,0,1,1651.1,498.343Z" transform="translate(0 -0.524)" fill="#fff" stroke="#929497" stroke-miterlimit="10" stroke-width="4.83"/>
      <path id="Path_1359" data-name="Path 1359" d="M1801.892,545.685a.241.241,0,0,1,.285-.167l3,.652a.228.228,0,0,1,.168.285.246.246,0,0,1-.288.183l-2.995-.684A.22.22,0,0,1,1801.892,545.685Z" transform="translate(-58.018 -38.446)" fill="#808184"/>
      <path id="Path_1360" data-name="Path 1360" d="M1796.828,560.289a.233.233,0,0,1,.309-.1l2.782,1.3a.236.236,0,0,1,.106.318.238.238,0,0,1-.316.117l-2.767-1.334A.23.23,0,0,1,1796.828,560.289Z" transform="translate(-56.064 -44.083)" fill="#808184"/>
      <path id="Path_1361" data-name="Path 1361" d="M1788.694,573.431a.223.223,0,0,1,.318-.036l2.423,1.889a.244.244,0,0,1,.039.338.23.23,0,0,1-.328.048l-2.4-1.915A.238.238,0,0,1,1788.694,573.431Z" transform="translate(-52.925 -49.155)" fill="#808184"/>
      <path id="Path_1362" data-name="Path 1362" d="M1777.844,584.458a.242.242,0,0,1,.328.047l1.944,2.379a.227.227,0,0,1-.046.327.248.248,0,0,1-.341-.038l-1.919-2.4A.219.219,0,0,1,1777.844,584.458Z" transform="translate(-48.735 -53.414)" fill="#808184"/>
      <path id="Path_1363" data-name="Path 1363" d="M1764.786,592.725a.233.233,0,0,1,.306.113l1.365,2.752a.235.235,0,0,1-.115.315.238.238,0,0,1-.321-.105l-1.336-2.766A.229.229,0,0,1,1764.786,592.725Z" transform="translate(-43.695 -56.603)" fill="#808184"/>
      <path id="Path_1364" data-name="Path 1364" d="M1750.236,597.912a.223.223,0,0,1,.271.172l.711,2.989a.243.243,0,0,1-.181.287.231.231,0,0,1-.287-.168l-.678-3A.238.238,0,0,1,1750.236,597.912Z" transform="translate(-38.079 -58.605)" fill="#808184"/>
      <path id="Path_1365" data-name="Path 1365" d="M1734.878,599.739a.218.218,0,0,1,.226.223l.026,3.072a.249.249,0,0,1-.24.245.224.224,0,0,1-.242-.223l.006-3.072A.245.245,0,0,1,1734.878,599.739Z" transform="translate(-32.147 -59.31)" fill="#808184"/>
      <path id="Path_1366" data-name="Path 1366" d="M1719.081,598.029a.241.241,0,0,1,.166.285l-.659,3a.228.228,0,0,1-.286.167.246.246,0,0,1-.183-.289l.692-2.994A.221.221,0,0,1,1719.081,598.029Z" transform="translate(-25.786 -58.65)" fill="#808184"/>
      <path id="Path_1367" data-name="Path 1367" d="M1704.09,592.913a.232.232,0,0,1,.1.309L1702.874,596a.242.242,0,0,1-.435-.211l1.348-2.761A.229.229,0,0,1,1704.09,592.913Z" transform="translate(-19.745 -56.676)" fill="#808184"/>
      <path id="Path_1368" data-name="Path 1368" d="M1690.625,584.71a.223.223,0,0,1,.034.318l-1.9,2.411a.244.244,0,0,1-.338.037.229.229,0,0,1-.047-.328l1.929-2.39A.239.239,0,0,1,1690.625,584.71Z" transform="translate(-14.322 -53.511)" fill="#808184"/>
      <path id="Path_1369" data-name="Path 1369" d="M1679.38,573.785a.242.242,0,0,1-.049.327l-2.39,1.929a.228.228,0,0,1-.327-.048.247.247,0,0,1,.039-.34l2.41-1.9A.221.221,0,0,1,1679.38,573.785Z" transform="translate(-9.798 -49.291)" fill="#808184"/>
      <path id="Path_1370" data-name="Path 1370" d="M1670.949,560.68a.233.233,0,0,1-.114.305l-2.759,1.351a.236.236,0,0,1-.315-.116.239.239,0,0,1,.106-.32l2.773-1.322A.229.229,0,0,1,1670.949,560.68Z" transform="translate(-6.402 -44.234)" fill="#808184"/>
      <path id="Path_1371" data-name="Path 1371" d="M1665.67,546.1a.224.224,0,0,1-.172.271l-2.991.7a.243.243,0,0,1-.287-.182.23.23,0,0,1,.169-.287l3-.671A.238.238,0,0,1,1665.67,546.1Z" transform="translate(-4.277 -38.607)" fill="#808184"/>
      <path id="Path_1372" data-name="Path 1372" d="M1663.819,530.733a.218.218,0,0,1-.223.226l-3.072.025a.25.25,0,0,1-.245-.241.224.224,0,0,1,.223-.242l3.073.007A.244.244,0,0,1,1663.819,530.733Z" transform="translate(-3.533 -32.671)" fill="#808184"/>
      <path id="Path_1373" data-name="Path 1373" d="M1665.552,514.931a.241.241,0,0,1-.286.167l-3-.652a.228.228,0,0,1-.169-.285.247.247,0,0,1,.289-.183l2.995.684A.222.222,0,0,1,1665.552,514.931Z" transform="translate(-4.229 -26.311)" fill="#808184"/>
      <path id="Path_1374" data-name="Path 1374" d="M1670.756,499.918a.231.231,0,0,1-.309.1l-2.782-1.3a.235.235,0,0,1-.106-.318.238.238,0,0,1,.316-.117l2.767,1.334A.229.229,0,0,1,1670.756,499.918Z" transform="translate(-6.324 -20.264)" fill="#808184"/>
      <path id="Path_1375" data-name="Path 1375" d="M1679.122,486.407a.224.224,0,0,1-.319.036l-2.422-1.889a.244.244,0,0,1-.039-.338.23.23,0,0,1,.328-.049l2.4,1.915A.239.239,0,0,1,1679.122,486.407Z" transform="translate(-9.694 -14.824)" fill="#808184"/>
      <path id="Path_1376" data-name="Path 1376" d="M1690.263,475.084a.242.242,0,0,1-.328-.047l-1.944-2.379a.226.226,0,0,1,.046-.327.247.247,0,0,1,.34.037l1.919,2.4A.219.219,0,0,1,1690.263,475.084Z" transform="translate(-14.176 -10.269)" fill="#808184"/>
      <path id="Path_1377" data-name="Path 1377" d="M1703.69,466.581a.232.232,0,0,1-.306-.113l-1.365-2.752a.235.235,0,0,1,.115-.315.239.239,0,0,1,.321.105l1.336,2.767A.229.229,0,0,1,1703.69,466.581Z" transform="translate(-19.584 -6.843)" fill="#808184"/>
      <path id="Path_1378" data-name="Path 1378" d="M1718.653,461.245a.225.225,0,0,1-.271-.172l-.711-2.989a.243.243,0,0,1,.182-.288.231.231,0,0,1,.287.169l.679,3A.236.236,0,0,1,1718.653,461.245Z" transform="translate(-25.613 -4.693)" fill="#808184"/>
      <path id="Path_1379" data-name="Path 1379" d="M1734.435,459.37a.218.218,0,0,1-.226-.223l-.025-3.072a.249.249,0,0,1,.241-.245.224.224,0,0,1,.242.222l-.007,3.072A.243.243,0,0,1,1734.435,459.37Z" transform="translate(-31.968 -3.94)" fill="#808184"/>
      <path id="Path_1380" data-name="Path 1380" d="M1749.82,461.125a.24.24,0,0,1-.167-.285l.66-3a.228.228,0,0,1,.285-.168.247.247,0,0,1,.183.289l-.692,2.993A.221.221,0,0,1,1749.82,461.125Z" transform="translate(-37.919 -4.645)" fill="#808184"/>
      <path id="Path_1381" data-name="Path 1381" d="M1764.4,466.386a.232.232,0,0,1-.1-.309l1.318-2.775a.242.242,0,0,1,.434.212l-1.347,2.761A.229.229,0,0,1,1764.4,466.386Z" transform="translate(-43.546 -6.764)" fill="#808184"/>
      <path id="Path_1382" data-name="Path 1382" d="M1777.493,474.824a.223.223,0,0,1-.034-.319l1.9-2.411a.245.245,0,0,1,.339-.038.23.23,0,0,1,.047.329l-1.929,2.391A.239.239,0,0,1,1777.493,474.824Z" transform="translate(-48.6 -10.164)" fill="#808184"/>
      <path id="Path_1383" data-name="Path 1383" d="M1788.445,486.043a.241.241,0,0,1,.049-.327l2.39-1.929a.226.226,0,0,1,.327.048.246.246,0,0,1-.039.34l-2.41,1.9A.221.221,0,0,1,1788.445,486.043Z" transform="translate(-52.83 -14.677)" fill="#808184"/>
      <path id="Path_1384" data-name="Path 1384" d="M1796.643,499.516a.232.232,0,0,1,.114-.305l2.759-1.351a.235.235,0,0,1,.315.116.238.238,0,0,1-.107.319l-2.773,1.322A.23.23,0,0,1,1796.643,499.516Z" transform="translate(-55.992 -20.102)" fill="#808184"/>
      <path id="Path_1385" data-name="Path 1385" d="M1801.777,514.5a.224.224,0,0,1,.172-.271l2.991-.7a.244.244,0,0,1,.287.182.23.23,0,0,1-.169.286l-3,.671A.237.237,0,0,1,1801.777,514.5Z" transform="translate(-57.973 -26.137)" fill="#808184"/>
      <path id="Path_1386" data-name="Path 1386" d="M1803.581,530.289a.218.218,0,0,1,.223-.226l3.072-.025a.25.25,0,0,1,.245.241.224.224,0,0,1-.223.242l-3.072-.007A.243.243,0,0,1,1803.581,530.289Z" transform="translate(-58.67 -32.492)" fill="#808184"/>
      <circle id="Ellipse_92" data-name="Ellipse 92" cx="4.99" cy="4.99" r="4.99" transform="translate(1697.608 494.523)" fill="#58595b"/>
      <path id="Path_1387" data-name="Path 1387" d="M1732,527.283a2.343,2.343,0,0,1-.889-4.51l29.309-12.1a2.343,2.343,0,1,1,1.787,4.333l-29.309,12.1A2.338,2.338,0,0,1,1732,527.283Z" transform="translate(-30.226 -24.974)" fill="#58595b"/>
      <path id="Path_1388" data-name="Path 1388" d="M1719.284,514.569a1.657,1.657,0,0,1-1.386-.749L1696.882,481.8a1.659,1.659,0,0,1,2.775-1.82L1720.672,512a1.66,1.66,0,0,1-1.389,2.57Z" transform="translate(-17.512 -12.944)" fill="#58595b"/>
    </g>
  </g>
</svg>
