<svg xmlns="http://www.w3.org/2000/svg" width="366.617" height="620.984" viewBox="0 0 366.617 620.984">
  <g id="Group_733" data-name="Group 733" transform="translate(-3061.784 82.665)">
    <g id="OBJECTS" transform="translate(3061.784 -82.665)">
      <path id="Path_1520" data-name="Path 1520" d="M3328.537,269.811l-9.24,205.952-25.042.249-14.548-206.2Z" transform="translate(-3053.527 96.019)" fill="#f6bd96"/>
      <path id="Path_1521" data-name="Path 1521" d="M3318.777,468.245l14.165,14.184,11.11,3.247c5.106,1.492,8.884,7.832,9.279,15.569l.185,3.619-60.086.376.306-36.746Z" transform="translate(-3053.007 103.538)" fill="#343e7b"/>
      <path id="Path_1522" data-name="Path 1522" d="M3293.19,504.773l60.572-.378.067-7.96-60.572.378-.067,7.96" transform="translate(-3053.017 104.606)"/>
      <path id="Path_1523" data-name="Path 1523" d="M3281.429,322.217l.315,4.456,45.3,1.959.288-6.415Z" transform="translate(-3053.462 98.005)" fill="#cf9580"/>
      <path id="Path_1524" data-name="Path 1524" d="M3293.855,470.207l-3.584-47.191s15.447,4.2,30.895,0l-2.269,46.943Z" transform="translate(-3053.127 101.824)" fill="#f4da83"/>
      <path id="Path_1525" data-name="Path 1525" d="M3272.528,280.994l-9.24,205.952-25.042.249-14.548-206.2Z" transform="translate(-3055.649 96.443)" fill="#f6bd96"/>
      <path id="Path_1526" data-name="Path 1526" d="M3262.768,479.427l14.165,14.185,11.11,3.247c5.105,1.492,8.884,7.832,9.279,15.569l.184,3.619-60.085.375.306-36.745Z" transform="translate(-3055.129 103.961)" fill="#343e7b"/>
      <path id="Path_1527" data-name="Path 1527" d="M3237.181,515.955l60.572-.378.067-7.96-60.572.378-.067,7.96" transform="translate(-3055.139 105.029)"/>
      <path id="Path_1528" data-name="Path 1528" d="M3225.42,322.217l.315,4.456,45.3,1.959.288-6.415Z" transform="translate(-3055.584 98.005)" fill="#cf9580"/>
      <path id="Path_1529" data-name="Path 1529" d="M3237.846,481.39l-3.585-47.191s15.448,4.2,30.895,0l-2.268,46.942Z" transform="translate(-3055.249 102.248)" fill="#f4da83"/>
      <path id="Path_1530" data-name="Path 1530" d="M3239.173,169.736s-21.01,9.457-31.366,59.973-9.493,98.285-9.493,98.285H3365.74s-29.047-111.784-51.1-155.291Z" transform="translate(-3056.612 92.228)" fill="#00385d"/>
      <path id="Path_1531" data-name="Path 1531" d="M3103.5,209.643h60.173v99.149H3103.5Zm54.946,7.653h-49.718v83.843h49.718Z" transform="translate(-3060.203 93.74)" fill="#b8c0c2"/>
      <rect id="Rectangle_132" data-name="Rectangle 132" width="72.265" height="9.485" rx="1.173" transform="translate(110.485 310.881) rotate(180)"/>
      <path id="Path_1532" data-name="Path 1532" d="M3109.243,502.261c0,5.585-3.49,10.111-9.074,10.111s-11.148-4.526-11.148-10.111a10.111,10.111,0,1,1,20.222,0Z" transform="translate(-3060.752 104.443)" fill="#1a1f33"/>
      <circle id="Ellipse_98" data-name="Ellipse 98" cx="10.111" cy="10.111" r="10.111" transform="translate(98.972 596.594)" fill="#1a1f33"/>
      <rect id="Rectangle_133" data-name="Rectangle 133" width="147.463" height="213.131" rx="7.707" transform="translate(0 390.315)" fill="#39b04a"/>
      <rect id="Rectangle_134" data-name="Rectangle 134" width="101.028" height="129.385" rx="6.951" transform="translate(23.217 426.639)" fill="#37a547"/>
      <rect id="Rectangle_135" data-name="Rectangle 135" width="101.029" height="6.126" transform="translate(23.217 452.117)" fill="#39b04a"/>
      <path id="Path_1533" data-name="Path 1533" d="M3207.173-52.864c-13.992,17.727-16.5,45.274-17.1,51.773-1.3,14.27.892,21.013-3.662,35.288-3.721,11.658-7.787,15.635-7.327,25.642.43,9.353,4.35,11.043,3.663,21.246a39.535,39.535,0,0,1-5.128,17.583c-2.994,5.1-4.747,5.112-7.326,10.257-1.82,3.631-6.391,11.682-3.706,15.092,1.636,2.076,4.472,1.84,20.068,1.392,14.8-.426,15.291-.157,17.881-1.056,8.925-3.1,14.545-10.28,17.583-14.164,6.5-8.309,5.871-12.5,10.5-13.919,6.447-1.98,14.409,4.07,16.065,5.329,4.053,3.08,4.025,4.926,6.667,6.338,7.829,4.184,18.6-3.913,23.87-5.653,22.08-7.289,33.891-30.758,42.61-52.313,9.72-24.027,18.636-50.114,12.988-75.411-1.4-6.253-7.906-28.137-28.508-41.94C3274.611-88.622,3227.153-78.177,3207.173-52.864Z" transform="translate(-3057.844 82.811)" fill="#17204c"/>
      <g id="Group_726" data-name="Group 726" transform="translate(52.48 107.143)">
        <g id="Group_723" data-name="Group 723" transform="translate(184.043)">
          <path id="Path_1534" data-name="Path 1534" d="M3384.993,84.972l-32.855,50.477-7.5-20.464L3330.075,74.2c-.478-1.057-.971-1.994-1.462-2.956l-.091-.251-.028.01c-11.353-22.078-25.61-19.795-25.61-19.795l1.554,28.633-14.765,5.426,16.709,30.388.024.428.209-.005,28.72,52.23c7.12,14.078,24.668,11.983,32.457-1.736l41.964-72.712Z" transform="translate(-3289.673 -19.409)" fill="#e9bda0"/>
          <path id="Rectangle_136" data-name="Rectangle 136" d="M1.994,0H32.855a1.994,1.994,0,0,1,1.994,1.994V60.256a1.994,1.994,0,0,1-1.994,1.994H1.993A1.993,1.993,0,0,1,0,60.256V1.994A1.994,1.994,0,0,1,1.994,0Z" transform="matrix(0.912, 0.411, -0.411, 0.912, 98.32, 0)" fill="#232322"/>
          <path id="Path_1535" data-name="Path 1535" d="M3413.21,85.373c-4.243,14.323-14.4,20.9-25.327,18.352s-13.938-16.028-13.349-27.473c.248-4.826,2.51-10.8,6.045-13.554,4.674-3.649,11.736-2.206,18.865-.55,5.057,1.175,12.455.366,12.821,8.976C3412.47,75.975,3414.7,80.351,3413.21,85.373Z" transform="translate(-3286.46 -19.057)" fill="#edbc9f"/>
          <line id="Line_110" data-name="Line 110" x1="2.335" y2="11.498" transform="translate(60.13 116.04)" fill="none" stroke="#cb9180" stroke-linecap="round" stroke-linejoin="round" stroke-width="0.524"/>
        </g>
        <g id="Group_724" data-name="Group 724" transform="translate(102.108 29.743)">
          <path id="Path_1536" data-name="Path 1536" d="M3254.2,49.224l-31.246,1.349a12.772,12.772,0,0,0-11.391,17.289l26.878,106.44,75.464,2.967,4.721-68.888S3333.7,95.21,3314.94,71.94l-7.634-18.494A6.828,6.828,0,0,0,3301,49.224Z" transform="translate(-3210.728 -49.224)" fill="#52bbe1"/>
          <line id="Line_111" data-name="Line 111" x2="75.463" y2="2.967" transform="translate(27.719 125.078)" fill="none" stroke="#dcbf66" stroke-miterlimit="10" stroke-width="0.74"/>
        </g>
        <g id="Group_725" data-name="Group 725" transform="translate(0 32.858)">
          <path id="Path_1537" data-name="Path 1537" d="M3152.907,214.186c-1.32,5.672-2.426,10.713-8.744,13.234-4.649,1.854-9.153-.387-14.412-1.611-5.175-1.2-11.31-.6-14.619-4.25-3.571-3.939-3.149-10.828-1.81-16.584a20.321,20.321,0,0,1,39.585,9.211Z" transform="translate(-3112.348 -47.034)" fill="#edbc9f"/>
          <path id="Path_1538" data-name="Path 1538" d="M3240.479,59.459a20.552,20.552,0,0,0-32.85,2.067l-48.789,67.959a21.639,21.639,0,0,0-2.372,4.236l-34.992,83.232h23.415l39.823-77.838,55.77-53.026A20.553,20.553,0,0,0,3240.479,59.459Z" transform="translate(-3112.002 -52.226)" fill="#e9bda0"/>
        </g>
      </g>
      <g id="Group_728" data-name="Group 728" transform="translate(196.73 97.888)">
        <g id="Group_727" data-name="Group 727" transform="translate(1.334 6.33)">
          <path id="Path_1539" data-name="Path 1539" d="M3252.618,50.417V17.749h30.523V50.417c0,8.428-6.833,11.642-15.261,11.642h0C3259.45,62.059,3252.618,58.844,3252.618,50.417Z" transform="translate(-3252.618 -17.749)" fill="#e6bda0"/>
        </g>
        <path id="Path_1540" data-name="Path 1540" d="M3251.54,11.65S3246.749,52,3283.19,45.89l-.031-18.26Z" transform="translate(-3251.333 -11.65)" fill="#cf9580"/>
      </g>
      <path id="Path_1541" data-name="Path 1541" d="M3317.144-5.839c.1,6.633-2.384,14.9-9.017,15S3295.155.978,3295.053-5.655a12.01,12.01,0,0,1,11.826-12.192C3313.511-17.949,3317.043-12.471,3317.144-5.839Z" transform="translate(-3052.946 85.12)" fill="#ce9480"/>
      <g id="Group_731" data-name="Group 731" transform="translate(181.32 27.907)">
        <g id="Group_730" data-name="Group 730">
          <g id="Group_729" data-name="Group 729">
            <path id="Path_1542" data-name="Path 1542" d="M3274.83,44.679c-19.232-5.307-30.87-18.568-37.641-43.494l-.7-40.085a9.753,9.753,0,0,1,9.6-9.9l46.922-6.974c9.62-.147,20.207,13.747,20.354,23.368l.553,30.61a19.374,19.374,0,0,1-.242,3.594c-4.249,24.965-24.511,41.739-36.246,43.091A6.829,6.829,0,0,1,3274.83,44.679Z" transform="translate(-3236.485 55.776)" fill="#e9bda0"/>
          </g>
        </g>
      </g>
      <path id="Path_1543" data-name="Path 1543" d="M3298.151,19.854s-9.223,6.964-23.159,0" transform="translate(-3053.706 86.549)" fill="none" stroke="#cb9180" stroke-linecap="round" stroke-linejoin="round" stroke-width="0.524"/>
      <path id="Path_1544" data-name="Path 1544" d="M3253.575-.532a11.223,11.223,0,0,1-11.049,11.393A11.222,11.222,0,0,1,3231.134-.188a11.222,11.222,0,0,1,11.049-11.392A11.222,11.222,0,0,1,3253.575-.532Z" transform="translate(-3055.368 85.358)" fill="#e9bda0"/>
      <path id="Path_1545" data-name="Path 1545" d="M3287.967-35.756c-6.507,8.544-17.071,12.822-25.331,19.685-15.47,12.853-14.86,29.908-16.59,52.063-19.168-11.008-32.784-27.3-36.858-49.023S3213.1-58.9,3230.81-72.124c19.1-14.254,47.3-13.74,67.009-.341s30.485,38.114,28.912,61.893c1.474-4.845-1.3-10.074-5.06-13.462s-8.466-5.539-12.539-8.549c-9.726-7.188-14.519-18.377-16.658-29.948A30.19,30.19,0,0,1,3287.967-35.756Z" transform="translate(-3056.239 82.665)" fill="#17204c"/>
      <path id="Path_1546" data-name="Path 1546" d="M3255.757,127.62c1.219-.565,6.41-3.149,8.059-8.3,1.79-5.593-1.76-10.558-4.577-16.248-7.86-15.877-8.372-31.487-8.61-45.78-.131-7.862.778-5.072,1.466-20.147.585-12.835.177-20.331-.366-39.929-.216-7.808-.5-19.254-.733-33.334-36.58,18.971-46.226,36.676-47.56,50.038-1.7,16.99,7.716,31.69,1.789,51.31-1.523,5.043-5.977,14.079-10.806,22.556-4.527,7.947-5.541,8.258-6.55,11.753-3.23,11.168,1.5,27.382,11.233,31.5,9.258,3.923,13.637-7.085,30.526-6.1C3241.549,125.627,3247.247,131.568,3255.757,127.62Z" transform="translate(-3057.045 84.428)" fill="#17204c"/>
      <path id="Path_1547" data-name="Path 1547" d="M3165.766-68.15" transform="translate(-3057.844 83.215)" fill="#17204c"/>
    </g>
    <g id="DESIGNED_BY_FREEPIK" data-name="DESIGNED BY FREEPIK" transform="translate(3281.93 -11.224)">
      <g id="Group_732" data-name="Group 732">
        <path id="Path_1548" data-name="Path 1548" d="M3288.372,13.159c1.65-.985,3.813-1.395,4.951-2.955.562-1.429-2.02-6.728.179-14.4.628-2.191,1.324-4.13,3.413-5.181a11.291,11.291,0,0,1,7.079-.956" transform="translate(-3273.345 13.957)" fill="none" stroke="#d5a27a" stroke-linecap="round" stroke-linejoin="round" stroke-width="1.651"/>
        <path id="Path_1549" data-name="Path 1549" d="M3274.992-7.341a6.15,6.15,0,0,0,6.288,1.183" transform="translate(-3273.853 14.078)" fill="none" stroke="#3c3c5b" stroke-linecap="round" stroke-miterlimit="10" stroke-width="1.651"/>
        <path id="Path_1550" data-name="Path 1550" d="M3298.586-4.476a4.018,4.018,0,0,0,4.838.29" transform="translate(-3272.958 14.186)" fill="none" stroke="#3c3c5b" stroke-linecap="round" stroke-miterlimit="10" stroke-width="1.651"/>
        <path id="Path_1551" data-name="Path 1551" d="M3273.894-13.262a8.912,8.912,0,0,1,8.438,1.185" transform="translate(-3273.894 13.832)" fill="none" stroke="#d5a27a" stroke-linecap="round" stroke-miterlimit="10" stroke-width="1.651"/>
      </g>
    </g>
  </g>
</svg>
