<svg xmlns="http://www.w3.org/2000/svg" width="124.5" height="74.079" viewBox="0 0 124.5 74.079">
  <g id="Group_790" data-name="Group 790" transform="translate(-1106 -465.459)">
    <path id="Path_1" data-name="Path 1" d="M10412.565,3278.725a4.693,4.693,0,0,1-6.483.226,5.725,5.725,0,0,0-3.92-1.583,5.808,5.808,0,0,0-5.729,5.88v9.347h7.16a4.561,4.561,0,1,1,0,9.121h-7.16v19.147a4.636,4.636,0,0,1-9.271,0v-37.615a14.989,14.989,0,0,1,25.177-11.007A4.7,4.7,0,0,1,10412.565,3278.725Z" transform="translate(-9228.98 -2802.787)" fill="#00385d"/>
    <path id="Path_2" data-name="Path 2" d="M10977.985,3798.212h-23.217a9.934,9.934,0,0,0,9.572,7.614,12.617,12.617,0,0,0,7.915-2.864,4.528,4.528,0,0,1,6.4.069l.006.006a4.462,4.462,0,0,1-.075,6.407c-4.146,3.994-9.951,5.352-14.248,5.352A18.82,18.82,0,0,1,10945.5,3796c0-.042,0-.083,0-.125a18.916,18.916,0,0,1,18.844-18.92,16.515,16.515,0,0,1,3.318.3,18.248,18.248,0,0,1,12.21,8.668c1.207,2.111,2.564,4.9,2.413,7.388a6.383,6.383,0,0,1-.6,2.186A4.1,4.1,0,0,1,10977.985,3798.212Zm-21.936-7.614h15.98a8.387,8.387,0,0,0-7.689-4.523,9.779,9.779,0,0,0-8.291,4.522Z" transform="translate(-9765.39 -3291.52)" fill="#00385d"/>
    <path id="Path_3" data-name="Path 3" d="M11984.5,4497.056h-.6a4.669,4.669,0,0,1-4.6-4.825,4.8,4.8,0,0,1,4.6-4.975h.6a4.854,4.854,0,0,1,4.6,4.975A4.717,4.717,0,0,1,11984.5,4497.056Z" transform="translate(-10758.603 -3973.93)" fill="#52bbe1"/>
    <path id="Path_4" data-name="Path 4" d="M9106.614,3289.832a4.472,4.472,0,0,0-4.422-4.522h-.026a4.507,4.507,0,0,0-4.372,4.523v13.644c0,5.2-3.845,9.5-8.594,9.5-4.673,0-8.518-4.3-8.518-9.5v-13.493a4.374,4.374,0,1,0-8.743,0v13.493c0,10.252,7.764,18.544,17.262,18.544a17.232,17.232,0,0,0,8.594-2.337v3.091a10.175,10.175,0,0,1-1.671,5.6h0a9.076,9.076,0,0,1-2.561,2.7c-.08.058-.163.115-.246.171l-.06.041c-.092.061-.186.121-.28.18l-.036.023a13.709,13.709,0,0,1-1.745.911l-.019.008c-.116.05-.23.1-.348.146l-.06.023q-.155.064-.313.123l-.083.031c-.1.037-.2.073-.3.108l-.1.034-.287.1-.11.035c-.094.03-.187.059-.283.087l-.118.035-.28.081-.124.034-.279.073-.13.033-.279.067-.134.03-.281.061-.135.027-.286.056-.135.025c-.1.018-.193.035-.291.05l-.132.022-.3.046-.126.019c-.1.015-.21.029-.314.042l-.114.015c-.114.014-.229.027-.342.039l-.089.01c-.137.014-.274.027-.413.039l-.021,0c-.291.025-.585.044-.879.058l-.1,0c-.11,0-.222.01-.333.013l-.154,0-.281.005h-.435c-.064,0-.129,0-.193,0-.081,0-.161,0-.243,0l-.2-.005-.233-.008-.209-.01-.225-.012-.216-.014-.219-.015-.218-.018-.213-.019-.222-.022-.206-.022-.228-.027-.2-.025-.23-.031-.191-.028-.236-.036-.184-.03-.238-.041-.176-.033-.245-.047-.162-.033c-.085-.018-.171-.035-.255-.054l-.139-.032-.274-.062-.084-.021q-.719-.174-1.407-.4l-.081-.027-.273-.093-.114-.039-.253-.093-.126-.046c-.082-.031-.162-.062-.242-.094l-.132-.052-.234-.1-.133-.056c-.076-.033-.151-.066-.226-.1l-.136-.061-.221-.1-.132-.064-.216-.108-.129-.067c-.071-.037-.142-.075-.21-.113a10.193,10.193,0,0,1-3.761-3.347,9.772,9.772,0,0,1-1.764-5.6V3273.52a4.658,4.658,0,0,0-9.312,0v49.254a18.737,18.737,0,0,0,5.356,13.059h0c6.087,7.12,22.271,10.052,33.167,3.758a18.863,18.863,0,0,0,4.752-3.741l.017-.017h0a19.279,19.279,0,0,0,5.073-13.059Z" transform="translate(-7952.248 -2803.508)" fill="#00385d"/>
  </g>
</svg>
