<svg xmlns="http://www.w3.org/2000/svg" width="602.428" height="446" viewBox="0 0 602.428 446">
  <g id="Group_950" data-name="Group 950" transform="translate(-607.572 -240)">
    <text id="Thank_You" data-name="Thank
You" transform="translate(959 501)" fill="#52bbe1" font-size="142" font-family="SemplicitaPro-Regular, SemplicitaPro"><tspan x="-248.429" y="0">THANK</tspan><tspan x="-157.265" y="142">YOU</tspan></text>
    <path id="Path_1953" data-name="Path 1953" d="M943.744,864.849c5.616,9.775,12.679,13.548,12.679,13.548H985.81S939.46,857.392,943.744,864.849Z" transform="translate(-249.795 -483.665)" fill="#233862"/>
    <path id="Path_1954" data-name="Path 1954" d="M962.826,1051.921a2.717,2.717,0,0,1,.484,2.906.022.022,0,0,1-.007.015c-.7,1.937-3.016,4.1-5.706,6.259-.344.278-.649.53-.916.763-.07.062-.14.123-.206.185s-.107.1-.158.143c-2.508,2.312-1.564,2.842-6.07,7.533-5.138,5.346-8.676,5.442-9.682,4.955-.851-.415.878-3.25,2.8-6.437.093-.153.184-.309.279-.464.255-.423.509-.854.762-1.279,2.246-3.835,1.669-5.635,1.137-11.343-.432-4.638-7.216-25.913-7.216-25.913l9.846-1.7s2.965,16.941,6.232,19.55c1.747,1.39,3.7,1.408,5.382,2.439.119.072.235.145.349.221A12.911,12.911,0,0,1,962.826,1051.921Z" transform="translate(-246.308 -595.11)" fill="#ffb27d"/>
    <path id="Path_1955" data-name="Path 1955" d="M967.085,1098.286a2.716,2.716,0,0,1,.484,2.905.022.022,0,0,1-.007.015c-.858,1.935-3.116,4.087-5.716,6.24-.339.282-.64.541-.906.783-.07.062-.14.123-.206.185s-.107.1-.158.143c-2.508,2.312-1.564,2.842-6.07,7.533-5.138,5.346-8.676,5.442-9.682,4.955-.851-.415.878-3.25,2.8-6.437a21.892,21.892,0,0,0,9.159-6.749c3.094-3.948,5.157-9.02,7.264-11.959.119.072.235.145.349.221A12.915,12.915,0,0,1,967.085,1098.286Z" transform="translate(-250.565 -641.476)" fill="#233862"/>
    <path id="Path_1956" data-name="Path 1956" d="M705.375,1039.453c-.608,3.039-4.941,2.532-9.78,1.349s-3.69.224-10.578-.539-8.976-3.331-9.186-4.355c-.188-.909,3.216-1.229,6.867-1.65.459-.052.92-.108,1.382-.165,4.122-.517,7.141-3.177,10.885-5.362,3.546-2.069,8.839-10.5,8.839-10.5l9.447.748s-4.958,7.53-6.875,10.8c-1.128,1.926-1.068,4.472-.927,6.438A12.131,12.131,0,0,1,705.375,1039.453Z" transform="translate(-68.251 -588.792)" fill="#ffb27d"/>
    <path id="Path_1957" data-name="Path 1957" d="M695.595,1074.595c-4.841-1.183-3.69.224-10.578-.54s-8.976-3.331-9.186-4.355c-.188-.909,3.216-1.229,6.867-1.65l.034.07a19.415,19.415,0,0,0,9.865,3.067c4.674.114,9.624-1.225,12.851-1.173a12.131,12.131,0,0,1-.073,3.232C704.767,1076.285,700.434,1075.778,695.595,1074.595Z" transform="translate(-68.251 -622.584)" fill="#233862"/>
    <path id="Path_1958" data-name="Path 1958" d="M880.232,864.486l8.831,23.764,11.53,31.029a18.68,18.68,0,0,0,6.125-.56,26.569,26.569,0,0,0,5.924-2.883s-3.2-33.317-9.174-52.442c-1.531-4.909-3.246-8.88-5.139-11.115C889.071,841.337,880.232,864.486,880.232,864.486Z" transform="translate(-206.903 -474.232)" fill="#233862"/>
    <path id="Path_1959" data-name="Path 1959" d="M798.026,769.089c5.786-1.866,22.288.53,38.864,3.775l3.471-5.725,35.8-2.8s11.815,26.2,5.347,42.9a6.054,6.054,0,0,1-6.06,4.079s-.521,0-.523,0-21.31-.012-28.23-.012c-17.807,0-37.684-12.24-40.256-12.755-4.209-.842-5.892,7.576-10.1,16.415s-39.564,39.143-39.564,39.143-5.434.054-7.679-.788a7.56,7.56,0,0,1-3.3-2.081S784.979,773.3,798.026,769.089Z" transform="translate(-115.72 -416.577)" fill="#00385d"/>
    <path id="Path_1960" data-name="Path 1960" d="M907.685,917.881l11.53,31.029a18.68,18.68,0,0,0,6.125-.56,26.568,26.568,0,0,0,5.924-2.883s-3.2-33.317-9.174-52.442Z" transform="translate(-225.525 -503.864)" fill="#064e7d"/>
    <path id="Path_1961" data-name="Path 1961" d="M1061.953,705.813c11.012.731,30.37-1.083,31.107-3.119,2.54-7.041.747-9.229,2.866-20.01l-5.312-14.957s.878,16.656-4.034,21.036-20.11,8.456-22.5,12.117A13.39,13.39,0,0,0,1061.953,705.813Z" transform="translate(-330.168 -351.041)" fill="#297045"/>
    <path id="Path_1962" data-name="Path 1962" d="M1060.614,760.8s-10.865-2.419-12.617-1.455-6.037,4.475-6.574,5.7,3.9-.928,5.347-1.315c.935-.251,3.4.6,4.615,1.011,5.128,1.709,8.27.83,8.27.83Z" transform="translate(-316.211 -413.03)" fill="#ffb27d"/>
    <path id="Path_1963" data-name="Path 1963" d="M1048,759.821l-6.619,3.214a1.179,1.179,0,0,0,1.1.424,15.786,15.786,0,0,0,2.87-.789Z" transform="translate(-316.211 -413.511)" fill="#ffb27d"/>
    <path id="Path_1964" data-name="Path 1964" d="M965.6,453.37c-1,9.579,1.041,19.18,1.777,28.783s-.061,19.95-5.864,27.637c13.072,2.073,26.733-4.118,35.089-14.382s11.688-24.068,10.624-37.26c-.6-7.438.652-17.931-4.216-23.588-4.965-5.77-16.856-6.771-24.088-2.916C971.327,435.692,966.441,445.291,965.6,453.37Z" transform="translate(-262.037 -189.344)" fill="#091a4c"/>
    <path id="Path_1965" data-name="Path 1965" d="M1027.644,456.38a39.753,39.753,0,0,0-15.226-5.432c-4.353-.665-9.39-.848-13.7.684-3.21,4.8-4.342,10.688-4.145,16.39.117,3.4,1.666,16.316,6.767,20.73,6.718,5.813,20.552-6.724,23.14-11.267,3.343-5.869,4.82-10.219,4.021-16.828A30.268,30.268,0,0,0,1027.644,456.38Z" transform="translate(-284.452 -203.664)" fill="#f6bd96"/>
    <path id="Path_1966" data-name="Path 1966" d="M1057.7,543.057l14.928,19.034,8.527-12.117-13.839-15.495Z" transform="translate(-327.281 -260.658)" fill="#f6bd96"/>
    <path id="Path_1967" data-name="Path 1967" d="M1004.834,531.587c-.595-.41-1.4-.618-1.784-1.232-.175-.55.925-2.474.29-5.405a2.744,2.744,0,0,0-1.152-2.029,4.245,4.245,0,0,0-2.632-.534" transform="translate(-287.843 -252.434)" fill="none" stroke="#e7a579" stroke-linecap="round" stroke-linejoin="round" stroke-width="1"/>
    <path id="Path_1968" data-name="Path 1968" d="M1025.968,528.175a2.312,2.312,0,0,1-2.389.288" transform="translate(-304.138 -256.382)" fill="none" stroke="#39395c" stroke-linecap="round" stroke-miterlimit="10" stroke-width="0.59"/>
    <path id="Path_1969" data-name="Path 1969" d="M1001.1,529.909a1.51,1.51,0,0,1-1.822-.012" transform="translate(-287.654 -257.551)" fill="none" stroke="#39395c" stroke-linecap="round" stroke-miterlimit="10" stroke-width="0.59"/>
    <path id="Path_1970" data-name="Path 1970" d="M1026.071,520.441a3.351,3.351,0,0,0-3.2.235" transform="translate(-303.66 -250.934)" fill="none" stroke="#e7a579" stroke-linecap="round" stroke-miterlimit="10" stroke-width="1"/>
    <path id="Path_1971" data-name="Path 1971" d="M1003.549,433.069c-4.314,2.792-6.952,5.095-5.626,9.88,1,3.613,17.776,29.023,38.587,31.678-1.1-1.994-3.518-9.187-2.118-15.324s2.013-12.731-.522-18.594C1029.138,429.762,1013.407,426.69,1003.549,433.069Z" transform="translate(-286.502 -189.639)" fill="#091a4c"/>
    <path id="Path_1972" data-name="Path 1972" d="M1010.705,579.473s-14.025,2.981-16.409,9.509c-2.362,6.469-13.313,45.461-13.313,45.461a9.114,9.114,0,0,0,8.034-2.6c3.624-3.624,16.048-33.242,16.048-33.242Z" transform="translate(-275.244 -291.178)" fill="#f6bd96"/>
    <path id="Path_1973" data-name="Path 1973" d="M1025.259,616.466c.536,35.913.151,21.515,4.079,24.922.947.821,3.608,1.31,7.111,1.541,11.012.731,30.37-1.083,31.107-3.119,2.54-7.041.747-9.229,2.866-20.01.221-1.146.625-2.363.815-3.739,1.1-7.9,1.275-17.181-.3-30.536-.695-5.9-14.077-10.806-14.607-10.489-12.99,7.748-16.576,1.485-16.576,1.485s-7.28,1.1-8.2,3.45c-1.528,3.893-5.524,11.3-6.876,19.73C1023.712,605.731,1025.2,612.635,1025.259,616.466Z" transform="translate(-304.664 -288.157)" fill="#297045"/>
    <path id="Path_1974" data-name="Path 1974" d="M1045.548,598.033c-6.863,16.82-8.022,26.007-11.088,43.7a3.879,3.879,0,0,1-3.512,3.2c-8.286.661-15.937,1.122-23.105,1.9-2.8.3-5.069,4.526.646,6.525,8.176,2.861,10.974,3.175,17.794,4.282,2.96.481,7.6-.383,10.595-.2,5.911.367,9.28-4,12.109-9.2,6.313-11.611,7.287-18.378,9.127-29.874,1.12-7,2.171-9.831,1.514-16.4C1058.719,592.886,1047.824,592.456,1045.548,598.033Z" transform="translate(-291.498 -301.29)" fill="#f6bd96"/>
    <path id="Path_1975" data-name="Path 1975" d="M886.267,788.678H955.4V790.2h-68.52Z" transform="translate(-210.997 -433.084)" fill="#ed7d2b"/>
    <path id="Path_1976" data-name="Path 1976" d="M907.32,710.843H854.966l-15.749-39.164h52.273Z" transform="translate(-179.083 -353.722)" fill="#f99746"/>
  </g>
</svg>
