<svg xmlns="http://www.w3.org/2000/svg" width="554.087" height="647.933" viewBox="0 0 554.087 647.933">
  <g id="Group_618" data-name="Group 618" transform="translate(-4.32 2.594)">
    <g id="Group_604" data-name="Group 604" transform="translate(4.32 515.774)">
      <path id="Path_1115" data-name="Path 1115" d="M5228.729,1345.6c0,34.873,124.037,66.423,277.043,66.423s277.044-31.55,277.044-66.423-124.037-63.143-277.044-63.143S5228.729,1310.727,5228.729,1345.6Z" transform="translate(-5228.729 -1282.457)" fill="#9ee493"/>
      <g id="Group_596" data-name="Group 596" transform="translate(362.61 14.746)">
        <path id="Path_1116" data-name="Path 1116" d="M5279.611,1409.2q19.08-1.461,38.091-3.787c12.67-1.557,25.316-3.4,37.871-5.825q4.7-.938,9.385-1.975l2.34-.528c.78-.174,1.561-.348,2.324-.591,1.534-.47,3.006-1.181,4.529-1.676,3.059-.937,6.182-1.6,9.3-2.332,3.121-.708,6.185-1.632,9.234-2.6a183.137,183.137,0,0,0,18-6.7c2.935-1.293,5.851-2.635,8.7-4.123.716-.364,1.416-.763,2.124-1.142a18.7,18.7,0,0,1,2.14-1.125,17.683,17.683,0,0,0,4.257-2.357,48.693,48.693,0,0,0,3.929-2.926,34.457,34.457,0,0,0,3.614-3.39,20.654,20.654,0,0,0,5.1-8.766,14.348,14.348,0,0,0,.353-5.258,15.8,15.8,0,0,0-1.493-5.011,25.8,25.8,0,0,0-6.2-7.912,47.234,47.234,0,0,0-3.842-3.086c-.659-.486-1.336-.94-2.01-1.4-.705-.409-1.277-1.032-2.249-1a2.756,2.756,0,0,1-1.112-.5l-1.039-.617c-.7-.4-1.4-.8-2.1-1.182-1.412-.771-2.842-1.5-4.28-2.219a170.642,170.642,0,0,0-17.73-7.451c-6.025-2.185-12.156-4.052-18.34-5.694a43.144,43.144,0,0,0-4.74-.822c-1.588-.227-3.128-.657-4.683-1.021q-4.66-1.1-9.334-2.143c-6.227-1.415-12.483-2.7-18.757-3.888-3.136-.6-6.287-1.113-9.437-1.638l-4.728-.753a23.161,23.161,0,0,0-4.8-.289l-.25,1.75a24.512,24.512,0,0,0,4.661,1.1l4.718.7,9.421,1.488c6.279,1.006,12.542,2.109,18.778,3.356,3.116.638,6.224,1.307,9.314,2.045a41.954,41.954,0,0,1,4.6,1.242c.754.259,1.5.56,2.246.831s1.505.516,2.27.731c6.133,1.623,12.233,3.36,18.268,5.3a152.42,152.42,0,0,1,17.708,6.828c1.431.671,2.845,1.376,4.232,2.128.7.369,1.382.758,2.068,1.145l1.02.6a2.31,2.31,0,0,1,.93.74c.387.862,1.146,1.111,1.771,1.582.64.443,1.282.882,1.9,1.348a44.374,44.374,0,0,1,3.578,2.929,24.268,24.268,0,0,1,5.515,7.039,12.311,12.311,0,0,1,1,8.327,17.956,17.956,0,0,1-4.326,7.635,31.848,31.848,0,0,1-3.3,3.2,46.325,46.325,0,0,1-3.687,2.841q-.954.675-1.943,1.306a17.387,17.387,0,0,0-1.86,1.469,14,14,0,0,1-2.011,1.243c-.7.368-1.385.755-2.091,1.109-2.807,1.443-5.682,2.772-8.616,3.963-5.857,2.408-11.88,4.407-17.936,6.288-3.035.925-6.088,1.783-9.109,2.773a79.158,79.158,0,0,1-9.2,2.476c-1.573.257-3.2.3-4.768.542-1.567.269-3.1.668-4.657,1q-4.652,1.011-9.325,1.941-18.666,3.815-37.568,6.544-18.894,2.681-37.919,4.44Z" transform="translate(-5279.461 -1307.445)" fill="#94d68a"/>
      </g>
      <g id="Group_597" data-name="Group 597" transform="translate(29.79 28.515)">
        <path id="Path_1117" data-name="Path 1117" d="M5894.457,1330.778a180.327,180.327,0,0,0-28.119,10.369,74.549,74.549,0,0,0-13,7.807,34.2,34.2,0,0,0-5.629,5.343,24.2,24.2,0,0,0-2.279,3.273,18.261,18.261,0,0,0-1.6,3.756,16.046,16.046,0,0,0-.572,4.119,15.4,15.4,0,0,0,.607,4.109,13.7,13.7,0,0,0,1.643,3.731,20.821,20.821,0,0,0,2.7,2.921,75.634,75.634,0,0,0,5.433,5.391,39.708,39.708,0,0,0,6.184,4.392,98.74,98.74,0,0,0,13.521,6.6c2.317.944,4.642,1.859,6.984,2.725l1.758.643a9.811,9.811,0,0,1,1.736.707,8.364,8.364,0,0,0,1.678.877l1.769.62a266.835,266.835,0,0,0,28.817,8.112l3.654.8,1.83.385c.618.084,1.185.422,1.9.025a1.565,1.565,0,0,1,.945.045l.913.194,1.827.382,3.658.758c4.876,1.006,9.751,2.022,14.648,2.933q7.338,1.406,14.737,2.461a29.046,29.046,0,0,0,3.75.136,30.08,30.08,0,0,1,3.714.382l7.4.986q7.395,1.022,14.807,1.92,1.852.233,3.708.427c1.237.132,2.475.276,3.712.388l3.716.355a14.637,14.637,0,0,0,3.753-.084l.15-1.761a14.58,14.58,0,0,0-3.672-.735l-3.707-.326-7.417-.641q-7.419-.624-14.827-1.394c-2.465-.277-4.93-.564-7.391-.892a28,28,0,0,1-3.673-.613,32.26,32.26,0,0,0-3.631-.9l-14.73-2.1c-4.906-.725-9.813-1.468-14.693-2.364-1.222-.214-2.438-.456-3.655-.7l-1.823-.366-.912-.187a1.555,1.555,0,0,1-.88-.336c-.5-.647-1.144-.575-1.739-.753l-1.814-.405-3.619-.835-7.218-1.746c-2.4-.592-4.8-1.223-7.19-1.842q-7.184-1.868-14.25-4.123l-1.762-.576a9.429,9.429,0,0,0-1.843-.343,9.579,9.579,0,0,1-1.776-.543l-1.736-.649c-2.312-.877-4.615-1.777-6.866-2.8a111.626,111.626,0,0,1-13.088-6.793c-2.083-1.288-4.083-2.678-6.076-4.07a21.45,21.45,0,0,1-5.246-4.972,20.056,20.056,0,0,1-1.5-3.221l-.708-1.542-.3-.78c-.1-.261-.165-.529-.25-.792a12.18,12.18,0,0,1-.474-3.24,12.834,12.834,0,0,1,.462-3.24,16.586,16.586,0,0,1,1.267-3.105,21.27,21.27,0,0,1,1.921-2.875,33.56,33.56,0,0,1,5.029-5.036,69.776,69.776,0,0,1,12.308-7.854,178.321,178.321,0,0,1,27.539-10.855Z" transform="translate(-5843.254 -1330.778)" fill="#94d68a"/>
      </g>
      <g id="Group_598" data-name="Group 598" transform="translate(61.878 13.061)">
        <path id="Path_1118" data-name="Path 1118" d="M5333.586,1354.672a13.244,13.244,0,0,0,1.257,5.536,19.173,19.173,0,0,0,3.079,4.651,39.321,39.321,0,0,0,8.38,6.969,79.27,79.27,0,0,0,9.475,5.173c3.25,1.526,6.565,2.891,9.917,4.151a281.481,281.481,0,0,0,41.284,11.349c13.977,2.876,28.077,5.081,42.225,6.85s28.352,3.072,42.575,4q10.67.665,21.353,1.066l5.342.186c1.78.06,3.562.115,5.344.1,1.782,0,3.565-.077,5.349-.156s3.564-.164,5.346-.2c7.122-.076,14.24.1,21.362.161,7.122.1,14.245-.066,21.364-.3,14.239-.441,28.463-1.321,42.656-2.519,7.095-.618,14.187-1.281,21.267-2.062l5.309-.607c1.769-.206,3.531-.467,5.314-.559,1.78-.116,3.571-.154,5.335-.414q2.651-.344,5.3-.713c14.121-1.964,28.188-4.425,42.1-7.694,6.954-1.637,13.853-3.539,20.659-5.772a140.55,140.55,0,0,0,19.97-8.076,67.446,67.446,0,0,0,9.309-5.659,39.978,39.978,0,0,0,4.211-3.594,11.4,11.4,0,0,0,3.217-4.612c.181-.441.351-.882.554-1.308l.312-.632.261-.66c.087-.221.178-.44.257-.663l.2-.687c.06-.23.138-.457.183-.691l.122-.708a12.445,12.445,0,0,0-.416-5.678,16.63,16.63,0,0,0-2.6-4.975,28.023,28.023,0,0,0-3.741-4.052,53.5,53.5,0,0,0-8.886-6.231,99.4,99.4,0,0,0-9.646-4.806,182.242,182.242,0,0,0-20.2-7.265,353.309,353.309,0,0,0-41.745-9.49c-14.184-1.64-28.261-3.77-42.448-5.143q-21.252-2.231-42.6-3.327c-7.113-.384-14.233-.618-21.354-.805q-5.341-.132-10.684-.209a106.7,106.7,0,0,0-10.685.351v1.767q2.666.253,5.328.341c1.775.077,3.552.112,5.327.131q5.329.051,10.655.154c7.1.135,14.2.386,21.3.658q21.3.846,42.531,2.8c14.129,1.434,28.292,2.924,42.168,6.024a392.914,392.914,0,0,1,41.527,9.077,179.819,179.819,0,0,1,20.045,6.884,96.864,96.864,0,0,1,9.513,4.569,49.287,49.287,0,0,1,8.6,5.928,26.114,26.114,0,0,1,3.507,3.753,14.8,14.8,0,0,1,2.349,4.414,10.634,10.634,0,0,1,.386,4.861l-.1.608c-.037.2-.105.4-.157.6l-.163.6c-.068.2-.149.388-.223.582l-.225.581-.28.562a5.673,5.673,0,0,1-.318.542,5.181,5.181,0,0,1-.419.484c-1.316,1.13-2.186,2.523-3.431,3.7a37.1,37.1,0,0,1-3.906,3.317,64.531,64.531,0,0,1-8.919,5.4,137.777,137.777,0,0,1-19.576,7.87c-6.712,2.2-13.556,4.029-20.43,5.731-13.77,3.343-27.746,5.9-41.791,7.954q-2.635.391-5.271.749c-1.76.227-3.5.621-5.246.96-1.744.356-3.517.5-5.278.728l-5.294.592c-7.065.759-14.14,1.426-21.226,1.949-14.171,1.079-28.37,1.722-42.573,2.146l-21.311.5c-7.1.164-14.216.29-21.319,0-3.551-.182-7.1-.587-10.642-.8-3.547-.194-7.1-.247-10.646-.405q-10.642-.412-21.273-1.081c-14.175-.853-28.329-2.044-42.435-3.659s-28.16-3.675-42.085-6.4a279.236,279.236,0,0,1-41.035-10.931c-3.317-1.218-6.594-2.538-9.795-4.01a77.587,77.587,0,0,1-9.283-4.973,37.462,37.462,0,0,1-8.029-6.56,13.862,13.862,0,0,1-3.962-8.968Z" transform="translate(-5333.586 -1304.59)" fill="#94d68a"/>
      </g>
      <g id="Group_599" data-name="Group 599" transform="translate(93.255 20.26)">
        <path id="Path_1119" data-name="Path 1119" d="M5757.828,1319.761c-23.459-2.113-47.021-3.033-70.577-2.968s-47.129,1.043-70.593,3.446q-8.793.934-17.561,2.135c-2.918.422-5.847.786-8.746,1.342s-5.754,1.37-8.632,2.015c-5.773,1.2-11.581,2.2-17.361,3.387-5.786,1.161-11.508,2.652-17.165,4.375a140.858,140.858,0,0,0-16.682,6.106,79.139,79.139,0,0,0-7.954,4.065,42.272,42.272,0,0,0-7.29,5.3,21.356,21.356,0,0,0-3.048,3.434,14.37,14.37,0,0,0-2.094,4.2,10.715,10.715,0,0,0-.308,4.757,12.551,12.551,0,0,0,1.664,4.415,18.736,18.736,0,0,0,2.854,3.621c1.067,1.088,2.24,2.044,3.369,3.047a24.682,24.682,0,0,0,3.579,2.768c1.282.784,2.582,1.537,3.909,2.225a116.712,116.712,0,0,0,16.446,6.88c5.614,1.9,11.306,3.531,17.038,4.974,5.729,1.46,11.513,2.667,17.311,3.772s11.621,2.062,17.454,2.93c2.917.435,5.838.833,8.761,1.22l4.387.553a13.285,13.285,0,0,0,4.432.156,8.264,8.264,0,0,1,2.211.1l2.195.248,4.392.472q4.392.458,8.792.851c5.866.516,11.735,1,17.61,1.414s11.754.747,17.638,1.017c11.768.563,23.551.752,35.331.7,11.772-.819,23.542-.839,35.3-1.492,11.762-.54,23.519-1.324,35.248-2.475,5.868-.541,11.716-1.28,17.563-2.032,2.919-.4,5.842-.795,8.755-1.251a69.453,69.453,0,0,0,8.658-1.83l-.3-1.742c-5.89.366-11.63,1.558-17.452,2.311q-8.719,1.2-17.469,2.167c-11.663,1.327-23.372,2.29-35.1,2.99-11.727.586-23.476,1.25-35.225.58-11.741.127-23.483-.037-35.222-.342q-8.8-.25-17.6-.706c-5.865-.305-11.726-.676-17.577-1.175q-4.39-.36-8.773-.79l-4.381-.441-2.19-.232a8.229,8.229,0,0,1-2.17-.395,13.7,13.7,0,0,0-4.326-.887l-4.363-.559c-2.906-.391-5.812-.794-8.709-1.233-11.6-1.734-23.127-3.908-34.5-6.665-5.686-1.377-11.324-2.936-16.866-4.76a114.107,114.107,0,0,1-16.13-6.577c-1.289-.654-2.542-1.365-3.773-2.1-1.211-.768-2.505-1.407-3.711-2.189a17.972,17.972,0,0,1-3.278-2.737,16.913,16.913,0,0,1-2.585-3.293,10.761,10.761,0,0,1-1.423-3.785,8.922,8.922,0,0,1,.271-3.963,12.05,12.05,0,0,1,1.853-3.638,19.547,19.547,0,0,1,2.835-3.112,40.313,40.313,0,0,1,7.013-4.965,76.522,76.522,0,0,1,7.8-3.858,152.734,152.734,0,0,1,16.481-5.876c5.605-1.669,11.287-3.088,16.968-4.533,5.691-1.4,11.421-2.7,17.234-3.527,2.911-.386,5.859-.526,8.771-.87,1.458-.17,2.907-.379,4.355-.6l4.354-.613q8.713-1.19,17.464-2.1c23.325-2.524,46.793-3.866,70.276-4.186,23.485-.288,46.991.408,70.407,2.293Z" transform="translate(-5509.681 -1316.79)" fill="#94d68a"/>
      </g>
      <g id="Group_600" data-name="Group 600" transform="translate(124.729 63.143)">
        <path id="Path_1120" data-name="Path 1120" d="M5811.4,1389.458a9.028,9.028,0,0,0,1.416,6.274,17.594,17.594,0,0,0,4.3,4.606,52.346,52.346,0,0,0,10.485,6.046,106.364,106.364,0,0,0,11.147,4.206q5.656,1.811,11.406,3.214c7.666,1.859,15.4,3.32,23.17,4.54,3.883.608,7.782,1.111,11.681,1.574,3.9.48,7.806.863,11.716,1.2l.15-1.339c-3.873-.564-7.747-1.11-11.608-1.728-3.864-.6-7.71-1.3-11.554-1.987-7.686-1.4-15.324-3.03-22.845-5.046a142.883,142.883,0,0,1-21.982-7.476,49.413,49.413,0,0,1-9.816-5.7l-1.067-.88c-.348-.3-.664-.621-1.008-.921a18.308,18.308,0,0,1-1.826-1.951,11.546,11.546,0,0,1-2.411-4.641Z" transform="translate(-5811.278 -1389.458)" fill="#94d68a"/>
      </g>
      <g id="Group_601" data-name="Group 601" transform="translate(369.135 35.091)">
        <path id="Path_1121" data-name="Path 1121" d="M5500.049,1369.974a7.433,7.433,0,0,0-.468-4.759,12.557,12.557,0,0,0-2.69-3.848,33.446,33.446,0,0,0-7.18-5.337,64.367,64.367,0,0,0-7.861-3.811c-2.679-1.1-5.394-2.076-8.132-2.964-5.482-1.759-11.043-3.183-16.641-4.382-2.8-.6-5.612-1.127-8.427-1.62s-5.639-.938-8.469-1.331l-.232,1.328c2.779.613,5.56,1.2,8.326,1.846s5.522,1.33,8.27,2.032c5.488,1.425,10.938,2.982,16.261,4.85a88.243,88.243,0,0,1,15.342,6.745,30.451,30.451,0,0,1,6.478,4.849,22.8,22.8,0,0,1,2.42,2.963,13.643,13.643,0,0,1,1.655,3.438Z" transform="translate(-5439.948 -1341.922)" fill="#94d68a"/>
      </g>
      <g id="Group_602" data-name="Group 602" transform="translate(155.587 34.305)">
        <path id="Path_1122" data-name="Path 1122" d="M5769.848,1346.573a402.968,402.968,0,0,0-47.516-5.189c-15.915-.86-31.874-1.061-47.812-.407q-5.976.277-11.944.7c-1.988.163-3.982.248-5.96.521s-3.934.8-5.9,1.117c-3.947.572-7.919.867-11.889,1.267-3.973.36-7.918.974-11.85,1.65a201.282,201.282,0,0,0-23.356,5.325,116.092,116.092,0,0,0-11.35,3.967q-1.391.588-2.761,1.23c-.914.43-1.793.925-2.745,1.3a17.463,17.463,0,0,0-5.311,3.162,17.184,17.184,0,0,0-2.3,2.234,11.326,11.326,0,0,0-1.8,2.832,8.019,8.019,0,0,0-.666,3.468,8.393,8.393,0,0,0,.891,3.4,15.188,15.188,0,0,0,4.238,4.939,34.778,34.778,0,0,0,5.212,3.373,73.137,73.137,0,0,0,11.2,4.7c3.816,1.284,7.686,2.365,11.582,3.294,1.948.473,3.9.907,5.859,1.319q1.469.31,2.94.6a6.267,6.267,0,0,0,3.012.207,3.9,3.9,0,0,1,1.5.123l1.471.268,2.947.511,5.9.95c7.882,1.2,15.792,2.209,23.729,2.957q11.9,1.158,23.865,1.535c7.987-.494,15.936-.084,23.9-.222,7.964-.027,15.932-.206,23.892-.6,3.981-.185,7.956-.483,11.931-.8q2.98-.243,5.957-.529a34.309,34.309,0,0,0,5.9-1.053l-.2-1.755a26.051,26.051,0,0,0-2.991.008c-.992.04-1.979.123-2.965.222q-2.957.307-5.916.58c-3.947.367-7.9.645-11.855.939q-11.866.857-23.772,1.12c-7.931.062-15.885.324-23.789-.687q-11.888-.389-23.755-1.174c-7.908-.559-15.809-1.294-23.663-2.378-1.963-.271-3.923-.561-5.878-.886l-2.93-.493-1.463-.258a3.825,3.825,0,0,1-1.434-.414,6.419,6.419,0,0,0-2.84-.933q-1.452-.3-2.9-.612c-1.93-.422-3.853-.865-5.765-1.345-7.623-1.945-15.251-4.179-22.136-7.711a32.161,32.161,0,0,1-4.828-3.029,12.577,12.577,0,0,1-3.547-3.967,5.327,5.327,0,0,1-.224-4.649,11.444,11.444,0,0,1,3.311-4.129,23.282,23.282,0,0,1,2.275-1.691c.8-.515,1.549-1.143,2.341-1.719a16.586,16.586,0,0,1,2.572-1.4q1.331-.617,2.691-1.185a96.976,96.976,0,0,1,11.188-3.794,223.394,223.394,0,0,1,23.2-4.915c3.909-.634,7.831-1.183,11.742-1.839a113.555,113.555,0,0,1,11.809-1.42c1.986-.075,3.99.095,5.972.034.993-.012,1.979-.1,2.967-.18l2.962-.216q5.929-.412,11.866-.675c31.639-1.525,63.549-.8,94.888,4.148Z" transform="translate(-5576.679 -1340.59)" fill="#94d68a"/>
      </g>
      <g id="Group_603" data-name="Group 603" transform="translate(187.611 43.463)">
        <path id="Path_1123" data-name="Path 1123" d="M5811.436,1356.477a21.987,21.987,0,0,0-7.548-.083q-3.728.462-7.44,1.046-7.429,1.14-14.757,2.948a88.259,88.259,0,0,0-14.354,4.786,33.787,33.787,0,0,0-6.654,3.858,14.182,14.182,0,0,0-2.793,2.831,6.585,6.585,0,0,0-1.307,3.926h1.349a5.166,5.166,0,0,1,1.279-2.936,12.494,12.494,0,0,1,2.585-2.3,33.989,33.989,0,0,1,6.446-3.242c2.264-.9,4.6-1.64,6.958-2.323s4.747-1.276,7.154-1.8c4.805-1.095,9.679-1.916,14.565-2.664,2.444-.364,4.9-.7,7.353-.986a25.326,25.326,0,0,0,7.292-1.714Z" transform="translate(-5756.582 -1356.109)" fill="#94d68a"/>
      </g>
    </g>
    <g id="Group_607" data-name="Group 607" transform="translate(37.167 1.178)">
      <g id="Group_605" data-name="Group 605" transform="translate(14.676 61.302)">
        <line id="Line_89" data-name="Line 89" y2="95.248" transform="translate(8.185)" fill="none" stroke="#555" stroke-miterlimit="10" stroke-width="4.025"/>
        <ellipse id="Ellipse_86" data-name="Ellipse 86" cx="7.134" cy="7.134" rx="7.134" ry="7.134" transform="translate(2.285 106.656) rotate(-99.217)" fill="#555"/>
      </g>
      <g id="Group_606" data-name="Group 606" transform="translate(0 0)">
        <rect id="Rectangle_109" data-name="Rectangle 109" width="488.393" height="20.288" fill="#fff" stroke="#555" stroke-miterlimit="10" stroke-width="4.025"/>
        <rect id="Rectangle_110" data-name="Rectangle 110" width="488.393" height="20.288" transform="translate(0 20.288)" fill="#fff" stroke="#555" stroke-miterlimit="10" stroke-width="4.025"/>
        <rect id="Rectangle_111" data-name="Rectangle 111" width="488.393" height="20.288" transform="translate(0 40.576)" fill="#fff" stroke="#555" stroke-miterlimit="10" stroke-width="4.025"/>
        <rect id="Rectangle_112" data-name="Rectangle 112" width="488.393" height="20.288" transform="translate(0 60.865)" fill="#fff" stroke="#555" stroke-miterlimit="10" stroke-width="4.025"/>
      </g>
    </g>
    <rect id="Rectangle_113" data-name="Rectangle 113" width="489.258" height="422.564" transform="translate(37.167)" fill="none" stroke="#555" stroke-miterlimit="10" stroke-width="5.187"/>
    <g id="Group_609" data-name="Group 609" transform="translate(403.336 117.679)">
      <path id="Path_1124" data-name="Path 1124" d="M5351.671,654.5c-.667,17.655,4.229,34.982,6.739,52.47s2.3,36.524-7.385,51.3c24.177,2.211,48.434-10.775,62.485-30.575s18.479-45.47,14.933-69.489c-2-13.542-.98-32.9-10.575-42.665-9.787-9.959-31.674-10.352-44.444-2.421C5360.015,621.449,5352.235,639.611,5351.671,654.5Z" transform="translate(-5351.025 -607.58)" fill="#091a4c"/>
      <path id="Path_1125" data-name="Path 1125" d="M5416.882,638.037a72.939,72.939,0,0,0-28.529-8.1c-8.047-.69-17.291-.415-24.985,2.91-5.294,9.177-6.653,20.089-5.6,30.5.626,6.2,5.026,29.663,14.9,37.125,13,9.827,36.8-14.8,40.99-23.427,5.41-11.147,7.586-19.289,5.322-31.288A55.586,55.586,0,0,0,5416.882,638.037Z" transform="translate(-5345.063 -616.618)" fill="#f6bd96"/>
      <path id="Path_1126" data-name="Path 1126" d="M5321.851,726.853l29.629,33.032,14.141-23.213-27.207-26.686Z" transform="translate(-5269.823 -649.555)" fill="#f6bd96"/>
      <g id="Group_608" data-name="Group 608" transform="translate(16.285 54.278)">
        <path id="Path_1127" data-name="Path 1127" d="M5449.11,719.906c-1.138-.679-2.63-.962-3.415-2.038-.387-.985,1.394-4.641-.124-9.929-.433-1.512-.914-2.85-2.354-3.575a7.786,7.786,0,0,0-4.882-.659" transform="translate(-5438.336 -701.202)" fill="none" stroke="#e7a579" stroke-linecap="round" stroke-linejoin="round" stroke-width="1.594"/>
        <path id="Path_1128" data-name="Path 1128" d="M5429.174,707.433a4.239,4.239,0,0,1-4.335.816" transform="translate(-5410.435 -702.785)" fill="none" stroke="#39395c" stroke-linecap="round" stroke-miterlimit="10" stroke-width="1.594"/>
        <path id="Path_1129" data-name="Path 1129" d="M5454.062,710.908a2.77,2.77,0,0,1-3.337.2" transform="translate(-5450.599 -704.21)" fill="none" stroke="#39395c" stroke-linecap="round" stroke-miterlimit="10" stroke-width="1.594"/>
        <path id="Path_1130" data-name="Path 1130" d="M5429.327,699.951a6.147,6.147,0,0,0-5.821.817" transform="translate(-5409.802 -699.558)" fill="none" stroke="#e7a579" stroke-linecap="round" stroke-miterlimit="10" stroke-width="1.594"/>
      </g>
      <path id="Path_1131" data-name="Path 1131" d="M5344.759,615.207c-7.558,5.633-12.107,10.168-9.1,18.766,2.27,6.492,36.053,50.97,74.468,53.31-2.259-3.515-7.553-16.388-5.731-27.793s2.142-23.546-3.208-33.972C5391.2,606.054,5362.03,602.336,5344.759,615.207Z" transform="translate(-5321.922 -607.616)" fill="#091a4c"/>
    </g>
    <path id="Path_1132" data-name="Path 1132" d="M5606.483,769.444c9.6,14.944,9.372,34.019,7.629,51.695-3.785,38.406-13.439,76.81-33.335,109.879-11.443,19.019-25.775,33.6-48.758,35.177-20.679,1.419-41.651-6.177-58.216-18.267-23.8-17.371-40.222-42.793-56.092-67.621q-.914,3.149-2.123,6.2c-5.305,13.411-14.705,24.759-25.208,34.455a207.9,207.9,0,0,1-26.26,20.259c-8.278,5.49-25.414,10.94-26.017,22.574-.115,2.22.271,4.658-.985,6.491-1.58,2.3-4.868,2.442-7.659,2.345-17.215-1.093-34.333-.383-51.464-1.01-.745-.027-1.751-.34-1.651-1.079.064-.47.571-.723,1.012-.9,11.917-4.695,24.7-8.595,36.223-14.677,13.613-7.187,21.448-17.23,30.483-29.335,19.469-26.087,38.577-52.458,58.254-78.389a531.188,531.188,0,0,1,63.174,23.55c10.386,4.641,46.409,22.834,56.007,25.4,5.014,0,8.7-11.168,9.3-14.372a56.444,56.444,0,0,0-.259-22.1c-2.635-11.989-14.845-23.69-13.309-36.47,1.166-9.7,11.934-14.477,20.079-19.873a54.86,54.86,0,0,0,24.011-40.736c-.67,8.417,23.7-8.318,24.05-8.453C5593.648,751,5602.428,763.133,5606.483,769.444Z" transform="translate(-5089.057 -549.779)" fill="#f6bd96"/>
    <g id="Group_610" data-name="Group 610" transform="translate(428.039 203.887)">
      <path id="Path_1133" data-name="Path 1133" d="M5327.3,950.856c-10.909-6.642-24.28-15.708-32.368-25.6a71.367,71.367,0,0,1-14.189-29.061c3.982-2.338,8.787-11.609,9.3-14.372a56.453,56.453,0,0,0-.26-22.1c-2.635-11.989-14.845-23.69-13.31-36.47,1.166-9.7,11.935-14.477,20.08-19.873,13.6-9.01,19.05-24.045,23.465-39.742-.52,1.849,24.244-9.311,24.6-9.446,8.279-3.187,17.06,8.943,21.115,15.254,9.6,14.944,9.372,34.019,7.629,51.695-3.785,38.406-13.439,76.81-33.335,109.879C5335.945,937.791,5332.364,945.6,5327.3,950.856Z" transform="translate(-5276.338 -753.666)" fill="#297045"/>
      <path id="Path_1134" data-name="Path 1134" d="M5278.215,955.581c7.952-13.46,14.368-27.753,20.562-42.085,6.824-15.788,13.267-31.7,17.353-48.456a263.3,263.3,0,0,0,4.622-26.07c1.246-8.933,2.478-17.9,2.241-26.937-.187-7.143-.465-14.364-.971-21.493-.211-2.956-.49-5.99-1-8.978,9.167,14.84,8.94,33.6,7.225,51.011-3.786,38.406-13.439,76.81-33.335,109.879-4.075,6.773-7.656,14.578-12.724,19.838-1.882-1.146-3.85-2.388-5.84-3.67C5276.971,957.608,5277.61,956.606,5278.215,955.581Z" transform="translate(-5231.228 -765.1)" fill="#297045"/>
    </g>
    <path id="Path_1135" data-name="Path 1135" d="M5360.009,990.632c19.47-26.087,38.579-52.458,58.254-78.39a531.4,531.4,0,0,1,63.176,23.55c10.386,4.641,46.409,22.834,56.006,25.4a3.749,3.749,0,0,0,1.633-.413,64.65,64.65,0,0,0,3.882,11.7c6.23,14.054,17.044,25.615,29.228,34.765,3.447,2.589,7.032,4.989,10.709,7.243-9.12,9.377-20.256,15.7-34.929,16.706-20.678,1.419-41.651-6.177-58.215-18.267-23.8-17.371-40.223-42.793-56.092-67.621q-.916,3.148-2.123,6.2c-5.305,13.411-14.706,24.759-25.209,34.455a207.971,207.971,0,0,1-26.26,20.259c-1.588,1.053-3.5,2.105-5.564,3.2a62.066,62.066,0,0,1-16.657-15.915C5358.564,992.552,5359.279,991.61,5360.009,990.632Z" transform="translate(-5105.004 -614.777)" fill="#00385d"/>
    <path id="Path_1136" data-name="Path 1136" d="M5531.263,1023.721c9.5,4.029,11.93,12.257,21.43,16.361a58.788,58.788,0,0,1-1.133,6.388,34.144,34.144,0,0,1-1.584,5.007,101.2,101.2,0,0,1-17.9-10.424c-16.161-11.8-39.828-43.676-51.322-60.188C5490.732,991.6,5513.455,1016.171,5531.263,1023.721Z" transform="translate(-5147.328 -642.905)" fill="#29294f"/>
    <path id="Path_1137" data-name="Path 1137" d="M5613.376,1028.55c13.551-5.623,25.338-14.675,35.573-25.077,5.085-5.169,21.653-19.764,27.056-32.5-.49,1.546-.979,3.095-1.575,4.6-5.306,13.411-14.706,24.759-25.209,34.455a207.888,207.888,0,0,1-26.26,20.259c-1.587,1.053-3.5,2.1-5.564,3.2-1.979-1.343-3.878-2.8-5.727-4.313C5612.236,1028.96,5612.815,1028.783,5613.376,1028.55Z" transform="translate(-5347.897 -638.852)" fill="#29294f"/>
    <path id="Path_1138" data-name="Path 1138" d="M5570.6,1071.043c-7.087,8.319-24.74,11.751-32.662,13.913a251.96,251.96,0,0,1-50.572,8.007c-29.141,1.825-58.37-.279-87.495-2.382.538.038,2.251,3.437,2.6,3.975,6.221,9.662,14.85,22.475,16.269,34.146,1.5,12.3,2.841,24.951,3.389,37.4.5,11.363-.917,22.894-.115,34.189.328,4.622,2.187,9.351,5.92,12.094,3.412,2.506,8.373,3.482,10.059,7.365,1.053,2.424.416,5.211-.235,7.773-.563,0-4.095,15.605-4.326,17.12-.895,5.871-.857,12.082-1.3,18.013a9.985,9.985,0,0,1-1.157,4.722c-1.819,2.834-13.687,5.827-14.632,1.065-.405-2.05.763-4.034,1.458-6,1.757-4.978.525-10.458-.728-15.586-2.182-8.928-4.391-17.85-6.731-26.738-3.341-12.687-6.545-25.619-11.194-37.85-4.735-12.461-9.477-24.925-13.723-37.564-8.43-25.089-15.142-51.257-14.933-77.9.054-6.976.643-14.99,6.236-19.159,3.2-2.384,7.366-2.924,11.328-3.385,44.817-5.217,89.667-10.436,134.715-12.97,15.664-.881,24.376,7.269,35.719,17.939,3.947,3.713,14.382,7.145,15.05,12.522A11.636,11.636,0,0,1,5570.6,1071.043Z" transform="translate(-5103.192 -663.546)" fill="#f6bd96"/>
    <path id="Path_1139" data-name="Path 1139" d="M5387.023,1093.683c6.223,9.662,14.85,22.475,16.269,34.146,1.5,12.3,2.841,24.951,3.389,37.4.252,5.765.014,11.573-.179,17.371a105.259,105.259,0,0,0-13.472-.351,78.678,78.678,0,0,0-8.713.921c-.216-.588-.4-1.193-.621-1.779-4.735-12.461-9.477-24.925-13.723-37.564-8.429-25.089-15.142-51.257-14.933-77.9.055-6.976.644-14.99,6.236-19.159,3.2-2.385,7.366-2.924,11.328-3.385,44.817-5.217,91.3-11.665,136.347-14.2,15.662-.881,25.407,4.413,35.04,16.649,5.975,7.591,23.308,16.958,23.308,16.958-9.115,16.464-31.1,20.592-39.023,22.753-16.5,4.5-39.3,5.476-56.355,6.544-29.141,1.826-58.37-.279-87.495-2.382C5384.963,1089.746,5386.676,1093.145,5387.023,1093.683Z" transform="translate(-5087.746 -662.672)" fill="#00385d"/>
    <path id="Path_1140" data-name="Path 1140" d="M5522.75,788.478l18.655,69.664,63.625,22.585" transform="translate(-5224.448 -564.048)" fill="none" stroke="#b6b2af" stroke-miterlimit="10" stroke-width="16.098"/>
    <path id="Path_1141" data-name="Path 1141" d="M5461.8,801.041c-20.389,29.364-38.6,61.766-58.993,91.13-12.8-8.475-25.655-16.941-39.247-24.115-4.981-2.63-9.658-6.868-14.809-8.853-6.606-2.545-14.312-2.982-21.31-2.752-8.983.3-17.851,2.015-26.673,3.729,9.7,4.253,20.6,4.5,31.017,6.382,10.947,1.975,19.512,6.156,26.274,14.966,7.224,9.416,20.04,16.851,29.408,24.328,4.3,3.432,8.817,6.969,14.2,8.093,10.635,2.221,20.647-5.48,28.19-13.3,16.782-17.4,31.148-38.749,42.249-60.214a100.21,100.21,0,0,0,10.7-32.041C5485.428,793.334,5468.1,791.964,5461.8,801.041Z" transform="translate(-4971.501 -566.872)" fill="#f6bd96"/>
    <g id="Group_614" data-name="Group 614" transform="translate(152.668 535.573)">
      <g id="Group_612" data-name="Group 612" transform="translate(0.966)">
        <path id="Path_1142" data-name="Path 1142" d="M5754.427,1322.338c4.5,5.035,12.7,5.383,19.285,5.51l12.824.19a.043.043,0,0,0,.063,0c4.973.032,9.943.063,14.915.063,1.489-.031,3.009-.031,4.5-.031,11.335-.064,22.642-1.33,33.978-.728,4.464.221,8.992.379,13.3-.792,4.307-1.14,8.424-3.769,10.387-7.758q.379-.807.665-1.615c4.212-12-8.866-24.319-20.487-24.319a20.152,20.152,0,0,0-9.532,2.375,8.166,8.166,0,0,1-9.278-1.2c-6.4-5.826-17.036-10.608-26.567-11.431-16.119-1.457-25.9.665-37.872,11.906-3.769,3.547-6.966,7.853-8.3,12.919S5751.008,1318.475,5754.427,1322.338Z" transform="translate(-5751.491 -1282.188)" fill="#e9eaeb"/>
        <path id="Path_1143" data-name="Path 1143" d="M5780.023,1291.245a49.994,49.994,0,0,1,11.846-4.62,52.039,52.039,0,0,1,23.573-.17c6.643,1.414,13.164,3.527,18.74,7.5,2.906,2.073,5.419,4.781,9.1,5.4,3.808.644,7.18-1.015,10.47-2.7a22.8,22.8,0,0,1,9.424-2.675c.616-.025,1.235.009,1.855.035a18.913,18.913,0,0,0-6.4-1.176,20.349,20.349,0,0,0-9.549,2.368,8.109,8.109,0,0,1-9.254-1.189c-6.417-5.841-17.044-10.605-26.579-11.448-15.523-1.38-25.157.549-36.534,10.716C5777.788,1292.571,5778.879,1291.866,5780.023,1291.245Z" transform="translate(-5766.258 -1282.185)" fill="#b3b8c9"/>
        <path id="Path_1144" data-name="Path 1144" d="M5802.987,1304.308a41.845,41.845,0,0,0-8.621-9.661,21.236,21.236,0,0,0,1.645,16.917Z" transform="translate(-5714.016 -1287.293)" fill="#d9dbe2"/>
        <path id="Path_1145" data-name="Path 1145" d="M5752.97,1306a36.257,36.257,0,0,1,8.785-7.98,14.781,14.781,0,0,1-1.289,14.319Z" transform="translate(-5650.245 -1288.675)" fill="#d9dbe2"/>
        <g id="Group_611" data-name="Group 611" transform="translate(97.034 33.471)">
          <path id="Path_1146" data-name="Path 1146" d="M5770.8,1338.905a6.224,6.224,0,0,0,1.656,1.65,1.94,1.94,0,0,0,.788.43,1.732,1.732,0,0,0,1.281-.433,7.354,7.354,0,0,0,1.5-1.458" transform="translate(-5770.803 -1338.905)" fill="none" stroke="#3a3942" stroke-linecap="round" stroke-miterlimit="10" stroke-width="1.066"/>
          <path id="Path_1147" data-name="Path 1147" d="M5775.07,1342.656a6.815,6.815,0,0,1,.061,2.2" transform="translate(-5772.485 -1340.442)" fill="none" stroke="#3a3942" stroke-linecap="round" stroke-miterlimit="10" stroke-width="1.066"/>
        </g>
        <path id="Path_1148" data-name="Path 1148" d="M5757.4,1332.214a2.117,2.117,0,0,0,3.764.009" transform="translate(-5650.997 -1302.692)" fill="none" stroke="#3a3942" stroke-linecap="round" stroke-miterlimit="10" stroke-width="1.066"/>
        <path id="Path_1149" data-name="Path 1149" d="M5786.943,1332.214a2.116,2.116,0,0,0,3.763.009" transform="translate(-5697.972 -1302.692)" fill="none" stroke="#3a3942" stroke-linecap="round" stroke-miterlimit="10" stroke-width="1.066"/>
        <path id="Path_1150" data-name="Path 1150" d="M5853.714,1316.07a21.034,21.034,0,0,1,8.074-3.673c3.579-.855,7.631-.855,10.482,1.425a9.424,9.424,0,0,1,2.85,9.152,15.341,15.341,0,0,1-5.446,8.264c.747-.619,2.719-.657,3.647-.723a15.531,15.531,0,0,1,3.971.233c2.6.492,4.953,1.475,6.5,3.706a2.309,2.309,0,0,1,.468,1.062,1.79,1.79,0,0,1-.752,1.514c-1.775,1.391-4.266,1.442-6.412,1.709q-3.947.493-7.924.667c4.972.032,9.943.063,14.915.063a5.284,5.284,0,0,0,2.692-1.868c1.583-2.343-.1-5.732-2.6-6.967-2.533-1.266-5.478-.981-8.3-.7,1.52-.159,2.881-3.927,3.167-5.1a12.876,12.876,0,0,0-.381-6.4c-1.076-4.211-5-7.03-9.151-8.075a15.029,15.029,0,0,0-11.3,1.678A18.744,18.744,0,0,0,5853.714,1316.07Z" transform="translate(-5834.057 -1293.558)" fill="#b3b8c9"/>
      </g>
      <g id="Group_613" data-name="Group 613" transform="translate(0 25.637)">
        <path id="Path_1151" data-name="Path 1151" d="M5867.518,1371.823a5.034,5.034,0,0,0,4.512-7.261c-5.638-11.438-18.639-15.99-28.925-16.436-8.042-.346-15.787,1.213-23.277,2.719-2.338.47-4.676.94-7.017,1.348-7.155,1.253-17.612,2.44-25.851-1.67-6.372-3.182-11.618-11.349-8.96-17.982a5.034,5.034,0,0,0-9.345-3.748c-4.918,12.274,3.339,25.509,13.809,30.735,10.9,5.443,23.531,4.076,32.082,2.585,2.424-.427,4.846-.912,7.269-1.4,7.22-1.454,14.045-2.8,20.854-2.53,7.068.307,16.633,3.327,20.333,10.832A5.029,5.029,0,0,0,5867.518,1371.823Z" transform="translate(-5767.196 -1325.629)" fill="#e9eaeb"/>
      </g>
    </g>
    <g id="Group_617" data-name="Group 617" transform="translate(26.947 264.933)">
      <g id="Group_615" data-name="Group 615">
        <path id="Path_1152" data-name="Path 1152" d="M5968.271,921.09c13.219,7.52,26.449,15.481,37.4,26.162,5.431,5.3,10.383,12,16.151,17.469,2.093.852,4.169,1.754,6.162,2.793a74.3,74.3,0,0,1-6.5-11.74c-4.211-9.095-8.713-17.989-13.369-26.865-4.469-8.517-8.872-17.09-12.036-26.192-3.377-9.711-5.892-19.708-10.606-28.9-.451-.877.769-2,1.453-1.127l.145.188h0l0,.006c6.329,8.124,11.967,16.735,18.42,24.77,5.9,7.344,11.934,14.653,16.78,22.757,4.953,8.283,8.124,17.325,10.515,26.642.983,3.827,2.011,7.709,2.8,11.608-.076-3.263.163-6.557.185-9.814.063-9.048-.326-18.39,1.463-27.311,1.712-8.529,5.629-16.375,8.859-24.388,3.372-8.365,4.829-17.312,8.229-25.645a.937.937,0,0,1,1.788,0c3.015,8.346,2.519,17.188,1.667,25.879-.915,9.308-1.628,18.617-3.314,27.827-1.637,8.945-3.938,17.751-6.175,26.56-1.875,7.391-3.953,15.164-8.64,21.328-1.32-.077-2.638-.165-3.959-.223-2.146-.094-4.308-.138-6.467-.235a45.738,45.738,0,0,1-8.26-6.295c-2.279-.911-4.581-1.767-6.81-2.7a199.926,199.926,0,0,1-18.874-8.7,51.727,51.727,0,0,1-16.264-13.115c-4.729-6-8.039-12.965-12-19.461A.934.934,0,0,1,5968.271,921.09Zm63.115,50.662a33.206,33.206,0,0,0-4.4-2.712A34.454,34.454,0,0,0,6031.386,971.752Z" transform="translate(-5966.873 -862.742)" fill="#39b04a"/>
        <path id="Path_1153" data-name="Path 1153" d="M5913.865,985.428c-.211,1.119-.441,2.234-.725,3.336q-1.1.088-2.2.116a21.308,21.308,0,0,1,1.073-3.625c.354-1.846.669-3.7,1.2-5.515,1.019-3.5,2.415-6.92,3.583-10.373,2.506-7.4,5.085-14.805,9.115-21.544,8.3-13.874,20.6-24.779,29.335-38.351a.939.939,0,0,1,1.7.218c1.336,6.088-1.3,12.231-3.941,17.613-3.548,7.235-7.672,14.311-11.792,21.232a125.192,125.192,0,0,1-14.667,20.141C5922.093,973.594,5916.467,979.017,5913.865,985.428Z" transform="translate(-5832.743 -878.395)" fill="#39b04a"/>
        <path id="Path_1154" data-name="Path 1154" d="M5881.464,1018.109c-.722.139-1.447.257-2.173.361,5.425-9.491,12.9-18.55,22.157-24.416a31.98,31.98,0,0,1,14.433-4.917c4.1-.394,8.214-.351,12.172-1.663,3.613-1.2,6.852-3.3,10.132-5.175a.935.935,0,0,1,1.273,1.266c-5.422,8.728-16.535,10.649-25.133,14.935a144.263,144.263,0,0,0-18.235,10.8c-2.99,2.083-6.155,4-9.041,6.234a13.011,13.011,0,0,1-5.4,2.544Z" transform="translate(-5796.359 -908.377)" fill="#39b04a"/>
        <path id="Path_1155" data-name="Path 1155" d="M6014.917,917.208c.348.853.646,1.719.92,2.592,2.564,6.324,7.664,12.579,11.537,17.787,4.348,5.845,9.193,11.264,13.782,16.914a72.183,72.183,0,0,1,10.445,16.232,91.388,91.388,0,0,1,3.19,9.078c.9,2.827,2.342,5.535,3.131,8.384l.162.093a.833.833,0,0,1,.121,1.381.925.925,0,0,1-1.811.089c-.025-.118-.06-.236-.087-.355-5.81-3.31-11.467-6.946-16.23-11.686-5.019-4.994-8.726-11.029-11.94-17.292-3.247-6.322-6.694-12.747-9.033-19.465-2.309-6.626-2.779-13.807-4.942-20.439a25.574,25.574,0,0,1-.973-2.683C6012.894,916.841,6014.519,916.231,6014.917,917.208Z" transform="translate(-5994.275 -881.543)" fill="#39b04a"/>
        <path id="Path_1156" data-name="Path 1156" d="M6029.944,955.069c4.973,6.566,8.823,13.944,12.878,21.094,3.234,5.7,5.4,13.112,11.087,16.912.987.66.063,2.269-.934,1.6-5.431-3.628-9.526-10.583-12.447-16.143-4.128-7.859-6.82-15.445-12.184-22.527C6027.624,955.056,6029.231,954.128,6029.944,955.069Z" transform="translate(-5998.948 -897.104)" fill="#0a8e6d"/>
        <path id="Path_1157" data-name="Path 1157" d="M5918.4,978.983c5.153-8.753,12.695-15.117,19.383-22.6a100.478,100.478,0,0,0,10.148-13.513c2.757-4.386,6.711-9.022,8.594-13.839a.929.929,0,0,1,.087-.139c.025-.065.052-.129.077-.194.418-1.1,2.213-.63,1.789.489-3.771,9.952-8.694,19.886-15.2,28.339-6.652,8.646-15.852,14.794-23.421,22.577A.931.931,0,0,1,5918.4,978.983Z" transform="translate(-5838.314 -886.199)" fill="#0a8e6d"/>
        <path id="Path_1158" data-name="Path 1158" d="M5976.972,943.247c1.243-6.062,2.466-12.128,3.767-18.18,1.22-5.679,2.223-11.417,3.239-17.135a14.761,14.761,0,0,1,.271-1.721q.335-1.136.7-2.263.724-2.254,1.562-4.471c.1-.276.246-.585.53-.665a.649.649,0,0,1,.645.251,3.354,3.354,0,0,1,.437,1.512,10.525,10.525,0,0,1,.129,1.9c-.016,1.228-.183,2.445-.292,3.666-.506,5.746-.968,12.539-2.185,18.177-1.477,6.845-2.6,11.1-4.112,17.942-1.087,4.924-4.327,15.3-6.764,19.77-.46.843-1.77,3.073-1.813,2.192C5972.834,959.181,5975.964,948.156,5976.972,943.247Z" transform="translate(-5900.355 -874.199)" fill="#0a8e6d"/>
        <path id="Path_1159" data-name="Path 1159" d="M5958.337,869.925c7.913,11.754,12.441,26.149,15.437,40.065-.387-7.412-.54-14.831-.774-22.256-.158-5.018-.257-10.069-.81-15.061-.543-4.9-1.412-9.71-1.27-14.661a.928.928,0,0,1,1.854,0c.558,9.13,4.328,17.42,7.4,25.907,2.928,8.094,4.128,16.335,5.29,24.83a207.752,207.752,0,0,1,2.3,27.552c.023,8.786-.564,17.495.124,26.235.641-7.215,4.419-15.281,6.5-20.289,2.577-6.2,4.956-12.016,6.4-18.594,2.163-9.873,3.906-19.912,8.808-28.879a.935.935,0,0,1,1.6,0c3.026,5.342,1.849,11.914.7,17.639-1.712,8.513-2.852,16.834-4.011,25.444a99.144,99.144,0,0,1-5.868,24.06,44.558,44.558,0,0,1-2.376,5.1,41.283,41.283,0,0,1-7.11.611c-2.487-.01-4.966-.212-7.448-.34a62.682,62.682,0,0,1-3.218-6.749c.051,1.421.044,2.848-.046,4.283a.9.9,0,0,1-.391.7,13.672,13.672,0,0,0,1.783,1.683c-1-.037-2.006-.07-3.013-.1a40.472,40.472,0,0,1-4.873-6.821c-4.338-7.116-7.146-15.029-9.4-23.017-6.148-21.732-7.476-44.465-9.3-66.864C5956.529,869.413,5957.865,869.226,5958.337,869.925Z" transform="translate(-5915.501 -857.114)" fill="#39b04a"/>
      </g>
      <g id="Group_616" data-name="Group 616" transform="translate(43.096 104.337)">
        <path id="Path_1160" data-name="Path 1160" d="M5960.933,1087.675h41.1c2.445-17.934,4.968-35.859,7.7-53.751H5953.23C5955.966,1051.816,5958.488,1069.74,5960.933,1087.675Z" transform="translate(-5953.23 -1033.923)" fill="#58595b"/>
      </g>
      <path id="Path_1161" data-name="Path 1161" d="M5953.232,1033.923h56.5l-2.54,16.559h-51.426Z" transform="translate(-5910.137 -929.586)" fill="#414042"/>
      <path id="Path_1162" data-name="Path 1162" d="M5948.6,1033.923h61.968l-1.974,12.869h-58.02Z" transform="translate(-5908.24 -929.586)" fill="#6d6e71"/>
      <line id="Line_90" data-name="Line 90" x2="1.075" y2="7.844" transform="translate(43.506 106.298)" fill="none" stroke="#fff" stroke-linecap="round" stroke-miterlimit="10" stroke-width="1.834" opacity="0.47"/>
      <line id="Line_91" data-name="Line 91" x2="3.298" y2="28.115" transform="translate(49.293 123.095)" fill="none" stroke="#fff" stroke-linecap="round" stroke-miterlimit="10" stroke-width="1.834" opacity="0.47"/>
    </g>
  </g>
</svg>
