<svg xmlns="http://www.w3.org/2000/svg" width="593.394" height="585.393" viewBox="0 0 593.394 585.393">
  <g id="Group_913" data-name="Group 913" transform="translate(-1212.573 -320.303)">
    <g id="Group_628" data-name="Group 628" transform="translate(1282.965 417.77) rotate(8)" opacity="0.66">
      <path id="Path_1194" data-name="Path 1194" d="M237.294-121.114c2.954-3.655,9.474-11.545,10.086-12.164s5.49,1.1,5.49,1.1l-3.154,20.366-17.626-6.219S234.339-117.459,237.294-121.114Z" transform="translate(-131.931 156.91)" fill="#52bbe1" opacity="0.61"/>
      <path id="Path_1195" data-name="Path 1195" d="M236.9-132.442c1.12.321,2.079.658,2.079.658l-3.154,20.366-3.733-1.317Z" transform="translate(-118.039 156.512)" fill="#52bbe1"/>
      <path id="Path_1196" data-name="Path 1196" d="M254.616-106.3l-.639,4.124-17.626-6.219s1.508.382,3.676-1.485Z" transform="translate(-136.191 147.269)" opacity="0.04"/>
      <path id="Path_1197" data-name="Path 1197" d="M222.591-139.043c.26-.826,7.721-8.255,17.905-5.964s82.212,22.045,82.212,22.045l17.626,6.219,8.629,4.078.158,3.062s-27.646,1.9-37.435-.305c-9.739-2.637-71.429-19.141-75.625-20.383S221.817-134.477,222.591-139.043Z" transform="translate(-222.549 161.838)" fill="#00385d"/>
      <path id="Path_1198" data-name="Path 1198" d="M294.413-123.171s-.285,4.562,16.718,8.461c15.97,3.663,9.384-4.455,9.384-4.455l-21.6-5.427Z" transform="translate(-237.714 153.297)" opacity="0.04"/>
      <g id="Group_625" data-name="Group 625" transform="translate(111.986 37.73)">
        <path id="Path_1199" data-name="Path 1199" d="M226.187-108.063,206.18-99.176l-6.684-1.783L222.05-109.3Z" transform="translate(-197.991 109.303)" fill="#52bbe1"/>
        <path id="Path_1200" data-name="Path 1200" d="M230.563-109.3l-22.553,8.344-1.505-1.648Z" transform="translate(-206.504 109.303)" fill="#52bbe1"/>
      </g>
      <path id="Path_1201" data-name="Path 1201" d="M223.04-147.859l55.511-19.6,7.775-5.752,1.58.677-5.349,6.769-38.382,19.184L232.851-135.7s-8.9.373-21.328-7.388C221.206-147.409,223.04-147.859,223.04-147.859Z" transform="translate(-154.824 173.214)" fill="#52bbe1"/>
      <path id="Path_1202" data-name="Path 1202" d="M224.111-147.891l38.382-19.184,4.792-6.064,1.475.632-5.349,6.769-38.382,19.184L213.706-135.67a16.524,16.524,0,0,1-2.183-.122Z" transform="translate(-135.679 173.183)" fill="#45add2"/>
      <path id="Path_1203" data-name="Path 1203" d="M321.735-106.305l.03.011a42.533,42.533,0,0,1-5.066-3.225c9.613,2.585,38.215,10.265,38.215,10.265-1.392.716-7.123.737-14.221-.574l.017.006-7.973,1.629L316.444-85.6l-4.894-1.161Z" transform="translate(-280.885 147.122)" fill="#52bbe1"/>
      <path id="Path_1204" data-name="Path 1204" d="M311.686-105.629c-9.739-2.637-71.429-19.141-75.625-20.383s-14.244-4.184-13.47-8.751a.956.956,0,0,1,.135-.232c11.073.29,94.815,23.027,94.815,23.027l31.544,5.956.035.688S321.475-103.427,311.686-105.629Z" transform="translate(-222.549 157.558)" fill="#00385d" opacity="0.04"/>
      <g id="Group_626" data-name="Group 626" transform="translate(58.962 21.236)">
        <path id="Path_1205" data-name="Path 1205" d="M309.619-137.186s9.933.532,12.794,5l0,.02a4.7,4.7,0,0,1,.416,3.6c-.444,1.863-1.641,3.217-2.822,3.3-.014.006-7.491.184-11.944-2.612C309.037-133.151,309.619-137.186,309.619-137.186Z" transform="translate(-305.872 137.22)" fill="#fefff3"/>
        <path id="Path_1206" data-name="Path 1206" d="M322.9-125.733c-.444,1.863-1.641,3.217-2.822,3.3-.014.006-7.491.184-11.944-2.612.361-1.961.668-3.749.912-5.224l13.977,3.8A6.205,6.205,0,0,1,322.9-125.733Z" transform="translate(-305.945 134.385)" opacity="0.04"/>
        <path id="Path_1207" data-name="Path 1207" d="M327.016-133.036c-.416,2.57.546,4.863,2.148,5.122s3.238-1.613,3.653-4.183-.545-4.863-2.147-5.122S327.432-135.606,327.016-133.036Z" transform="translate(-326.919 137.244)" fill="#52bbe1"/>
      </g>
      <g id="Group_627" data-name="Group 627" transform="translate(24.47 42.331)">
        <path id="Path_1208" data-name="Path 1208" d="M368.043-101.453s9.933.532,12.794,5l0,.021a4.7,4.7,0,0,1,.416,3.6c-.444,1.863-1.642,3.217-2.823,3.3-.014.007-7.491.185-11.944-2.612C367.461-97.418,368.043-101.453,368.043-101.453Z" transform="translate(-364.297 101.486)" fill="#fefff3"/>
        <path id="Path_1209" data-name="Path 1209" d="M381.329-90c-.444,1.863-1.642,3.217-2.823,3.3-.014.007-7.49.185-11.944-2.612.361-1.961.668-3.749.912-5.224l13.977,3.8A6.3,6.3,0,0,1,381.329-90Z" transform="translate(-364.371 98.651)" opacity="0.04"/>
        <path id="Path_1210" data-name="Path 1210" d="M385.44-97.3c-.416,2.569.545,4.863,2.147,5.122s3.238-1.614,3.654-4.183-.546-4.863-2.148-5.122S385.856-99.872,385.44-97.3Z" transform="translate(-385.343 101.51)" fill="#52bbe1"/>
      </g>
      <path id="Path_1211" data-name="Path 1211" d="M255.416-83.658l-5.934,5.124-3.772-1.528.967-3.569Z" transform="translate(-142.517 136.528)" fill="#52bbe1"/>
      <path id="Path_1212" data-name="Path 1212" d="M256.811-80.048l3.152-3.575-2.185.007Z" transform="translate(-153.617 136.514)" fill="#52bbe1"/>
    </g>
    <rect id="Rectangle_120" data-name="Rectangle 120" width="257.038" height="222" transform="translate(1215.167 352)" fill="#52bbe1" opacity="0.06"/>
    <path id="Path_1213" data-name="Path 1213" d="M0,0H257.038L0,222Z" transform="translate(1215.167 352)" fill="#52bbe1" opacity="0.09"/>
    <g id="Group_629" data-name="Group 629" transform="translate(1215.167 352.619)" opacity="0.53">
      <g id="Group_605" data-name="Group 605" transform="translate(7.71 32.206)">
        <line id="Line_89" data-name="Line 89" y2="50.04" transform="translate(4.3)" fill="none" stroke="#8f8f8f" stroke-miterlimit="10" stroke-width="4.025"/>
        <ellipse id="Ellipse_86" data-name="Ellipse 86" cx="3.748" cy="3.748" rx="3.748" ry="3.748" transform="translate(1.201 56.033) rotate(-99.217)" fill="#8f8f8f" stroke="#8f8f8f" stroke-width="1"/>
      </g>
      <g id="Group_606" data-name="Group 606" transform="translate(0 3)">
        <rect id="Rectangle_109" data-name="Rectangle 109" width="256.584" height="10.659" fill="#fff" stroke="#8f8f8f" stroke-miterlimit="10" stroke-width="4.025"/>
        <rect id="Rectangle_110" data-name="Rectangle 110" width="256.584" height="10.659" transform="translate(0 10.659)" fill="#fff" stroke="#8f8f8f" stroke-miterlimit="10" stroke-width="4.025"/>
        <rect id="Rectangle_111" data-name="Rectangle 111" width="256.584" height="10.659" transform="translate(0 21.317)" fill="#fff" stroke="#8f8f8f" stroke-miterlimit="10" stroke-width="4.025"/>
        <rect id="Rectangle_112" data-name="Rectangle 112" width="256.584" height="10.659" transform="translate(0 31.976)" fill="#fff" stroke="#8f8f8f" stroke-miterlimit="10" stroke-width="4.025"/>
      </g>
    </g>
    <rect id="Rectangle_119" data-name="Rectangle 119" width="257.038" height="222" transform="translate(1215.167 352)" fill="none" stroke="#8f8f8f" stroke-miterlimit="10" stroke-width="5.187" opacity="0.53"/>
    <g id="Group_619" data-name="Group 619" transform="translate(753.584 242.746)">
      <path id="Path_1163" data-name="Path 1163" d="M774.968,123.817c1.339,7.5,2.453,14.45,6.07,21.3,4.8,9.094,9.9,18.525,18.273,24.494,5.34,3.806,11.675,5.938,17.37,9.19,8.206,4.684,15.273,12.181,17.287,21.413s-2.184,20.052-10.867,23.78c-3.343,1.435-7.064,1.778-10.447,3.115s-6.631,4.179-6.672,7.817c-.062,5.389,5.34,8.705,4.12,14.463-1.729,8.164-10.891,9.265-17.116,12.2-8.814,4.151-17.266,13.759-26.914,15.507-36.161,6.557-23.99-37.475-39.792-52.03-5.979-5.507-14.907-5.948-22.406-9.084-16.435-6.875-24.07-25.5-29.455-42.484-6-18.928-11.27-39.385-5.46-58.373a53.317,53.317,0,0,1,24.258-30.351C726.611,65.687,768.3,86.451,774.968,123.817Z" transform="translate(45.067 0)" fill="#17204c"/>
      <path id="Path_1164" data-name="Path 1164" d="M733.131,222.3c-6.612-4.556-10.252-12.437-11.747-20.325s-1.14-15.994-1.459-24.017c-.573-14.489-3.344-28.79-5.865-43.071-1.615-9.154-2.407-20.314,4.968-25.973,21.838,18.91,35.493,45.95,42.451,73.988,3.033,12.222,3.037,23.638-3.5,34.691C752.832,226.311,741.693,228.2,733.131,222.3Z" transform="translate(74.225 19.649)" fill="#17204c"/>
      <path id="Path_1165" data-name="Path 1165" d="M714.783,169.032V137.807H685.608v31.225c0,8.056,6.532,11.129,14.588,11.129h0C708.253,180.16,714.783,177.088,714.783,169.032Z" transform="translate(57.077 37.749)" fill="#e6bda0"/>
      <path id="Path_1166" data-name="Path 1166" d="M715.86,133.441s-3.227,34.84-30.252,32.729l.029-17.454Z" transform="translate(57.077 35.013)" fill="#e1b090"/>
      <g id="Group_624" data-name="Group 624" transform="translate(860.726 360.963)">
        <g id="Group_621" data-name="Group 621" transform="translate(73.879 266.816)">
          <g id="Group_619-2" data-name="Group 619" transform="translate(0 1.631)">
            <rect id="Rectangle_114" data-name="Rectangle 114" width="13.891" height="19.911" transform="matrix(1, -0.03, 0.03, 1, 3.263, 0.418)"/>
            <path id="Path_1167" data-name="Path 1167" d="M825.359,434.632a10.882,10.882,0,1,1-11.205-10.55A10.884,10.884,0,0,1,825.359,434.632Z" transform="translate(-803.601 -412.303)"/>
          </g>
          <g id="Group_620" data-name="Group 620" transform="translate(54.152 0)">
            <rect id="Rectangle_115" data-name="Rectangle 115" width="13.892" height="19.911" transform="translate(3.263 0.418) rotate(-1.725)"/>
            <path id="Path_1168" data-name="Path 1168" d="M858.652,433.63a10.882,10.882,0,1,1-11.2-10.55A10.881,10.881,0,0,1,858.652,433.63Z" transform="translate(-836.894 -411.3)"/>
          </g>
        </g>
        <g id="Group_622" data-name="Group 622" transform="translate(20.592 100.734)">
          <path id="Path_1169" data-name="Path 1169" d="M902.01,480.793l-82.342,2.479a16.318,16.318,0,0,1-16.247-12.062l-32.01-118.726a16.318,16.318,0,0,1,15.265-20.558l82.344-2.481a16.318,16.318,0,0,1,16.246,12.064l32.01,118.726A16.318,16.318,0,0,1,902.01,480.793Z" transform="translate(-770.84 -303.885)" fill="#297045"/>
          <path id="Path_1170" data-name="Path 1170" d="M939.8,444.525,907.791,325.8a16.32,16.32,0,0,0-16.246-12.062l-82.343,2.48a16.229,16.229,0,0,0-12.882,6.968l-23.032,24.79,25.356,6.259,27.3,101.267a16.318,16.318,0,0,0,16.246,12.062l63.479-1.911c2.116,7.391,5.787,19.663,5.787,19.663L933.9,461.779A16.3,16.3,0,0,0,939.8,444.525Z" transform="translate(-769.306 -313.727)" fill="#37a547"/>
          <path id="Path_1171" data-name="Path 1171" d="M902.01,480.793l-82.342,2.479a16.318,16.318,0,0,1-16.247-12.062l-32.01-118.726a16.318,16.318,0,0,1,15.265-20.558l82.344-2.481a16.318,16.318,0,0,1,16.246,12.064l32.01,118.726A16.318,16.318,0,0,1,902.01,480.793Z" transform="translate(-770.84 -303.885)" fill="#39b04a"/>
        </g>
        <g id="Group_623" data-name="Group 623" transform="translate(0 0)">
          <path id="Path_1172" data-name="Path 1172" d="M818.379,402.4l-6.555.2-50.4-146.766,6.554-.2Z" transform="translate(-756.146 -249.389)" fill="#b8c0c2"/>
          <path id="Path_1173" data-name="Path 1173" d="M845.657,401.583l-6.555.2L788.7,255.014l6.555-.2Z" transform="translate(-739.056 -249.904)" fill="#b8c0c2"/>
          <rect id="Rectangle_116" data-name="Rectangle 116" width="61.693" height="9.066" rx="1.173" transform="translate(0 1.857) rotate(-1.725)"/>
          <rect id="Rectangle_117" data-name="Rectangle 117" width="61.693" height="9.066" rx="1.173" transform="translate(48.379 147.17) rotate(-1.725)" fill="#f4da83"/>
        </g>
      </g>
      <path id="Path_1174" data-name="Path 1174" d="M654.385,292.215l8.831,196.864,23.937.238,13.906-197.1Z" transform="translate(37.514 134.491)" fill="#f6bd96"/>
      <path id="Path_1175" data-name="Path 1175" d="M633.849,343.034a40.119,40.119,0,0,0,3.113-7.467c3.5-13.027,28.594-40.424,38.8-58.269,3.829-6.695,26.678-59.814,26.678-59.814h.211l.016-.407,15.973-29.05-14.118-5.189,1.5-27.358s-13.63-2.2-24.5,18.917l-.016-.016-.1.244c-.455.927-.927,1.822-1.383,2.83L666.1,216.426l-17.388,53.38-27.968,50.4-3.445,3.969S632.151,340.93,633.849,343.034Z" transform="translate(14.28 48.781)" fill="#f6bd96"/>
      <path id="Path_1176" data-name="Path 1176" d="M672.6,413.248l-13.539,13.559-10.62,3.1c-4.881,1.426-8.492,7.485-8.869,14.881l-.176,3.46,57.435.359-.293-35.125Z" transform="translate(28.126 210.323)" fill="#343e7b"/>
      <path id="Path_1177" data-name="Path 1177" d="M697.184,438.412l-57.9-.361-.064-7.609,57.9.361.064,7.609" transform="translate(28.014 221.096)"/>
      <path id="Path_1178" data-name="Path 1178" d="M698.933,307.1l-.3,4.26-43.3,1.872-.275-6.132Z" transform="translate(37.933 143.818)" fill="#cf9580"/>
      <path id="Path_1179" data-name="Path 1179" d="M684.587,430.77l3.426-45.109s-14.766,4.019-29.531,0l2.168,44.871Z" transform="translate(40.081 193.039)" fill="#f4da83"/>
      <path id="Path_1180" data-name="Path 1180" d="M686.507,292.4l4.034,63.466s.517,25.677,17.4,50.46c14.179,20.815,49.666,74.4,49.666,74.4l19.945-13.235-44.614-99.2,3.712-80.226Z" transform="translate(57.64 131.891)" fill="#f6bd96"/>
      <path id="Path_1181" data-name="Path 1181" d="M735.16,411.61l-3.6,18.822-7.048,8.526c-3.24,3.92-2.829,10.963,1.01,17.3l1.8,2.962,47.74-31.934L755.1,398.375Z" transform="translate(80.088 201.004)" fill="#343e7b"/>
      <path id="Path_1182" data-name="Path 1182" d="M775.272,418.771l-48.126,32.193-4.323-6.263,48.126-32.192,4.323,6.262" transform="translate(80.394 209.859)"/>
      <path id="Path_1183" data-name="Path 1183" d="M734.38,311.1c-.015.35-46.443,2.137-46.443,2.137l-.39-6.132h47.018Z" transform="translate(58.292 143.818)" fill="#cf9580"/>
      <path id="Path_1184" data-name="Path 1184" d="M740.072,428.693l-25.577-38.5s25.271.535,25.577-19.084l19.945,44.348Z" transform="translate(75.176 183.922)" fill="#f4da83"/>
      <path id="Path_1185" data-name="Path 1185" d="M755.316,214.1s20.083,9.04,29.982,57.327,9.075,93.947,9.075,93.947H634.334s27.765-106.85,48.848-148.438Z" transform="translate(24.952 85.547)" fill="#00385d"/>
      <path id="Path_1186" data-name="Path 1186" d="M728.033,154.241l29.867,1.29a12.21,12.21,0,0,1,10.89,16.527L738.621,251.6l-72.134,2.837-.039-43.648s-14.4-12.589,3.53-34.832l7.3-17.679a6.528,6.528,0,0,1,6.033-4.035Z" transform="translate(41.647 48.045)" fill="#52bbe1"/>
      <path id="Rectangle_118" data-name="Rectangle 118" d="M1.994,0H31.317a1.994,1.994,0,0,1,1.994,1.994V57.509A1.994,1.994,0,0,1,31.317,59.5H1.993A1.993,1.993,0,0,1,0,57.51V1.994A1.994,1.994,0,0,1,1.994,0Z" transform="translate(660.138 401.977) rotate(135)" fill="#232322"/>
      <path id="Path_1187" data-name="Path 1187" d="M714.054,188.445l53.318,50.683,36.093,70.543a47.214,47.214,0,0,0,4.375,16.672,30.006,30.006,0,0,0,1.448,2.9c1.838,3.139,7.775,2.57,9.564,1.057a5.218,5.218,0,0,1,2.342-.472,3.916,3.916,0,0,0,2.993-1.936c1.285-2.049,4.587-2.066,4.571-5.14-.016-3.887.1-7.791-1.48-11.337a29.3,29.3,0,0,0-1.773-3.4l-31.148-74.04a19.809,19.809,0,0,0-2.261-4.05l-46.633-64.964a19.648,19.648,0,1,0-31.408,23.487Z" transform="translate(71.972 49.193)" fill="#f6bd96"/>
      <path id="Path_1188" data-name="Path 1188" d="M675.442,155.344c2.726,8.273,6.83,15.55,12.646,19.325,14.684,9.533,30.915-2.328,40.938-13.186,9.951-10.782,15.971-24.735,16.049-38.647.047-8.214-1.355-19.571-7.668-25.337-6.223-5.686-15.667-9.262-24.4-10.138-9.868-.989-23.188,1-30.566,8.019-7.079,6.739-10.546,17.16-11.259,26.111A94.757,94.757,0,0,0,675.442,155.344Z" transform="translate(47.918 5.994)" fill="#f6bd96"/>
      <path id="Path_1189" data-name="Path 1189" d="M700.442,112.178c4.465,6.913,12.282,10.805,18.186,16.537,11.056,10.734,9.582,23.725,9.593,40.751,15.293-7.274,26.657-18.912,31.055-35.267s-.272-35.273-13.022-46.421c-13.744-12.018-35.32-13.294-51.168-4.224s-25.542,27.311-25.747,45.569c-.839-3.788,1.586-7.619,4.662-9.985s6.794-3.73,10.083-5.789c7.856-4.915,12.179-13.178,14.5-21.892A23.132,23.132,0,0,0,700.442,112.178Z" transform="translate(46.78 0.042)" fill="#17204c"/>
      <path id="Path_1190" data-name="Path 1190" d="M694.511,115.093a8.585,8.585,0,0,0-8.19.509" transform="translate(57.524 23.014)" fill="none" stroke="#d5a27a" stroke-linecap="round" stroke-miterlimit="10" stroke-width="1.651"/>
      <path id="Path_1191" data-name="Path 1191" d="M681.191,115.5a8.585,8.585,0,0,0-8.19.509" transform="translate(49.178 23.267)" fill="none" stroke="#d5a27a" stroke-linecap="round" stroke-miterlimit="10" stroke-width="1.651"/>
      <path id="Path_1192" data-name="Path 1192" d="M684.384,137.584a12.439,12.439,0,0,0,11.34-3.59" transform="translate(56.31 34.46)" fill="none" stroke="#b48159" stroke-linecap="round" stroke-miterlimit="10" stroke-width="2"/>
      <circle id="Ellipse_87" data-name="Ellipse 87" cx="1.851" cy="1.851" r="1.851" transform="translate(723.845 141.544)" fill="#3c3c5b"/>
      <circle id="Ellipse_88" data-name="Ellipse 88" cx="1.851" cy="1.851" r="1.851" transform="translate(746.088 141.544)" fill="#3c3c5b"/>
      <path id="Path_1193" data-name="Path 1193" d="M620.15,258.209a16.227,16.227,0,0,0-4.263,15.919s4.411,2.249,10.512-13.853C627.858,256.423,620.15,258.209,620.15,258.209Z" transform="translate(13.051 112.926)" fill="#e9bda0"/>
    </g>
  </g>
</svg>
