<svg xmlns="http://www.w3.org/2000/svg" width="495" height="708.158" viewBox="0 0 495 708.158">
  <g id="Group_926" data-name="Group 926" transform="translate(-211 -1751)">
    <g id="Group_781" data-name="Group 781" transform="translate(181.872 1789.955)">
      <g id="Group_771" data-name="Group 771" transform="translate(184.825 -38.955)">
        <circle id="Ellipse_105" data-name="Ellipse 105" cx="54.751" cy="54.751" r="54.751" transform="matrix(0.162, -0.987, 0.987, 0.162, 4.231, 112.283)" fill="#00385d"/>
        <circle id="Ellipse_106" data-name="Ellipse 106" cx="48.849" cy="48.849" r="48.849" transform="matrix(0.521, -0.854, 0.854, 0.521, 0, 83.42)" fill="#fffbfa"/>
        <path id="Path_1720" data-name="Path 1720" d="M281.647,166.081A2.646,2.646,0,1,1,279,163.436,2.647,2.647,0,0,1,281.647,166.081Z" transform="translate(-211.011 -98.946)" fill="#00385d"/>
        <path id="Path_1721" data-name="Path 1721" d="M307.062,165.446a2.646,2.646,0,1,1-2.647-2.645A2.646,2.646,0,0,1,307.062,165.446Z" transform="translate(-195.727 -99.328)" fill="#00385d"/>
        <path id="Path_1722" data-name="Path 1722" d="M281.647,140.244A2.646,2.646,0,1,1,279,137.6,2.646,2.646,0,0,1,281.647,140.244Z" transform="translate(-211.011 -114.485)" fill="#00385d"/>
        <path id="Path_1723" data-name="Path 1723" d="M256.1,166.081a2.646,2.646,0,1,1-2.647-2.645A2.647,2.647,0,0,1,256.1,166.081Z" transform="translate(-226.375 -98.946)" fill="#00385d"/>
        <path id="Path_1724" data-name="Path 1724" d="M281.647,190.872A2.646,2.646,0,1,1,279,188.225,2.646,2.646,0,0,1,281.647,190.872Z" transform="translate(-211.011 -84.038)" fill="#00385d"/>
        <path id="Path_1725" data-name="Path 1725" d="M293.848,153.279c-2.231,3.3-4.663,6.434-7.089,9.578-2.482,3.1-4.951,6.205-7.645,9.136a.554.554,0,0,1-.868-.685c2.229-3.3,4.684-6.418,7.126-9.547,2.5-3.086,4.99-6.177,7.683-9.109a.507.507,0,0,1,.793.628Z" transform="translate(-209.93 -105.531)" fill="#00385d"/>
        <path id="Path_1726" data-name="Path 1726" d="M278.845,166.908a60,60,0,0,1,.378,6.644,54.613,54.613,0,0,1-.331,6.644.558.558,0,0,1-1.107,0,54.636,54.636,0,0,1-.33-6.644,60.008,60.008,0,0,1,.376-6.644.511.511,0,0,1,1.014,0Z" transform="translate(-210.349 -97.125)" fill="#00385d"/>
        <path id="Path_1727" data-name="Path 1727" d="M293.357,141.3a11.153,11.153,0,0,1-1.057,2.657,10.2,10.2,0,0,1-1.677,2.311.579.579,0,0,1-.818-.024.59.59,0,0,1-.146-.517,10.165,10.165,0,0,1,1.1-2.634,11.134,11.134,0,0,1,1.717-2.288.53.53,0,0,1,.882.5Z" transform="translate(-203.016 -112.645)" fill="#00385d"/>
        <path id="Path_1728" data-name="Path 1728" d="M304.1,151.382a12.389,12.389,0,0,1-2.322,1.92,11.272,11.272,0,0,1-2.7,1.32.577.577,0,0,1-.713-.4.584.584,0,0,1,.12-.536,11.267,11.267,0,0,1,2.346-1.88,12.422,12.422,0,0,1,2.726-1.281.529.529,0,0,1,.653.362A.537.537,0,0,1,304.1,151.382Z" transform="translate(-197.786 -106.721)" fill="#00385d"/>
        <path id="Path_1729" data-name="Path 1729" d="M265.147,140.8a11.186,11.186,0,0,1,1.715,2.288,10.109,10.109,0,0,1,1.1,2.634.58.58,0,0,1-.964.541,10.144,10.144,0,0,1-1.675-2.311,11.16,11.16,0,0,1-1.059-2.657.531.531,0,0,1,.884-.5Z" transform="translate(-218.289 -112.645)" fill="#00385d"/>
        <path id="Path_1730" data-name="Path 1730" d="M254.877,150.526a12.423,12.423,0,0,1,2.726,1.281,11.3,11.3,0,0,1,2.344,1.88.577.577,0,0,1-.592.934,11.3,11.3,0,0,1-2.7-1.32,12.432,12.432,0,0,1-2.32-1.92.528.528,0,0,1,.543-.855Z" transform="translate(-224.331 -106.721)" fill="#00385d"/>
        <path id="Path_1731" data-name="Path 1731" d="M292.475,190.491a11.168,11.168,0,0,1-1.717-2.287,10.189,10.189,0,0,1-1.1-2.634.579.579,0,0,1,.964-.541,10.19,10.19,0,0,1,1.677,2.309A11.139,11.139,0,0,1,293.357,190a.53.53,0,0,1-.882.495Z" transform="translate(-203.016 -86.056)" fill="#00385d"/>
        <path id="Path_1732" data-name="Path 1732" d="M303.557,180.155a12.448,12.448,0,0,1-2.724-1.281,11.224,11.224,0,0,1-2.346-1.882.576.576,0,0,1,.056-.813.584.584,0,0,1,.536-.12,11.3,11.3,0,0,1,2.7,1.321,12.38,12.38,0,0,1,2.32,1.92.528.528,0,0,1-.543.855Z" transform="translate(-197.786 -91.367)" fill="#00385d"/>
        <path id="Path_1733" data-name="Path 1733" d="M264.264,190a11.209,11.209,0,0,1,1.057-2.658A10.191,10.191,0,0,1,267,185.028a.579.579,0,0,1,.964.541,10.135,10.135,0,0,1-1.1,2.634,11.221,11.221,0,0,1-1.715,2.287.533.533,0,0,1-.751-.019A.539.539,0,0,1,264.264,190Z" transform="translate(-218.288 -86.056)" fill="#00385d"/>
        <path id="Path_1734" data-name="Path 1734" d="M254.334,179.3a12.431,12.431,0,0,1,2.32-1.92,11.3,11.3,0,0,1,2.7-1.321.577.577,0,0,1,.592.934,11.256,11.256,0,0,1-2.344,1.882,12.5,12.5,0,0,1-2.726,1.281.528.528,0,0,1-.543-.855Z" transform="translate(-224.332 -91.368)" fill="#00385d"/>
      </g>
      <g id="Group_772" data-name="Group 772" transform="translate(66.102 118.339)" opacity="0.43">
        <rect id="Rectangle_151" data-name="Rectangle 151" width="204.981" height="294.015" transform="translate(294.015 0) rotate(89.998)" fill="#ffd91f"/>
        <rect id="Rectangle_152" data-name="Rectangle 152" width="186.972" height="273.418" transform="translate(283.258 8.525) rotate(89.998)" fill="#ffd91f" stroke="#fff" stroke-miterlimit="10" stroke-width="0.72"/>
      </g>
      <g id="Group_774" data-name="Group 774" transform="translate(71.175 283.973)">
        <path id="Path_1735" data-name="Path 1735" d="M68.484,233.7c-3.019-2.394-6.586-4.506-10.436-4.361a2.818,2.818,0,0,0-2.436,1.091c-.528.919-.045,2.08.533,2.967,3.059,4.7,8.446,7.216,13.062,10.4A45.8,45.8,0,0,1,79.86,254.07c.5.669,1.715,2.325,2.782,1.758.9-.479.119-1.91-.125-2.639a38.451,38.451,0,0,0-3.358-7.349A44.405,44.405,0,0,0,68.484,233.7Z" transform="translate(-55.385 -210.431)" fill="#297045"/>
        <path id="Path_1736" data-name="Path 1736" d="M71.986,242.829c-3.6-5.509-8.79-10.135-10.816-16.395-.673-2.074-.749-4.79,1.086-5.967,1.752-1.124,4.088-.083,5.683,1.254,5.451,4.574,7.4,11.988,9.053,18.909,1.342,5.626,2.693,11.3,2.854,17.08.03,1.041-.322,5.2-1.941,3.414-.9-1-.645-4.886-.942-6.279A35.506,35.506,0,0,0,71.986,242.829Z" transform="translate(-52.169 -216.051)" fill="#297045"/>
        <path id="Path_1737" data-name="Path 1737" d="M71.923,225.535c.107-2.644.431-5.621,2.509-7.257a3.114,3.114,0,0,1,2.119-.74c1.438.118,2.408,1.521,2.924,2.868a18.228,18.228,0,0,1,.445,9.953c-.642,3.3-1.782,6.486-2.6,9.751-1.595,6.4-1.92,13.045-2.173,19.638-.029.714-.554,2.389-1.6,1.6-.512-.384-.359-3.127-.423-3.7-.4-3.512-.722-7.028-.948-10.555A206.974,206.974,0,0,1,71.923,225.535Z" transform="translate(-45.541 -217.53)" fill="#297045"/>
        <path id="Path_1738" data-name="Path 1738" d="M84.51,228.414c2.093-3.621,4.894-7.406,9.163-8.231a3.744,3.744,0,0,1,3.526.806,3.5,3.5,0,0,1,.681,2.322c.03,4.719-3.039,8.915-6.511,12.246s-7.507,6.2-10.271,10.087c-3.145,4.423-4.389,9.791-6.047,14.906-.378,1.163-1.236,1.8-1.651.572-.357-1.063.548-3.477.751-4.586a87.674,87.674,0,0,1,10.359-28.12Z" transform="translate(-44.601 -216.001)" fill="#297045"/>
        <path id="Path_1739" data-name="Path 1739" d="M79.88,242.329a27.362,27.362,0,0,1,6.721-7.293,16.034,16.034,0,0,1,9.283-3.177,5.646,5.646,0,0,1,4.029,1.342c1.613,1.622,1.223,4.506-.287,6.225s-3.8,2.509-6.029,3.031A26.183,26.183,0,0,0,87.04,244.4c-3.441,1.848-5.421,5.51-7.973,8.466A5.055,5.055,0,0,1,77.1,254.43c-3.618,1.332-1.765-3.076-1.19-4.513A42.513,42.513,0,0,1,79.88,242.329Z" transform="translate(-43.635 -208.913)" fill="#297045"/>
        <path id="Path_1740" data-name="Path 1740" d="M58.938,232.031a40.637,40.637,0,0,1,20.11,21.715" transform="translate(-53.249 -208.81)" fill="none" stroke="#3c3c3b" stroke-linecap="round" stroke-linejoin="round" stroke-width="0.598"/>
        <path id="Path_1741" data-name="Path 1741" d="M65,224.515c7.472,10.358,10.3,23.257,12.95,35.751" transform="translate(-49.601 -213.33)" fill="none" stroke="#3c3c3b" stroke-linecap="round" stroke-linejoin="round" stroke-width="0.598"/>
        <path id="Path_1742" data-name="Path 1742" d="M75.522,223.65A160.743,160.743,0,0,0,73.7,258.517" transform="translate(-44.525 -213.85)" fill="none" stroke="#3c3c3b" stroke-linecap="round" stroke-linejoin="round" stroke-width="0.598"/>
        <path id="Path_1743" data-name="Path 1743" d="M89.736,225.5c-3.385,3.944-6.8,7.925-9.307,12.478-3.678,6.671-5.261,14.265-6.751,21.735" transform="translate(-44.385 -212.739)" fill="none" stroke="#3c3c3b" stroke-linecap="round" stroke-linejoin="round" stroke-width="0.598"/>
        <path id="Path_1744" data-name="Path 1744" d="M93.763,234.961a27.167,27.167,0,0,0-18.454,19.548" transform="translate(-43.403 -207.048)" fill="none" stroke="#3c3c3b" stroke-linecap="round" stroke-linejoin="round" stroke-width="0.598"/>
        <path id="Path_1745" data-name="Path 1745" d="M61.38,243.2h42.355s6.215,37.062-21.945,37.6S61.38,243.2,61.38,243.2Z" transform="translate(-52.368 -202.093)" fill="#fd8c90"/>
        <g id="Group_773" data-name="Group 773" transform="translate(10.633 44.223)">
          <path id="Path_1746" data-name="Path 1746" d="M82.32,246l1.56,1.705" transform="translate(-49.82 -244.63)" fill="none" stroke="#fed1d3" stroke-linecap="round" stroke-linejoin="round" stroke-width="1.5"/>
          <path id="Path_1747" data-name="Path 1747" d="M76.6,246.308a6.627,6.627,0,0,0,1.77,1.778" transform="translate(-53.261 -244.447)" fill="none" stroke="#fed1d3" stroke-linecap="round" stroke-linejoin="round" stroke-width="1.5"/>
          <path id="Path_1748" data-name="Path 1748" d="M80.641,250.365a7.823,7.823,0,0,0,1.377,1.765" transform="translate(-50.83 -242.007)" fill="none" stroke="#fed1d3" stroke-linecap="round" stroke-linejoin="round" stroke-width="1.5"/>
          <path id="Path_1749" data-name="Path 1749" d="M74.418,250.751a5.88,5.88,0,0,1,1.621,1.792" transform="translate(-54.572 -241.775)" fill="none" stroke="#fed1d3" stroke-linecap="round" stroke-linejoin="round" stroke-width="1.5"/>
          <path id="Path_1750" data-name="Path 1750" d="M72.091,246.534a2.914,2.914,0,0,0,1.187,1.659" transform="translate(-55.972 -244.311)" fill="none" stroke="#fed1d3" stroke-linecap="round" stroke-linejoin="round" stroke-width="1.5"/>
          <path id="Path_1751" data-name="Path 1751" d="M68.749,249.691a9.334,9.334,0,0,0,1.364,1.773" transform="translate(-57.981 -242.413)" fill="none" stroke="#fed1d3" stroke-linecap="round" stroke-linejoin="round" stroke-width="1.5"/>
          <path id="Path_1752" data-name="Path 1752" d="M73.094,255.568l2.045,2.593" transform="translate(-55.368 -238.878)" fill="none" stroke="#fed1d3" stroke-linecap="round" stroke-linejoin="round" stroke-width="1.5"/>
          <path id="Path_1753" data-name="Path 1753" d="M78.483,254.1l1.757,2.061" transform="translate(-52.128 -239.761)" fill="none" stroke="#fed1d3" stroke-linecap="round" stroke-linejoin="round" stroke-width="1.5"/>
          <path id="Path_1754" data-name="Path 1754" d="M77.778,260.595a7.921,7.921,0,0,0,2.32,2.317" transform="translate(-52.552 -235.855)" fill="none" stroke="#fed1d3" stroke-linecap="round" stroke-linejoin="round" stroke-width="1.5"/>
          <path id="Path_1755" data-name="Path 1755" d="M67.206,254.637a14.3,14.3,0,0,0,1.93,2.58" transform="translate(-58.909 -239.438)" fill="none" stroke="#fed1d3" stroke-linecap="round" stroke-linejoin="round" stroke-width="1.5"/>
          <path id="Path_1756" data-name="Path 1756" d="M63.322,250.186q.735,1.17,1.472,2.338" transform="translate(-61.245 -242.115)" fill="none" stroke="#fed1d3" stroke-linecap="round" stroke-linejoin="round" stroke-width="1.5"/>
          <path id="Path_1757" data-name="Path 1757" d="M65.971,245.351l1.5,2.181" transform="translate(-59.652 -245.023)" fill="none" stroke="#fed1d3" stroke-linecap="round" stroke-linejoin="round" stroke-width="1.5"/>
          <path id="Path_1758" data-name="Path 1758" d="M83.763,254.527q.668.764,1.334,1.528" transform="translate(-48.952 -239.505)" fill="none" stroke="#fed1d3" stroke-linecap="round" stroke-linejoin="round" stroke-width="1.5"/>
          <path id="Path_1759" data-name="Path 1759" d="M71.317,260.158l2.034,2.465" transform="translate(-56.437 -236.118)" fill="none" stroke="#fed1d3" stroke-linecap="round" stroke-linejoin="round" stroke-width="1.5"/>
          <path id="Path_1760" data-name="Path 1760" d="M63.477,255.988a9.017,9.017,0,0,0,2,2.095" transform="translate(-61.152 -238.626)" fill="none" stroke="#fed1d3" stroke-linecap="round" stroke-linejoin="round" stroke-width="1.5"/>
          <path id="Path_1761" data-name="Path 1761" d="M67.067,261.688a15.335,15.335,0,0,0,2,2.487" transform="translate(-58.993 -235.198)" fill="none" stroke="#fed1d3" stroke-linecap="round" stroke-linejoin="round" stroke-width="1.5"/>
          <path id="Path_1762" data-name="Path 1762" d="M85.193,249.432a14.625,14.625,0,0,0,1.762,1.922" transform="translate(-48.092 -242.568)" fill="none" stroke="#fed1d3" stroke-linecap="round" stroke-linejoin="round" stroke-width="1.5"/>
          <path id="Path_1763" data-name="Path 1763" d="M62.025,246.109q.593.9,1.183,1.8" transform="translate(-62.025 -244.567)" fill="none" stroke="#fed1d3" stroke-linecap="round" stroke-linejoin="round" stroke-width="1.5"/>
          <path id="Path_1764" data-name="Path 1764" d="M81.424,258.307q.757,1.018,1.51,2.039" transform="translate(-50.359 -237.231)" fill="none" stroke="#fed1d3" stroke-linecap="round" stroke-linejoin="round" stroke-width="1.5"/>
          <path id="Path_1765" data-name="Path 1765" d="M85.128,245.146a4.354,4.354,0,0,1,1.175,1.419" transform="translate(-48.131 -245.146)" fill="none" stroke="#fed1d3" stroke-linecap="round" stroke-linejoin="round" stroke-width="1.5"/>
        </g>
      </g>
      <g id="Group_779" data-name="Group 779" transform="translate(213.112 197.822)">
        <g id="Group_778" data-name="Group 778">
          <path id="Path_1766" data-name="Path 1766" d="M216.9,177.918c3.283,6.535,4.151,14.1,4.519,21.4s-.85,14.821-4.463,21.178c-2.048,3.606-4.873,6.892-5.829,10.928-1.376,5.8,1.4,11.941.251,17.791-.748,3.819-3.087,7.107-5.384,10.25-3.185,4.361-6.993,9.061-12.35,9.746-6.715.858-12.782-5.027-19.542-4.663-6.433.344-12.15,6.3-18.414,4.8-2.956-.709-5.285-3-7.024-5.494-6.83-9.788-6.039-24.2,1.822-33.18a42.608,42.608,0,0,0,4.2-4.9c2.557-4.018,2.481-9.1,2.418-13.862-.1-7.677.078-15.46,2.176-22.845s5.92-16.606,12.423-20.687c5.754-3.609,24.684-5.462,32.4.956A15.365,15.365,0,0,1,216.9,177.918Z" transform="translate(-144.02 -162.916)" fill="#00253d"/>
          <path id="Path_1767" data-name="Path 1767" d="M259.133,298.134c-31.212-14.882-45.444-26.778-68-52.687l14.459-14.67c23.165,30.521,35.131,43.445,61.813,59.27,5.765,3.421,12.737,5.7,14.385,12.2a2.071,2.071,0,0,1,.067,1.062.772.772,0,0,1-.781.6,1.153,1.153,0,0,1-.629-.439l-4.356-4.844q1.489,1.78,2.98,3.558c.362.432.74,1.034.444,1.513-.412.661-1.428.2-2.016-.315l-3.829-3.329c1.68,1.424,3.5,3.108,3.589,5.309-1.508.162-2.9-.839-3.931-1.947a15.406,15.406,0,0,0-3.246-3.163,11.179,11.179,0,0,1,3.738,4.37c.13.271.237.621.037.844s-.557.151-.833.04c-3.062-1.222-4.74-5.161-8.015-5.518a5.907,5.907,0,0,0,.592,1.5,1.417,1.417,0,0,1-.111,1.523,1.167,1.167,0,0,1-1.288.141,3.423,3.423,0,0,1-1.046-.881C261.878,300.863,260.846,298.951,259.133,298.134Z" transform="translate(-115.689 -123.413)" fill="#f7c5b4"/>
          <path id="Path_1768" data-name="Path 1768" d="M219.447,314.648c-70.792.663-61.808.306-70.792.663.17-1.544,2.12-38.982.98-43.381-5.309-20.5-4.425-41.128,1.492-47.758,5.518-6.183,12.9-9.848,23.465-9.509,0,0,7.664,9.206,27.372,1.513,0,0,10.282,12.521,15.767,38.724,1.8,8.591-1.377,16.493-2.112,25.238C214.888,288.844,216.449,306.444,219.447,314.648Z" transform="translate(-142.753 -133.116)" fill="#52bbe1"/>
          <path id="Path_1769" data-name="Path 1769" d="M181.587,215.6c12.568,4.015,24.443,12.323,31.963,23.162-5.28,7.443-10.683,15.034-16.5,22.069l-1.664,1.624-15.378-46.278Z" transform="translate(-122.375 -132.54)" fill="#52bbe1"/>
          <path id="Path_1770" data-name="Path 1770" d="M191.407,276.585" transform="translate(-115.522 -95.865)" fill="#70b0e1"/>
          <path id="Path_1771" data-name="Path 1771" d="M191.981,251.368a40.178,40.178,0,0,0-2.4-16.316" transform="translate(-116.618 -120.842)" fill="none" stroke="#3c3c3b" stroke-linecap="round" stroke-linejoin="round" stroke-width="0.468"/>
          <path id="Path_1772" data-name="Path 1772" d="M224.619,293.9c-32.311-14.233-39.943-18.774-64.274-43.029l15.746-12.447c25.26,28.812,30.977,27.409,58.777,46.907,5.488,3.848,13.107,4.79,15.21,11.155a2.067,2.067,0,0,1,.143,1.054.774.774,0,0,1-.738.652,1.143,1.143,0,0,1-.658-.394l-4.687-4.526,3.224,3.341c.392.405.812.978.549,1.476-.364.689-1.411.3-2.032-.171l-4.055-3.051c1.776,1.3,3.707,2.854,3.954,5.043-1.494.266-2.947-.633-4.059-1.665a15.359,15.359,0,0,0-3.461-2.926,11.165,11.165,0,0,1,4.037,4.1c.147.259.28.6.1.838s-.546.191-.828.1c-3.14-1-5.091-4.814-8.385-4.94a5.933,5.933,0,0,0,.7,1.456,1.416,1.416,0,0,1,0,1.528,1.165,1.165,0,0,1-1.273.229,3.457,3.457,0,0,1-1.107-.8C230.122,296.509,226.355,294.666,224.619,293.9Z" transform="translate(-134.202 -118.813)" fill="#f7c5b4"/>
          <path id="Path_1773" data-name="Path 1773" d="M166.155,222.088a58.337,58.337,0,0,1,16.094,24.778A188.832,188.832,0,0,1,160.7,263.607c-3.265-3.816-4.066-5.134-8-12.777" transform="translate(-138.798 -128.638)" fill="none" stroke="#3c3c3b" stroke-linecap="round" stroke-linejoin="round" stroke-width="0.724"/>
          <path id="Path_1774" data-name="Path 1774" d="M191.274,216.168,183.9,248.647,163.9,214.655a51.843,51.843,0,0,0,16.134,2.181C189.7,216.745,191.274,216.168,191.274,216.168Z" transform="translate(-132.063 -133.108)" fill="#52bbe1"/>
          <path id="Path_1775" data-name="Path 1775" d="M158.418,183.948c-1.808,10.524.291,26.378,2.649,34.7.958,3.384,1.987,6.879,4.207,9.607,10.968,13.468,25.31,8.987,30,5.818a22.051,22.051,0,0,0,8.257-10,70.856,70.856,0,0,0,4.759-33.352s-.974-25.609-27.6-23.452C180.695,167.272,161.437,166.372,158.418,183.948Z" transform="translate(-135.771 -161.68)" fill="#f7c5b4"/>
          <path id="Path_1776" data-name="Path 1776" d="M191.274,220.081l-4.369-1.52v-9.448l-17.724-.964-.229,10.395-5.051.024s.913,3.688,11.612,5.257S191.274,220.081,191.274,220.081Z" transform="translate(-132.063 -137.021)" fill="#f7c5b4"/>
          <path id="Path_1777" data-name="Path 1777" d="M167.045,209.279a20.917,20.917,0,0,0,13.158,2.657s-5.277,2.509-13.158.5Z" transform="translate(-130.173 -136.341)" fill="#3c3c3b"/>
          <g id="Group_775" data-name="Group 775" transform="translate(32.763 42.61)">
            <path id="Path_1778" data-name="Path 1778" d="M167.055,196.01a1.626,1.626,0,1,0,1.44-1.8A1.628,1.628,0,0,0,167.055,196.01Z" transform="translate(-162.936 -188.016)" fill="#3c3c3b"/>
            <path id="Path_1779" data-name="Path 1779" d="M183.31,196.272a1.626,1.626,0,1,0,1.44-1.794A1.626,1.626,0,0,0,183.31,196.272Z" transform="translate(-153.161 -187.858)" fill="#3c3c3b"/>
            <path id="Path_1780" data-name="Path 1780" d="M173.817,191.85a10.963,10.963,0,0,0-9.338,2" transform="translate(-164.479 -189.623)" fill="none" stroke="#3c3c3b" stroke-linecap="round" stroke-linejoin="round" stroke-width="0.954"/>
            <path id="Path_1781" data-name="Path 1781" d="M178.362,201.513a3.871,3.871,0,0,1-5.259-1.7" transform="translate(-159.293 -184.641)" fill="none" stroke="#3c3c3b" stroke-linecap="round" stroke-linejoin="round" stroke-width="0.591"/>
            <path id="Path_1782" data-name="Path 1782" d="M181.247,192.761a10.967,10.967,0,0,1,9.541.388" transform="translate(-154.395 -189.431)" fill="none" stroke="#3c3c3b" stroke-linecap="round" stroke-linejoin="round" stroke-width="0.954"/>
            <path id="Path_1783" data-name="Path 1783" d="M178.845,191.44c.54,3.531.175,7.12.263,10.678a.851.851,0,0,1-.1.514c-.219.323-.764.341-1.209.319q-1.014-.053-2.024-.107a1.294,1.294,0,0,1-.966-.315.814.814,0,0,1-.117-.517,46.556,46.556,0,0,1,1.217-10.3,1.972,1.972,0,0,1,.42-.954,1.568,1.568,0,0,1,1.6-.328A1.385,1.385,0,0,1,178.845,191.44Z" transform="translate(-158.336 -190.34)" fill="#e89b8d"/>
          </g>
          <path id="Path_1784" data-name="Path 1784" d="M183.064,167.8c-2.9.584-4.471,4.043-3.973,6.956s2.485,5.329,4.522,7.47c2.975,3.132,6.234,6.036,8.719,9.57s4,6.9,3.294,11.16c0,0,7.31-16.683-1.086-27.793C187.511,165.862,183.064,167.8,183.064,167.8Z" transform="translate(-122.983 -161.385)" fill="#00253d"/>
          <path id="Path_1785" data-name="Path 1785" d="M201.942,173.555c-.1-.037-.2-.069-.3-.1a9.691,9.691,0,0,0-.186-2.437c-.429-2.159-6.316-5.533-8.46-6.024-22.868-5.243-37.751,6.177-37.619,29.334-1.067,4.092-1.2,8.258.95,11.536.788,1.2.7,2.931,1.8,3.848a2.137,2.137,0,0,0,.49.306,4.167,4.167,0,0,0,.793.535c.086-.1.17-.216.256-.32a5.477,5.477,0,0,0,2.782-.945,14.547,14.547,0,0,0,6.333-9.217,13.009,13.009,0,0,0,10.356-7.869,28.115,28.115,0,0,0,20.232-9.514C201.577,180.157,203.367,176.585,201.942,173.555Z" transform="translate(-137.64 -163.732)" fill="#00253d"/>
          <g id="Group_777" data-name="Group 777" transform="translate(16.358 41.574)">
            <path id="Path_1786" data-name="Path 1786" d="M162.075,200.188a3.176,3.176,0,0,1-3.462,1.006,5.124,5.124,0,0,1-2.264-1.9c-1.579-2.112-2.575-4.851-1.9-7.4a3.206,3.206,0,0,1,.956-1.68,2.908,2.908,0,0,1,3.087-.165c.977.485,3.26,2.964,4.184,3.992Z" transform="translate(-154.235 -189.693)" fill="#f7c5b4"/>
            <g id="Group_776" data-name="Group 776" transform="translate(2.522 2.698)">
              <path id="Path_1787" data-name="Path 1787" d="M155.81,191.378a8.569,8.569,0,0,1,4.791,4.972" transform="translate(-155.81 -191.378)" fill="none" stroke="#da806c" stroke-linecap="round" stroke-linejoin="round" stroke-width="0.332"/>
              <path id="Path_1788" data-name="Path 1788" d="M158.269,192.877a5.679,5.679,0,0,0-1.137,4.477" transform="translate(-155.065 -190.477)" fill="none" stroke="#da806c" stroke-linecap="round" stroke-linejoin="round" stroke-width="0.332"/>
            </g>
          </g>
        </g>
        <path id="Path_1789" data-name="Path 1789" d="M207.54,292.22l6.262-65.988H322.8L313.97,296H199.219V292.22Z" transform="translate(-110.824 -126.146)" fill="#496ea3"/>
      </g>
      <path id="Path_1790" data-name="Path 1790" d="M159.755,199.411q.228.918.463,1.741c.958,3.384,1.987,6.879,4.207,9.607a25.935,25.935,0,0,0,8.4,6.912c8.774,4.522,18.011,1.33,21.6-1.095a22.051,22.051,0,0,0,8.257-10,69.643,69.643,0,0,0,2.573-7.639c-8.976,2.386-12.441-2.165-18.71-2.666-3.124-.25-6.191.769-9.267,1.368a35.161,35.161,0,0,1-18.132-1.28Z" transform="translate(78.19 53.637)" fill="#f3f3f3"/>
      <g id="Group_780" data-name="Group 780" transform="translate(29.128 359.216)">
        <rect id="Rectangle_153" data-name="Rectangle 153" width="492.629" height="22.339" fill="#52bbe1"/>
        <rect id="Rectangle_154" data-name="Rectangle 154" width="470.35" height="252.482" transform="translate(11.139 22.339)" fill="#9ee493"/>
        <path id="Path_1791" data-name="Path 1791" d="M274.459,350.375H233.37v-41.09H182.584v41.09h-41.09v50.785h41.09v41.09H233.37v-41.09h41.09Z" transform="translate(38.445 -237.594)" fill="#52bbe1"/>
        <path id="Path_1792" data-name="Path 1792" d="M49.34,278.53v231.6H475.108V278.467" transform="translate(-16.974 -256.127)" fill="none" stroke="#3c3c3b" stroke-linecap="round" stroke-linejoin="round" stroke-width="0.5"/>
        <rect id="Rectangle_155" data-name="Rectangle 155" width="470.35" height="10.135" transform="translate(11.139 22.339)" fill="#84c5e3" opacity="0.2"/>
      </g>
    </g>
    <g id="Group_789" data-name="Group 789" transform="translate(318.658 1813.994)">
      <path id="Path_1840" data-name="Path 1840" d="M243.851,307.415c.934,38.813,2.518,75.9,8.278,101.957L270.409,529.2h21.14l-.768-121.9c1.456-23.131.62-61.919-.654-103.681Z" transform="translate(20.738 88.794)" fill="#e9bda0"/>
      <path id="Path_1537" data-name="Path 1537" d="M295.2,292.873A17.072,17.072,0,1,1,327.153,304.9c-1.75,4.637-4.665,9.653-9,10.738-4.014,1-8.02-2.277-12.2-3.85-4.245-1.6-8.436-2.134-10.82-5.6-3.24-4.708-1.659-8.746.064-13.325Z" transform="translate(43.759 78.632)" fill="#edbc9f"/>
      <path id="Path_1538" data-name="Path 1538" d="M295.134,203.973l14.224,63.067-8.479,72.951,16.36,10.923,14.378-74.477a18.22,18.22,0,0,0,.315-4.061l-2.386-70.241a17.264,17.264,0,1,0-34.411,1.838Z" transform="translate(44.577 33.388)" fill="#e9bda0"/>
      <path id="Path_1841" data-name="Path 1841" d="M286.5,307.415c.934,38.813,2.518,75.9,8.278,101.957L313.058,529.2H334.2l-.768-121.9c1.456-23.131.62-61.919-.652-103.681Z" transform="translate(40.608 88.794)" fill="#e9bda0"/>
      <path id="Path_1800" data-name="Path 1800" d="M359.63,308.926c-40.77,1.837-80.741,1.917-119.8,0v-4.82l118.877-.485Z" transform="translate(18.863 88.794)" fill="#060606" opacity="0.48" style="isolation: isolate"/>
      <path id="Path_1524" data-name="Path 1524" d="M305.217,472.35,300.74,432.7a58.247,58.247,0,0,0,26.595,0l1.466,39.407Z" transform="translate(47.243 148.936)" fill="#f4da83"/>
      <path id="Path_1529" data-name="Path 1529" d="M260.989,473.6l-3.155-41.549a58.183,58.183,0,0,0,27.2,0V473.36Z" transform="translate(27.253 148.634)" fill="#f4da83"/>
      <path id="Path_1530" data-name="Path 1530" d="M271.007,258.721c-19.777,39.014-45.817,139.234-45.817,139.234H375.3a454.627,454.627,0,0,0-8.513-88.118c-9.284-45.291-28.122-53.77-28.122-53.77Z" transform="translate(12.043 66.639)" fill="#00385d"/>
      <path id="Path_1536" data-name="Path 1536" d="M258.6,184.385c-1.483,0-7.293,22.889-7.645,37.857a186.73,186.73,0,0,0,.828,22.475,90.7,90.7,0,0,0,1.857,11.335l5.386,36.067,67.656-2.653,16.711-89.421a10.734,10.734,0,0,0,.221-6.965,11.1,11.1,0,0,0-10.234-7.579l-19.942-1.118Z" transform="translate(24.024 33.24)" fill="#52bbe1"/>
      <path id="Path_1539" data-name="Path 1539" d="M283.739,206.144h0c-7.08,0-12.821-2.7-12.821-9.781V168.92H296.56v27.443C296.56,203.444,290.819,206.144,283.739,206.144Z" transform="translate(33.349 26.035)" fill="#e6bda0"/>
      <path id="Path_1540" data-name="Path 1540" d="M270.943,178.718l-.026,15.339c30.616,5.134,26.589-28.766,26.589-28.766Z" transform="translate(33.348 24.345)" fill="#cf9580"/>
      <path id="Path_1542" data-name="Path 1542" d="M279.939,208.622c-9.606-2.5-24.991-15.618-25.607-36.882-.029-1.01-.16-5.16,0-6.157l4.748-25.467c1.247-7.986,11.679-18.306,19.665-17.06l38.225,11.293A8.2,8.2,0,0,1,323.8,143.7l-5.267,33.266c-8.554,19.945-19.785,29.616-36.406,31.783A5.745,5.745,0,0,1,279.939,208.622Z" transform="translate(25.584 4.618)" fill="#e9bda0"/>
      <path id="Path_1537-2" data-name="Path 1537" d="M202.164,269.35A17.073,17.073,0,0,1,232.6,284.823c-2.25,4.415-5.7,9.08-10.124,9.682-4.1.557-7.721-3.144-11.7-5.167-4.044-2.057-8.151-3.049-10.14-6.753-2.7-5.035-.688-8.875,1.53-13.237Z" transform="translate(2.774 71.476)" fill="#edbc9f"/>
      <path id="Path_1538-2" data-name="Path 1538" d="M257.876,202.344l-6.358,52.093a28.2,28.2,0,0,1-7.624,16.86l-37.92,39.987,16.36,10.924,43.794-42.488a28.2,28.2,0,0,0,7.683-13.248L287.658,203.8a16.986,16.986,0,0,0-2.43-13.454,17.832,17.832,0,0,0-3.438-3.644c-3.484-2.787-5.038-4.941-12.3-2.9C260.667,187.5,259.04,193.022,257.876,202.344Z" transform="translate(7.09 34.495)" fill="#e9bda0"/>
      <path id="Path_1533" data-name="Path 1533" d="M273.336,119.174c-12.768,8.579-15.6,21.174-16.684,25.447-4.387,17.293,4.452,38.378,9.209,55.533,4.263,15.391,9.571,27.945,16.473,38.139,2.5,2.941,4.28,10.131,9.087,7.608,1.623-.852,6.49-4.659,9.015-6.6,1.035-.8,6-4.61,9.731-2.922,2.681,1.212,2.134,4.09,5.638,10.175,1.633,2.844,4.662,8.105,9.816,10.689,1.5.749,1.8.588,10.54,1.6,9.212,1.07,10.882,1.372,11.936.01,1.727-2.236-.641-8.049-1.567-10.651-1.312-3.706-2.35-3.8-3.91-7.484a31.6,31.6,0,0,1-2.307-12.457c.018-7.117,2.409-8.1,3.051-14.571.689-6.924-1.558-9.886-3.27-18.16-2.1-10.132-.526-14.709-.7-24.679-.082-4.541-.424-23.789-7.969-36.777C320.644,115.532,292.988,105.971,273.336,119.174Z" transform="translate(26.149 0)" fill="#17204c"/>
      <path id="Path_1526" data-name="Path 1526" d="M295.858,454.7l.258,30.869-58.862-.315.147-3.04c.331-6.5,3.505-11.827,7.794-13.08l9.163-1.86a14.459,14.459,0,0,0,7.352-3.952l8.209-8.837Z" transform="translate(17.664 159.084)" fill="#343e7b"/>
      <path id="Path_1527" data-name="Path 1527" d="M296.935,478.265V471.58l-59.859-.321.056,6.687,57.805.318" transform="translate(17.581 166.9)"/>
      <path id="Path_1546" data-name="Path 1546" d="M295.159,244.417c10.449.126,12.671,7.1,18.545,5.081,6.174-2.118,9.791-11.9,8.284-18.925-.472-2.2,2.45-8.215,0-13.308a93.627,93.627,0,0,1-5.9-15.43c-2.8-12.344.314-14.149.006-24.69-.246-8.291-5.424-19.617-27.144-32.888-.751,8.665-1.423,15.706-1.892,20.508-1.18,12.051-1.758,16.653-1.951,24.586-.226,9.316.454,7.639.034,12.478-.765,8.8-1.755,18.4-7.284,27.836-1.98,3.385-4.383,6.29-3.523,9.814a9.4,9.4,0,0,0,4.607,5.463C284.016,247.745,287.783,244.329,295.159,244.417Z" transform="translate(34.857 14.544)" fill="#17204c"/>
      <path id="Path_1521" data-name="Path 1521" d="M328.109,453.1l2.063,30.765-27.756.315.258-30.871Z" transform="translate(48.024 158.439)" fill="#343e7b"/>
      <path id="Path_1522" data-name="Path 1522" d="M297.061,476.87l35.607-.317-.342-6.683-35.2.318-.07,6.687" transform="translate(45.527 166.253)"/>
      <path id="Rectangle_158" data-name="Rectangle 158" d="M7.041,0H24.117a0,0,0,0,1,0,0V10.321a0,0,0,0,1,0,0H0a0,0,0,0,1,0,0V7.041A7.041,7.041,0,0,1,7.041,0Z" transform="translate(343.56 626.119)" fill="#343e7b"/>
    </g>
  </g>
</svg>
