<svg xmlns="http://www.w3.org/2000/svg" width="202" height="202" viewBox="0 0 202 202">
  <g id="Group_909" data-name="Group 909" transform="translate(-198 -1397)">
    <rect id="Rectangle_17" data-name="Rectangle 17" width="202" height="202" rx="12" transform="translate(198 1397)" fill="#52bbe1" opacity="0.1"/>
    <g id="Group_182" data-name="Group 182" transform="translate(-838.723 -283.5)">
      <rect id="Rectangle_22" data-name="Rectangle 22" width="116" height="116" transform="translate(1079.722 1723.5)" fill="none"/>
      <g id="Group_181" data-name="Group 181" transform="translate(1465.073 923.978)">
        <g id="Group_180" data-name="Group 180" transform="translate(-359.073 803.608)">
          <line id="Line_15" data-name="Line 15" x2="10.444" transform="translate(4.497 11.325)" fill="none" stroke="#344154" stroke-linecap="round" stroke-miterlimit="10" stroke-width="3"/>
          <path id="Path_187" data-name="Path 187" d="M-359.073,807.378V810a4.354,4.354,0,0,0,4.354,4.354h0v84.559a14.525,14.525,0,0,0,14.525,14.525h0a14.525,14.525,0,0,0,14.525-14.525V814.353h0A4.354,4.354,0,0,0-321.314,810v-2.621a4.355,4.355,0,0,0-4.354-4.356h-29.05A4.355,4.355,0,0,0-359.073,807.378Z" transform="translate(359.073 -803.022)" fill="none" stroke="#00385d" stroke-linecap="round" stroke-miterlimit="10" stroke-width="3"/>
          <path id="Path_188" data-name="Path 188" d="M-350.323,845.645v41.885a7.575,7.575,0,0,0,7.567,7.568,7.576,7.576,0,0,0,7.568-7.568v-45.64a18.5,18.5,0,0,1-11.627,4.1A18.556,18.556,0,0,1-350.323,845.645Z" transform="translate(361.635 -791.64)" fill="#52bbe1"/>
        </g>
        <path id="Path_189" data-name="Path 189" d="M0,0V94" transform="translate(-300.952 817.439)" fill="none" stroke="#00385d" stroke-linecap="round" stroke-width="3"/>
        <rect id="Rectangle_21" data-name="Rectangle 21" width="10.647" height="19.896" rx="4.118" transform="translate(-306.276 801.022)" fill="#00385d"/>
      </g>
    </g>
  </g>
</svg>
