<svg xmlns="http://www.w3.org/2000/svg" width="202" height="202" viewBox="0 0 202 202">
  <g id="Group_911" data-name="Group 911" transform="translate(-169 -1733)">
    <rect id="Rectangle_15" data-name="Rectangle 15" width="202" height="202" rx="12" transform="translate(169 1733)" fill="#52bbe1" opacity="0.1"/>
    <g id="Group_179" data-name="Group 179" transform="translate(-19 42.096)">
      <rect id="Rectangle_20" data-name="Rectangle 20" width="116" height="116" transform="translate(231 1733.904)" fill="none"/>
      <g id="Group_172" data-name="Group 172" transform="translate(234 1738)">
        <path id="Path_146" data-name="Path 146" d="M4.5,232.269c-6.084,0-18.9-34.825-18.9-62.169,0-24.034,1.44-45.638,18.9-45.638,17.434,0,18.874,21.6,18.874,45.638C23.372,197.443,10.581,232.269,4.5,232.269Zm0-103.551c-10.942,0-14.639,10.447-14.639,41.382,0,25.8,10.727,52.624,14.639,57.44,3.891-4.815,14.618-31.643,14.618-57.44C19.116,139.165,15.44,128.717,4.5,128.717Z" transform="translate(50.513 -124.461)" fill="#00385d"/>
        <path id="Path_147" data-name="Path 147" d="M6.493,138.329l-.236-.021a2.094,2.094,0,0,1-1.87-2.343,7.141,7.141,0,0,0-1.462-4.858c-1.118-1.225-2.924-1.849-5.353-1.849-2.472,0-4.342.645-5.568,1.913A7.494,7.494,0,0,0-9.8,136.094a2.118,2.118,0,0,1-2.021,2.214,2.087,2.087,0,0,1-2.214-2,11.634,11.634,0,0,1,2.945-8.04C-9.05,126.1-6.126,125-2.429,125c3.719,0,6.578,1.118,8.534,3.311A11.325,11.325,0,0,1,8.6,136.437,2.135,2.135,0,0,1,6.493,138.329Z" transform="translate(57.719 -113.393)" fill="#52bbe1"/>
        <g id="Group_170" data-name="Group 170" transform="translate(0 35.456)">
          <path id="Path_148" data-name="Path 148" d="M-13.95,179.566a2.06,2.06,0,0,1-1.1-.3,2.166,2.166,0,0,1-1.032-1.827V159.1a2.163,2.163,0,0,1,.752-1.612l36.05-30.87a2.127,2.127,0,0,1,2.773,3.224l-35.32,30.246v13.78l34.911-18.831a2.126,2.126,0,0,1,2.021,3.74l-38.05,20.53A2.08,2.08,0,0,1-13.95,179.566Z" transform="translate(16.078 -126.11)" fill="#00385d"/>
          <path id="Path_149" data-name="Path 149" d="M27.231,179.566a2.142,2.142,0,0,1-1.01-.258l-38.028-20.53a2.108,2.108,0,0,1-.86-2.88,2.115,2.115,0,0,1,2.881-.86L25.1,173.869v-13.78l-35.3-30.246a2.1,2.1,0,0,1-.236-2.988,2.115,2.115,0,0,1,2.988-.236l36.05,30.87a2.163,2.163,0,0,1,.752,1.612v18.337a2.119,2.119,0,0,1-1.032,1.827A2.01,2.01,0,0,1,27.231,179.566Z" transform="translate(80.641 -126.11)" fill="#00385d"/>
        </g>
        <g id="Group_171" data-name="Group 171" transform="translate(28.612 82.532)">
          <path id="Path_150" data-name="Path 150" d="M6.965,149.04H-12.619a2.12,2.12,0,0,1-2.128-2.128v-7.438a2.138,2.138,0,0,1,.881-1.72L-1.44,128.7a2.151,2.151,0,0,1,2.988.473,2.129,2.129,0,0,1-.473,2.967l-11.565,8.427V144.8H6.965a2.118,2.118,0,1,1,0,4.235Z" transform="translate(14.747 -128.3)" fill="#00385d"/>
          <path id="Path_151" data-name="Path 151" d="M8.311,149.04H-11.273a2.133,2.133,0,0,1-2.128-2.128,2.129,2.129,0,0,1,2.128-2.107H6.183V140.57l-11.565-8.427a2.129,2.129,0,0,1-.473-2.967,2.157,2.157,0,0,1,2.988-.473l12.425,9.051a2.138,2.138,0,0,1,.881,1.72v7.438A2.12,2.12,0,0,1,8.311,149.04Z" transform="translate(42.336 -128.3)" fill="#00385d"/>
        </g>
      </g>
    </g>
  </g>
</svg>
