<svg xmlns="http://www.w3.org/2000/svg" width="634.596" height="483.219" viewBox="0 0 634.596 483.219">
  <g id="Group_274" data-name="Group 274" transform="translate(-140 -2995.909)">
    <path id="Path_286" data-name="Path 286" d="M872.422,670.452c23.253-80.4,33.234-199,.052-275.832-22.372-51.806-56.9-67.552-94.634-82.507-32.062-12.706-49.348-51.566-74.907-78.948-36.263-38.849-83.917-44.948-127.385-45.041-52.705-.113-113.554,7.28-157.309,55.245-24.86,27.252-45.41,67.169-44.176,114.768,1.082,41.77,14.569,78.075-13.786,106.312-23.569,23.47-44.847,42.739-54.133,85.272-8.742,40.04-4.971,91.721,17.879,120.42Z" transform="translate(-133.365 2807.786)" fill="#52bbe1" opacity="0.1"/>
    <g id="Group_259" data-name="Group 259" transform="translate(300.492 3243.387)">
      <path id="Path_298" data-name="Path 298" d="M789.328,1099.924c-.894-20.454-2.82-38.246-5.126-50.655-3.676-19.78-6.986-31.159-7.024-31.28-.484-1.74-7.48-8.778-23.033-8.561s-14.078,9.447-14.078,9.447h0a2.79,2.79,0,0,0,.111.821c.15.476,14.427,48.645,13.809,110.84-.009.873-.114,2.383-.048,3.388,0,0,36.042.866,36.051,0C791.248,1128.489,790.635,1113.427,789.328,1099.924Z" transform="translate(-740.03 -1009.424)" fill="#b7d3f3"/>
      <path id="Path_299" data-name="Path 299" d="M803.185,1130.229c-.011.866-.5,1.561-1.1,1.561h-.014c-.6-.013-1.077-.708-1.084-1.561H770.1c-.011.866-.5,1.561-1.1,1.561h-.014c-.61-.013-1.095-.73-1.087-1.607a404.267,404.267,0,0,0-2.563-49.1c-4.106-36.591-11.7-61.047-11.8-61.386a2.858,2.858,0,0,1-.111-.821s-1.475-9.229,14.077-9.447,22.551,6.822,23.035,8.562c.029.091,1.9,6.535,4.393,18.12.825,3.838,1.715,8.239,2.631,13.158,2.3,12.408,4.232,30.2,5.125,50.655C803.982,1113.426,804.441,1124.8,803.185,1130.229Z" transform="translate(-749.355 -1009.424)" fill="#d2e3fc"/>
      <path id="Path_300" data-name="Path 300" d="M793.965,1394.194h121.1s-2.82-10.619-72.952-9.038C792.48,1386.275,793.965,1394.194,793.965,1394.194Z" transform="translate(-777.71 -1271.826)" fill="#c5dcf8"/>
      <g id="Group_255" data-name="Group 255" transform="translate(6.398 124.013)">
        <path id="Path_301" data-name="Path 301" d="M761.264,1530.257c14.041-66.142,10.431-106.729,10.413-107.241-.036-1.018,1.982-1.943,3.067-1.975s5.945-.3,6.506.571c.735,1.141,3.562,51.148-17.364,108.646Z" transform="translate(-761.264 -1420.982)" fill="#b7d3f3"/>
      </g>
      <g id="Group_256" data-name="Group 256" transform="translate(98.937 124.013)">
        <path id="Path_302" data-name="Path 302" d="M1088.9,1530.257c-14.041-66.142-10.431-106.729-10.412-107.241.035-1.018-1.982-1.943-3.067-1.975s-5.945-.3-6.506.571c-.734,1.141-3.562,51.148,17.364,108.646Z" transform="translate(-1068.37 -1420.982)" fill="#b7d3f3"/>
      </g>
      <g id="Group_257" data-name="Group 257" transform="translate(121.345 124.013)">
        <path id="Path_303" data-name="Path 303" d="M1163.263,1530.257c-14.041-66.142-10.431-106.729-10.412-107.241.035-1.018-1.982-1.943-3.067-1.975s-5.945-.3-6.505.571c-.735,1.141-3.562,51.148,17.364,108.646Z" transform="translate(-1142.734 -1420.982)" fill="#b7d3f3"/>
      </g>
      <g id="Group_258" data-name="Group 258" transform="translate(28.957 124.013)">
        <path id="Path_304" data-name="Path 304" d="M836.128,1530.257c14.041-66.142,10.43-106.729,10.412-107.241-.035-1.018,1.982-1.943,3.067-1.975s5.945-.3,6.506.571c.735,1.141,3.562,51.148-17.364,108.646Z" transform="translate(-836.128 -1420.982)" fill="#b7d3f3"/>
      </g>
      <rect id="Rectangle_29" data-name="Rectangle 29" width="126.059" height="6.134" rx="3.067" transform="translate(13.846 119.623)" fill="#b7d3f3"/>
    </g>
    <path id="Path_305" data-name="Path 305" d="M840.05,689.845c-.351-.826-4.453-9.6-18.378-4.812,0,0,7.067-1.781,9.372.743,0,0-6.008-1.91-9.3.705s-2.984,10.024-2.179,12.192,5.551,8.333,8.156,8.015a7.771,7.771,0,0,0,2.883-1.1,34.643,34.643,0,0,0-.585,4c-1.175,13.358,8.692,22.2,12.87,19.2,2.679-1.919,5.467,2.839,5.467,2.839l19.966-34.495S849.277,679.219,840.05,689.845Z" transform="translate(-494.733 2461.6)" fill="#2c3a64"/>
    <path id="Path_306" data-name="Path 306" d="M938.97,875.585c-18.91,8.452-33.127-21.38-31.892-21.685,1.891-2.139,3.84-9.759,2.455-20.727l.981.068,16.445,1.218s.256,5.1.823,9.86c.376,3.128.891,6.11,1.557,7.411.2.384,3.76.9,3.769.908C933.384,852.94,944.015,873.332,938.97,875.585Z" transform="translate(-556.198 2357.105)" fill="#d17b34"/>
    <path id="Path_307" data-name="Path 307" d="M1336.435,1743.263H1303.3s-.794-5.051.937-8.882c1.659-3.677,2.717-4.685.915-8.936,2.106,2.168,8.257,3.735,13.048,3.091.587.951,3.789,6.045,5.75,7.454C1326.111,1737.545,1335.768,1736.99,1336.435,1743.263Z" transform="translate(-832.951 1733.697)" fill="#233862"/>
    <path id="Path_308" data-name="Path 308" d="M1142.779,1738.973h-33.14s-.795-5.051.936-8.882c1.659-3.677,4.89-6.136,5.84-10.377,2.106,2.168,3.333,5.176,8.124,4.532.587.952,3.789,6.045,5.75,7.454C1132.455,1733.255,1142.112,1732.7,1142.779,1738.973Z" transform="translate(-697.648 1737.701)" fill="#233862"/>
    <g id="Group_260" data-name="Group 260" transform="translate(384.1 3226.127)">
      <path id="Path_309" data-name="Path 309" d="M1115.023,1003.462l-.015,6.606s-2.22.188-5.754.477c-1.062.078-1.677.091-1.677.091-2.834.2-6.247.356-9.965.536l-.051.014c-6.4.188-13.593.282-19.786-.1-.557-.04-1.105-.082-1.641-.128a47.751,47.751,0,0,1-9.349-1.588,6.178,6.178,0,0,1-.8-.3c-30.259-17.474-47.685-46.783-47.843-47.564-3.686-13.962,8.412-16.041,41.03,20.2,9.49,10.543,15.144,10.146,18.65,11.466.929.353,1.921.708,2.956,1.069,5.757,1.984,12.943,3.985,19.281,5.593,3.109.809,6.034,1.513,8.462,2.092C1112.437,1002.87,1115.023,1003.462,1115.023,1003.462Z" transform="translate(-1017.499 -952.144)" fill="#d17b34"/>
    </g>
    <path id="Path_310" data-name="Path 310" d="M836.06,1246.049s-7.436,23.176,9.157,34.168c22.232,14.73,83.875,2.175,90.91,9.7,1.782,1.906-3.606,2.869-6.646,30.105-4.371,39.171-7.913,61.081-7.913,61.081a10.109,10.109,0,0,0,5.429,6.791c3.061,1.515,6.945.579,6.945.579s45.275-99.407,40.766-113.2c-7.81-23.884-51.052-21.542-101.173-35.655C842.928,1231,836.06,1246.049,836.06,1246.049Z" transform="translate(-505.472 2074.992)" fill="#00385d"/>
    <path id="Path_311" data-name="Path 311" d="M856.25,1256c22.01-2.035,82.071-3.071,95.059,5.853,15.986,10.983,37.714,136.582,37.714,136.582a10.648,10.648,0,0,1-5.3,1.685c-3.38.331-10.721-1.834-10.721-1.834s-35.714-56.567-37.862-70.72-1.042-26.739-7.084-27.163-89.045,9.143-96.131-13.574c-5.535-17.746,1.1-34.913,1.1-34.913S835.945,1257.873,856.25,1256Z" transform="translate(-502.199 2064.542)" fill="#054a78"/>
    <path id="Path_312" data-name="Path 312" d="M895.412,950.743c3.865,23.484,2.338,53.815,2.338,53.815-22.48,34.7-85.059,24.266-85.059,24.266-1.379-13.156,3.9-42.415,7.112-68.449.787-6.381,1.448-12.564,1.859-18.27a114.842,114.842,0,0,1,1.695-13.324c5.335-27.824,19.057-30.881,19.057-30.881,6.416,12.46,26.661,15.814,26.661,15.814.251-7.012-2.019-15.944-2.019-15.944a124.06,124.06,0,0,1,13.545,2.494c7.88,2.578,29.774,32.064,29.774,32.064S905.9,944.522,895.412,950.743Z" transform="translate(-490.147 2311.972)" fill="#ffd91f"/>
    <path id="Path_313" data-name="Path 313" d="M935.1,834.625s.253,5.1.823,9.86c-9.016.845-14.768-6.771-17.27-11.077Z" transform="translate(-564.338 2356.941)" fill="#b56321"/>
    <path id="Path_314" data-name="Path 314" d="M927.913,769.617s-21.217,2.949-22.85-10.292-5.472-21.778,8.005-24.221,16.738,2.284,18.358,6.571S933.39,768.508,927.913,769.617Z" transform="translate(-553.6 2426.09)" fill="#d17b34"/>
    <path id="Path_316" data-name="Path 316" d="M1341.114,1114.01a20.426,20.426,0,0,0,4.286-.922c1.826-.679,3.127-1.739,5.614-1.673s6.48-1.58,6.363-.865-3.6,3.131-3.767,3.544,3.748,4.776,5.862,5.542,7.505,2.534,6.784,3.346-8.91,2.356-11.032,2.154-6.4-3.7-8.592-4.351a15.965,15.965,0,0,0-5.534-.169Z" transform="translate(-859.491 2163.434)" fill="#d17b34"/>
    <path id="Path_317" data-name="Path 317" d="M1389.867,1135.285s7.215-.381,8.861,1.522l-5.592.844Z" transform="translate(-893.564 2146.049)" fill="#d17b34"/>
    <path id="Path_318" data-name="Path 318" d="M1393.785,1153.862l10.225.375a5.3,5.3,0,0,0-2.67-1.933C1399.59,1151.771,1393.785,1153.862,1393.785,1153.862Z" transform="translate(-896.301 2134.197)" fill="#d17b34"/>
    <path id="Path_319" data-name="Path 319" d="M885.616,1076.677c-.363-.2-43.485,4.507-48.8-44.532.786-6.381,1.448-12.563,1.859-18.27a114.846,114.846,0,0,1,1.695-13.324c3.882-.6,8.538,3.575,10.626,9.775C855.291,1023.088,885.5,1076.145,885.616,1076.677Z" transform="translate(-507.159 2240.202)" fill="#e2c42e"/>
    <g id="Group_261" data-name="Group 261" transform="translate(336.904 3224.227)">
      <path id="Path_320" data-name="Path 320" d="M929.348,1040.411l-2.388,6.16s-2.139-.622-5.541-1.622c-1.019-.308-1.6-.518-1.6-.518-2.718-.828-5.957-1.912-9.492-3.08l-.053-.006c-6.037-2.123-12.786-4.62-18.427-7.206q-.758-.357-1.485-.709a47.755,47.755,0,0,1-8.155-4.841,6.238,6.238,0,0,1-.644-.565c-5.359-4.809-10.967-17.9-14.95-31.727-.554-1.906-1.059-3.813-1.566-5.667a136.027,136.027,0,0,1-3.708-19.407,53.687,53.687,0,0,1-.413-9.1,21.7,21.7,0,0,1,.212-2.53c1.577-14.354,11.887-14.792,13.055-13.021a45.4,45.4,0,0,1,4.334,9.908c2.164,6.678,4.281,15.258,6.208,23.766,1.073,4.667,2.094,9.328,3.15,13.64.583,2.612,1.181,5.075,1.747,7.337a68.891,68.891,0,0,0,3.163,10.088c.652,1.471,2.729,3.637,5.528,6.128.739.664,1.538,1.351,2.375,2.06,4.66,3.92,10.647,8.369,15.984,12.147,2.611,1.871,5.088,3.579,7.146,4.993C927.148,1038.93,929.348,1040.411,929.348,1040.411Z" transform="translate(-860.87 -945.838)" fill="#d17b34"/>
    </g>
    <g id="Group_262" data-name="Group 262" transform="translate(401.605 3314.637)">
      <path id="Path_321" data-name="Path 321" d="M1078.808,1254.712s10.753-3.043,13.314-2.332,11.337,6.522,10.1,8.1-8.964-.945-12.522-.467-6.308,2.233-8.87,1.854a29.715,29.715,0,0,1-5.239-1.387Z" transform="translate(-1075.594 -1250.347)" fill="#d17b34"/>
      <path id="Path_322" data-name="Path 322" d="M1086.26,1250.247s5.261-2.7,6.757-4.241a.419.419,0,0,1,.653.075c.4.632.777,1.853-1.068,3.068C1089.945,1250.9,1086.26,1250.247,1086.26,1250.247Z" transform="translate(-1083.046 -1245.882)" fill="#d17b34"/>
    </g>
    <path id="Path_323" data-name="Path 323" d="M863.4,932.518s-10.026,4.869-13.526,11.536-3.929,27.949,1.489,55.618c0,0,16.338-1.076,27.018-15.237C878.38,984.435,874.414,928.518,863.4,932.518Z" transform="translate(-514.458 2287.838)" fill="#f8d218"/>
    <path id="Path_324" data-name="Path 324" d="M905.973,883.682s-3.656,2.274-3.664,5.648c0,0,4.319,11.8,29.536,14.541C931.845,903.871,908.636,892.457,905.973,883.682Z" transform="translate(-552.919 2321.816)" fill="#f8d218"/>
    <path id="Path_325" data-name="Path 325" d="M978.534,886.49s6.361,11.688,6.18,17.381c0,0,.432-12.939-.469-15.944s-6.266-4.245-6.266-4.245Z" transform="translate(-605.787 2321.816)" fill="#f8d218"/>
    <path id="Path_326" data-name="Path 326" d="M964.3,824.476c.216,0,2.234,1.8,4.9,1.3s2.641-2.594,2.641-2.594a11.918,11.918,0,0,0-3.419,0A27.99,27.99,0,0,0,964.3,824.476Z" transform="translate(-596.231 2364.177)" fill="#fff"/>
    <g id="Group_268" data-name="Group 268" transform="translate(496.859 3362.372)">
      <path id="Rectangle_30" data-name="Rectangle 30" d="M8.525,0H204.114a8.525,8.525,0,0,1,8.525,8.525v0a8.525,8.525,0,0,1-8.525,8.525H8.526A8.526,8.526,0,0,1,0,8.525v0A8.525,8.525,0,0,1,8.525,0Z" fill="#b0d4ff"/>
      <g id="Group_265" data-name="Group 265" transform="translate(169.998 17.051)">
        <g id="Group_264" data-name="Group 264">
          <path id="Path_327" data-name="Path 327" d="M1983.674,1558.063H1981.5l-16.829-63.712v-.012l-3.826-14.488-.005-.006-4.962-18.792,9.911-.169,3.378,18.349,2.527,13.743c.011.07.029.134.04.2Z" transform="translate(-1955.879 -1460.884)" fill="#d2e3fc"/>
        </g>
        <path id="Path_328" data-name="Path 328" d="M1969.168,1479.233a27.354,27.354,0,0,0-4.5,15.105l-3.826-14.488-.005-.006-4.962-18.792,9.911-.169Z" transform="translate(-1955.879 -1460.884)" fill="#b0d4ff"/>
      </g>
      <g id="Group_267" data-name="Group 267" transform="translate(10.894 17.051)">
        <g id="Group_266" data-name="Group 266">
          <path id="Path_329" data-name="Path 329" d="M1427.863,1558.063h2.172l16.829-63.712v-.012l3.826-14.488.006-.006,4.961-18.792-9.911-.169-3.378,18.349-2.527,13.743c-.012.07-.03.134-.041.2Z" transform="translate(-1427.863 -1460.884)" fill="#d2e3fc"/>
        </g>
        <path id="Path_330" data-name="Path 330" d="M1476,1479.233a27.354,27.354,0,0,1,4.5,15.105l3.826-14.488.006-.006,4.961-18.792-9.911-.169Z" transform="translate(-1461.498 -1460.884)" fill="#b0d4ff"/>
      </g>
    </g>
    <path id="Path_331" data-name="Path 331" d="M1394.551,1132.708a3.913,3.913,0,0,0-3.069-.847c-1.69.352-2.97,1.107-5.139.719s-5.885.522-5.687-.089,3.569-2.263,3.77-2.6-2.647-4.68-4.4-5.632-6.236-3.217-5.5-3.833,8.116-.878,9.948-.419,5.11,4.088,6.945,4.953a47.176,47.176,0,0,1,5.043,3.132Z" transform="translate(-882.793 2156.866)" fill="#ffb27d"/>
    <path id="Path_332" data-name="Path 332" d="M1385.365,1135.5s-6.369-.625-7.557-2.511l5.009,0Z" transform="translate(-885.138 2147.629)" fill="#ffb27d"/>
    <path id="Path_333" data-name="Path 333" d="M1381.778,1117.346l-8.9-1.688a4.694,4.694,0,0,0,2.081,2.048C1376.417,1118.405,1381.778,1117.346,1381.778,1117.346Z" transform="translate(-881.691 2159.74)" fill="#ffb27d"/>
    <path id="Path_334" data-name="Path 334" d="M1530.73,989.766s-5.454-2.478-22.482,12.918-28.691,31.49-37.788,32.19-32.586.745-32.586.745l-2.615,5.493s-.441,2.121,13.974,6.708c12.328,3.921,27.922,5.154,29.08,5.015,11.663-1.4,39.62-20.078,43.874-25.676S1530.73,989.766,1530.73,989.766Z" transform="translate(-925.277 2247.8)" fill="#67caee"/>
    <path id="Path_335" data-name="Path 335" d="M1741.132,786.372s-.315-11.1,14.319-13.273,18.677,1.244,21.166,4.976,7.153,18.972,6.687,25.037-17.158,13.564-16.886,17.1S1741.132,786.372,1741.132,786.372Z" transform="translate(-1138.984 2399.553)" fill="#163560"/>
    <path id="Path_336" data-name="Path 336" d="M1457.971,1700.938c.293,3.7-4.868,4.535-10.835,4.754s-4.181,1.464-12.372,2.838-11.437-.906-12.014-2.018c-.514-.986,3.305-2.469,7.377-4.148.513-.209,1.026-.426,1.539-.642,4.583-1.944,7.544-5.216,9.864-9.864,1.566-3.138,2.9-15.128,2.9-15.128l14.23-1.971s-2.515,9.321-3.655,13.723c-.67,2.589,1.189,6.486,1.994,8.707A14.513,14.513,0,0,1,1457.971,1700.938Z" transform="translate(-916.506 1769.109)" fill="#ffb27d"/>
    <path id="Path_337" data-name="Path 337" d="M1447.136,1757.7c-5.967.219-4.181,1.464-12.372,2.838s-11.437-.906-12.014-2.018c-.514-.986,3.305-2.469,7.377-4.148l.062.07a23.275,23.275,0,0,0,12.377.31c5.425-1.4,10.695-4.56,14.432-5.555a14.515,14.515,0,0,1,.973,3.75C1458.264,1756.647,1453.1,1757.479,1447.136,1757.7Z" transform="translate(-916.506 1717.103)" fill="#b24940"/>
    <path id="Path_338" data-name="Path 338" d="M1584.108,1278.381s-73.908,3.878-86.574,14.342-10.345,111.332-10.345,111.332c1.186,1.364,3.334,1.864,6.3,2.285a58.855,58.855,0,0,0,7.232.4s14.482-50.475,15.255-62.181,4.242-31.464,9.3-32.391,64.272,8.562,71.708-9.594-2.653-33.89-2.653-33.89Z" transform="translate(-961.443 2052.825)" fill="#00385d"/>
    <path id="Path_339" data-name="Path 339" d="M1764.243,1099.42c-3.177,2.128-11.388,3.3-20.919,3.644-17.056.621-38.339-1.413-42.529-5.37-1.087-1.021-1.619-2.715-1.768-4.861-.462-6.546,2.664-17.313,4.763-26.224,1.363-5.79,2.291-10.791,1.53-13.347-2.313-7.782-9.5-23.639-10.123-28.85s5.6-33.133,14.2-36.589,41.787,0,41.787,0c12.964,2.631,13.51,30.273,9.2,53.8-.112.606-.224,1.208-.34,1.805C1755.379,1067.319,1773.107,1093.481,1764.243,1099.42Z" transform="translate(-1106.861 2250.13)" fill="#52bbe1"/>
    <g id="Group_269" data-name="Group 269" transform="translate(596.91 3183.184)">
      <path id="Path_340" data-name="Path 340" d="M1761.257,944.666c.234,1.516,4.383,3.975,13.254,1.637,8.5-2.241,9.52-5.009,9.518-6.837,0-2.164-3.695-5.079-3.646-18.392l-1.019.2-17.137,3.393s.39,5.393.4,10.473C1762.64,939.408,1760.869,942.143,1761.257,944.666Z" transform="translate(-1749.916 -887.493)" fill="#ffb27d"/>
      <path id="Path_341" data-name="Path 341" d="M1764.6,925.135s.39,5.393.4,10.473c9.59-.27,14.658-9.018,16.735-13.867Z" transform="translate(-1752.293 -887.959)" fill="#ed975d"/>
      <path id="Path_342" data-name="Path 342" d="M1736.455,860.2s22.689.374,22.7-13.759,2.954-23.6-11.531-24.439-17.306,4.553-18.459,9.269S1730.553,859.736,1736.455,860.2Z" transform="translate(-1727.346 -818.212)" fill="#ffb27d"/>
      <path id="Path_345" data-name="Path 345" d="M1750.943,917.875s-.423,1.8-4.89,1.518c0,0-3.75-.232-3.636-2.205A12.069,12.069,0,0,1,1750.943,917.875Z" transform="translate(-1736.79 -884.456)" fill="#fff"/>
      <path id="Path_343" data-name="Path 343" d="M1756.763,813.071s6.213,16.581,15.746,19.032,13.669-.1,13.669-.1a70.976,70.976,0,0,1-5.74-18.67S1761.449,805.18,1756.763,813.071Z" transform="translate(-1746.814 -809.63)" fill="#163560"/>
      <path id="Path_344" data-name="Path 344" d="M1735.235,819.249s-4.639,3.7-5.77,7.3-1.64,11.008-3.8,10.756c0,0-4.68-11.27.579-17.645C1731.823,812.9,1735.235,819.249,1735.235,819.249Z" transform="translate(-1723.747 -814.462)" fill="#163560"/>
    </g>
    <path id="Path_346" data-name="Path 346" d="M1604.154,1694.339c-.128,3.712-5.35,3.954-11.3,3.5s-4.32.981-12.614,1.419-11.261-2.195-11.708-3.365c-.4-1.038,3.563-2.079,7.8-3.286.533-.15,1.068-.307,1.6-.464,4.774-1.412,7.827-5.145,11.829-8.456,3.792-3.136-3.428-19.566-3.428-19.566l10.75-4.589s1.428,11.547,3.5,21.688c.535,2.62,2.485,6.988,3.033,9.286A14.543,14.543,0,0,1,1604.154,1694.339Z" transform="translate(-1018.371 1779.75)" fill="#ffb27d"/>
    <path id="Path_347" data-name="Path 347" d="M1773.116,1198.763c-3.177,2.128-11.388,3.3-20.919,3.643-15.731-3.578-33.642-7.744-44.3-10.231-.462-6.546,2.664-17.313,4.763-26.223,12.424,3.793,30.912-9.13,37.126-14.238,6.531-5.365,6.326-23.242,6.326-23.242l13.142,12.493c-.112.606-.224,1.208-.34,1.805C1764.252,1166.662,1781.98,1192.824,1773.116,1198.763Z" transform="translate(-1115.733 2150.787)" fill="#56b5d8"/>
    <path id="Path_348" data-name="Path 348" d="M1592.851,1769.656c-5.954-.458-4.32.981-12.614,1.418s-11.261-2.194-11.708-3.365c-.4-1.038,3.563-2.079,7.8-3.286l.054.077a23.273,23.273,0,0,0,12.262,1.709c5.548-.775,11.142-3.32,14.969-3.886a14.544,14.544,0,0,1,.542,3.836C1604.026,1769.871,1598.8,1770.113,1592.851,1769.656Z" transform="translate(-1018.371 1707.931)" fill="#c65447"/>
    <path id="Path_349" data-name="Path 349" d="M1654.683,1309.826c-18.645-1.441-74.626.188-85.729,7.6-13.666,9.119,19.282,113.6,19.282,113.6h10.575s6.148-60.668,2.332-72.778c-3.526-11.189-5.827-15.2-.7-15.6s68.329,10.694,74.565-7.908c4.871-14.53-.584-28.469-.584-28.469S1671.884,1311.155,1654.683,1309.826Z" transform="translate(-1016.367 2026.569)" fill="#054a78"/>
    <path id="Path_350" data-name="Path 350" d="M1787.337,991.294s12.985,1.1,14,11.365c.767,7.793,6.416,63.072,2.349,67.879-11.446,13.529-49.611,16.4-55.231,18.45l-1.545-6.4s40.743-20.527,40.121-25.193S1774.883,989.447,1787.337,991.294Z" transform="translate(-1143.017 2246.657)" fill="#67caee"/>
    <path id="Path_351" data-name="Path 351" d="M1835.366,775.7s-.931-5.92,7.28-7.448,8.365,15.913,9.245,20.117-1.313,6.723-4.445,6.979S1835.366,775.7,1835.366,775.7Z" transform="translate(-1204.8 2402.529)" fill="#163560"/>
    <g id="Group_270" data-name="Group 270" transform="translate(578.048 3324.257)">
      <path id="Path_352" data-name="Path 352" d="M1686.547,1287.334s-11.6-3.284-14.367-2.516-12.234,7.038-10.9,8.741,9.674-1.019,13.512-.5,6.808,2.409,9.572,2a32.049,32.049,0,0,0,5.654-1.5Z" transform="translate(-1661.15 -1282.624)" fill="#ffb27d"/>
      <path id="Path_353" data-name="Path 353" d="M1726.069,1282.515s-5.677-2.917-7.292-4.577a.452.452,0,0,0-.705.081c-.433.683-.838,2,1.154,3.311C1722.093,1283.216,1726.069,1282.515,1726.069,1282.515Z" transform="translate(-1700.672 -1277.805)" fill="#ffb27d"/>
    </g>
    <path id="Path_354" data-name="Path 354" d="M840.776,1786.084H208.636a1.231,1.231,0,0,1-1.228-1.227h0a1.231,1.231,0,0,1,1.228-1.228h632.14a1.231,1.231,0,0,1,1.228,1.228h0A1.231,1.231,0,0,1,840.776,1786.084Z" transform="translate(-67.408 1693.044)" fill="#2e3552" opacity="0.05"/>
    <g id="Group_272" data-name="Group 272" transform="translate(398.634 3060.228)" opacity="0.36">
      <ellipse id="Ellipse_4" data-name="Ellipse 4" cx="48.244" cy="34.95" rx="48.244" ry="34.95" transform="translate(0)" fill="#ffd91f"/>
      <path id="Path_355" data-name="Path 355" d="M1089.62,585.515l-11.714,17.758,23.815-10.986Z" transform="translate(-1074.237 -530.09)" fill="#ffd91f"/>
    </g>
    <g id="Group_273" data-name="Group 273" transform="translate(488.867 3130.16)" opacity="0.36">
      <ellipse id="Ellipse_5" data-name="Ellipse 5" cx="40.036" cy="29.003" rx="40.036" ry="29.003" transform="translate(0 0)" fill="#52bbe1"/>
      <path id="Path_356" data-name="Path 356" d="M1565.273,786.3l9.721,14.737-19.763-9.117Z" transform="translate(-1497.966 -740.309)" fill="#52bbe1"/>
    </g>
    <ellipse id="Ellipse_6" data-name="Ellipse 6" cx="1.582" cy="1.055" rx="1.582" ry="1.055" transform="translate(363.629 3174.275)" fill="#00385d"/>
    <ellipse id="Ellipse_7" data-name="Ellipse 7" cx="1.582" cy="1.055" rx="1.582" ry="1.055" transform="translate(374.178 3173.22)" fill="#00385d"/>
    <path id="Path_359" data-name="Path 359" d="M0,.547s2.813-1.23,4.923,0" transform="translate(611.22 3198.923) rotate(7)" fill="none" stroke="#00385d" stroke-linecap="round" stroke-width="1"/>
    <path id="Path_360" data-name="Path 360" d="M0,.547s2.813-1.23,4.923,0" transform="translate(600.671 3198.923) rotate(7)" fill="none" stroke="#00385d" stroke-linecap="round" stroke-width="1"/>
    <ellipse id="Ellipse_8" data-name="Ellipse 8" cx="2.11" cy="1.055" rx="2.11" ry="1.055" transform="translate(611.52 3200.647)" fill="#00385d"/>
    <ellipse id="Ellipse_9" data-name="Ellipse 9" cx="2.11" cy="1.055" rx="2.11" ry="1.055" transform="translate(600.971 3200.647)" fill="#00385d"/>
    <path id="Path_357" data-name="Path 357" d="M349.167,2735.429a4.051,4.051,0,0,1,2.637,0" transform="translate(25.187 436.121)" fill="none" stroke="#000" stroke-linecap="round" stroke-width="1"/>
    <path id="Path_358" data-name="Path 358" d="M0,.235a4.051,4.051,0,0,1,2.637,0" transform="translate(363.812 3172.67) rotate(-13)" fill="none" stroke="#000" stroke-linecap="round" stroke-width="1"/>
    <path id="Path_315" data-name="Path 315" d="M916.06,728.752c-3.773-3.581-6.15-2.4-7.395-1.036-12.4-4.968-18.734,5.392-18.734,5.392a25.487,25.487,0,0,1-6.447,15.957s4.167,1.92,12.82-1.469a15.3,15.3,0,0,0,6.625-5.878,49.967,49.967,0,0,1-7.262,11.469c10.068-6.237,12.539-21.6,12.773-23.223,1.441,1.007,4.308,3.226,5.392,5.612,1.472,3.243,2.8,10.127,4.792,9.643C918.624,745.22,921.719,734.124,916.06,728.752Z" transform="translate(-539.766 2431.728)" fill="#2c3a64"/>
  </g>
</svg>
