<svg xmlns="http://www.w3.org/2000/svg" xmlns:xlink="http://www.w3.org/1999/xlink" width="637.605" height="479.838" viewBox="0 0 637.605 479.838">
  <defs>
    <clipPath id="clip-path">
      <rect width="637.605" height="479.838" fill="none"/>
    </clipPath>
  </defs>
  <g id="Group_951" data-name="Group 951" transform="translate(-222 -324.358)">
    <g id="Repeat_Grid_1" data-name="Repeat Grid 1" transform="translate(222 324.358)" clip-path="url(#clip-path)">
      <g id="Group_935" data-name="Group 935" transform="translate(-15200 15536.142)">
        <path id="Path_1999" data-name="Path 1999" d="M1218.446,1576.248h.3a3.213,3.213,0,0,0,3.111-3.372l-4.718-216.547-13.9-1.717,11.852,218.279A3.451,3.451,0,0,0,1218.446,1576.248Z" transform="translate(14252.426 -16633.711)" fill="#9ee493"/>
        <path id="Rectangle_169" data-name="Rectangle 169" d="M6.66,0h0a6.66,6.66,0,0,1,6.66,6.66V143.684a6.66,6.66,0,0,1-6.66,6.66h0A6.66,6.66,0,0,1,0,143.684V6.66A6.66,6.66,0,0,1,6.66,0Z" transform="translate(15241.667 -15357.411)" fill="#297045"/>
        <path id="Path_1889" data-name="Path 1889" d="M926.045,1601.049h-.213a2.231,2.231,0,0,1-2.23-2.283l3.383-146.621,9.964-1.163-8.5,147.793A2.411,2.411,0,0,1,926.045,1601.049Z" transform="translate(14322.226 -16662.541)" fill="#297045"/>
        <path id="Path_1890" data-name="Path 1890" d="M1190.016,1601.049h.213a2.232,2.232,0,0,0,2.231-2.283l-3.384-146.621-9.964-1.163,8.5,147.793A2.411,2.411,0,0,0,1190.016,1601.049Z" transform="translate(14218.489 -16662.541)" fill="#297045"/>
        <path id="Path_1891" data-name="Path 1891" d="M1082.725,1437.632H916.6v6.25a9.611,9.611,0,0,0,9.612,9.611h156.514a7.107,7.107,0,0,0,7.107-7.107v-1.648A7.107,7.107,0,0,0,1082.725,1437.632Z" transform="translate(14325.068 -16657.121)" fill="#297045"/>
        <path id="Path_1892" data-name="Path 1892" d="M1334.676,1635.763s-.92,41.311,4.523,41.715c.724.054,27.61.054,27.61.054l27.179-.054s6.917-8.415-3.115-10.163-38.45-34.354-38.45-34.354Z" transform="translate(14154.757 -16739.512)" fill="#f6bd96"/>
        <path id="Path_1893" data-name="Path 1893" d="M988.676,1357.2s1.143,29.876,6.409,39.894h121.387s29.166,3.019,31.824,4.985c3.354,2.482-13.9,16.654,42.472,112.861l27.611-.7s-26.657-145.583-31.788-149.533c-7.674-5.907-97.474-26.466-112.847-26.915S988.676,1357.2,988.676,1357.2Z" transform="translate(14295.805 -16616.584)" fill="#00385d"/>
        <path id="Path_1894" data-name="Path 1894" d="M1081.566,1056.348c-22.845,5.9-56.086-19.459-56.086-19.459s14.7-9.878,20.155-31.6q.41-1.64.743-3.368a68.428,68.428,0,0,0,1.241-11.886l7.752,6.95,2.744,2.453,17.452,15.634s-.22,3.546-1.212,9.908c-.35,2.24-.8,4.829-1.366,7.74q-.57,2.922-1.318,6.26C1081.037,1044.789,1081.566,1056.348,1081.566,1056.348Z" transform="translate(14280.863 -16475.402)" fill="#f6bd96"/>
        <path id="Path_1895" data-name="Path 1895" d="M1060.745,1181.412c-.779,5.1.8,9.2,1.559,12.991a14.639,14.639,0,0,1,.344,4.248c-1.25,14.1,3.778,15.892,2.205,20.442a111.261,111.261,0,0,1-15.2,6.868c-4.276,1.615-9.4,3.35-15.3,4.979-.309.084-.618.169-.935.253-22.836,6.173-46.846,7.492-53.629,7.31-12.958-.347-15.572-33.19-10.765-74.557,7.488-64.445,17.612-95.689,44.3-118.266,1.681-1.421.548,3.416,9.515,7.742a41.958,41.958,0,0,0,26.039,3.2l6.1,6.257c12.121,19.144,13.392,41.868,12.359,60.808C1066.026,1147.634,1063,1166.742,1060.745,1181.412Z" transform="translate(14304.697 -16497.891)" fill="#ffd91f"/>
        <path id="Path_1896" data-name="Path 1896" d="M1092.263,1022.185s-.22,3.546-1.212,9.908c-17.957-8.833-22.442-19.578-23.849-26.439-.22-1.046,2-1.414,4.865-1.556l2.744,2.453Z" transform="translate(14263.93 -16481.109)" fill="#ed975d"/>
        <rect id="Rectangle_170" data-name="Rectangle 170" width="2.989" height="78.261" transform="translate(15508.637 -15286.847) rotate(-162.63)" fill="#1c468a"/>
        <rect id="Rectangle_171" data-name="Rectangle 171" width="82.125" height="4.913" transform="matrix(-1, -0.01, 0.01, -1, 15508.635, -15286.847)" fill="#1c468a"/>
        <path id="Path_1897" data-name="Path 1897" d="M1092.411,1270.175a111.276,111.276,0,0,1-15.2,6.868c-42.556-31.046-42.324-104.542-42.556-105.8l53.447,47.064,1.763,27.176a14.644,14.644,0,0,1,.344,4.248C1088.956,1263.833,1093.984,1265.625,1092.411,1270.175Z" transform="translate(14277.139 -16548.971)" fill="#fbd418"/>
        <path id="Path_1898" data-name="Path 1898" d="M1261.591,1274.449a13.207,13.207,0,0,0,7.032-1.14c3.612-1.7,16.068-7.045,18.407-6.314s9.979,5.045,11.777,5.864,4.978,5.023,4.978,5.023c-1.32,1.332-5.96-1.723-8.032-1.665s-17.383,8.421-21.934,8.6a87.626,87.626,0,0,1-11.641-.751Z" transform="translate(14185.003 -16587.814)" fill="#f6bd96"/>
        <path id="Path_1899" data-name="Path 1899" d="M1308.306,1280.64c.04.249,5.6,6.442,9.832,4.478l-4.641-4.585Z" transform="translate(14166.036 -16593.342)" fill="#ffb27d"/>
        <path id="Path_1900" data-name="Path 1900" d="M1273.43,1273a80.122,80.122,0,0,0,6.636-6.833s.994.455,1.035,1.3c.068,1.4-1.3,3.982-1.3,3.982Z" transform="translate(14180.195 -16587.508)" fill="#ffb27d"/>
        <path id="Path_1901" data-name="Path 1901" d="M1074.668,1089.726c-27.393-16.683-59.725,12.464-46.131,41.514,15.762,33.684,42,74.768,62.853,77.2,14.861,1.73,55.645,6.835,76.078,2,0,0,6.48-.525,2.977-9.807,0,0-57.867-18.175-67.522-30.739-5.174-6.733-13.99-20.365-27.62-79.771C1075.248,1089.876,1074.881,1089.855,1074.668,1089.726Z" transform="translate(14280.925 -16513.895)" fill="#f6bd96"/>
        <path id="Path_1920" data-name="Path 1920" d="M1078.511,987.185c34.411,9.486,38.935-69.867,3.091-77.35-37.612-7.852-44.138,26.849-26.268,55.068C1061.674,974.916,1066.9,983.984,1078.511,987.185Z" transform="translate(14272.604 -16442.379)" fill="#f6bd96"/>
        <path id="Path_1921" data-name="Path 1921" d="M1041.99,949.873c-3.429-7.838-6.4-16.677-3.7-24.8,2.649-7.977,10.381-13.416,18.5-15.6s16.685-1.634,25.071-1.072c4.63.31,9.048-.171,13.262,1.794,0,0,5.569.729,6.966,2.407,1.88,2.257,4,.857,6.605,2.213,2.777,1.445,4,4.754,4.524,7.839.591,3.482.56,7.219-1.066,10.353-1.9,3.657-5.811,5.744-9.728,7.016l-2.634.856c-3.291,2.2-4.032,2.522-8.323,2.569-2.62.028-6.19-.8-8.541-1.107-3.353-.435-8.524-1.792-11.4.5-2.147,1.709-2.656,4.767-2.516,7.508s.763,5.5.253,8.2a10.56,10.56,0,0,0-3.182-1.891,3.582,3.582,0,0,0-3.5.6c-1.433,1.367-.871,3.847.375,5.386s6.814,4.813,4.508,7.539c-11.878,14.037-13.628,9.354-17.925,8.745-6.33-.9-4.172-7.313-4.8-11.039C1043.676,961.564,1044.542,955.708,1041.99,949.873Z" transform="translate(14276.088 -16442.055)" fill="#091a4c"/>
        <path id="Path_1922" data-name="Path 1922" d="M1130.982,990.021a4.759,4.759,0,0,0,5.673-.564" transform="translate(14238.029 -16475.164)" fill="none" stroke="#39395c" stroke-linecap="round" stroke-miterlimit="10" stroke-width="0.65"/>
        <path id="Path_1923" data-name="Path 1923" d="M1128.491,983.009c2.292-.995,5.751-.883,7.79.7" transform="translate(14239.04 -16472.285)" fill="none" stroke="#39395c" stroke-linecap="round" stroke-miterlimit="10" stroke-width="0.65"/>
        <path id="Path_1924" data-name="Path 1924" d="M1072.241,1000.074c1.246,1.539,5.458,5.336,3.25,8.141-7.757,9.853-9.088,7.255-15.375,8.142" transform="translate(14266.802 -16479.475)" fill="#091a4c"/>
        <path id="Path_1925" data-name="Path 1925" d="M1076.749,1012.765c-7.757,9.853-12.055,9.354-16.634,8.745" transform="translate(14266.802 -16484.627)" fill="#091a4c"/>
        <path id="Path_1926" data-name="Path 1926" d="M1144.218,995.111l1.451,7.272c.477,2.392-.759,4.64-2.479,4.509l-1.584-.121Z" transform="translate(14233.716 -16477.461)" fill="#f6bd96"/>
        <path id="Path_1547" data-name="Path 1547" d="M2533.045,822.023" transform="translate(13128.093 -16085.673)" fill="#17204c"/>
        <path id="Path_1927" data-name="Path 1927" d="M1074.668,1089.726c-27.393-16.683-59.725,12.464-46.131,41.514,15.762,33.684,30.435,66.042,37.116,64.523.381.386,38.654-27.575,38.266-27.939-5.174-6.733-14.985-18.3-28.616-77.705C1075.248,1089.876,1074.881,1089.855,1074.668,1089.726Z" transform="translate(14280.925 -16513.895)" fill="#ffd91f"/>
        <path id="Path_1928" data-name="Path 1928" d="M6602.864,2832.361s-.841,4.154-2.771,11.2a34.509,34.509,0,0,0-.726,13.676s64.5,3.466,67.108,1.148,1.271-10.753.61-11.5-8.845-3.255-13.042-6.194-18.536-14.054-23.38-13.6-7.081,4.507-16.278,4.971S6605.147,2830.334,6602.864,2832.361Z" transform="translate(8885.965 -17920.219)" fill="#52bbe1"/>
        <path id="Path_1929" data-name="Path 1929" d="M6666.476,2880.015c-2.61,2.317-67.108-1.149-67.108-1.149a34.682,34.682,0,0,1-.065-9.749c33.669,7.076,67.784-.6,67.784-.6C6667.747,2869.262,6669.086,2877.7,6666.476,2880.015Z" transform="translate(8885.966 -17941.85)" fill="#fff"/>
        <path id="Path_1930" data-name="Path 1930" d="M6599.617,2869.116c22.993,5.208,48.482,4.106,67.782-.6-35.107,6.014-63.416,1.354-61.456,1.579Z" transform="translate(8885.649 -17941.85)" fill="#9cb9bd"/>
        <rect id="Rectangle_173" data-name="Rectangle 173" width="33.478" height="7.795" transform="translate(15482.757 -15103.895) rotate(-11)" fill="#021753"/>
        <path id="Path_1902" data-name="Path 1902" d="M1206.645,1576.247h-.3a3.212,3.212,0,0,1-3.111-3.372l4.718-216.546,13.9-1.716L1210,1572.891A3.451,3.451,0,0,1,1206.645,1576.247Z" transform="translate(14244.436 -16632.551)" fill="#9ee493"/>
        <path id="Path_2000" data-name="Path 2000" d="M1206.645,1576.247h-.3a3.212,3.212,0,0,1-3.111-3.372l4.718-216.546,13.9-1.716L1210,1572.891A3.451,3.451,0,0,1,1206.645,1576.247Z" transform="translate(14475.221 -16632.551)" fill="#9ee493"/>
        <path id="Rectangle_172" data-name="Rectangle 172" d="M12.337,0H276.419a12.338,12.338,0,0,1,12.338,12.338v0a12.338,12.338,0,0,1-12.338,12.338H12.337A12.337,12.337,0,0,1,0,12.339v0A12.337,12.337,0,0,1,12.337,0Z" transform="translate(15433.031 -15287.447)" fill="#9ee493"/>
        <path id="Path_2001" data-name="Path 2001" d="M1218.446,1576.248h.3a3.213,3.213,0,0,0,3.111-3.372l-4.718-216.547-13.9-1.717,11.852,218.279A3.451,3.451,0,0,0,1218.446,1576.248Z" transform="translate(14483.21 -16633.711)" fill="#9ee493"/>
        <path id="Path_1906" data-name="Path 1906" d="M890.917,1702.1v.632c0,1.009-.326,1.84-.723,1.84H254.033c-.4,0-.722-.831-.722-1.84v-.632c0-1.008.326-1.838.722-1.838H890.194C890.59,1700.265,890.917,1701.1,890.917,1702.1Z" transform="translate(14946.689 -16760.879)" fill="#2e3552"/>
        <line id="Line_152" data-name="Line 152" x1="5" y1="50" transform="translate(15337.5 -15534.5)" fill="none" stroke="#707070" stroke-linecap="round" stroke-width="3"/>
        <path id="Path_2358" data-name="Path 2358" d="M0,0S12.855,19.929,32.375,20.643" transform="translate(15342.5 -15478.5)" fill="none" stroke="#707070" stroke-linecap="round" stroke-width="1"/>
        <ellipse id="Ellipse_192" data-name="Ellipse 192" cx="7.5" cy="10" rx="7.5" ry="10" transform="translate(15335 -15490)" fill="#00385d"/>
        <g id="Rectangle_318" data-name="Rectangle 318" transform="translate(15373.212 -15458.897) rotate(-11)" fill="#fff" stroke="#707070" stroke-width="1">
          <rect width="3" height="2" rx="1" stroke="none"/>
          <rect x="0.5" y="0.5" width="2" height="1" rx="0.5" fill="none"/>
        </g>
        <g id="Group_617" data-name="Group 617" transform="translate(15590.62 -15394.066)">
          <g id="Group_615" data-name="Group 615">
            <path id="Path_1152" data-name="Path 1152" d="M5967.821,904.922c8.966,5.1,17.938,10.5,25.365,17.744,3.683,3.593,7.042,8.137,10.954,11.848,1.419.578,2.827,1.19,4.179,1.894a50.4,50.4,0,0,1-4.411-7.963c-2.856-6.168-5.909-12.2-9.067-18.22a131.585,131.585,0,0,1-8.163-17.764c-2.29-6.586-4-13.366-7.193-19.6-.306-.595.522-1.358.985-.764l.1.128h0l0,0c4.292,5.51,8.116,11.35,12.493,16.8,4,4.981,8.094,9.938,11.381,15.434a67.479,67.479,0,0,1,7.131,18.069c.667,2.6,1.364,5.229,1.9,7.873-.051-2.213.11-4.447.125-6.656.043-6.136-.221-12.473.992-18.523,1.161-5.785,3.818-11.106,6.008-16.54,2.287-5.674,3.275-11.741,5.581-17.393a.635.635,0,0,1,1.213,0c2.045,5.66,1.708,11.657,1.13,17.552-.62,6.313-1.1,12.627-2.248,18.873-1.11,6.067-2.671,12.039-4.188,18.014-1.272,5.012-2.681,10.285-5.86,14.465-.9-.052-1.789-.112-2.685-.151-1.456-.064-2.922-.094-4.386-.16a31.021,31.021,0,0,1-5.6-4.269c-1.545-.618-3.106-1.2-4.618-1.83a135.569,135.569,0,0,1-12.8-5.9,35.09,35.09,0,0,1-11.031-8.9c-3.207-4.07-5.452-8.793-8.142-13.2A.634.634,0,0,1,5967.821,904.922Zm42.806,34.36a22.534,22.534,0,0,0-2.988-1.839A23.355,23.355,0,0,0,6010.627,939.282Z" transform="translate(-5966.873 -865.349)" fill="#39b04a"/>
            <path id="Path_1153" data-name="Path 1153" d="M5912.925,960.846c-.144.759-.3,1.515-.492,2.262q-.744.06-1.491.078a14.466,14.466,0,0,1,.728-2.458c.24-1.252.454-2.511.812-3.74.691-2.372,1.638-4.693,2.43-7.035a74.633,74.633,0,0,1,6.182-14.612c5.627-9.41,13.969-16.806,19.9-26.01a.637.637,0,0,1,1.15.148c.906,4.129-.883,8.3-2.673,11.946-2.407,4.907-5.2,9.706-8,14.4a84.884,84.884,0,0,1-9.947,13.66C5918.5,952.82,5914.689,956.5,5912.925,960.846Z" transform="translate(-5857.905 -888.254)" fill="#39b04a"/>
            <path id="Path_1154" data-name="Path 1154" d="M5880.765,1006.548c-.489.094-.981.175-1.474.245,3.68-6.437,8.746-12.581,15.027-16.559a21.691,21.691,0,0,1,9.789-3.335c2.78-.267,5.571-.238,8.255-1.128a38.706,38.706,0,0,0,6.872-3.51.634.634,0,0,1,.863.859c-3.678,5.919-11.215,7.222-17.046,10.129a97.824,97.824,0,0,0-12.367,7.322c-2.028,1.412-4.175,2.716-6.132,4.228a8.826,8.826,0,0,1-3.66,1.725Z" transform="translate(-5823.044 -932.125)" fill="#39b04a"/>
            <path id="Path_1155" data-name="Path 1155" d="M6014.35,917.049c.236.578.438,1.166.625,1.758,1.739,4.289,5.2,8.531,7.824,12.063,2.949,3.964,6.235,7.64,9.348,11.472a48.962,48.962,0,0,1,7.084,11.009,62.037,62.037,0,0,1,2.164,6.157c.612,1.918,1.588,3.754,2.124,5.686l.109.063a.565.565,0,0,1,.082.936.628.628,0,0,1-1.228.061c-.017-.08-.041-.16-.059-.241a51.246,51.246,0,0,1-11.007-7.926,45.538,45.538,0,0,1-8.1-11.728,105.243,105.243,0,0,1-6.126-13.2c-1.566-4.494-1.885-9.364-3.352-13.862a17.247,17.247,0,0,1-.66-1.82C6012.978,916.8,6014.08,916.386,6014.35,917.049Z" transform="translate(-6000.35 -892.86)" fill="#39b04a"/>
            <path id="Path_1156" data-name="Path 1156" d="M6029.371,954.943c3.373,4.453,5.984,9.457,8.734,14.307,2.194,3.867,3.661,8.893,7.52,11.47.669.448.042,1.539-.633,1.087-3.684-2.461-6.46-7.178-8.442-10.949-2.8-5.33-4.625-10.475-8.263-15.278C6027.8,954.934,6028.888,954.3,6029.371,954.943Z" transform="translate(-6008.349 -915.629)" fill="#0a8e6d"/>
            <path id="Path_1157" data-name="Path 1157" d="M5918.36,962.6c3.495-5.937,8.61-10.253,13.146-15.327a68.133,68.133,0,0,0,6.883-9.165c1.87-2.974,4.552-6.119,5.829-9.386a.621.621,0,0,1,.059-.094c.017-.044.036-.088.052-.132.283-.749,1.5-.427,1.213.332a75.389,75.389,0,0,1-10.308,19.22c-4.511,5.864-10.751,10.034-15.884,15.312A.632.632,0,0,1,5918.36,962.6Z" transform="translate(-5864.042 -899.673)" fill="#0a8e6d"/>
            <path id="Path_1158" data-name="Path 1158" d="M5975.716,928.944c.843-4.112,1.673-8.226,2.555-12.33.827-3.852,1.508-7.743,2.2-11.621a9.935,9.935,0,0,1,.184-1.167q.226-.77.472-1.535.491-1.529,1.06-3.032c.07-.187.166-.4.359-.451a.441.441,0,0,1,.438.171,2.275,2.275,0,0,1,.3,1.025,7.142,7.142,0,0,1,.088,1.291c-.011.833-.124,1.658-.2,2.487a105.554,105.554,0,0,1-1.482,12.328c-1,4.643-1.765,7.53-2.789,12.169-.737,3.34-2.935,10.374-4.587,13.409-.312.572-1.2,2.084-1.23,1.487C5972.91,939.75,5975.032,932.273,5975.716,928.944Z" transform="translate(-5923.753 -882.113)" fill="#0a8e6d"/>
            <path id="Path_1159" data-name="Path 1159" d="M5957.78,865.8c5.366,7.972,8.438,17.735,10.47,27.173-.262-5.027-.366-10.059-.525-15.094-.107-3.4-.174-6.829-.549-10.215a71.344,71.344,0,0,1-.861-9.944.629.629,0,0,1,1.258,0c.378,6.192,2.935,11.815,5.019,17.571,1.985,5.489,2.8,11.079,3.588,16.84a141.008,141.008,0,0,1,1.557,18.687c.016,5.959-.383,11.865.084,17.793.435-4.893,3-10.364,4.409-13.76a73.144,73.144,0,0,0,4.338-12.611c1.466-6.7,2.649-13.5,5.974-19.586a.634.634,0,0,1,1.086,0c2.052,3.623,1.254,8.08.473,11.963-1.161,5.774-1.934,11.417-2.721,17.257a67.239,67.239,0,0,1-3.979,16.318,30.184,30.184,0,0,1-1.612,3.462,28.005,28.005,0,0,1-4.822.415c-1.687-.007-3.368-.144-5.051-.231a42.528,42.528,0,0,1-2.183-4.577c.035.964.03,1.932-.031,2.9a.609.609,0,0,1-.265.475,9.288,9.288,0,0,0,1.209,1.141c-.68-.025-1.36-.047-2.043-.07a27.448,27.448,0,0,1-3.305-4.626,62.271,62.271,0,0,1-6.378-15.611c-4.17-14.739-5.07-30.157-6.31-45.349C5956.553,865.455,5957.46,865.328,5957.78,865.8Z" transform="translate(-5928.728 -857.114)" fill="#39b04a"/>
          </g>
          <g id="Group_616" data-name="Group 616" transform="translate(29.229 70.764)">
            <path id="Path_1160" data-name="Path 1160" d="M5958.454,1070.379h27.876c1.658-12.163,3.369-24.32,5.223-36.456H5953.23C5955.085,1046.058,5956.8,1058.215,5958.454,1070.379Z" transform="translate(-5953.23 -1033.923)" fill="#58595b"/>
          </g>
          <path id="Path_1161" data-name="Path 1161" d="M5953.232,1033.923h38.322l-1.722,11.231h-34.879Z" transform="translate(-5924.004 -963.159)" fill="#414042"/>
          <path id="Path_1162" data-name="Path 1162" d="M5948.6,1033.923h42.028l-1.338,8.728h-39.351Z" transform="translate(-5921.229 -963.159)" fill="#6d6e71"/>
          <line id="Line_90" data-name="Line 90" x2="0.729" y2="5.32" transform="translate(29.507 72.094)" fill="none" stroke="#fff" stroke-linecap="round" stroke-miterlimit="10" stroke-width="1.834" opacity="0.47"/>
          <line id="Line_91" data-name="Line 91" x2="2.237" y2="19.068" transform="translate(33.431 83.486)" fill="none" stroke="#fff" stroke-linecap="round" stroke-miterlimit="10" stroke-width="1.834" opacity="0.47"/>
        </g>
      </g>
    </g>
  </g>
</svg>
